G04 DipTrace 3.3.0.0*
G04 typhoon.GBS*
%MOIN*%
G04 #@! TF.FileFunction,Soldermask,Bot*
G04 #@! TF.Part,Single*
%AMOUTLINE0*
4,1,4,
0.026163,-0.026163,
0.026205,0.026121,
-0.026121,0.026205,
-0.026163,-0.026163,
0.026163,-0.026163,
0*%
%AMOUTLINE1*
4,1,8,
-0.034184,0.014159,
-0.014159,0.034184,
0.014159,0.034184,
0.034184,0.014159,
0.034184,-0.014159,
0.014159,-0.034184,
-0.014159,-0.034184,
-0.034184,-0.014159,
-0.034184,0.014159,
0*%
%AMOUTLINE3*
4,1,8,
0.010355,-0.025,
0.025,-0.010355,
0.025,0.010355,
0.010355,0.025,
-0.010355,0.025,
-0.025,0.010355,
-0.025,-0.010355,
-0.010355,-0.025,
0.010355,-0.025,
0*%
%ADD35C,0.074*%
%ADD58O,0.054X0.074*%
%ADD59O,0.07X0.1*%
%ADD78O,0.063X0.098*%
%ADD104C,0.055559*%
%ADD106C,0.063433*%
%ADD112C,0.06*%
%ADD114C,0.082*%
%ADD116O,0.083X0.093*%
%ADD118C,0.073*%
%ADD120O,0.093X0.083*%
%ADD138OUTLINE0*%
%ADD139OUTLINE1*%
%ADD141OUTLINE3*%
%FSLAX26Y26*%
G04*
G70*
G90*
G75*
G01*
G04 BotMask*
%LPD*%
D120*
X2979103Y982000D3*
Y1307000D3*
D118*
Y882000D3*
D120*
X2179103Y982000D3*
Y1307000D3*
D118*
Y882000D3*
D116*
X1567103Y1544000D3*
X1892103D3*
D118*
X1467103D3*
D120*
X1379103Y781000D3*
Y456000D3*
D118*
Y881000D3*
D120*
X3379103Y982000D3*
Y1307000D3*
D118*
Y882000D3*
D120*
Y781000D3*
Y456000D3*
D118*
Y881000D3*
D120*
X979103Y781000D3*
Y456000D3*
D118*
Y881000D3*
D116*
X2667103Y1544000D3*
X2992103D3*
D118*
X2567103D3*
D120*
X579103Y982000D3*
Y1307000D3*
D118*
Y882000D3*
D116*
X2391103Y1544000D3*
X2066103D3*
D118*
X2491103D3*
D120*
X1779103Y781000D3*
Y456000D3*
D118*
Y881000D3*
D120*
X2579103Y982000D3*
Y1307000D3*
D118*
Y882000D3*
D120*
X2979103Y781000D3*
Y456000D3*
D118*
Y881000D3*
D120*
X579103Y781000D3*
Y456000D3*
D118*
Y881000D3*
D120*
X1779103Y982000D3*
Y1307000D3*
D118*
Y882000D3*
D120*
X1379103Y982000D3*
Y1307000D3*
D118*
Y882000D3*
D120*
X979103Y982000D3*
Y1307000D3*
D118*
Y882000D3*
D116*
X1291103Y1544000D3*
X966103D3*
D118*
X1391103D3*
D120*
X2179103Y781000D3*
Y456000D3*
D118*
Y881000D3*
D138*
X584065Y4654962D3*
D35*
X684065D3*
X784065D3*
X884065D3*
D112*
X3429103Y2694000D3*
X3329103D3*
X3429103Y2494000D3*
X3329103D3*
X3429103Y2294000D3*
X3329103D3*
X3429103Y2094000D3*
X3329103D3*
X2266603Y4619000D3*
X2366603D3*
X2041603D3*
X2141603D3*
X1816603D3*
X1916603D3*
X1591603D3*
X1691603D3*
X2266603Y4444000D3*
X2366603D3*
X2041603D3*
X2141603D3*
X1816603D3*
X1916603D3*
X1591603D3*
X1691603D3*
X629103Y2694000D3*
X529103D3*
X629103Y2494000D3*
X529103D3*
X629103Y2294000D3*
X529103D3*
X629103Y2094000D3*
X529103D3*
D139*
X971116Y4144209D3*
Y4044209D3*
X871116Y4144209D3*
Y4044209D3*
X771116Y4144209D3*
Y4044209D3*
X671116Y4144209D3*
Y4044209D3*
X571116Y4144209D3*
Y4044209D3*
D141*
X1040548Y4649172D3*
X1090548D3*
X1040548Y4599172D3*
X1090548D3*
X1040548Y4549172D3*
X1090548D3*
X1040548Y4499172D3*
X1090548D3*
X1040548Y4449172D3*
X1090548D3*
D114*
X3290103Y1922000D3*
Y1666000D3*
X3468103Y1922000D3*
Y1666000D3*
D106*
X729103Y4295575D3*
Y4492425D3*
X827528D3*
Y4295575D3*
X630678D3*
Y4492425D3*
D104*
X925953Y4394000D3*
X532252D3*
D114*
X1240103Y4647000D3*
Y4391000D3*
X1418103Y4647000D3*
Y4391000D3*
X2718103D3*
Y4647000D3*
X2540103Y4391000D3*
Y4647000D3*
X490103Y1922000D3*
Y1666000D3*
X668103Y1922000D3*
Y1666000D3*
X2490103Y772000D3*
Y516000D3*
X2668103Y772000D3*
Y516000D3*
D78*
X2254103Y2631598D3*
X2354103D3*
X2254103Y4206402D3*
X2154103Y2631598D3*
X2054103Y4206402D3*
Y2631598D3*
D58*
X1605678Y1918409D3*
X1704103D3*
X1802528D3*
D59*
X1519063Y2194000D3*
X1889142D3*
D58*
X3130678Y3118409D3*
X3229103D3*
X3327528D3*
D59*
X3044063Y3394000D3*
X3414142D3*
D58*
X2705678Y1918409D3*
X2804103D3*
X2902528D3*
D59*
X2619063Y2194000D3*
X2989142D3*
D58*
X630678Y3118409D3*
X729103D3*
X827528D3*
D59*
X544063Y3394000D3*
X914142D3*
D58*
X2155678Y1918409D3*
X2254103D3*
X2352528D3*
D59*
X2069063Y2194000D3*
X2439142D3*
D58*
X3130678Y4118409D3*
X3229103D3*
X3327528D3*
D59*
X3044063Y4394000D3*
X3414142D3*
D78*
X2729103Y2631598D3*
X2829103D3*
X2729103Y4206402D3*
X2629103Y2631598D3*
X2529103Y4206402D3*
Y2631598D3*
X1779103D3*
X1879103D3*
X1779103Y4206402D3*
X1679103Y2631598D3*
X1579103Y4206402D3*
Y2631598D3*
X1329103D3*
X1429103D3*
X1329103Y4206402D3*
X1229103Y2631598D3*
X1129103Y4206402D3*
Y2631598D3*
D58*
X1055678Y1918409D3*
X1154103D3*
X1252528D3*
D59*
X969063Y2194000D3*
X1339142D3*
M02*
