G04 DipTrace 3.3.0.0*
G04 typhoon.GBO*
%MOIN*%
G04 #@! TF.FileFunction,Legend,Bot*
G04 #@! TF.Part,Single*
%ADD10C,0.009843*%
%ADD15C,0.008*%
%ADD18C,0.006*%
%ADD21C,0.005*%
%ADD25C,0.004*%
%ADD31C,0.005984*%
%ADD55O,0.039405X0.039508*%
%ADD57C,0.000013*%
%ADD134C,0.004632*%
%ADD135C,0.003*%
%FSLAX26Y26*%
G04*
G70*
G90*
G75*
G01*
G04 BotSilk*
%LPD*%
X2944068Y1118879D2*
D18*
X3014103D1*
X2979103Y1153826D2*
Y1083882D1*
X3029118Y943996D2*
X3154103D1*
X2929088D2*
X2804103D1*
X2929088Y1344005D2*
X2804103D1*
X3029118D2*
X3154103D1*
Y943996D1*
X2804103D2*
Y1344005D1*
X2929088Y943996D2*
D31*
Y931521D1*
X3029118D1*
Y943996D1*
X2144068Y1118879D2*
D18*
X2214103D1*
X2179103Y1153826D2*
Y1083882D1*
X2229118Y943996D2*
X2354103D1*
X2129088D2*
X2004103D1*
X2129088Y1344005D2*
X2004103D1*
X2229118D2*
X2354103D1*
Y943996D1*
X2004103D2*
Y1344005D1*
X2129088Y943996D2*
D31*
Y931521D1*
X2229118D1*
Y943996D1*
X1703982Y1579035D2*
D18*
Y1509000D1*
X1738929Y1544000D2*
X1668985D1*
X1529098Y1493985D2*
Y1369000D1*
Y1594015D2*
Y1719000D1*
X1929108Y1594015D2*
Y1719000D1*
Y1493985D2*
Y1369000D1*
X1529098D1*
Y1719000D2*
X1929108D1*
X1529098Y1594015D2*
D31*
X1516624D1*
Y1493985D1*
X1529098D1*
X1414138Y644121D2*
D18*
X1344103D1*
X1379103Y609174D2*
Y679118D1*
X1329088Y819004D2*
X1204103D1*
X1429118D2*
X1554103D1*
X1429118Y418995D2*
X1554103D1*
X1329088D2*
X1204103D1*
Y819004D1*
X1554103D2*
Y418995D1*
X1429118Y819004D2*
D31*
Y831479D1*
X1329088D1*
Y819004D1*
X3344068Y1118879D2*
D18*
X3414103D1*
X3379103Y1153826D2*
Y1083882D1*
X3429118Y943996D2*
X3554103D1*
X3329088D2*
X3204103D1*
X3329088Y1344005D2*
X3204103D1*
X3429118D2*
X3554103D1*
Y943996D1*
X3204103D2*
Y1344005D1*
X3329088Y943996D2*
D31*
Y931521D1*
X3429118D1*
Y943996D1*
X3414138Y644121D2*
D18*
X3344103D1*
X3379103Y609174D2*
Y679118D1*
X3329088Y819004D2*
X3204103D1*
X3429118D2*
X3554103D1*
X3429118Y418995D2*
X3554103D1*
X3329088D2*
X3204103D1*
Y819004D1*
X3554103D2*
Y418995D1*
X3429118Y819004D2*
D31*
Y831479D1*
X3329088D1*
Y819004D1*
X1014138Y644121D2*
D18*
X944103D1*
X979103Y609174D2*
Y679118D1*
X929088Y819004D2*
X804103D1*
X1029118D2*
X1154103D1*
X1029118Y418995D2*
X1154103D1*
X929088D2*
X804103D1*
Y819004D1*
X1154103D2*
Y418995D1*
X1029118Y819004D2*
D31*
Y831479D1*
X929088D1*
Y819004D1*
X2803982Y1579035D2*
D18*
Y1509000D1*
X2838929Y1544000D2*
X2768985D1*
X2629098Y1493985D2*
Y1369000D1*
Y1594015D2*
Y1719000D1*
X3029108Y1594015D2*
Y1719000D1*
Y1493985D2*
Y1369000D1*
X2629098D1*
Y1719000D2*
X3029108D1*
X2629098Y1594015D2*
D31*
X2616624D1*
Y1493985D1*
X2629098D1*
X544068Y1118879D2*
D18*
X614103D1*
X579103Y1153826D2*
Y1083882D1*
X629118Y943996D2*
X754103D1*
X529088D2*
X404103D1*
X529088Y1344005D2*
X404103D1*
X629118D2*
X754103D1*
Y943996D1*
X404103D2*
Y1344005D1*
X529088Y943996D2*
D31*
Y931521D1*
X629118D1*
Y943996D1*
X2254224Y1508965D2*
D18*
Y1579000D1*
X2219277Y1544000D2*
X2289220D1*
X2429107Y1594015D2*
Y1719000D1*
Y1493985D2*
Y1369000D1*
X2029098Y1493985D2*
Y1369000D1*
Y1594015D2*
Y1719000D1*
X2429107D1*
Y1369000D2*
X2029098D1*
X2429107Y1493985D2*
D31*
X2441581D1*
Y1594015D1*
X2429107D1*
X1814138Y644121D2*
D18*
X1744103D1*
X1779103Y609174D2*
Y679118D1*
X1729088Y819004D2*
X1604103D1*
X1829118D2*
X1954103D1*
X1829118Y418995D2*
X1954103D1*
X1729088D2*
X1604103D1*
Y819004D1*
X1954103D2*
Y418995D1*
X1829118Y819004D2*
D31*
Y831479D1*
X1729088D1*
Y819004D1*
X2544068Y1118879D2*
D18*
X2614103D1*
X2579103Y1153826D2*
Y1083882D1*
X2629118Y943996D2*
X2754103D1*
X2529088D2*
X2404103D1*
X2529088Y1344005D2*
X2404103D1*
X2629118D2*
X2754103D1*
Y943996D1*
X2404103D2*
Y1344005D1*
X2529088Y943996D2*
D31*
Y931521D1*
X2629118D1*
Y943996D1*
X3014138Y644121D2*
D18*
X2944103D1*
X2979103Y609174D2*
Y679118D1*
X2929088Y819004D2*
X2804103D1*
X3029118D2*
X3154103D1*
X3029118Y418995D2*
X3154103D1*
X2929088D2*
X2804103D1*
Y819004D1*
X3154103D2*
Y418995D1*
X3029118Y819004D2*
D31*
Y831479D1*
X2929088D1*
Y819004D1*
X614138Y644121D2*
D18*
X544103D1*
X579103Y609174D2*
Y679118D1*
X529088Y819004D2*
X404103D1*
X629118D2*
X754103D1*
X629118Y418995D2*
X754103D1*
X529088D2*
X404103D1*
Y819004D1*
X754103D2*
Y418995D1*
X629118Y819004D2*
D31*
Y831479D1*
X529088D1*
Y819004D1*
X1744068Y1118879D2*
D18*
X1814103D1*
X1779103Y1153826D2*
Y1083882D1*
X1829118Y943996D2*
X1954103D1*
X1729088D2*
X1604103D1*
X1729088Y1344005D2*
X1604103D1*
X1829118D2*
X1954103D1*
Y943996D1*
X1604103D2*
Y1344005D1*
X1729088Y943996D2*
D31*
Y931521D1*
X1829118D1*
Y943996D1*
X1344068Y1118879D2*
D18*
X1414103D1*
X1379103Y1153826D2*
Y1083882D1*
X1429118Y943996D2*
X1554103D1*
X1329088D2*
X1204103D1*
X1329088Y1344005D2*
X1204103D1*
X1429118D2*
X1554103D1*
Y943996D1*
X1204103D2*
Y1344005D1*
X1329088Y943996D2*
D31*
Y931521D1*
X1429118D1*
Y943996D1*
X944068Y1118879D2*
D18*
X1014103D1*
X979103Y1153826D2*
Y1083882D1*
X1029118Y943996D2*
X1154103D1*
X929088D2*
X804103D1*
X929088Y1344005D2*
X804103D1*
X1029118D2*
X1154103D1*
Y943996D1*
X804103D2*
Y1344005D1*
X929088Y943996D2*
D31*
Y931521D1*
X1029118D1*
Y943996D1*
X1154224Y1508965D2*
D18*
Y1579000D1*
X1119277Y1544000D2*
X1189220D1*
X1329107Y1594015D2*
Y1719000D1*
Y1493985D2*
Y1369000D1*
X929098Y1493985D2*
Y1369000D1*
Y1594015D2*
Y1719000D1*
X1329107D1*
Y1369000D2*
X929098D1*
X1329107Y1493985D2*
D31*
X1341581D1*
Y1594015D1*
X1329107D1*
X2214138Y644121D2*
D18*
X2144103D1*
X2179103Y609174D2*
Y679118D1*
X2129088Y819004D2*
X2004103D1*
X2229118D2*
X2354103D1*
X2229118Y418995D2*
X2354103D1*
X2129088D2*
X2004103D1*
Y819004D1*
X2354103D2*
Y418995D1*
X2229118Y819004D2*
D31*
Y831479D1*
X2129088D1*
Y819004D1*
X859065Y4604962D2*
D15*
X909065D1*
X934065Y4629962D1*
Y4679962D2*
X909065Y4704962D1*
X734065Y4629962D2*
X759065Y4604962D1*
X809065D1*
X834065Y4629962D1*
Y4679962D2*
X809065Y4704962D1*
X759065D1*
X734065Y4679962D1*
X859065Y4604962D2*
X834065Y4629962D1*
Y4679962D2*
X859065Y4704962D1*
X909065D2*
X859065D1*
X559065Y4604962D2*
X609065D1*
X634065Y4629962D1*
Y4679962D2*
X609065Y4704962D1*
X634065Y4629962D2*
X659065Y4604962D1*
X709065D1*
X734065Y4629962D1*
Y4679962D2*
X709065Y4704962D1*
X659065D1*
X634065Y4679962D1*
X534065Y4629962D2*
Y4679962D1*
X559065Y4604962D2*
X534065Y4629962D1*
Y4679962D2*
X559065Y4704962D1*
X609065D2*
X559065D1*
X934065Y4629962D2*
Y4679962D1*
X3393756Y2694000D2*
D21*
G02X3393756Y2694000I35348J0D01*
G01*
X3505502Y2694104D2*
X3476509D1*
X3491513Y2678101D2*
Y2709103D1*
X3467690Y2733375D2*
X3290515D1*
Y2654625D1*
X3467690D1*
Y2733375D1*
X3393756Y2494000D2*
G02X3393756Y2494000I35348J0D01*
G01*
X3505502Y2494104D2*
X3476509D1*
X3491513Y2478101D2*
Y2509103D1*
X3467690Y2533375D2*
X3290515D1*
Y2454625D1*
X3467690D1*
Y2533375D1*
X3393756Y2294000D2*
G02X3393756Y2294000I35348J0D01*
G01*
X3505502Y2294104D2*
X3476509D1*
X3491513Y2278101D2*
Y2309103D1*
X3467690Y2333375D2*
X3290515D1*
Y2254625D1*
X3467690D1*
Y2333375D1*
X3393756Y2094000D2*
G02X3393756Y2094000I35348J0D01*
G01*
X3505502Y2094104D2*
X3476509D1*
X3491513Y2078101D2*
Y2109103D1*
X3467690Y2133375D2*
X3290515D1*
Y2054625D1*
X3467690D1*
Y2133375D1*
X2231253Y4619000D2*
G02X2231253Y4619000I35348J0D01*
G01*
X2190203Y4618896D2*
X2219197D1*
X2204192Y4634899D2*
Y4603897D1*
X2228016Y4579625D2*
X2405190D1*
Y4658375D1*
X2228016D1*
Y4579625D1*
X2006253Y4619000D2*
G02X2006253Y4619000I35348J0D01*
G01*
X1965203Y4618896D2*
X1994197D1*
X1979192Y4634899D2*
Y4603897D1*
X2003016Y4579625D2*
X2180190D1*
Y4658375D1*
X2003016D1*
Y4579625D1*
X1781253Y4619000D2*
G02X1781253Y4619000I35348J0D01*
G01*
X1740203Y4618896D2*
X1769197D1*
X1754192Y4634899D2*
Y4603897D1*
X1778016Y4579625D2*
X1955190D1*
Y4658375D1*
X1778016D1*
Y4579625D1*
X1556253Y4619000D2*
G02X1556253Y4619000I35348J0D01*
G01*
X1515203Y4618896D2*
X1544197D1*
X1529192Y4634899D2*
Y4603897D1*
X1553016Y4579625D2*
X1730190D1*
Y4658375D1*
X1553016D1*
Y4579625D1*
X2231253Y4444000D2*
G02X2231253Y4444000I35348J0D01*
G01*
X2190203Y4443896D2*
X2219197D1*
X2204192Y4459899D2*
Y4428897D1*
X2228016Y4404625D2*
X2405190D1*
Y4483375D1*
X2228016D1*
Y4404625D1*
X2006253Y4444000D2*
G02X2006253Y4444000I35348J0D01*
G01*
X1965203Y4443896D2*
X1994197D1*
X1979192Y4459899D2*
Y4428897D1*
X2003016Y4404625D2*
X2180190D1*
Y4483375D1*
X2003016D1*
Y4404625D1*
X1781253Y4444000D2*
G02X1781253Y4444000I35348J0D01*
G01*
X1740203Y4443896D2*
X1769197D1*
X1754192Y4459899D2*
Y4428897D1*
X1778016Y4404625D2*
X1955190D1*
Y4483375D1*
X1778016D1*
Y4404625D1*
X1556253Y4444000D2*
G02X1556253Y4444000I35348J0D01*
G01*
X1515203Y4443896D2*
X1544197D1*
X1529192Y4459899D2*
Y4428897D1*
X1553016Y4404625D2*
X1730190D1*
Y4483375D1*
X1553016D1*
Y4404625D1*
X593756Y2694000D2*
G02X593756Y2694000I35348J0D01*
G01*
X705502Y2694104D2*
X676509D1*
X691513Y2678101D2*
Y2709103D1*
X667690Y2733375D2*
X490515D1*
Y2654625D1*
X667690D1*
Y2733375D1*
X593756Y2494000D2*
G02X593756Y2494000I35348J0D01*
G01*
X705502Y2494104D2*
X676509D1*
X691513Y2478101D2*
Y2509103D1*
X667690Y2533375D2*
X490515D1*
Y2454625D1*
X667690D1*
Y2533375D1*
X593756Y2294000D2*
G02X593756Y2294000I35348J0D01*
G01*
X705502Y2294104D2*
X676509D1*
X691513Y2278101D2*
Y2309103D1*
X667690Y2333375D2*
X490515D1*
Y2254625D1*
X667690D1*
Y2333375D1*
X593756Y2094000D2*
G02X593756Y2094000I35348J0D01*
G01*
X705502Y2094104D2*
X676509D1*
X691513Y2078101D2*
Y2109103D1*
X667690Y2133375D2*
X490515D1*
Y2054625D1*
X667690D1*
Y2133375D1*
X990555Y4649178D2*
D18*
G02X990555Y4649178I49998J0D01*
G01*
Y4599161D2*
G02X990555Y4599161I49998J0D01*
G01*
Y4549176D2*
G02X990555Y4549176I49998J0D01*
G01*
Y4499158D2*
G02X990555Y4499158I49998J0D01*
G01*
Y4449173D2*
G02X990555Y4449173I49998J0D01*
G01*
X1040553Y4649178D2*
G02X1040553Y4649178I49998J0D01*
G01*
Y4599161D2*
G02X1040553Y4599161I49998J0D01*
G01*
Y4549176D2*
G02X1040553Y4549176I49998J0D01*
G01*
Y4499158D2*
G02X1040553Y4499158I49998J0D01*
G01*
Y4449173D2*
G02X1040553Y4449173I49998J0D01*
G01*
X3309109Y1794000D2*
D15*
G02X3309109Y1794000I69993J0D01*
G01*
X3259114Y1709001D2*
Y1878999D1*
X3499091D2*
Y1709001D1*
X3339803Y1674016D2*
X3419099D1*
X3338632Y1913984D2*
X3419099D1*
X906263Y4541628D2*
D21*
X866923D1*
X551942D1*
X906263Y4246372D2*
X866923D1*
X551942D1*
X906263D2*
Y4305403D1*
Y4482597D1*
Y4541628D1*
X551942D2*
Y4246372D1*
X866923Y4541628D2*
X906263Y4482597D1*
Y4305403D2*
X866923Y4246372D1*
X601156Y4394000D2*
G02X601156Y4394000I127946J0D01*
G01*
X1259109Y4519000D2*
D15*
G02X1259109Y4519000I69993J0D01*
G01*
X1209114Y4434001D2*
Y4603999D1*
X1449091D2*
Y4434001D1*
X1289803Y4399016D2*
X1369099D1*
X1288632Y4638984D2*
X1369099D1*
X2559109Y4519000D2*
G02X2559109Y4519000I69993J0D01*
G01*
X2749091Y4603999D2*
Y4434001D1*
X2509114D2*
Y4603999D1*
X2668403Y4638984D2*
X2589107D1*
X2669574Y4399016D2*
X2589107D1*
X509109Y1794000D2*
G02X509109Y1794000I69993J0D01*
G01*
X459114Y1709001D2*
Y1878999D1*
X699091D2*
Y1709001D1*
X539803Y1674016D2*
X619099D1*
X538632Y1913984D2*
X619099D1*
X2509109Y644000D2*
G02X2509109Y644000I69993J0D01*
G01*
X2459114Y559001D2*
Y728999D1*
X2699091D2*
Y559001D1*
X2539803Y524016D2*
X2619099D1*
X2538632Y763984D2*
X2619099D1*
X2381283Y2529191D2*
D10*
X2026922D1*
X2381283D2*
Y4308809D1*
X2026922Y2529191D2*
Y4308809D1*
X2381283D2*
X2026922D1*
X2254122Y4168931D2*
X2154083D1*
X2254122D2*
Y2669069D1*
X2154083D2*
X2254122D1*
X2154083D2*
Y4168931D1*
D55*
X2283800Y2651273D3*
X1604117Y2194010D2*
D57*
G02X1604117Y2194010I99986J0D01*
G01*
X1873181Y2408961D2*
D21*
X1535024D1*
Y2023532D1*
X1873181D1*
Y2408961D1*
X1660799Y2169400D2*
D15*
G02X1747406Y2169400I43304J24588D01*
G01*
X1660799D2*
X1747406D1*
X1607637D2*
X1799556D1*
X3129117Y3394010D2*
D57*
G02X3129117Y3394010I99986J0D01*
G01*
X3398181Y3608961D2*
D21*
X3060024D1*
Y3223532D1*
X3398181D1*
Y3608961D1*
X3185799Y3369400D2*
D15*
G02X3272406Y3369400I43304J24588D01*
G01*
X3185799D2*
X3272406D1*
X3132637D2*
X3324556D1*
X2704117Y2194010D2*
D57*
G02X2704117Y2194010I99986J0D01*
G01*
X2973181Y2408961D2*
D21*
X2635024D1*
Y2023532D1*
X2973181D1*
Y2408961D1*
X2760799Y2169400D2*
D15*
G02X2847406Y2169400I43304J24588D01*
G01*
X2760799D2*
X2847406D1*
X2707637D2*
X2899556D1*
X629117Y3394010D2*
D57*
G02X629117Y3394010I99986J0D01*
G01*
X898181Y3608961D2*
D21*
X560024D1*
Y3223532D1*
X898181D1*
Y3608961D1*
X685799Y3369400D2*
D15*
G02X772406Y3369400I43304J24588D01*
G01*
X685799D2*
X772406D1*
X632637D2*
X824556D1*
X2154117Y2194010D2*
D57*
G02X2154117Y2194010I99986J0D01*
G01*
X2423181Y2408961D2*
D21*
X2085024D1*
Y2023532D1*
X2423181D1*
Y2408961D1*
X2210799Y2169400D2*
D15*
G02X2297406Y2169400I43304J24588D01*
G01*
X2210799D2*
X2297406D1*
X2157637D2*
X2349556D1*
X3129117Y4394010D2*
D57*
G02X3129117Y4394010I99986J0D01*
G01*
X3398181Y4608961D2*
D21*
X3060024D1*
Y4223532D1*
X3398181D1*
Y4608961D1*
X3185799Y4369400D2*
D15*
G02X3272406Y4369400I43304J24588D01*
G01*
X3185799D2*
X3272406D1*
X3132637D2*
X3324556D1*
X2856283Y2529191D2*
D10*
X2501922D1*
X2856283D2*
Y4308809D1*
X2501922Y2529191D2*
Y4308809D1*
X2856283D2*
X2501922D1*
X2729122Y4168931D2*
X2629083D1*
X2729122D2*
Y2669069D1*
X2629083D2*
X2729122D1*
X2629083D2*
Y4168931D1*
D55*
X2758800Y2651273D3*
X1906283Y2529191D2*
D10*
X1551922D1*
X1906283D2*
Y4308809D1*
X1551922Y2529191D2*
Y4308809D1*
X1906283D2*
X1551922D1*
X1779122Y4168931D2*
X1679083D1*
X1779122D2*
Y2669069D1*
X1679083D2*
X1779122D1*
X1679083D2*
Y4168931D1*
D55*
X1808800Y2651273D3*
X1456283Y2529191D2*
D10*
X1101922D1*
X1456283D2*
Y4308809D1*
X1101922Y2529191D2*
Y4308809D1*
X1456283D2*
X1101922D1*
X1329122Y4168931D2*
X1229083D1*
X1329122D2*
Y2669069D1*
X1229083D2*
X1329122D1*
X1229083D2*
Y4168931D1*
D55*
X1358800Y2651273D3*
X1054117Y2194010D2*
D57*
G02X1054117Y2194010I99986J0D01*
G01*
X1323181Y2408961D2*
D21*
X985024D1*
Y2023532D1*
X1323181D1*
Y2408961D1*
X1110799Y2169400D2*
D15*
G02X1197406Y2169400I43304J24588D01*
G01*
X1110799D2*
X1197406D1*
X1057637D2*
X1249556D1*
X3035666Y1388434D2*
D134*
Y1365486D1*
X3037092Y1361175D1*
X3038551Y1359749D1*
X3041403Y1358290D1*
X3044288D1*
X3047140Y1359749D1*
X3048566Y1361175D1*
X3050025Y1365486D1*
Y1368338D1*
X3026403Y1353316D2*
X2999144D1*
X2966899Y1358290D2*
X2978406Y1388434D1*
X2989880Y1358290D1*
X2985569Y1368338D2*
X2971210D1*
X2957636Y1388434D2*
Y1366912D1*
X2956210Y1362601D1*
X2953325Y1359749D1*
X2949014Y1358290D1*
X2946162D1*
X2941851Y1359749D1*
X2938966Y1362601D1*
X2937540Y1366912D1*
Y1388434D1*
X2928276D2*
X2908180Y1358290D1*
Y1388434D2*
X2928276Y1358290D1*
X2248174Y1388434D2*
Y1365486D1*
X2249600Y1361175D1*
X2251059Y1359749D1*
X2253911Y1358290D1*
X2256796D1*
X2259648Y1359749D1*
X2261074Y1361175D1*
X2262533Y1365486D1*
Y1368338D1*
X2238910Y1353316D2*
X2211652D1*
X2202388Y1388434D2*
Y1358290D1*
X2192340D1*
X2188029Y1359749D1*
X2185144Y1362601D1*
X2183718Y1365486D1*
X2182292Y1369764D1*
Y1376960D1*
X2183718Y1381271D1*
X2185144Y1384123D1*
X2188029Y1387008D1*
X2192340Y1388434D1*
X2202388D1*
X2154392D2*
X2173028D1*
Y1358290D1*
X2154392D1*
X2173028Y1374075D2*
X2161554D1*
X2125032Y1388434D2*
Y1358290D1*
X2145128Y1388434D1*
Y1358290D1*
X2095672Y1384123D2*
X2098524Y1387008D1*
X2102835Y1388434D1*
X2108572D1*
X2112883Y1387008D1*
X2115768Y1384123D1*
Y1381271D1*
X2114309Y1378386D1*
X2112883Y1376960D1*
X2110031Y1375534D1*
X2101409Y1372649D1*
X2098524Y1371223D1*
X2097098Y1369764D1*
X2095672Y1366912D1*
Y1362601D1*
X2098524Y1359749D1*
X2102835Y1358290D1*
X2108572D1*
X2112883Y1359749D1*
X2115768Y1362601D1*
X1751191Y1762934D2*
Y1739986D1*
X1752617Y1735675D1*
X1754076Y1734249D1*
X1756928Y1732790D1*
X1759813D1*
X1762665Y1734249D1*
X1764090Y1735675D1*
X1765550Y1739986D1*
Y1742838D1*
X1741927Y1727816D2*
X1714668D1*
X1686734Y1762934D2*
X1705405D1*
Y1732790D1*
Y1748575D2*
X1693931D1*
X1677471Y1762934D2*
Y1732790D1*
X1667423D1*
X1663112Y1734249D1*
X1660227Y1737101D1*
X1658801Y1739986D1*
X1657375Y1744264D1*
Y1751460D1*
X1658801Y1755771D1*
X1660227Y1758623D1*
X1663112Y1761508D1*
X1667423Y1762934D1*
X1677471D1*
X1648111D2*
Y1732790D1*
X1635178D1*
X1630867Y1734249D1*
X1629441Y1735675D1*
X1628015Y1738527D1*
Y1742838D1*
X1629441Y1745723D1*
X1630867Y1747149D1*
X1635178Y1748575D1*
X1630867Y1750034D1*
X1629441Y1751460D1*
X1628015Y1754312D1*
Y1757197D1*
X1629441Y1760049D1*
X1630867Y1761508D1*
X1635178Y1762934D1*
X1648111D1*
Y1748575D2*
X1635178D1*
X1618752Y1762934D2*
Y1732790D1*
X1598656Y1762934D2*
X1618752Y1742838D1*
X1611589Y1750034D2*
X1598656Y1732790D1*
X1448887Y957434D2*
Y934486D1*
X1450313Y930175D1*
X1451772Y928749D1*
X1454624Y927290D1*
X1457509D1*
X1460361Y928749D1*
X1461787Y930175D1*
X1463246Y934486D1*
Y937338D1*
X1439623Y922316D2*
X1412364D1*
X1403101Y957434D2*
Y927290D1*
X1383005Y957434D2*
Y927290D1*
X1403101Y943075D2*
X1383005D1*
X1365119Y957434D2*
X1368004Y956008D1*
X1370856Y953123D1*
X1372315Y950271D1*
X1373741Y945960D1*
Y938764D1*
X1372315Y934486D1*
X1370856Y931601D1*
X1368004Y928749D1*
X1365119Y927290D1*
X1359382D1*
X1356530Y928749D1*
X1353645Y931601D1*
X1352219Y934486D1*
X1350793Y938764D1*
Y945960D1*
X1352219Y950271D1*
X1353645Y953123D1*
X1356530Y956008D1*
X1359382Y957434D1*
X1365119D1*
X1341530D2*
Y927290D1*
X1324319D1*
X1315055Y957434D2*
Y927290D1*
X1305007D1*
X1300696Y928749D1*
X1297811Y931601D1*
X1296385Y934486D1*
X1294959Y938764D1*
Y945960D1*
X1296385Y950271D1*
X1297811Y953123D1*
X1300696Y956008D1*
X1305007Y957434D1*
X1315055D1*
X3450319Y1388434D2*
Y1365486D1*
X3451745Y1361175D1*
X3453204Y1359749D1*
X3456056Y1358290D1*
X3458941D1*
X3461793Y1359749D1*
X3463219Y1361175D1*
X3464678Y1365486D1*
Y1368338D1*
X3441055Y1353316D2*
X3413796D1*
X3404533Y1388434D2*
Y1358290D1*
X3395269Y1373345D2*
X3378688D1*
X3369425Y1388434D2*
Y1358290D1*
X3352214D1*
X3342950Y1388434D2*
X3331476Y1358290D1*
X3320002Y1388434D1*
X3310739D2*
Y1358290D1*
X3293528D1*
X3422733Y957434D2*
Y934486D1*
X3424159Y930175D1*
X3425618Y928749D1*
X3428470Y927290D1*
X3431355D1*
X3434207Y928749D1*
X3435633Y930175D1*
X3437092Y934486D1*
Y937338D1*
X3413470Y922316D2*
X3386211D1*
X3376947Y957434D2*
Y927290D1*
X3359736D1*
X3350473Y957434D2*
Y927290D1*
X3321113Y957434D2*
Y927290D1*
X3341209Y957434D1*
Y927290D1*
X1048887Y957434D2*
Y934486D1*
X1050313Y930175D1*
X1051772Y928749D1*
X1054624Y927290D1*
X1057509D1*
X1060361Y928749D1*
X1061787Y930175D1*
X1063246Y934486D1*
Y937338D1*
X1039623Y922316D2*
X1012364D1*
X1003101Y957434D2*
Y927290D1*
X985890D1*
X968004Y957434D2*
X970889Y956008D1*
X973741Y953123D1*
X975201Y950271D1*
X976626Y945960D1*
Y938764D1*
X975201Y934486D1*
X973741Y931601D1*
X970889Y928749D1*
X968004Y927290D1*
X962267D1*
X959416Y928749D1*
X956530Y931601D1*
X955104Y934486D1*
X953679Y938764D1*
Y945960D1*
X955104Y950271D1*
X956530Y953123D1*
X959416Y956008D1*
X962267Y957434D1*
X968004D1*
X944415D2*
Y935912D1*
X942989Y931601D1*
X940104Y928749D1*
X935793Y927290D1*
X932941D1*
X928630Y928749D1*
X925745Y931601D1*
X924319Y935912D1*
Y957434D1*
X905007D2*
Y927290D1*
X915055Y957434D2*
X894959D1*
X2828602Y1762934D2*
Y1739986D1*
X2830028Y1735675D1*
X2831487Y1734249D1*
X2834339Y1732790D1*
X2837224D1*
X2840076Y1734249D1*
X2841502Y1735675D1*
X2842961Y1739986D1*
Y1742838D1*
X2819338Y1727816D2*
X2792079D1*
X2759868Y1732790D2*
Y1762934D1*
X2771342Y1732790D1*
X2782816Y1762934D1*
Y1732790D1*
X2750604Y1762934D2*
Y1732790D1*
X2741341Y1762934D2*
X2721245Y1732790D1*
Y1762934D2*
X2741341Y1732790D1*
X661793Y1388434D2*
Y1365486D1*
X663219Y1361175D1*
X664678Y1359749D1*
X667530Y1358290D1*
X670415D1*
X673267Y1359749D1*
X674692Y1361175D1*
X676152Y1365486D1*
Y1368338D1*
X652529Y1353316D2*
X625270D1*
X607385Y1388434D2*
X610270Y1387008D1*
X613121Y1384123D1*
X614581Y1381271D1*
X616007Y1376960D1*
Y1369764D1*
X614581Y1365486D1*
X613121Y1362601D1*
X610270Y1359749D1*
X607385Y1358290D1*
X601648D1*
X598796Y1359749D1*
X595911Y1362601D1*
X594485Y1365486D1*
X593059Y1369764D1*
Y1376960D1*
X594485Y1381271D1*
X595911Y1384123D1*
X598796Y1387008D1*
X601648Y1388434D1*
X607385D1*
X583795Y1373345D2*
X567214D1*
X557951Y1388434D2*
Y1358290D1*
X540740D1*
X531476Y1388434D2*
X520002Y1358290D1*
X508528Y1388434D1*
X499265D2*
Y1358290D1*
X482054D1*
X2332666Y1762934D2*
Y1739986D1*
X2334092Y1735675D1*
X2335551Y1734249D1*
X2338403Y1732790D1*
X2341288D1*
X2344140Y1734249D1*
X2345566Y1735675D1*
X2347025Y1739986D1*
Y1742838D1*
X2323403Y1727816D2*
X2296144D1*
X2286880Y1747149D2*
X2273947D1*
X2269669Y1748575D1*
X2268210Y1750034D1*
X2266784Y1752886D1*
Y1757197D1*
X2268210Y1760049D1*
X2269669Y1761508D1*
X2273947Y1762934D1*
X2286880D1*
Y1732790D1*
X2234540D2*
X2246047Y1762934D1*
X2257521Y1732790D1*
X2253210Y1742838D2*
X2238851D1*
X2205180Y1762934D2*
Y1732790D1*
X2225276Y1762934D1*
Y1732790D1*
X1854248Y957434D2*
Y934486D1*
X1855674Y930175D1*
X1857133Y928749D1*
X1859985Y927290D1*
X1862870D1*
X1865722Y928749D1*
X1867148Y930175D1*
X1868607Y934486D1*
Y937338D1*
X1844985Y922316D2*
X1817726D1*
X1808462Y941649D2*
X1795529D1*
X1791251Y943075D1*
X1789792Y944534D1*
X1788366Y947386D1*
Y951697D1*
X1789792Y954549D1*
X1791251Y956008D1*
X1795529Y957434D1*
X1808462D1*
Y927290D1*
X1779103Y957434D2*
Y927290D1*
X1759791Y957434D2*
Y927290D1*
X1769839Y957434D2*
X1749743D1*
X1718958Y950271D2*
X1720384Y953123D1*
X1723269Y956008D1*
X1726121Y957434D1*
X1731858D1*
X1734743Y956008D1*
X1737595Y953123D1*
X1739054Y950271D1*
X1740480Y945960D1*
Y938764D1*
X1739054Y934486D1*
X1737595Y931601D1*
X1734743Y928749D1*
X1731858Y927290D1*
X1726121D1*
X1723269Y928749D1*
X1720384Y931601D1*
X1718958Y934486D1*
X1709694Y957434D2*
Y927290D1*
X1689598Y957434D2*
Y927290D1*
X1709694Y943075D2*
X1689598D1*
X2640281Y1388434D2*
Y1365486D1*
X2641707Y1361175D1*
X2643167Y1359749D1*
X2646018Y1358290D1*
X2648904D1*
X2651755Y1359749D1*
X2653181Y1361175D1*
X2654641Y1365486D1*
Y1368338D1*
X2631018Y1353316D2*
X2603759D1*
X2594495Y1372649D2*
X2581562D1*
X2577285Y1374075D1*
X2575825Y1375534D1*
X2574399Y1378386D1*
Y1382697D1*
X2575825Y1385549D1*
X2577285Y1387008D1*
X2581562Y1388434D1*
X2594495D1*
Y1358290D1*
X2556514Y1388434D2*
X2559399Y1387008D1*
X2562251Y1384123D1*
X2563710Y1381271D1*
X2565136Y1376960D1*
Y1369764D1*
X2563710Y1365486D1*
X2562251Y1362601D1*
X2559399Y1359749D1*
X2556514Y1358290D1*
X2550777D1*
X2547925Y1359749D1*
X2545040Y1362601D1*
X2543614Y1365486D1*
X2542188Y1369764D1*
Y1376960D1*
X2543614Y1381271D1*
X2545040Y1384123D1*
X2547925Y1387008D1*
X2550777Y1388434D1*
X2556514D1*
X2512828Y1384123D2*
X2515680Y1387008D1*
X2519991Y1388434D1*
X2525728D1*
X2530039Y1387008D1*
X2532924Y1384123D1*
Y1381271D1*
X2531465Y1378386D1*
X2530039Y1376960D1*
X2527187Y1375534D1*
X2518565Y1372649D1*
X2515680Y1371223D1*
X2514254Y1369764D1*
X2512828Y1366912D1*
Y1362601D1*
X2515680Y1359749D1*
X2519991Y1358290D1*
X2525728D1*
X2530039Y1359749D1*
X2532924Y1362601D1*
X2503565Y1388434D2*
Y1358290D1*
X3024176Y957434D2*
Y934486D1*
X3025602Y930175D1*
X3027061Y928749D1*
X3029913Y927290D1*
X3032798D1*
X3035650Y928749D1*
X3037076Y930175D1*
X3038535Y934486D1*
Y937338D1*
X3014912Y922316D2*
X2987653D1*
X2978390Y943075D2*
X2965490D1*
X2961179Y944534D1*
X2959720Y945960D1*
X2958294Y948812D1*
Y951697D1*
X2959720Y954549D1*
X2961179Y956008D1*
X2965490Y957434D1*
X2978390D1*
Y927290D1*
X2968342Y943075D2*
X2958294Y927290D1*
X2949030Y957434D2*
Y927290D1*
X2919671Y957434D2*
Y927290D1*
X2939767Y957434D1*
Y927290D1*
X650330Y957434D2*
Y934486D1*
X651755Y930175D1*
X653215Y928749D1*
X656066Y927290D1*
X658952D1*
X661803Y928749D1*
X663229Y930175D1*
X664689Y934486D1*
Y937338D1*
X641066Y922316D2*
X613807D1*
X604543Y943075D2*
X591644D1*
X587333Y944534D1*
X585873Y945960D1*
X584447Y948812D1*
Y951697D1*
X585873Y954549D1*
X587333Y956008D1*
X591644Y957434D1*
X604543D1*
Y927290D1*
X594495Y943075D2*
X584447Y927290D1*
X566562Y957434D2*
X569447Y956008D1*
X572299Y953123D1*
X573758Y950271D1*
X575184Y945960D1*
Y938764D1*
X573758Y934486D1*
X572299Y931601D1*
X569447Y928749D1*
X566562Y927290D1*
X560825D1*
X557973Y928749D1*
X555088Y931601D1*
X553662Y934486D1*
X552236Y938764D1*
Y945960D1*
X553662Y950271D1*
X555088Y953123D1*
X557973Y956008D1*
X560825Y957434D1*
X566562D1*
X542972D2*
Y935912D1*
X541547Y931601D1*
X538661Y928749D1*
X534350Y927290D1*
X531499D1*
X527187Y928749D1*
X524302Y931601D1*
X522876Y935912D1*
Y957434D1*
X503565D2*
Y927290D1*
X513613Y957434D2*
X493517D1*
X1838126Y1388434D2*
Y1365486D1*
X1839552Y1361175D1*
X1841011Y1359749D1*
X1843863Y1358290D1*
X1846748D1*
X1849600Y1359749D1*
X1851026Y1361175D1*
X1852485Y1365486D1*
Y1368338D1*
X1828862Y1353316D2*
X1801604D1*
X1772244Y1384123D2*
X1775096Y1387008D1*
X1779407Y1388434D1*
X1785144D1*
X1789455Y1387008D1*
X1792340Y1384123D1*
Y1381271D1*
X1790881Y1378386D1*
X1789455Y1376960D1*
X1786603Y1375534D1*
X1777981Y1372649D1*
X1775096Y1371223D1*
X1773670Y1369764D1*
X1772244Y1366912D1*
Y1362601D1*
X1775096Y1359749D1*
X1779407Y1358290D1*
X1785144D1*
X1789455Y1359749D1*
X1792340Y1362601D1*
X1762980Y1388434D2*
Y1358290D1*
X1753717Y1388434D2*
X1733621D1*
X1753717Y1358290D1*
X1733621D1*
X1705720Y1388434D2*
X1724357D1*
Y1358290D1*
X1705720D1*
X1724357Y1374075D2*
X1712883D1*
X1448174Y1388434D2*
Y1365486D1*
X1449600Y1361175D1*
X1451059Y1359749D1*
X1453911Y1358290D1*
X1456796D1*
X1459648Y1359749D1*
X1461074Y1361175D1*
X1462533Y1365486D1*
Y1368338D1*
X1438910Y1353316D2*
X1411652D1*
X1392340Y1388434D2*
Y1358290D1*
X1402388Y1388434D2*
X1382292D1*
X1354392D2*
X1373028D1*
Y1358290D1*
X1354392D1*
X1373028Y1374075D2*
X1361554D1*
X1345128Y1388434D2*
X1325032Y1358290D1*
Y1388434D2*
X1345128Y1358290D1*
X1305720Y1388434D2*
Y1358290D1*
X1315768Y1388434D2*
X1295672D1*
X1039569D2*
Y1365486D1*
X1040994Y1361175D1*
X1042454Y1359749D1*
X1045306Y1358290D1*
X1048191D1*
X1051042Y1359749D1*
X1052468Y1361175D1*
X1053928Y1365486D1*
Y1368338D1*
X1030305Y1353316D2*
X1003046D1*
X983734Y1388434D2*
Y1358290D1*
X993782Y1388434D2*
X973686D1*
X964423Y1374075D2*
X951523D1*
X947212Y1375534D1*
X945753Y1376960D1*
X944327Y1379812D1*
Y1382697D1*
X945753Y1385549D1*
X947212Y1387008D1*
X951523Y1388434D1*
X964423D1*
Y1358290D1*
X954375Y1374075D2*
X944327Y1358290D1*
X935063Y1388434D2*
Y1358290D1*
X904278Y1381271D2*
X905704Y1384123D1*
X908589Y1387008D1*
X911441Y1388434D1*
X917178D1*
X920063Y1387008D1*
X922915Y1384123D1*
X924374Y1381271D1*
X925800Y1376960D1*
Y1369764D1*
X924374Y1365486D1*
X922915Y1362601D1*
X920063Y1359749D1*
X917178Y1358290D1*
X911441D1*
X908589Y1359749D1*
X905704Y1362601D1*
X904278Y1365486D1*
Y1369764D1*
X911441D1*
X1246600Y1762934D2*
Y1739986D1*
X1248026Y1735675D1*
X1249485Y1734249D1*
X1252337Y1732790D1*
X1255222D1*
X1258074Y1734249D1*
X1259500Y1735675D1*
X1260959Y1739986D1*
Y1742838D1*
X1237336Y1727816D2*
X1210077D1*
X1200814Y1762934D2*
X1189340Y1732790D1*
X1177866Y1762934D1*
X1149966D2*
X1168602D1*
Y1732790D1*
X1149966D1*
X1168602Y1748575D2*
X1157129D1*
X1140702D2*
X1127802D1*
X1123491Y1750034D1*
X1122032Y1751460D1*
X1120606Y1754312D1*
Y1757197D1*
X1122032Y1760049D1*
X1123491Y1761508D1*
X1127802Y1762934D1*
X1140702D1*
Y1732790D1*
X1130654Y1748575D2*
X1120606Y1732790D1*
X1111342Y1762934D2*
Y1732790D1*
X1098409D1*
X1094098Y1734249D1*
X1092672Y1735675D1*
X1091246Y1738527D1*
Y1742838D1*
X1092672Y1745723D1*
X1094098Y1747149D1*
X1098409Y1748575D1*
X1094098Y1750034D1*
X1092672Y1751460D1*
X1091246Y1754312D1*
Y1757197D1*
X1092672Y1760049D1*
X1094098Y1761508D1*
X1098409Y1762934D1*
X1111342D1*
Y1748575D2*
X1098409D1*
X2252468Y957434D2*
Y934486D1*
X2253894Y930175D1*
X2255354Y928749D1*
X2258205Y927290D1*
X2261090D1*
X2263942Y928749D1*
X2265368Y930175D1*
X2266827Y934486D1*
Y937338D1*
X2243205Y922316D2*
X2215946D1*
X2206682Y957434D2*
X2195208Y927290D1*
X2183734Y957434D1*
X2165849D2*
X2168734Y956008D1*
X2171586Y953123D1*
X2173045Y950271D1*
X2174471Y945960D1*
Y938764D1*
X2173045Y934486D1*
X2171586Y931601D1*
X2168734Y928749D1*
X2165849Y927290D1*
X2160112D1*
X2157260Y928749D1*
X2154375Y931601D1*
X2152949Y934486D1*
X2151523Y938764D1*
Y945960D1*
X2152949Y950271D1*
X2154375Y953123D1*
X2157260Y956008D1*
X2160112Y957434D1*
X2165849D1*
X2120738Y950271D2*
X2122163Y953123D1*
X2125049Y956008D1*
X2127900Y957434D1*
X2133637D1*
X2136523Y956008D1*
X2139374Y953123D1*
X2140834Y950271D1*
X2142259Y945960D1*
Y938764D1*
X2140834Y934486D1*
X2139374Y931601D1*
X2136523Y928749D1*
X2133637Y927290D1*
X2127900D1*
X2125049Y928749D1*
X2122163Y931601D1*
X2120738Y934486D1*
X2101426Y957434D2*
Y927290D1*
X2111474Y957434D2*
X2091378D1*
X750452Y4592275D2*
Y4569327D1*
X751878Y4565016D1*
X753337Y4563590D1*
X756189Y4562131D1*
X759074D1*
X761926Y4563590D1*
X763352Y4565016D1*
X764811Y4569327D1*
Y4572179D1*
X741189Y4576490D2*
X728256D1*
X723978Y4577916D1*
X722519Y4579375D1*
X721093Y4582227D1*
Y4586538D1*
X722519Y4589390D1*
X723978Y4590849D1*
X728256Y4592275D1*
X741189D1*
Y4562131D1*
X711829Y4586505D2*
X708944Y4587964D1*
X704633Y4592242D1*
Y4562131D1*
X3456315Y2803146D2*
Y2773002D1*
X3439104D1*
X3411204Y2803146D2*
X3429840D1*
Y2773002D1*
X3411204D1*
X3429840Y2788787D2*
X3418366D1*
X3401940Y2803146D2*
Y2773002D1*
X3391892D1*
X3387581Y2774462D1*
X3384696Y2777313D1*
X3383270Y2780199D1*
X3381844Y2784476D1*
Y2791672D1*
X3383270Y2795984D1*
X3384696Y2798835D1*
X3387581Y2801720D1*
X3391892Y2803146D1*
X3401940D1*
X3372580Y2768028D2*
X3345322D1*
X3313077Y2773002D2*
X3324584Y2803146D1*
X3336058Y2773002D1*
X3331747Y2783050D2*
X3317388D1*
X3454872Y2603146D2*
Y2573002D1*
X3437661D1*
X3409761Y2603146D2*
X3428398D1*
Y2573002D1*
X3409761D1*
X3428398Y2588787D2*
X3416924D1*
X3400497Y2603146D2*
Y2573002D1*
X3390449D1*
X3386138Y2574462D1*
X3383253Y2577313D1*
X3381827Y2580199D1*
X3380401Y2584476D1*
Y2591672D1*
X3381827Y2595984D1*
X3383253Y2598835D1*
X3386138Y2601720D1*
X3390449Y2603146D1*
X3400497D1*
X3371138Y2568028D2*
X3343879D1*
X3334615Y2603146D2*
Y2573002D1*
X3321682D1*
X3317371Y2574462D1*
X3315945Y2575888D1*
X3314519Y2578739D1*
Y2583050D1*
X3315945Y2585936D1*
X3317371Y2587361D1*
X3321682Y2588787D1*
X3317371Y2590247D1*
X3315945Y2591672D1*
X3314519Y2594524D1*
Y2597409D1*
X3315945Y2600261D1*
X3317371Y2601720D1*
X3321682Y2603146D1*
X3334615D1*
Y2588787D2*
X3321682D1*
X3455585Y2403146D2*
Y2373002D1*
X3438374D1*
X3410474Y2403146D2*
X3429111D1*
Y2373002D1*
X3410474D1*
X3429111Y2388787D2*
X3417637D1*
X3401210Y2403146D2*
Y2373002D1*
X3391162D1*
X3386851Y2374462D1*
X3383966Y2377313D1*
X3382540Y2380199D1*
X3381114Y2384476D1*
Y2391672D1*
X3382540Y2395984D1*
X3383966Y2398835D1*
X3386851Y2401720D1*
X3391162Y2403146D1*
X3401210D1*
X3371851Y2368028D2*
X3344592D1*
X3313806Y2395984D2*
X3315232Y2398835D1*
X3318117Y2401720D1*
X3320969Y2403146D1*
X3326706D1*
X3329591Y2401720D1*
X3332443Y2398835D1*
X3333902Y2395984D1*
X3335328Y2391672D1*
Y2384476D1*
X3333902Y2380199D1*
X3332443Y2377313D1*
X3329591Y2374462D1*
X3326706Y2373002D1*
X3320969D1*
X3318117Y2374462D1*
X3315232Y2377313D1*
X3313806Y2380199D1*
X3454872Y2203146D2*
Y2173002D1*
X3437661D1*
X3409761Y2203146D2*
X3428398D1*
Y2173002D1*
X3409761D1*
X3428398Y2188787D2*
X3416924D1*
X3400497Y2203146D2*
Y2173002D1*
X3390449D1*
X3386138Y2174462D1*
X3383253Y2177313D1*
X3381827Y2180199D1*
X3380401Y2184476D1*
Y2191672D1*
X3381827Y2195984D1*
X3383253Y2198835D1*
X3386138Y2201720D1*
X3390449Y2203146D1*
X3400497D1*
X3371138Y2168028D2*
X3343879D1*
X3334615Y2203146D2*
Y2173002D1*
X3324567D1*
X3320256Y2174462D1*
X3317371Y2177313D1*
X3315945Y2180199D1*
X3314519Y2184476D1*
Y2191672D1*
X3315945Y2195984D1*
X3317371Y2198835D1*
X3320256Y2201720D1*
X3324567Y2203146D1*
X3334615D1*
X2394048Y4703146D2*
Y4673002D1*
X2376837D1*
X2348936Y4703146D2*
X2367573D1*
Y4673002D1*
X2348936D1*
X2367573Y4688787D2*
X2356099D1*
X2339673Y4703146D2*
Y4673002D1*
X2329625D1*
X2325314Y4674462D1*
X2322429Y4677313D1*
X2321003Y4680199D1*
X2319577Y4684476D1*
Y4691672D1*
X2321003Y4695984D1*
X2322429Y4698835D1*
X2325314Y4701720D1*
X2329625Y4703146D1*
X2339673D1*
X2310313Y4668028D2*
X2283054D1*
X2273791Y4703146D2*
Y4673002D1*
X2244431Y4703146D2*
Y4673002D1*
X2264527Y4703146D1*
Y4673002D1*
X2235168Y4697376D2*
X2232282Y4698835D1*
X2227971Y4703113D1*
Y4673002D1*
X2175498Y4703146D2*
Y4673002D1*
X2158287D1*
X2130386Y4703146D2*
X2149023D1*
Y4673002D1*
X2130386D1*
X2149023Y4688787D2*
X2137549D1*
X2121123Y4703146D2*
Y4673002D1*
X2111075D1*
X2106764Y4674462D1*
X2103879Y4677313D1*
X2102453Y4680199D1*
X2101027Y4684476D1*
Y4691672D1*
X2102453Y4695984D1*
X2103879Y4698835D1*
X2106764Y4701720D1*
X2111075Y4703146D1*
X2121123D1*
X2091763Y4668028D2*
X2064504D1*
X2055241Y4703146D2*
Y4673002D1*
X2025881Y4703146D2*
Y4673002D1*
X2045977Y4703146D1*
Y4673002D1*
X2015158Y4695950D2*
Y4697376D1*
X2013732Y4700261D1*
X2012306Y4701687D1*
X2009421Y4703113D1*
X2003684D1*
X2000833Y4701687D1*
X1999407Y4700261D1*
X1997947Y4697376D1*
Y4694524D1*
X1999407Y4691639D1*
X2002258Y4687361D1*
X2016618Y4673002D1*
X1996522D1*
X1950498Y4703146D2*
Y4673002D1*
X1933287D1*
X1905386Y4703146D2*
X1924023D1*
Y4673002D1*
X1905386D1*
X1924023Y4688787D2*
X1912549D1*
X1896123Y4703146D2*
Y4673002D1*
X1886075D1*
X1881764Y4674462D1*
X1878879Y4677313D1*
X1877453Y4680199D1*
X1876027Y4684476D1*
Y4691672D1*
X1877453Y4695984D1*
X1878879Y4698835D1*
X1881764Y4701720D1*
X1886075Y4703146D1*
X1896123D1*
X1866763Y4668028D2*
X1839504D1*
X1830241Y4703146D2*
Y4673002D1*
X1800881Y4703146D2*
Y4673002D1*
X1820977Y4703146D1*
Y4673002D1*
X1788732Y4703113D2*
X1772981D1*
X1781570Y4691639D1*
X1777258D1*
X1774407Y4690213D1*
X1772981Y4688787D1*
X1771522Y4684476D1*
Y4681624D1*
X1772981Y4677313D1*
X1775833Y4674428D1*
X1780144Y4673002D1*
X1784455D1*
X1788732Y4674428D1*
X1790158Y4675888D1*
X1791618Y4678739D1*
X1726211Y4703146D2*
Y4673002D1*
X1709000D1*
X1681099Y4703146D2*
X1699736D1*
Y4673002D1*
X1681099D1*
X1699736Y4688787D2*
X1688262D1*
X1671836Y4703146D2*
Y4673002D1*
X1661788D1*
X1657477Y4674462D1*
X1654592Y4677313D1*
X1653166Y4680199D1*
X1651740Y4684476D1*
Y4691672D1*
X1653166Y4695984D1*
X1654592Y4698835D1*
X1657477Y4701720D1*
X1661788Y4703146D1*
X1671836D1*
X1642476Y4668028D2*
X1615217D1*
X1605954Y4703146D2*
Y4673002D1*
X1576594Y4703146D2*
Y4673002D1*
X1596690Y4703146D1*
Y4673002D1*
X1552971D2*
Y4703113D1*
X1567330Y4683050D1*
X1545809D1*
X2481770Y4531994D2*
Y4501850D1*
X2464559D1*
X2436658Y4531994D2*
X2455295D1*
Y4501850D1*
X2436658D1*
X2455295Y4517635D2*
X2443821D1*
X2427395Y4531994D2*
Y4501850D1*
X2417347D1*
X2413036Y4503309D1*
X2410151Y4506161D1*
X2408725Y4509046D1*
X2407299Y4513324D1*
Y4520520D1*
X2408725Y4524831D1*
X2410151Y4527683D1*
X2413036Y4530568D1*
X2417347Y4531994D1*
X2427395D1*
X2398035Y4496876D2*
X2370776D1*
X2352891Y4531994D2*
X2355776Y4530568D1*
X2358628Y4527683D1*
X2360087Y4524831D1*
X2361513Y4520520D1*
Y4513324D1*
X2360087Y4509046D1*
X2358628Y4506161D1*
X2355776Y4503309D1*
X2352891Y4501850D1*
X2347154D1*
X2344302Y4503309D1*
X2341417Y4506161D1*
X2339991Y4509046D1*
X2338565Y4513324D1*
Y4520520D1*
X2339991Y4524831D1*
X2341417Y4527683D1*
X2344302Y4530568D1*
X2347154Y4531994D1*
X2352891D1*
X2329301D2*
Y4510472D1*
X2327875Y4506161D1*
X2324990Y4503309D1*
X2320679Y4501850D1*
X2317827D1*
X2313516Y4503309D1*
X2310631Y4506161D1*
X2309205Y4510472D1*
Y4531994D1*
X2289894D2*
Y4501850D1*
X2299942Y4531994D2*
X2279846D1*
X2270582Y4526224D2*
X2267697Y4527683D1*
X2263386Y4531961D1*
Y4501850D1*
X2225058Y4529429D2*
Y4499285D1*
X2207847D1*
X2179947Y4529429D2*
X2198584D1*
Y4499285D1*
X2179947D1*
X2198584Y4515070D2*
X2187110D1*
X2170683Y4529429D2*
Y4499285D1*
X2160635D1*
X2156324Y4500744D1*
X2153439Y4503596D1*
X2152013Y4506481D1*
X2150587Y4510759D1*
Y4517955D1*
X2152013Y4522266D1*
X2153439Y4525118D1*
X2156324Y4528003D1*
X2160635Y4529429D1*
X2170683D1*
X2141324Y4494310D2*
X2114065D1*
X2096179Y4529429D2*
X2099064Y4528003D1*
X2101916Y4525118D1*
X2103375Y4522266D1*
X2104801Y4517955D1*
Y4510759D1*
X2103375Y4506481D1*
X2101916Y4503596D1*
X2099064Y4500744D1*
X2096179Y4499285D1*
X2090442D1*
X2087590Y4500744D1*
X2084705Y4503596D1*
X2083279Y4506481D1*
X2081853Y4510759D1*
Y4517955D1*
X2083279Y4522266D1*
X2084705Y4525118D1*
X2087590Y4528003D1*
X2090442Y4529429D1*
X2096179D1*
X2072590D2*
Y4507907D1*
X2071164Y4503596D1*
X2068279Y4500744D1*
X2063968Y4499285D1*
X2061116D1*
X2056805Y4500744D1*
X2053920Y4503596D1*
X2052494Y4507907D1*
Y4529429D1*
X2033182D2*
Y4499285D1*
X2043230Y4529429D2*
X2023134D1*
X2012411Y4522233D2*
Y4523658D1*
X2010986Y4526544D1*
X2009560Y4527969D1*
X2006675Y4529395D1*
X2000938D1*
X1998086Y4527969D1*
X1996660Y4526544D1*
X1995201Y4523658D1*
Y4520807D1*
X1996660Y4517921D1*
X1999512Y4513644D1*
X2013871Y4499285D1*
X1993775D1*
X1952920Y4526864D2*
Y4496720D1*
X1935709D1*
X1907809Y4526864D2*
X1926446D1*
Y4496720D1*
X1907809D1*
X1926446Y4512505D2*
X1914972D1*
X1898545Y4526864D2*
Y4496720D1*
X1888497D1*
X1884186Y4498179D1*
X1881301Y4501031D1*
X1879875Y4503916D1*
X1878449Y4508194D1*
Y4515390D1*
X1879875Y4519701D1*
X1881301Y4522553D1*
X1884186Y4525438D1*
X1888497Y4526864D1*
X1898545D1*
X1869186Y4491746D2*
X1841927D1*
X1824041Y4526864D2*
X1826926Y4525438D1*
X1829778Y4522553D1*
X1831237Y4519701D1*
X1832663Y4515390D1*
Y4508194D1*
X1831237Y4503916D1*
X1829778Y4501031D1*
X1826926Y4498179D1*
X1824041Y4496720D1*
X1818304D1*
X1815452Y4498179D1*
X1812567Y4501031D1*
X1811141Y4503916D1*
X1809715Y4508194D1*
Y4515390D1*
X1811141Y4519701D1*
X1812567Y4522553D1*
X1815452Y4525438D1*
X1818304Y4526864D1*
X1824041D1*
X1800452D2*
Y4505342D1*
X1799026Y4501031D1*
X1796141Y4498179D1*
X1791830Y4496720D1*
X1788978D1*
X1784667Y4498179D1*
X1781782Y4501031D1*
X1780356Y4505342D1*
Y4526864D1*
X1761044D2*
Y4496720D1*
X1771092Y4526864D2*
X1750996D1*
X1738848Y4526831D2*
X1723096D1*
X1731685Y4515357D1*
X1727374D1*
X1724522Y4513931D1*
X1723096Y4512505D1*
X1721637Y4508194D1*
Y4505342D1*
X1723096Y4501031D1*
X1725948Y4498146D1*
X1730259Y4496720D1*
X1734570D1*
X1738848Y4498146D1*
X1740274Y4499605D1*
X1741733Y4502457D1*
X1695278Y4524299D2*
Y4494155D1*
X1678067D1*
X1650166Y4524299D2*
X1668803D1*
Y4494155D1*
X1650166D1*
X1668803Y4509940D2*
X1657329D1*
X1640903Y4524299D2*
Y4494155D1*
X1630855D1*
X1626544Y4495614D1*
X1623659Y4498466D1*
X1622233Y4501351D1*
X1620807Y4505629D1*
Y4512825D1*
X1622233Y4517136D1*
X1623659Y4519988D1*
X1626544Y4522873D1*
X1630855Y4524299D1*
X1640903D1*
X1611543Y4489180D2*
X1584284D1*
X1566399Y4524299D2*
X1569284Y4522873D1*
X1572136Y4519988D1*
X1573595Y4517136D1*
X1575021Y4512825D1*
Y4505629D1*
X1573595Y4501351D1*
X1572136Y4498466D1*
X1569284Y4495614D1*
X1566399Y4494155D1*
X1560662D1*
X1557810Y4495614D1*
X1554925Y4498466D1*
X1553499Y4501351D1*
X1552073Y4505629D1*
Y4512825D1*
X1553499Y4517136D1*
X1554925Y4519988D1*
X1557810Y4522873D1*
X1560662Y4524299D1*
X1566399D1*
X1542809D2*
Y4502777D1*
X1541383Y4498466D1*
X1538498Y4495614D1*
X1534187Y4494155D1*
X1531335D1*
X1527024Y4495614D1*
X1524139Y4498466D1*
X1522713Y4502777D1*
Y4524299D1*
X1503402D2*
Y4494155D1*
X1513450Y4524299D2*
X1493354D1*
X1469731Y4494155D2*
Y4524266D1*
X1484090Y4504203D1*
X1462568D1*
X663102Y2803146D2*
Y2773002D1*
X645891D1*
X617991Y2803146D2*
X636628D1*
Y2773002D1*
X617991D1*
X636628Y2788787D2*
X625154D1*
X608727Y2803146D2*
Y2773002D1*
X598679D1*
X594368Y2774462D1*
X591483Y2777313D1*
X590057Y2780199D1*
X588631Y2784476D1*
Y2791672D1*
X590057Y2795984D1*
X591483Y2798835D1*
X594368Y2801720D1*
X598679Y2803146D1*
X608727D1*
X579368Y2768028D2*
X552109D1*
X532797Y2803146D2*
Y2773002D1*
X542845Y2803146D2*
X522749D1*
X513486Y2797376D2*
X510601Y2798835D1*
X506290Y2803113D1*
Y2773002D1*
X669552Y2603146D2*
Y2573002D1*
X652341D1*
X624441Y2603146D2*
X643078D1*
Y2573002D1*
X624441D1*
X643078Y2588787D2*
X631604D1*
X615177Y2603146D2*
Y2573002D1*
X605129D1*
X600818Y2574462D1*
X597933Y2577313D1*
X596507Y2580199D1*
X595081Y2584476D1*
Y2591672D1*
X596507Y2595984D1*
X597933Y2598835D1*
X600818Y2601720D1*
X605129Y2603146D1*
X615177D1*
X585818Y2568028D2*
X558559D1*
X539247Y2603146D2*
Y2573002D1*
X549295Y2603146D2*
X529199D1*
X518477Y2595950D2*
Y2597376D1*
X517051Y2600261D1*
X515625Y2601687D1*
X512740Y2603113D1*
X507003D1*
X504151Y2601687D1*
X502725Y2600261D1*
X501266Y2597376D1*
Y2594524D1*
X502725Y2591639D1*
X505577Y2587361D1*
X519936Y2573002D1*
X499840D1*
X669552Y2403146D2*
Y2373002D1*
X652341D1*
X624441Y2403146D2*
X643078D1*
Y2373002D1*
X624441D1*
X643078Y2388787D2*
X631604D1*
X615177Y2403146D2*
Y2373002D1*
X605129D1*
X600818Y2374462D1*
X597933Y2377313D1*
X596507Y2380199D1*
X595081Y2384476D1*
Y2391672D1*
X596507Y2395984D1*
X597933Y2398835D1*
X600818Y2401720D1*
X605129Y2403146D1*
X615177D1*
X585818Y2368028D2*
X558559D1*
X539247Y2403146D2*
Y2373002D1*
X549295Y2403146D2*
X529199D1*
X517051Y2403113D2*
X501299D1*
X509888Y2391639D1*
X505577D1*
X502725Y2390213D1*
X501299Y2388787D1*
X499840Y2384476D1*
Y2381624D1*
X501299Y2377313D1*
X504151Y2374428D1*
X508462Y2373002D1*
X512773D1*
X517051Y2374428D1*
X518477Y2375888D1*
X519936Y2378739D1*
X670265Y2203146D2*
Y2173002D1*
X653054D1*
X625154Y2203146D2*
X643791D1*
Y2173002D1*
X625154D1*
X643791Y2188787D2*
X632317D1*
X615890Y2203146D2*
Y2173002D1*
X605842D1*
X601531Y2174462D1*
X598646Y2177313D1*
X597220Y2180199D1*
X595794Y2184476D1*
Y2191672D1*
X597220Y2195984D1*
X598646Y2198835D1*
X601531Y2201720D1*
X605842Y2203146D1*
X615890D1*
X586531Y2168028D2*
X559272D1*
X539960Y2203146D2*
Y2173002D1*
X550008Y2203146D2*
X529912D1*
X506290Y2173002D2*
Y2203113D1*
X520649Y2183050D1*
X499127D1*
X3447478Y2030835D2*
X3450330Y2033720D1*
X3454641Y2035146D1*
X3460378D1*
X3464689Y2033720D1*
X3467574Y2030835D1*
Y2027984D1*
X3466114Y2025098D1*
X3464689Y2023672D1*
X3461837Y2022247D1*
X3453215Y2019361D1*
X3450330Y2017936D1*
X3448904Y2016476D1*
X3447478Y2013624D1*
Y2009313D1*
X3450330Y2006462D1*
X3454641Y2005002D1*
X3460378D1*
X3464689Y2006462D1*
X3467574Y2009313D1*
X3438214Y2000028D2*
X3410955D1*
X3401692Y2035146D2*
Y2005002D1*
X3388758D1*
X3384447Y2006462D1*
X3383022Y2007888D1*
X3381596Y2010739D1*
Y2015050D1*
X3383022Y2017936D1*
X3384447Y2019361D1*
X3388758Y2020787D1*
X3384447Y2022247D1*
X3383022Y2023672D1*
X3381596Y2026524D1*
Y2029409D1*
X3383022Y2032261D1*
X3384447Y2033720D1*
X3388758Y2035146D1*
X3401692D1*
Y2020787D2*
X3388758D1*
X3349351Y2005002D2*
X3360858Y2035146D1*
X3372332Y2005002D1*
X3368021Y2015050D2*
X3353662D1*
X3319991Y2035146D2*
Y2005002D1*
X3340087Y2035146D1*
Y2005002D1*
X3310728Y2035146D2*
Y2005002D1*
X3290632Y2035146D2*
X3310728Y2015050D1*
X3303565Y2022247D2*
X3290632Y2005002D1*
X449284Y4416346D2*
X446399Y4419198D1*
X444973Y4423509D1*
Y4429246D1*
X446399Y4433557D1*
X449284Y4436442D1*
X452136D1*
X455021Y4434983D1*
X456447Y4433557D1*
X457873Y4430705D1*
X460758Y4422083D1*
X462184Y4419198D1*
X463643Y4417772D1*
X466495Y4416346D1*
X470806D1*
X473658Y4419198D1*
X475117Y4423509D1*
Y4429246D1*
X473658Y4433557D1*
X470806Y4436442D1*
X480092Y4407083D2*
Y4379824D1*
X444973Y4370560D2*
X475117D1*
X444973Y4350464D2*
X475117D1*
X459332Y4370560D2*
Y4350464D1*
X444973Y4332579D2*
X446399Y4335464D1*
X449284Y4338316D1*
X452136Y4339775D1*
X456447Y4341201D1*
X463643D1*
X467921Y4339775D1*
X470806Y4338316D1*
X473658Y4335464D1*
X475117Y4332579D1*
Y4326842D1*
X473658Y4323990D1*
X470806Y4321105D1*
X467921Y4319679D1*
X463643Y4318253D1*
X456447D1*
X452136Y4319679D1*
X449284Y4321105D1*
X446399Y4323990D1*
X444973Y4326842D1*
Y4332579D1*
Y4308989D2*
X475117D1*
Y4291778D1*
X444973Y4282515D2*
X475117D1*
Y4272467D1*
X473658Y4268156D1*
X470806Y4265271D1*
X467921Y4263845D1*
X463643Y4262419D1*
X456447D1*
X452136Y4263845D1*
X449284Y4265271D1*
X446399Y4268156D1*
X444973Y4272467D1*
Y4282515D1*
X1496040Y4660468D2*
X1493155Y4663320D1*
X1491729Y4667631D1*
Y4673368D1*
X1493155Y4677679D1*
X1496040Y4680564D1*
X1498892D1*
X1501777Y4679105D1*
X1503203Y4677679D1*
X1504629Y4674827D1*
X1507514Y4666205D1*
X1508940Y4663320D1*
X1510399Y4661894D1*
X1513251Y4660468D1*
X1517562D1*
X1520414Y4663320D1*
X1521873Y4667631D1*
Y4673368D1*
X1520414Y4677679D1*
X1517562Y4680564D1*
X1526848Y4651204D2*
Y4623945D1*
X1521873Y4591734D2*
X1491729D1*
X1521873Y4603208D1*
X1491729Y4614682D1*
X1521873D1*
X1491729Y4582470D2*
X1513251D1*
X1517562Y4581044D1*
X1520414Y4578159D1*
X1521873Y4573848D1*
Y4570996D1*
X1520414Y4566685D1*
X1517562Y4563800D1*
X1513251Y4562374D1*
X1491729D1*
Y4543063D2*
X1521873D1*
X1491729Y4553111D2*
Y4533015D1*
Y4505114D2*
Y4523751D1*
X1521873D1*
Y4505114D1*
X1506088Y4523751D2*
Y4512277D1*
X1526848Y4495851D2*
Y4468592D1*
X1491729Y4459328D2*
X1521873D1*
X1491729Y4429969D2*
X1521873D1*
X1491729Y4450065D1*
X1521873D1*
X1496040Y4400609D2*
X1493155Y4403461D1*
X1491729Y4407772D1*
Y4413509D1*
X1493155Y4417820D1*
X1496040Y4420705D1*
X1498892D1*
X1501777Y4419246D1*
X1503203Y4417820D1*
X1504629Y4414968D1*
X1507514Y4406346D1*
X1508940Y4403461D1*
X1510399Y4402035D1*
X1513251Y4400609D1*
X1517562D1*
X1520414Y4403461D1*
X1521873Y4407772D1*
Y4413509D1*
X1520414Y4417820D1*
X1517562Y4420705D1*
X2448341Y4680556D2*
X2445456Y4683408D1*
X2444030Y4687719D1*
Y4693456D1*
X2445456Y4697767D1*
X2448341Y4700652D1*
X2451193D1*
X2454078Y4699193D1*
X2455504Y4697767D1*
X2456930Y4694915D1*
X2459815Y4686293D1*
X2461241Y4683408D1*
X2462700Y4681982D1*
X2465552Y4680556D1*
X2469863D1*
X2472715Y4683408D1*
X2474174Y4687719D1*
Y4693456D1*
X2472715Y4697767D1*
X2469863Y4700652D1*
X2479148Y4671292D2*
Y4644034D1*
X2474174Y4611822D2*
X2444030D1*
X2474174Y4623296D1*
X2444030Y4634770D1*
X2474174D1*
X2444030Y4602559D2*
X2465552D1*
X2469863Y4601133D1*
X2472715Y4598248D1*
X2474174Y4593936D1*
Y4591085D1*
X2472715Y4586774D1*
X2469863Y4583888D1*
X2465552Y4582463D1*
X2444030D1*
Y4563151D2*
X2474174D1*
X2444030Y4573199D2*
Y4553103D1*
Y4525203D2*
Y4543839D1*
X2474174D1*
Y4525203D1*
X2458389Y4543839D2*
Y4532365D1*
X2479148Y4515939D2*
Y4488680D1*
X2444030Y4470794D2*
X2445456Y4473680D1*
X2448341Y4476531D1*
X2451193Y4477991D1*
X2455504Y4479417D1*
X2462700D1*
X2466978Y4477991D1*
X2469863Y4476531D1*
X2472715Y4473680D1*
X2474174Y4470794D1*
Y4465058D1*
X2472715Y4462206D1*
X2469863Y4459321D1*
X2466978Y4457895D1*
X2462700Y4456469D1*
X2455504D1*
X2451193Y4457895D1*
X2448341Y4459321D1*
X2445456Y4462206D1*
X2444030Y4465058D1*
Y4470794D1*
Y4447205D2*
X2465552D1*
X2469863Y4445779D1*
X2472715Y4442894D1*
X2474174Y4438583D1*
Y4435731D1*
X2472715Y4431420D1*
X2469863Y4428535D1*
X2465552Y4427109D1*
X2444030D1*
Y4407798D2*
X2474174D1*
X2444030Y4417846D2*
Y4397750D1*
X2448341Y4368390D2*
X2445456Y4371242D1*
X2444030Y4375553D1*
Y4381290D1*
X2445456Y4385601D1*
X2448341Y4388486D1*
X2451193D1*
X2454078Y4387027D1*
X2455504Y4385601D1*
X2456930Y4382749D1*
X2459815Y4374127D1*
X2461241Y4371242D1*
X2462700Y4369816D1*
X2465552Y4368390D1*
X2469863D1*
X2472715Y4371242D1*
X2474174Y4375553D1*
Y4381290D1*
X2472715Y4385601D1*
X2469863Y4388486D1*
X636683Y2030835D2*
X639535Y2033720D1*
X643846Y2035146D1*
X649583D1*
X653894Y2033720D1*
X656779Y2030835D1*
Y2027984D1*
X655320Y2025098D1*
X653894Y2023672D1*
X651042Y2022247D1*
X642420Y2019361D1*
X639535Y2017936D1*
X638109Y2016476D1*
X636683Y2013624D1*
Y2009313D1*
X639535Y2006462D1*
X643846Y2005002D1*
X649583D1*
X653894Y2006462D1*
X656779Y2009313D1*
X627420Y2000028D2*
X600161D1*
X580849Y2035146D2*
Y2005002D1*
X590897Y2035146D2*
X570801D1*
X561538D2*
Y2005002D1*
X529326D2*
Y2035146D1*
X540800Y2005002D1*
X552274Y2035146D1*
Y2005002D1*
X501426Y2035146D2*
X520063D1*
Y2005002D1*
X501426D1*
X520063Y2020787D2*
X508589D1*
X2636700Y880835D2*
X2639552Y883720D1*
X2643863Y885146D1*
X2649600D1*
X2653911Y883720D1*
X2656796Y880835D1*
Y877984D1*
X2655337Y875098D1*
X2653911Y873672D1*
X2651059Y872247D1*
X2642437Y869361D1*
X2639552Y867936D1*
X2638126Y866476D1*
X2636700Y863624D1*
Y859313D1*
X2639552Y856462D1*
X2643863Y855002D1*
X2649600D1*
X2653911Y856462D1*
X2656796Y859313D1*
X2627436Y850028D2*
X2600178D1*
X2580866Y885146D2*
Y855002D1*
X2590914Y885146D2*
X2570818D1*
X2561554Y870787D2*
X2548655D1*
X2544344Y872247D1*
X2542884Y873672D1*
X2541458Y876524D1*
Y879409D1*
X2542884Y882261D1*
X2544344Y883720D1*
X2548655Y885146D1*
X2561554D1*
Y855002D1*
X2551506Y870787D2*
X2541458Y855002D1*
X2532195Y885146D2*
Y855002D1*
X2501409Y877984D2*
X2502835Y880835D1*
X2505720Y883720D1*
X2508572Y885146D1*
X2514309D1*
X2517194Y883720D1*
X2520046Y880835D1*
X2521505Y877984D1*
X2522931Y873672D1*
Y866476D1*
X2521505Y862199D1*
X2520046Y859313D1*
X2517194Y856462D1*
X2514309Y855002D1*
X2508572D1*
X2505720Y856462D1*
X2502835Y859313D1*
X2501409Y862199D1*
Y866476D1*
X2508572D1*
X2306507Y4352743D2*
X2295033Y4322599D1*
X2283559Y4352743D1*
X2274296Y4338384D2*
X2261396D1*
X2257085Y4339843D1*
X2255626Y4341269D1*
X2254200Y4344121D1*
Y4347006D1*
X2255626Y4349858D1*
X2257085Y4351317D1*
X2261396Y4352743D1*
X2274296D1*
Y4322599D1*
X2264248Y4338384D2*
X2254200Y4322599D1*
X2244936Y4317625D2*
X2217677D1*
X2208414Y4352743D2*
Y4322599D1*
X2198366D1*
X2194055Y4324058D1*
X2191170Y4326910D1*
X2189744Y4329795D1*
X2188318Y4334073D1*
Y4341269D1*
X2189744Y4345580D1*
X2191170Y4348432D1*
X2194055Y4351317D1*
X2198366Y4352743D1*
X2208414D1*
X2160417D2*
X2179054D1*
Y4322599D1*
X2160417D1*
X2179054Y4338384D2*
X2167580D1*
X2131058Y4352743D2*
Y4322599D1*
X2151154Y4352743D1*
Y4322599D1*
X2101698Y4348432D2*
X2104550Y4351317D1*
X2108861Y4352743D1*
X2114598D1*
X2118909Y4351317D1*
X2121794Y4348432D1*
Y4345580D1*
X2120335Y4342695D1*
X2118909Y4341269D1*
X2116057Y4339843D1*
X2107435Y4336958D1*
X2104550Y4335532D1*
X2103124Y4334073D1*
X2101698Y4331221D1*
Y4326910D1*
X2104550Y4324058D1*
X2108861Y4322599D1*
X2114598D1*
X2118909Y4324058D1*
X2121794Y4326910D1*
X1806524Y2452894D2*
X1795050Y2422750D1*
X1783576Y2452894D1*
X1774312Y2438535D2*
X1761412D1*
X1757101Y2439995D1*
X1755642Y2441421D1*
X1754216Y2444272D1*
Y2447157D1*
X1755642Y2450009D1*
X1757101Y2451469D1*
X1761412Y2452894D1*
X1774312D1*
Y2422750D1*
X1764264Y2438535D2*
X1754216Y2422750D1*
X1744953Y2417776D2*
X1717694D1*
X1689760Y2452894D2*
X1708430D1*
Y2422750D1*
Y2438535D2*
X1696956D1*
X1680497Y2452894D2*
Y2422750D1*
X1670449D1*
X1666138Y2424210D1*
X1663253Y2427061D1*
X1661827Y2429947D1*
X1660401Y2434224D1*
Y2441421D1*
X1661827Y2445732D1*
X1663253Y2448583D1*
X1666138Y2451469D1*
X1670449Y2452894D1*
X1680497D1*
X1651137D2*
Y2422750D1*
X1638204D1*
X1633893Y2424210D1*
X1632467Y2425636D1*
X1631041Y2428487D1*
Y2432798D1*
X1632467Y2435684D1*
X1633893Y2437109D1*
X1638204Y2438535D1*
X1633893Y2439995D1*
X1632467Y2441421D1*
X1631041Y2444272D1*
Y2447157D1*
X1632467Y2450009D1*
X1633893Y2451469D1*
X1638204Y2452894D1*
X1651137D1*
Y2438535D2*
X1638204D1*
X1621778Y2452894D2*
Y2422750D1*
X1601682Y2452894D2*
X1621778Y2432798D1*
X1614615Y2439995D2*
X1601682Y2422750D1*
X3292829Y3652894D2*
X3281355Y3622750D1*
X3269881Y3652894D1*
X3260618Y3638535D2*
X3247718D1*
X3243407Y3639995D1*
X3241948Y3641421D1*
X3240522Y3644272D1*
Y3647157D1*
X3241948Y3650009D1*
X3243407Y3651469D1*
X3247718Y3652894D1*
X3260618D1*
Y3622750D1*
X3250570Y3638535D2*
X3240522Y3622750D1*
X3231258Y3617776D2*
X3203999D1*
X3194736Y3652894D2*
Y3622750D1*
X3165376Y3652894D2*
Y3622750D1*
X3185472Y3652894D1*
Y3622750D1*
X2883935Y2452894D2*
X2872461Y2422750D1*
X2860987Y2452894D1*
X2851724Y2438535D2*
X2838824D1*
X2834513Y2439995D1*
X2833053Y2441421D1*
X2831628Y2444272D1*
Y2447157D1*
X2833053Y2450009D1*
X2834513Y2451469D1*
X2838824Y2452894D1*
X2851724D1*
Y2422750D1*
X2841676Y2438535D2*
X2831628Y2422750D1*
X2822364Y2417776D2*
X2795105D1*
X2762894Y2422750D2*
Y2452894D1*
X2774368Y2422750D1*
X2785841Y2452894D1*
Y2422750D1*
X2753630Y2452894D2*
Y2422750D1*
X2744366Y2452894D2*
X2724270Y2422750D1*
Y2452894D2*
X2744366Y2422750D1*
X818983Y3652894D2*
X807509Y3622750D1*
X796035Y3652894D1*
X786772Y3638535D2*
X773872D1*
X769561Y3639995D1*
X768101Y3641421D1*
X766676Y3644272D1*
Y3647157D1*
X768101Y3650009D1*
X769561Y3651469D1*
X773872Y3652894D1*
X786772D1*
Y3622750D1*
X776724Y3638535D2*
X766676Y3622750D1*
X757412Y3617776D2*
X730153D1*
X712267Y3652894D2*
X715153Y3651469D1*
X718004Y3648583D1*
X719464Y3645732D1*
X720889Y3641421D1*
Y3634224D1*
X719464Y3629947D1*
X718004Y3627061D1*
X715153Y3624210D1*
X712267Y3622750D1*
X706530D1*
X703679Y3624210D1*
X700793Y3627061D1*
X699368Y3629947D1*
X697942Y3634224D1*
Y3641421D1*
X699368Y3645732D1*
X700793Y3648583D1*
X703679Y3651469D1*
X706530Y3652894D1*
X712267D1*
X688678D2*
Y3631373D1*
X687252Y3627061D1*
X684367Y3624210D1*
X680056Y3622750D1*
X677204D1*
X672893Y3624210D1*
X670008Y3627061D1*
X668582Y3631373D1*
Y3652894D1*
X649270D2*
Y3622750D1*
X659318Y3652894D2*
X639222D1*
X2344000Y2452894D2*
X2332526Y2422750D1*
X2321052Y2452894D1*
X2311788Y2438535D2*
X2298888D1*
X2294577Y2439995D1*
X2293118Y2441421D1*
X2291692Y2444272D1*
Y2447157D1*
X2293118Y2450009D1*
X2294577Y2451469D1*
X2298888Y2452894D1*
X2311788D1*
Y2422750D1*
X2301740Y2438535D2*
X2291692Y2422750D1*
X2282429Y2417776D2*
X2255170D1*
X2245906Y2437109D2*
X2232973D1*
X2228695Y2438535D1*
X2227236Y2439995D1*
X2225810Y2442846D1*
Y2447157D1*
X2227236Y2450009D1*
X2228695Y2451469D1*
X2232973Y2452894D1*
X2245906D1*
Y2422750D1*
X2193565D2*
X2205073Y2452894D1*
X2216547Y2422750D1*
X2212235Y2432798D2*
X2197876D1*
X2164206Y2452894D2*
Y2422750D1*
X2184302Y2452894D1*
Y2422750D1*
X3337582Y4652894D2*
X3326108Y4622750D1*
X3314634Y4652894D1*
X3305370Y4638535D2*
X3292470D1*
X3288159Y4639995D1*
X3286700Y4641421D1*
X3285274Y4644272D1*
Y4647157D1*
X3286700Y4650009D1*
X3288159Y4651469D1*
X3292470Y4652894D1*
X3305370D1*
Y4622750D1*
X3295322Y4638535D2*
X3285274Y4622750D1*
X3276011Y4617776D2*
X3248752D1*
X3239488Y4637109D2*
X3226555D1*
X3222277Y4638535D1*
X3220818Y4639995D1*
X3219392Y4642846D1*
Y4647157D1*
X3220818Y4650009D1*
X3222277Y4651469D1*
X3226555Y4652894D1*
X3239488D1*
Y4622750D1*
X3210129Y4652894D2*
Y4622750D1*
X3190817Y4652894D2*
Y4622750D1*
X3200865Y4652894D2*
X3180769D1*
X3149983Y4645732D2*
X3151409Y4648583D1*
X3154294Y4651469D1*
X3157146Y4652894D1*
X3162883D1*
X3165768Y4651469D1*
X3168620Y4648583D1*
X3170079Y4645732D1*
X3171505Y4641421D1*
Y4634224D1*
X3170079Y4629947D1*
X3168620Y4627061D1*
X3165768Y4624210D1*
X3162883Y4622750D1*
X3157146D1*
X3154294Y4624210D1*
X3151409Y4627061D1*
X3149983Y4629947D1*
X3140720Y4652894D2*
Y4622750D1*
X3120624Y4652894D2*
Y4622750D1*
X3140720Y4638535D2*
X3120624D1*
X2961115Y4352743D2*
X2949641Y4322599D1*
X2938167Y4352743D1*
X2928903Y4338384D2*
X2916003D1*
X2911692Y4339843D1*
X2910233Y4341269D1*
X2908807Y4344121D1*
Y4347006D1*
X2910233Y4349858D1*
X2911692Y4351317D1*
X2916003Y4352743D1*
X2928903D1*
Y4322599D1*
X2918855Y4338384D2*
X2908807Y4322599D1*
X2899544Y4317625D2*
X2872285D1*
X2863021Y4336958D2*
X2850088D1*
X2845810Y4338384D1*
X2844351Y4339843D1*
X2842925Y4342695D1*
Y4347006D1*
X2844351Y4349858D1*
X2845810Y4351317D1*
X2850088Y4352743D1*
X2863021D1*
Y4322599D1*
X2825040Y4352743D2*
X2827925Y4351317D1*
X2830777Y4348432D1*
X2832236Y4345580D1*
X2833662Y4341269D1*
Y4334073D1*
X2832236Y4329795D1*
X2830777Y4326910D1*
X2827925Y4324058D1*
X2825040Y4322599D1*
X2819303D1*
X2816451Y4324058D1*
X2813566Y4326910D1*
X2812140Y4329795D1*
X2810714Y4334073D1*
Y4341269D1*
X2812140Y4345580D1*
X2813566Y4348432D1*
X2816451Y4351317D1*
X2819303Y4352743D1*
X2825040D1*
X2781354Y4348432D2*
X2784206Y4351317D1*
X2788517Y4352743D1*
X2794254D1*
X2798565Y4351317D1*
X2801450Y4348432D1*
Y4345580D1*
X2799991Y4342695D1*
X2798565Y4341269D1*
X2795713Y4339843D1*
X2787091Y4336958D1*
X2784206Y4335532D1*
X2782780Y4334073D1*
X2781354Y4331221D1*
Y4326910D1*
X2784206Y4324058D1*
X2788517Y4322599D1*
X2794254D1*
X2798565Y4324058D1*
X2801450Y4326910D1*
X2772091Y4352743D2*
Y4322599D1*
X1821459Y4352743D2*
X1809985Y4322599D1*
X1798511Y4352743D1*
X1789248Y4338384D2*
X1776348D1*
X1772037Y4339843D1*
X1770578Y4341269D1*
X1769152Y4344121D1*
Y4347006D1*
X1770578Y4349858D1*
X1772037Y4351317D1*
X1776348Y4352743D1*
X1789248D1*
Y4322599D1*
X1779200Y4338384D2*
X1769152Y4322599D1*
X1759888Y4317625D2*
X1732629D1*
X1703270Y4348432D2*
X1706122Y4351317D1*
X1710433Y4352743D1*
X1716170D1*
X1720481Y4351317D1*
X1723366Y4348432D1*
Y4345580D1*
X1721907Y4342695D1*
X1720481Y4341269D1*
X1717629Y4339843D1*
X1709007Y4336958D1*
X1706122Y4335532D1*
X1704696Y4334073D1*
X1703270Y4331221D1*
Y4326910D1*
X1706122Y4324058D1*
X1710433Y4322599D1*
X1716170D1*
X1720481Y4324058D1*
X1723366Y4326910D1*
X1694006Y4352743D2*
Y4322599D1*
X1684743Y4352743D2*
X1664647D1*
X1684743Y4322599D1*
X1664647D1*
X1636746Y4352743D2*
X1655383D1*
Y4322599D1*
X1636746D1*
X1655383Y4338384D2*
X1643909D1*
X1052669Y4316405D2*
X1082813Y4304931D1*
X1052669Y4293457D1*
X1067028Y4284193D2*
Y4271293D1*
X1065569Y4266982D1*
X1064143Y4265523D1*
X1061291Y4264097D1*
X1058406D1*
X1055554Y4265523D1*
X1054095Y4266982D1*
X1052669Y4271293D1*
Y4284193D1*
X1082813D1*
X1067028Y4274145D2*
X1082813Y4264097D1*
X1087787Y4254834D2*
Y4227575D1*
X1052669Y4208263D2*
X1082813D1*
X1052669Y4218311D2*
Y4198215D1*
Y4170315D2*
Y4188952D1*
X1082813Y4188951D1*
Y4170315D1*
X1067028Y4188951D2*
Y4177478D1*
X1052669Y4161051D2*
X1082813Y4140955D1*
X1052669D2*
X1082813Y4161051D1*
X1052669Y4121644D2*
X1082813D1*
X1052669Y4131692D2*
Y4111596D1*
X1257933Y2452894D2*
X1246459Y2422750D1*
X1234985Y2452894D1*
X1225722Y2438535D2*
X1212822D1*
X1208511Y2439995D1*
X1207052Y2441421D1*
X1205626Y2444272D1*
Y2447157D1*
X1207052Y2450009D1*
X1208511Y2451469D1*
X1212822Y2452894D1*
X1225722D1*
Y2422750D1*
X1215674Y2438535D2*
X1205626Y2422750D1*
X1196362Y2417776D2*
X1169103D1*
X1159840Y2452894D2*
X1148366Y2422750D1*
X1136892Y2452894D1*
X1108991D2*
X1127628D1*
Y2422750D1*
X1108991D1*
X1127628Y2438535D2*
X1116154D1*
X1099728D2*
X1086828D1*
X1082517Y2439995D1*
X1081058Y2441421D1*
X1079632Y2444272D1*
Y2447157D1*
X1081058Y2450009D1*
X1082517Y2451469D1*
X1086828Y2452894D1*
X1099728D1*
Y2422750D1*
X1089680Y2438535D2*
X1079632Y2422750D1*
X1070368Y2452894D2*
Y2422750D1*
X1057435D1*
X1053124Y2424210D1*
X1051698Y2425636D1*
X1050272Y2428487D1*
Y2432798D1*
X1051698Y2435684D1*
X1053124Y2437109D1*
X1057435Y2438535D1*
X1053124Y2439995D1*
X1051698Y2441421D1*
X1050272Y2444272D1*
Y2447157D1*
X1051698Y2450009D1*
X1053124Y2451469D1*
X1057435Y2452894D1*
X1070368D1*
Y2438535D2*
X1057435D1*
X3115139Y2478971D2*
D25*
Y2510032D1*
X3165379D1*
Y2478971D1*
X3139070Y2510032D2*
Y2490909D1*
X3160570Y2468594D2*
X3163002Y2470971D1*
X3165379Y2468594D1*
X3163002Y2466162D1*
X3160570Y2468594D1*
X3127077Y2381131D2*
X3122324Y2383507D1*
X3117515Y2388316D1*
X3115139Y2393069D1*
Y2402630D1*
X3117515Y2407439D1*
X3122324Y2412192D1*
X3127077Y2414624D1*
X3134262Y2417001D1*
X3146255D1*
X3153385Y2414624D1*
X3158194Y2412192D1*
X3162947Y2407439D1*
X3165379Y2402630D1*
Y2393069D1*
X3162947Y2388316D1*
X3158194Y2383507D1*
X3153385Y2381131D1*
X3146255D1*
Y2393069D1*
X3115139Y2373131D2*
X3117515Y2370754D1*
X3115139Y2368322D1*
X3112707Y2370754D1*
X3115139Y2373131D1*
X3131885Y2370754D2*
X3165379D1*
X3115139Y2360322D2*
X3165379D1*
X3115139Y2352322D2*
X3165379D1*
X3146255Y2344322D2*
Y2315637D1*
X3141447D1*
X3136638Y2318014D1*
X3134262Y2320390D1*
X3131885Y2325199D1*
Y2332384D1*
X3134262Y2337137D1*
X3139070Y2341946D1*
X3146255Y2344322D1*
X3151009D1*
X3158194Y2341946D1*
X3162947Y2337137D1*
X3165379Y2332384D1*
Y2325199D1*
X3162947Y2320390D1*
X3158194Y2315637D1*
X3115139Y2300452D2*
X3155817D1*
X3162947Y2298076D1*
X3165379Y2293267D1*
Y2288514D1*
X3131885Y2307637D2*
Y2290891D1*
X3127077Y2203482D2*
X3122324Y2205859D1*
X3117515Y2210667D1*
X3115139Y2215421D1*
Y2224982D1*
X3117515Y2229791D1*
X3122324Y2234544D1*
X3127077Y2236976D1*
X3134262Y2239352D1*
X3146255D1*
X3153385Y2236976D1*
X3158194Y2234544D1*
X3162947Y2229791D1*
X3165379Y2224982D1*
Y2215421D1*
X3162947Y2210667D1*
X3158194Y2205859D1*
X3153385Y2203482D1*
X3127077Y2159612D2*
X3122324Y2161989D1*
X3117515Y2166798D1*
X3115139Y2171551D1*
Y2181112D1*
X3117515Y2185921D1*
X3122324Y2190674D1*
X3127077Y2193106D1*
X3134262Y2195482D1*
X3146255D1*
X3153385Y2193106D1*
X3158194Y2190674D1*
X3162947Y2185921D1*
X3165379Y2181112D1*
Y2171551D1*
X3162947Y2166797D1*
X3158194Y2161989D1*
X3153385Y2159612D1*
X3115139Y2110451D2*
X3165379D1*
Y2088896D1*
X3162947Y2081711D1*
X3160570Y2079334D1*
X3155817Y2076957D1*
X3148632D1*
X3143824Y2079334D1*
X3141447Y2081711D1*
X3139070Y2088896D1*
X3136638Y2081711D1*
X3134262Y2079334D1*
X3129509Y2076957D1*
X3124700D1*
X3119947Y2079334D1*
X3117515Y2081711D1*
X3115139Y2088896D1*
Y2110451D1*
X3139070D2*
Y2088896D1*
X3115139Y2068957D2*
X3139070Y2049834D1*
X3165379D1*
X3115139Y2030711D2*
X3139070Y2049834D1*
X3140286Y2022711D2*
Y1995076D1*
X3122324Y1953583D2*
X3117515Y1958336D1*
X3115139Y1965521D1*
Y1975083D1*
X3117515Y1982268D1*
X3122324Y1987076D1*
X3127077D1*
X3131885Y1984644D1*
X3134262Y1982268D1*
X3136638Y1977514D1*
X3141447Y1963144D1*
X3143824Y1958336D1*
X3146255Y1955959D1*
X3151009Y1953583D1*
X3158194D1*
X3162947Y1958336D1*
X3165379Y1965521D1*
Y1975083D1*
X3162947Y1982268D1*
X3158194Y1987076D1*
X3165379Y1907281D2*
X3115139Y1926460D1*
X3165379Y1945583D1*
X3148632Y1938398D2*
Y1914466D1*
X3115194Y1853311D2*
Y1827058D1*
X3134317Y1841373D1*
Y1834188D1*
X3136694Y1829434D1*
X3139070Y1827058D1*
X3146255Y1824626D1*
X3151009D1*
X3158194Y1827058D1*
X3163002Y1831811D1*
X3165379Y1838996D1*
Y1846181D1*
X3163002Y1853311D1*
X3160570Y1855687D1*
X3155817Y1858119D1*
X3160570Y1814249D2*
X3163002Y1816626D1*
X3165379Y1814249D1*
X3163002Y1811818D1*
X3160570Y1814249D1*
X3115194Y1789448D2*
X3117571Y1796633D1*
X3124756Y1801441D1*
X3136694Y1803818D1*
X3143879D1*
X3155817Y1801441D1*
X3163002Y1796632D1*
X3165379Y1789447D1*
Y1784694D1*
X3163002Y1777509D1*
X3155817Y1772756D1*
X3143879Y1770324D1*
X3136694D1*
X3124756Y1772756D1*
X3117570Y1777509D1*
X3115194Y1784694D1*
Y1789448D1*
X3124756Y1772756D2*
X3155817Y1801441D1*
X1358932Y929141D2*
D135*
X1377602D1*
Y898997D1*
Y914782D2*
X1366129D1*
X1334296Y929141D2*
X1352932D1*
Y898997D1*
X1334296D1*
X1352932Y914782D2*
X1341458D1*
X1305348Y898997D2*
Y929141D1*
X1316822Y898997D1*
X1328296Y929141D1*
Y898997D1*
X1276367D2*
X1287874Y929141D1*
X1299348Y898997D1*
X1295037Y909045D2*
X1280678D1*
X1270367Y929141D2*
Y898997D1*
X1253156D1*
X1228519Y929141D2*
X1247156D1*
Y898997D1*
X1228519D1*
X1247156Y914782D2*
X1235682D1*
X1365183Y2554141D2*
X1383853D1*
Y2523997D1*
Y2539782D2*
X1372379D1*
X1340546Y2554141D2*
X1359183D1*
Y2523997D1*
X1340546D1*
X1359183Y2539782D2*
X1347709D1*
X1311598Y2523997D2*
Y2554141D1*
X1323072Y2523997D1*
X1334546Y2554141D1*
Y2523997D1*
X1282617D2*
X1294124Y2554141D1*
X1305598Y2523997D1*
X1301287Y2534045D2*
X1286928D1*
X1276617Y2554141D2*
Y2523997D1*
X1259406D1*
X1234769Y2554141D2*
X1253406D1*
Y2523997D1*
X1234769D1*
X1253406Y2539782D2*
X1241932D1*
M02*
