M48
INCH
T01C0.0138
T02C0.024
T03C0.0276
T04C0.032
T05C0.0354
T06C0.0394
T07C0.04
T08C0.043
T09C0.05
T10C0.052
%
T01
X+026769Y+042800
X+026021Y+043022
X+025246Y+042981
X+026293Y+043882
X+024156Y+044096
X+023264Y+044073
X+022014Y+044012
X+020987Y+044033
X+019758Y+044035
X+020267Y+042673
X+021166Y+042250
X+021473Y+041746
X+022094Y+041613
X+022123Y+041081
X+022876Y+041417
X+023262Y+041296
X+023674Y+040911
X+023456Y+042007
X+025901Y+041133
X+025880Y+040730
X+025888Y+040362
X+025388Y+039203
X+024798Y+038618
X+024778Y+038020
X+024464Y+037360
X+024094Y+036454
X+024464Y+036118
X+025629Y+036383
X+025807Y+037360
X+025706Y+037783
X+026973Y+037068
X+027320Y+037437
X+027884Y+037286
X+027813Y+036269
X+026901Y+036157
X+027289Y+035209
X+026796Y+034216
X+025764Y+034195
X+025662Y+035071
X+024095Y+033710
X+023365Y+033652
X+022587Y+034720
X+021436Y+035528
X+021223Y+036273
X+021328Y+036744
X+021515Y+037445
X+021679Y+037965
X+022020Y+038371
X+022591Y+038691
X+022268Y+039083
X+021745Y+039251
X+021048Y+038984
X+021084Y+039623
X+021061Y+040472
X+019863Y+040136
X+018664Y+040730
X+018231Y+040193
X+018195Y+039490
X+019291Y+038700
X+020692Y+038424
X+019827Y+037001
X+019338Y+037112
X+019290Y+036499
X+019294Y+036045
X+020061Y+036000
X+019486Y+034753
X+018501Y+034504
X+018638Y+034018
X+017952Y+035111
X+018251Y+035360
X+018112Y+035750
X+017753Y+035680
X+017307Y+035727
X+017047Y+036183
X+016734Y+036581
X+017024Y+037007
X+016336Y+037498
X+016330Y+038061
X+016306Y+039425
X+016754Y+039722
X+017243Y+041283
X+016864Y+041480
X+018962Y+042040
X+019030Y+042585
X+014758Y+043005
X+014417Y+043008
X+014119Y+042753
X+013748Y+042933
X+013217Y+041337
X+012817Y+041018
X+012061Y+040103
X+012261Y+039809
X+011910Y+039540
X+011584Y+040426
X+010843Y+041418
X+010669Y+043669
X+009867Y+043912
X+009798Y+044423
X+009429Y+045737
X+011384Y+045992
X+011732Y+044967
X+011812Y+044486
X+013172Y+045210
X+014859Y+040209
X+013931Y+039927
X+013533Y+039603
X+013286Y+039235
X+013736Y+038911
X+013213Y+038612
X+013696Y+037982
X+014549Y+038332
X+014980Y+037832
X+013515Y+037020
X+013442Y+036298
X+013453Y+035651
X+013666Y+035190
X+013959Y+034195
X+013416Y+034158
X+011927Y+035257
X+012211Y+036813
X+011670Y+037423
X+011368Y+037173
X+011246Y+037567
X+010998Y+037811
X+011461Y+038384
X+011229Y+038649
X+010952Y+038858
X+010794Y+039160
X+010194Y+039039
X+009713Y+038752
X+009045Y+038676
X+008157Y+039137
X+006773Y+039754
X+004666Y+039310
X+004302Y+036693
X+004363Y+034960
X+004285Y+033563
X+005702Y+032838
X+006177Y+032486
X+006416Y+033063
X+007584Y+032426
X+006416Y+034690
X+007411Y+035968
X+008416Y+035440
X+011890Y+038285
X+012175Y+038095
X+015537Y+036004
X+015537Y+035246
X+015106Y+035329
X+016064Y+034190
X+016580Y+034263
X+016990Y+035160
X+016210Y+036498
X+018650Y+032466
X+020180Y+031669
X+020449Y+030934
X+021150Y+029950
X+022667Y+030302
X+023290Y+030879
X+023804Y+031711
X+023376Y+032233
X+022608Y+032310
X+022121Y+032491
X+021930Y+033403
X+020729Y+032491
X+022727Y+028815
X+022578Y+028315
X+023547Y+028815
X+025081Y+028663
X+025802Y+028524
X+025867Y+029488
X+026439Y+029955
X+026439Y+030966
X+026166Y+031256
X+025652Y+031276
X+025307Y+031992
X+025652Y+032801
X+026387Y+032674
X+027691Y+032720
X+028246Y+032720
X+028725Y+032966
X+029732Y+032795
X+030320Y+033074
X+029727Y+031842
X+028757Y+030913
X+029446Y+030462
X+029033Y+029539
X+029293Y+029063
X+029356Y+028643
X+029033Y+027989
X+029057Y+027441
X+029843Y+028052
X+031020Y+028487
X+031626Y+028990
X+032493Y+029555
X+032734Y+029190
X+032797Y+030007
X+032684Y+030410
X+031023Y+030330
X+027904Y+030052
X+027618Y+030318
X+027583Y+030958
X+027735Y+031887
X+027824Y+033995
X+029388Y+035044
X+030754Y+035940
X+030787Y+036434
X+030751Y+036951
X+031916Y+037440
X+032191Y+037184
X+031931Y+037930
X+032357Y+038922
X+032910Y+038434
X+034012Y+038940
X+034685Y+038292
X+034091Y+037963
X+034096Y+036935
X+034640Y+037037
X+035175Y+037037
X+034658Y+035409
X+035330Y+034660
X+031209Y+035515
X+031080Y+035019
X+028863Y+038299
X+029102Y+038659
X+028973Y+040808
X+030539Y+042064
X+032910Y+039861
X+034052Y+040192
X+034676Y+039722
X+034385Y+043189
X+026893Y+039457
X+024156Y+038469
X+022962Y+038288
X+022958Y+036780
X+020567Y+028073
X+021333Y+027019
X+021163Y+025762
X+022036Y+025865
X+023512Y+025076
X+022730Y+023563
X+021983Y+024144
X+021890Y+022074
X+021017Y+021151
X+021346Y+020617
X+023248Y+020611
X+024653Y+020356
X+024459Y+019736
X+024459Y+019100
X+025013Y+018003
X+023393Y+018313
X+022652Y+018280
X+021346Y+017660
X+020603Y+018620
X+020124Y+018689
X+019738Y+017552
X+020385Y+016789
X+021287Y+016441
X+021531Y+016006
X+021323Y+015219
X+021928Y+014081
X+022948Y+013467
X+022936Y+012981
X+021942Y+012001
X+023907Y+011745
X+024606Y+013452
X+025129Y+014113
X+023338Y+014589
X+024396Y+016428
X+022694Y+016730
X+020573Y+014054
X+019862Y+014621
X+019417Y+013755
X+018878Y+013648
X+018751Y+014041
X+017835Y+014088
X+017516Y+015179
X+018504Y+016541
X+016932Y+016808
X+016231Y+017542
X+015384Y+018012
X+015107Y+018783
X+014250Y+020381
X+014780Y+020719
X+014741Y+021149
X+013787Y+021121
X+013120Y+019576
X+013114Y+018472
X+012568Y+018542
X+013267Y+017102
X+012443Y+016167
X+011647Y+016600
X+011257Y+015782
X+010621Y+016734
X+010155Y+016279
X+009715Y+016939
X+010645Y+017666
X+011316Y+017514
X+008830Y+018666
X+008846Y+019173
X+008754Y+020652
X+008171Y+021027
X+008256Y+021816
X+008121Y+022615
X+008256Y+023284
X+008351Y+024140
X+008614Y+024476
X+008380Y+024961
X+008327Y+025688
X+008319Y+026497
X+006794Y+024589
X+005786Y+024159
X+004280Y+023899
X+004232Y+028172
X+005631Y+029192
X+005210Y+031481
X+004220Y+031893
X+007972Y+029179
X+010868Y+028752
X+010952Y+029156
X+011765Y+028705
X+010898Y+028172
X+010938Y+027691
X+012976Y+028217
X+013050Y+027697
X+013000Y+027192
X+013845Y+028781
X+013666Y+029710
X+013937Y+029975
X+014268Y+030160
X+015284Y+030514
X+015684Y+030947
X+016007Y+030484
X+015812Y+028272
X+015812Y+027173
X+014876Y+026917
X+015229Y+025677
X+013770Y+025375
X+014030Y+024715
X+012880Y+024840
X+012096Y+024580
X+011765Y+025111
X+011344Y+023879
X+011099Y+023339
X+010473Y+023544
X+010392Y+021084
X+011881Y+021038
X+014876Y+023885
X+017034Y+023320
X+016994Y+024675
X+017409Y+024953
X+017727Y+027092
X+013014Y+031025
X+012649Y+031282
X+011679Y+031606
X+016277Y+020790
X+016542Y+020378
X+017744Y+020587
X+017198Y+018095
X+015971Y+016269
X+015114Y+014588
X+014686Y+014098
X+013871Y+014070
X+014799Y+013000
X+015368Y+013065
X+016273Y+012785
X+015140Y+012101
X+016557Y+011161
X+017932Y+011771
X+018129Y+012339
X+018886Y+011918
X+018291Y+011065
X+018996Y+010242
X+019968Y+011100
X+019862Y+012457
X+020143Y+009023
X+018901Y+008779
X+019409Y+007241
X+019987Y+007030
X+019997Y+005453
X+017834Y+005351
X+017428Y+005878
X+016110Y+005905
X+016150Y+006885
X+016150Y+007738
X+015114Y+008017
X+014664Y+008670
X+014419Y+010369
X+013059Y+011190
X+012589Y+010513
X+012056Y+009818
X+011062Y+011032
X+012090Y+011661
X+013099Y+012057
X+012065Y+013324
X+011317Y+012983
X+010949Y+013435
X+010978Y+012335
X+009322Y+012190
X+008745Y+012913
X+008507Y+013922
X+008057Y+014517
X+007405Y+014821
X+006726Y+013943
X+005791Y+014270
X+004900Y+014465
X+004337Y+015134
X+005122Y+013564
X+005122Y+011923
X+006166Y+012190
X+006023Y+011200
X+007405Y+010690
X+007291Y+010190
X+007273Y+009590
X+008236Y+009619
X+008791Y+008775
X+008265Y+008308
X+007266Y+008351
X+006737Y+008771
X+006737Y+007221
X+007280Y+006837
X+008273Y+006844
X+008736Y+006880
X+009291Y+005522
X+008732Y+004471
X+011166Y+004690
X+011995Y+006190
X+015159Y+006378
X+015911Y+004446
X+017211Y+007263
X+018071Y+007037
X+016230Y+009419
X+022631Y+007776
X+023601Y+008641
X+024368Y+008649
X+023877Y+009799
X+026427Y+011628
X+027136Y+009972
X+027476Y+007724
X+027840Y+005603
X+023653Y+006600
X+029413Y+010815
X+031435Y+011759
X+031794Y+011565
X+033006Y+012356
X+032831Y+013972
X+033892Y+014036
X+031400Y+013385
X+030779Y+012614
X+028624Y+013053
X+028318Y+013404
X+028668Y+014112
X+029032Y+014880
X+029344Y+014733
X+028705Y+015144
X+027306Y+015203
X+027397Y+015797
X+027498Y+014113
X+027040Y+013570
X+030813Y+014868
X+030663Y+015324
X+030097Y+016761
X+029948Y+017773
X+027262Y+017561
X+026666Y+018019
X+027216Y+018397
X+027229Y+020336
X+027426Y+020915
X+026643Y+021422
X+025846Y+020853
X+027804Y+023839
X+028291Y+024965
X+026783Y+025226
X+026302Y+027025
X+026996Y+027467
X+027627Y+027123
X+027900Y+027574
X+027915Y+028562
X+027618Y+028771
X+029166Y+026263
X+029721Y+026428
X+030328Y+025941
X+030932Y+026019
X+030712Y+025465
X+030843Y+024834
X+031478Y+024969
X+032613Y+024371
X+032375Y+023909
X+032613Y+025574
X+032449Y+026440
X+032449Y+027455
X+035272Y+028717
X+034848Y+024041
X+034370Y+023651
X+030539Y+023742
X+029703Y+023914
X+030940Y+021357
X+030499Y+021090
X+024812Y+027435
X+011729Y+014409
X+010106Y+014976
X+009875Y+013975
X+008641Y+015032
X+007795Y+011187
X+008057Y+010690
X+009356Y+010357
X+006849Y+020274
X+007276Y+043576
X+006912Y+045737
X+031864Y+010079
X+032471Y+007638
X+034437Y+005184
X+034930Y+005429
T02
X+010405Y+046492
X+010905Y+046492
X+010905Y+045992
X+010405Y+045992
X+010405Y+045492
X+010905Y+045492
X+010905Y+044992
X+010405Y+044992
X+010405Y+044492
X+010905Y+044492
T03
X+009260Y+043940
X+005323Y+043940
T04
X+034291Y+026940
X+033291Y+026940
X+033291Y+024940
X+034291Y+024940
X+034291Y+022940
X+033291Y+022940
X+033291Y+020940
X+034291Y+020940
X+023666Y+044440
X+022666Y+044440
X+021416Y+044440
X+020416Y+044440
X+019166Y+044440
X+018166Y+044440
X+016916Y+044440
X+015916Y+044440
X+015916Y+046190
X+016916Y+046190
X+018166Y+046190
X+019166Y+046190
X+020416Y+046190
X+021416Y+046190
X+022666Y+046190
X+023666Y+046190
X+006291Y+026940
X+005291Y+026940
X+005291Y+024940
X+006291Y+024940
X+006291Y+022940
X+005291Y+022940
X+005291Y+020940
X+006291Y+020940
T05
X+007291Y+042956
X+008275Y+042956
X+008275Y+044924
X+007291Y+044924
X+006307Y+044924
X+006307Y+042956
T06
X+016057Y+019184
X+017041Y+019184
X+018025Y+019184
X+021557Y+019184
X+022541Y+019184
X+023525Y+019184
X+027057Y+019184
X+028041Y+019184
X+029025Y+019184
X+031307Y+031184
X+032291Y+031184
X+033275Y+031184
X+033275Y+041184
X+032291Y+041184
X+031307Y+041184
X+008275Y+031184
X+007291Y+031184
X+006307Y+031184
X+010557Y+019184
X+011541Y+019184
X+012525Y+019184
T07
X+029791Y+008820
X+029791Y+008810
X+026681Y+007720
X+025791Y+008820
X+024901Y+007720
X+024901Y+005160
X+026681Y+005160
X+021791Y+008810
X+021791Y+008820
X+017791Y+008820
X+017791Y+008810
X+013791Y+008810
X+013791Y+008820
X+009791Y+008820
X+009791Y+008810
X+005791Y+008810
X+005791Y+008820
X+004901Y+016660
X+006681Y+016660
X+006681Y+019220
X+004901Y+019220
X+013911Y+015440
X+014671Y+015440
X+024911Y+015440
X+025671Y+015440
X+032901Y+016660
X+034681Y+016660
X+034681Y+019220
X+032901Y+019220
X+033791Y+008820
X+033791Y+008810
X+027181Y+043910
X+025401Y+043910
X+025401Y+046470
X+027181Y+046470
X+014181Y+046470
X+012401Y+046470
X+012401Y+043910
X+014181Y+043910
X+009711Y+041442
X+009711Y+040442
X+008711Y+040442
X+008711Y+041442
X+007711Y+041442
X+007711Y+040442
X+006711Y+040442
X+006711Y+041442
X+005711Y+041442
X+005711Y+040442
X+005841Y+046550
X+006841Y+046550
X+007841Y+046550
X+008841Y+046550
T08
X+022541Y+026316
X+023541Y+026316
X+025291Y+026316
X+026291Y+026316
X+027291Y+026316
X+028291Y+026316
X+021541Y+026316
X+020541Y+026316
X+018791Y+026316
X+017791Y+026316
X+016791Y+026316
X+015791Y+026316
X+014291Y+026316
X+013291Y+026316
X+012291Y+026316
X+011291Y+026316
X+011291Y+042064
X+013291Y+042064
X+015791Y+042064
X+017791Y+042064
X+020541Y+042064
X+022541Y+042064
X+025291Y+042064
X+027291Y+042064
T09
X+015191Y+021790G85X+015191Y+022090
X+013391Y+021790G85X+013391Y+022090
X+009691Y+021790G85X+009691Y+022090
X+018891Y+021790G85X+018891Y+022090
X+020691Y+021790G85X+020691Y+022090
X+024391Y+021790G85X+024391Y+022090
X+026191Y+021790G85X+026191Y+022090
X+029891Y+021790G85X+029891Y+022090
X+030441Y+033790G85X+030441Y+034090
X+034141Y+033790G85X+034141Y+034090
X+034141Y+043790G85X+034141Y+044090
X+030441Y+043790G85X+030441Y+044090
X+009141Y+033790G85X+009141Y+034090
X+005441Y+033790G85X+005441Y+034090
T10
X+029791Y+009820
X+029791Y+007810
X+029791Y+004560
X+033791Y+004560
X+033791Y+007810
X+033791Y+009820
X+033791Y+013070
X+029791Y+013070
X+029921Y+015440
X+026671Y+015440
X+025791Y+013070
X+023911Y+015440
X+021791Y+013070
X+020661Y+015440
X+018921Y+015440
X+017791Y+013070
X+015671Y+015440
X+012911Y+015440
X+013791Y+013070
X+013791Y+009820
X+013791Y+007810
X+013791Y+004560
X+017791Y+004560
X+017791Y+007810
X+017791Y+009820
X+021791Y+009820
X+021791Y+007810
X+021791Y+004560
X+025791Y+009820
X+009791Y+009820
X+009791Y+007810
X+009791Y+004560
X+005791Y+004560
X+005791Y+007810
X+005791Y+009820
X+005791Y+013070
X+009791Y+013070
X+009661Y+015440
T00
M30
