G04 DipTrace 3.3.0.0*
G04 typhoon.GTP*
%MOIN*%
G04 #@! TF.FileFunction,Paste,Top*
G04 #@! TF.Part,Single*
%AMOUTLINE7*
4,1,4,
-0.002,-0.0195,
-0.002,0.0195,
0.002,0.0195,
0.002,-0.0195,
-0.002,-0.0195,
0*%
%AMOUTLINE10*
4,1,4,
0.0195,-0.002,
-0.0195,-0.002,
-0.0195,0.002,
0.0195,0.002,
0.0195,-0.002,
0*%
%ADD81R,0.062866X0.007748*%
%ADD83R,0.079X0.016*%
%ADD85R,0.03137X0.019559*%
%ADD87R,0.07074X0.015622*%
%ADD89R,0.078614X0.133732*%
%ADD91R,0.079992X0.039992*%
%ADD93R,0.019559X0.03137*%
%ADD95R,0.072X0.018*%
%ADD97R,0.133732X0.078614*%
%ADD99R,0.039992X0.079992*%
%ADD101R,0.078614X0.015622*%
%ADD103R,0.051055X0.007748*%
%ADD109R,0.03137X0.047118*%
%ADD111R,0.11011X0.086488*%
%ADD123R,0.019559X0.025465*%
%ADD125R,0.03137X0.078614*%
%ADD127R,0.051055X0.043181*%
%ADD129R,0.035307X0.03137*%
%ADD131R,0.054992X0.090425*%
%ADD133R,0.03137X0.035307*%
%ADD145OUTLINE7*%
%ADD148OUTLINE10*%
%FSLAX26Y26*%
G04*
G70*
G90*
G75*
G01*
G04 TopPaste*
%LPD*%
D133*
X1417071Y4233374D3*
Y4166445D3*
X2587105Y4231038D3*
Y4164109D3*
X2663835Y4231038D3*
Y4164109D3*
D131*
X2966603Y4081795D3*
Y3944000D3*
D129*
X1212567Y4102465D3*
X1145638D3*
X1987629Y4045235D3*
X2054558D3*
X2358532Y4044000D3*
X2291603D3*
X2056965Y3969123D3*
X1990036D3*
X3314548Y3986081D3*
X3381477D3*
X3525067Y3944000D3*
X3458138D3*
X869634Y3915555D3*
X936563D3*
X2949674Y3819000D3*
X3016603D3*
D133*
X2234594Y3766840D3*
Y3699911D3*
D129*
X2866603Y3758399D3*
X2799674D3*
X3526311Y3756500D3*
X3459382D3*
X3016603Y3719000D3*
X2949674D3*
D131*
X2204103Y3581500D3*
Y3443705D3*
D133*
X441603Y3544000D3*
Y3610929D3*
D131*
X2629103Y3520899D3*
Y3383104D3*
X2854103Y3520899D3*
Y3383104D3*
D129*
X1992991Y3561915D3*
X2059920D3*
D133*
X729103Y3535929D3*
Y3469000D3*
D129*
X2516603Y3508399D3*
X2449674D3*
X3250067Y3506500D3*
X3183138D3*
X3525067D3*
X3458138D3*
X1241603Y3469000D3*
X1174674D3*
D127*
X1066603Y3456500D3*
Y3381697D3*
D131*
X2491603Y3333119D3*
Y3195324D3*
X1229103Y3331500D3*
Y3193705D3*
X2129103Y3319000D3*
Y3181205D3*
D129*
X1867654Y3369531D3*
X1934583D3*
X1479103Y3369000D3*
X1412174D3*
X1691603D3*
X1758532D3*
X2337567Y3344000D3*
X2270638D3*
D127*
X441603Y3306500D3*
Y3231697D3*
X691603Y3231500D3*
Y3306303D3*
D129*
X1872007Y3279324D3*
X1938936D3*
X3449674Y3237307D3*
X3516603D3*
X2808138Y3230194D3*
X2875067D3*
X2270638Y3169000D3*
X2337567D3*
X3449674Y3149807D3*
X3516603D3*
X1514381Y3094000D3*
X1447452D3*
X1622452D3*
X1689381D3*
X2875067Y3130194D3*
X2808138D3*
X3025067D3*
X2958138D3*
X2575067Y3077465D3*
X2508138D3*
X2737567Y2947958D3*
X2670638D3*
X454103Y2869000D3*
X521032D3*
X3308138Y2831500D3*
X3375067D3*
D127*
X1854103Y2808478D3*
Y2733675D3*
D133*
X1380450Y2786251D3*
Y2719322D3*
D129*
X2087567Y2731500D3*
X2020638D3*
X2104914Y2531579D3*
X2171843D3*
X2577788Y2535228D3*
X2510859D3*
X954838Y2588340D3*
X1021767D3*
D133*
X2916603Y2519000D3*
Y2585929D3*
D129*
X1624674Y1805571D3*
X1691603D3*
X1127189Y1795850D3*
X1060260D3*
X2204103Y1704004D3*
X2271032D3*
X2796032Y1623992D3*
X2729103D3*
X2206101Y1608010D3*
X2273031D3*
X1061070Y1521954D3*
X1127999D3*
D133*
X3504103Y1519000D3*
Y1452071D3*
D129*
X516603Y1231500D3*
X583532D3*
X1041603D3*
X974674D3*
X3181914Y1229130D3*
X3248843D3*
X1213164Y1206500D3*
X1280094D3*
X1890605Y1149290D3*
X1957534D3*
X2370638Y1110535D3*
X2437567D3*
X1050067Y1060535D3*
X983138D3*
X579846Y1057924D3*
X512916D3*
X2699674Y1056500D3*
X2766603D3*
X1538338Y980235D3*
X1471408D3*
X1620898Y978860D3*
X1687827D3*
X1958759Y954605D3*
X1891830D3*
X1512174Y681500D3*
X1579103D3*
X2071032Y669000D3*
X2004103D3*
X1516603Y506500D3*
X1583532D3*
D125*
X541603Y3619000D3*
X641603D3*
Y3843803D3*
X541603D3*
D123*
X466603Y3894000D3*
Y3831008D3*
X741603Y3894000D3*
Y3831008D3*
D111*
X2491603Y4069000D3*
X2691230D3*
X1431092Y3219000D3*
X1630720D3*
D109*
X746965Y1765188D3*
X784366Y1851802D3*
X821768Y1765188D3*
X903080Y1763547D3*
X940482Y1850161D3*
X977884Y1763547D3*
D129*
X1607322Y4356160D3*
X1540393D3*
X1737994D3*
X1671065D3*
X1871817D3*
X1804887D3*
X1937798D3*
X2004727D3*
X2070075D3*
X2137004D3*
X2206844D3*
X2273773D3*
D133*
X2342264Y4375781D3*
Y4308852D3*
X2404103Y4375781D3*
Y4308852D3*
D129*
X1994191Y3885928D3*
X2061120D3*
X3459597Y3856500D3*
X3526527D3*
X1998231Y3797934D3*
X2065160D3*
X3526220Y3669000D3*
X3459290D3*
X2804103Y3658399D3*
X2871032D3*
D133*
X1167663Y3588068D3*
Y3654997D3*
D129*
X2958138Y3619000D3*
X3025067D3*
X3459382Y3594000D3*
X3526311D3*
X3075067Y3506500D3*
X3008138D3*
X2737567Y3269000D3*
X2670638D3*
X2337567Y3256500D3*
X2270638D3*
X3216603Y3231500D3*
X3283532D3*
X1866603Y3169000D3*
X1933532D3*
X2670638Y3188743D3*
X2737567D3*
X521032Y3119000D3*
X454103D3*
X2737567Y3108480D3*
X2670638D3*
X2087567Y3037445D3*
X2020638D3*
X3145638Y3006500D3*
X3212567D3*
X2575067Y2998035D3*
X2508138D3*
X2737567Y3028219D3*
X2670638D3*
X2020638Y2949945D3*
X2087567D3*
X3212567Y2919000D3*
X3145638D3*
X2508138Y2906500D3*
X2575067D3*
X2087567Y2862445D3*
X2020638D3*
X3212567Y2831500D3*
X3145638D3*
X2575067Y2819000D3*
X2508138D3*
X2670638Y2867697D3*
X2737567D3*
X3145638Y2744000D3*
X3212567D3*
X2575067Y2731500D3*
X2508138D3*
X2737567Y2787436D3*
X2670638D3*
X720638Y2644000D3*
X787567D3*
X2737567Y2707175D3*
X2670638D3*
X3145638Y2644000D3*
X3212567D3*
X720638Y2569000D3*
X787567D3*
X3145638Y2556500D3*
X3212567D3*
X720638Y2494000D3*
X787567D3*
X3212567Y2469000D3*
X3145638D3*
X720638Y2419000D3*
X787567D3*
X720638Y2331500D3*
X787567D3*
X720638Y2256500D3*
X787567D3*
X720638Y2181500D3*
X787567D3*
X720638Y2106500D3*
X787567D3*
X839346Y1970881D3*
X772416D3*
X973947Y1969560D3*
X907017D3*
X1845626Y1803134D3*
X1778697D3*
X2204103Y1791504D3*
X2271032D3*
X2966603Y1777340D3*
X2899674D3*
X2036342Y1755171D3*
X2103271D3*
X1846032Y1719000D3*
X1779103D3*
X1624674Y1718071D3*
X1691603D3*
X2796032Y1711492D3*
X2729103D3*
X1127189Y1705168D3*
X1060260D3*
X2968717Y1680008D3*
X2901788D3*
X833188Y1657096D3*
X766259D3*
X969126Y1656093D3*
X902197D3*
X2032584Y1642173D3*
X2099513D3*
X1690008Y1622909D3*
X1623079D3*
X1063441Y1610745D3*
X1130370D3*
X3171742Y1452433D3*
X3238671D3*
X1953004Y1328882D3*
X1886075D3*
X1566603Y1306500D3*
X1633532D3*
X1271629Y1302465D3*
X1204700D3*
X2699674Y1269000D3*
X2766603D3*
X1951115Y1235167D3*
X1884185D3*
X2437567Y1227465D3*
X2370638D3*
X1766985Y1191554D3*
X1700055D3*
X2691603Y1169000D3*
X2758532D3*
X579103Y1144000D3*
X512174D3*
X979103D3*
X1046032D3*
X3183138Y1127465D3*
X3250067D3*
X1208138Y1110535D3*
X1275067D3*
X1701548Y1095970D3*
X1768477D3*
X1888510Y1051681D3*
X1955439D3*
X3250067Y1039965D3*
X3183138D3*
X1204103Y1019000D3*
X1271032D3*
X2383138Y1010535D3*
X2450067D3*
X2366603Y894000D3*
X2433532D3*
D133*
X729103Y794000D3*
Y727071D3*
X829103Y794000D3*
Y727071D3*
D129*
X1512174Y769000D3*
X1579103D3*
X2216603Y669000D3*
X2149674D3*
D133*
X629103Y581500D3*
Y648429D3*
X929103Y581500D3*
Y648429D3*
X729103Y644000D3*
Y577071D3*
X829103Y644000D3*
Y577071D3*
D129*
X1349674Y619000D3*
X1416603D3*
X1579103Y594000D3*
X1512174D3*
X2071032Y581500D3*
X2004103D3*
X2229103D3*
X2162174D3*
X1187567Y2169000D3*
X1120638D3*
X2770638D3*
X2837567D3*
X2287567D3*
X2220638D3*
X1670638D3*
X1737567D3*
D145*
X1341603Y3469000D3*
X1361288D3*
X1380973D3*
X1400658D3*
X1420343D3*
X1440028D3*
X1459713D3*
X1479398D3*
X1499083D3*
X1518768D3*
X1538453D3*
X1558138D3*
X1577823D3*
X1597508D3*
X1617193D3*
X1636878D3*
X1656563D3*
X1676248D3*
X1695933D3*
X1715618D3*
X1735304D3*
X1754989D3*
X1774674D3*
X1794359D3*
X1814044D3*
D148*
X1882941Y3537898D3*
Y3557583D3*
Y3577268D3*
Y3596953D3*
Y3616638D3*
Y3636323D3*
Y3656008D3*
Y3675693D3*
Y3695378D3*
Y3715063D3*
Y3734748D3*
Y3754433D3*
Y3774118D3*
Y3793803D3*
Y3813488D3*
Y3833173D3*
Y3852858D3*
Y3872543D3*
Y3892228D3*
Y3911913D3*
Y3931598D3*
Y3951283D3*
Y3970969D3*
Y3990654D3*
Y4010339D3*
D145*
X1814044Y4079236D3*
X1794359D3*
X1774674D3*
X1754989D3*
X1735304D3*
X1715618D3*
X1695933D3*
X1676248D3*
X1656563D3*
X1636878D3*
X1617193D3*
X1597508D3*
X1577823D3*
X1558138D3*
X1538453D3*
X1518768D3*
X1499083D3*
X1479398D3*
X1459713D3*
X1440028D3*
X1420343D3*
X1400658D3*
X1380973D3*
X1361288D3*
X1341603D3*
D148*
X1272705Y4010339D3*
Y3990654D3*
Y3970969D3*
Y3951283D3*
Y3931598D3*
Y3911913D3*
Y3892228D3*
Y3872543D3*
Y3852858D3*
Y3833173D3*
Y3813488D3*
Y3793803D3*
Y3774118D3*
Y3754433D3*
Y3734748D3*
Y3715063D3*
Y3695378D3*
Y3675693D3*
Y3656008D3*
Y3636323D3*
Y3616638D3*
Y3596953D3*
Y3577268D3*
Y3557583D3*
Y3537898D3*
D103*
X2354103Y3945899D3*
Y3920308D3*
Y3894717D3*
Y3869126D3*
Y3843535D3*
Y3817946D3*
Y3792356D3*
Y3766764D3*
Y3741173D3*
Y3715583D3*
Y3689993D3*
Y3664403D3*
Y3638811D3*
Y3613220D3*
X2639536D3*
Y3638811D3*
Y3664403D3*
Y3689993D3*
Y3715583D3*
Y3741173D3*
Y3766764D3*
Y3792356D3*
Y3817946D3*
Y3843535D3*
Y3869126D3*
Y3894717D3*
Y3920308D3*
Y3945899D3*
D101*
X3341603Y3594000D3*
Y3644000D3*
Y3694000D3*
Y3744000D3*
Y3794000D3*
Y3844000D3*
Y3894000D3*
X3136877D3*
Y3844000D3*
Y3794000D3*
Y3744000D3*
Y3694000D3*
Y3644000D3*
Y3594000D3*
D99*
X1036071Y3800517D3*
X945087D3*
X854103D3*
D97*
X945087Y3556500D3*
D95*
X2406103Y2731500D3*
X2202103D3*
X2406103Y2781500D3*
Y2831500D3*
X2202103Y2781500D3*
Y2831500D3*
X2406103Y2881500D3*
X2202103D3*
X2406103Y2931500D3*
X2202103D3*
X2406103Y2981500D3*
Y3031500D3*
X2202103Y2981500D3*
Y3031500D3*
X2406103Y3081500D3*
X2202103D3*
D93*
X3520540Y3068114D3*
X3445737D3*
X3483138Y2981500D3*
X450166Y2950693D3*
X524969D3*
X487567Y3037307D3*
D95*
X1241603Y2720984D3*
X1037603D3*
X1241603Y2770984D3*
Y2820984D3*
X1037603Y2770984D3*
Y2820984D3*
X1241603Y2870984D3*
X1037603D3*
X1241603Y2920984D3*
X1037603D3*
X1241603Y2970984D3*
Y3020984D3*
X1037603Y2970984D3*
Y3020984D3*
X1241603Y3070984D3*
X1037603D3*
X3043603Y2705194D3*
X2839603D3*
X3043603Y2755194D3*
Y2805194D3*
X2839603Y2755194D3*
Y2805194D3*
X3043603Y2855194D3*
X2839603D3*
X3043603Y2905194D3*
X2839603D3*
X3043603Y2955194D3*
Y3005194D3*
X2839603Y2955194D3*
Y3005194D3*
X3043603Y3055194D3*
X2839603D3*
D91*
X1479103Y2918159D3*
Y2827175D3*
Y2736190D3*
D89*
X1723120Y2827175D3*
D87*
X1460402Y1650299D3*
Y1700299D3*
Y1750299D3*
Y1800299D3*
X1247804D3*
Y1750299D3*
Y1700299D3*
Y1650299D3*
X2597902D3*
Y1700299D3*
Y1750299D3*
Y1800299D3*
X2385304D3*
Y1750299D3*
Y1700299D3*
Y1650299D3*
D85*
X3404103Y1444000D3*
Y1518803D3*
X3317489Y1481402D3*
D83*
X3079103Y1081500D3*
Y1131500D3*
Y1181500D3*
Y1231500D3*
X2873104D3*
Y1181500D3*
Y1131500D3*
Y1081500D3*
D87*
X1604103Y1069000D3*
Y1119000D3*
Y1169000D3*
Y1219000D3*
X1391504D3*
Y1169000D3*
Y1119000D3*
Y1069000D3*
D101*
X879103Y919000D3*
Y969000D3*
Y1019000D3*
Y1069000D3*
Y1119000D3*
Y1169000D3*
Y1219000D3*
X674377D3*
Y1169000D3*
Y1119000D3*
Y1069000D3*
Y1019000D3*
Y969000D3*
Y919000D3*
D87*
X2279103Y1056500D3*
Y1106500D3*
Y1156500D3*
Y1206500D3*
X2066504D3*
Y1156500D3*
Y1106500D3*
Y1056500D3*
X1897902Y537799D3*
Y587799D3*
Y637799D3*
Y687799D3*
X1685304D3*
Y637799D3*
Y587799D3*
Y537799D3*
D81*
X1543276Y2036865D3*
Y2062455D3*
Y2088046D3*
Y2113636D3*
X1314929D3*
Y2088046D3*
Y2062455D3*
Y2036865D3*
X2643276D3*
Y2062455D3*
Y2088046D3*
Y2113636D3*
X2414929D3*
Y2088046D3*
Y2062455D3*
Y2036865D3*
M02*
