G04 DipTrace 3.3.0.0*
G04 typhoon.GTS*
%MOIN*%
G04 #@! TF.FileFunction,Soldermask,Top*
G04 #@! TF.Part,Single*
%AMOUTLINE0*
4,1,4,
0.026163,-0.026163,
0.026205,0.026121,
-0.026121,0.026205,
-0.026163,-0.026163,
0.026163,-0.026163,
0*%
%AMOUTLINE1*
4,1,8,
-0.034184,0.014159,
-0.014159,0.034184,
0.014159,0.034184,
0.034184,0.014159,
0.034184,-0.014159,
0.014159,-0.034184,
-0.014159,-0.034184,
-0.034184,-0.014159,
-0.034184,0.014159,
0*%
%AMOUTLINE3*
4,1,8,
0.010355,-0.025,
0.025,-0.010355,
0.025,0.010355,
0.010355,0.025,
-0.010355,0.025,
-0.025,0.010355,
-0.025,-0.010355,
-0.010355,-0.025,
0.010355,-0.025,
0*%
%AMOUTLINE6*
4,1,4,
-0.01,-0.0275,
-0.01,0.0275,
0.01,0.0275,
0.01,-0.0275,
-0.01,-0.0275,
0*%
%AMOUTLINE9*
4,1,4,
0.0275,-0.01,
-0.0275,-0.01,
-0.0275,0.01,
0.0275,0.01,
0.0275,-0.01,
0*%
%ADD12C,0.001*%
%ADD35C,0.074*%
%ADD58O,0.054X0.074*%
%ADD59O,0.07X0.1*%
%ADD78O,0.063X0.098*%
%ADD80R,0.078866X0.023748*%
%ADD82R,0.095X0.032*%
%ADD84R,0.04737X0.035559*%
%ADD86R,0.08674X0.031622*%
%ADD88R,0.094614X0.149732*%
%ADD90R,0.095992X0.055992*%
%ADD92R,0.035559X0.04737*%
%ADD94R,0.088X0.034*%
%ADD96R,0.149732X0.094614*%
%ADD98R,0.055992X0.095992*%
%ADD100R,0.094614X0.031622*%
%ADD102R,0.067055X0.023748*%
%ADD104C,0.055559*%
%ADD106C,0.063433*%
%ADD108R,0.04737X0.063118*%
%ADD110R,0.12611X0.102488*%
%ADD112C,0.06*%
%ADD114C,0.082*%
%ADD116O,0.083X0.093*%
%ADD118C,0.073*%
%ADD120O,0.093X0.083*%
%ADD122R,0.035559X0.041465*%
%ADD124R,0.04737X0.094614*%
%ADD126R,0.067055X0.059181*%
%ADD128R,0.051307X0.04737*%
%ADD130R,0.070992X0.106425*%
%ADD132R,0.04737X0.051307*%
%ADD138OUTLINE0*%
%ADD139OUTLINE1*%
%ADD141OUTLINE3*%
%ADD144OUTLINE6*%
%ADD147OUTLINE9*%
%FSLAX26Y26*%
G04*
G70*
G90*
G75*
G01*
G04 TopMask*
%LPD*%
D132*
X1417071Y4233374D3*
Y4166445D3*
X2587105Y4231038D3*
Y4164109D3*
X2663835Y4231038D3*
Y4164109D3*
D130*
X2966603Y4081795D3*
Y3944000D3*
D128*
X1212567Y4102465D3*
X1145638D3*
X1987629Y4045235D3*
X2054558D3*
X2358532Y4044000D3*
X2291603D3*
X2056965Y3969123D3*
X1990036D3*
X3314548Y3986081D3*
X3381477D3*
X3525067Y3944000D3*
X3458138D3*
X869634Y3915555D3*
X936563D3*
X2949674Y3819000D3*
X3016603D3*
D132*
X2234594Y3766840D3*
Y3699911D3*
D128*
X2866603Y3758399D3*
X2799674D3*
X3526311Y3756500D3*
X3459382D3*
X3016603Y3719000D3*
X2949674D3*
D130*
X2204103Y3581500D3*
Y3443705D3*
D132*
X441603Y3544000D3*
Y3610929D3*
D130*
X2629103Y3520899D3*
Y3383104D3*
X2854103Y3520899D3*
Y3383104D3*
D128*
X1992991Y3561915D3*
X2059920D3*
D132*
X729103Y3535929D3*
Y3469000D3*
D128*
X2516603Y3508399D3*
X2449674D3*
X3250067Y3506500D3*
X3183138D3*
X3525067D3*
X3458138D3*
X1241603Y3469000D3*
X1174674D3*
D126*
X1066603Y3456500D3*
Y3381697D3*
D130*
X2491603Y3333119D3*
Y3195324D3*
X1229103Y3331500D3*
Y3193705D3*
X2129103Y3319000D3*
Y3181205D3*
D128*
X1867654Y3369531D3*
X1934583D3*
X1479103Y3369000D3*
X1412174D3*
X1691603D3*
X1758532D3*
X2337567Y3344000D3*
X2270638D3*
D126*
X441603Y3306500D3*
Y3231697D3*
X691603Y3231500D3*
Y3306303D3*
D128*
X1872007Y3279324D3*
X1938936D3*
X3449674Y3237307D3*
X3516603D3*
X2808138Y3230194D3*
X2875067D3*
X2270638Y3169000D3*
X2337567D3*
X3449674Y3149807D3*
X3516603D3*
X1514381Y3094000D3*
X1447452D3*
X1622452D3*
X1689381D3*
X2875067Y3130194D3*
X2808138D3*
X3025067D3*
X2958138D3*
X2575067Y3077465D3*
X2508138D3*
X2737567Y2947958D3*
X2670638D3*
X454103Y2869000D3*
X521032D3*
X3308138Y2831500D3*
X3375067D3*
D126*
X1854103Y2808478D3*
Y2733675D3*
D132*
X1380450Y2786251D3*
Y2719322D3*
D128*
X2087567Y2731500D3*
X2020638D3*
X2104914Y2531579D3*
X2171843D3*
X2577788Y2535228D3*
X2510859D3*
X954838Y2588340D3*
X1021767D3*
D132*
X2916603Y2519000D3*
Y2585929D3*
D128*
X1624674Y1805571D3*
X1691603D3*
X1127189Y1795850D3*
X1060260D3*
X2204103Y1704004D3*
X2271032D3*
X2796032Y1623992D3*
X2729103D3*
X2206101Y1608010D3*
X2273031D3*
X1061070Y1521954D3*
X1127999D3*
D132*
X3504103Y1519000D3*
Y1452071D3*
D128*
X516603Y1231500D3*
X583532D3*
X1041603D3*
X974674D3*
X3181914Y1229130D3*
X3248843D3*
X1213164Y1206500D3*
X1280094D3*
X1890605Y1149290D3*
X1957534D3*
X2370638Y1110535D3*
X2437567D3*
X1050067Y1060535D3*
X983138D3*
X579846Y1057924D3*
X512916D3*
X2699674Y1056500D3*
X2766603D3*
X1538338Y980235D3*
X1471408D3*
X1620898Y978860D3*
X1687827D3*
X1958759Y954605D3*
X1891830D3*
X1512174Y681500D3*
X1579103D3*
X2071032Y669000D3*
X2004103D3*
X1516603Y506500D3*
X1583532D3*
D124*
X541603Y3619000D3*
X641603D3*
Y3843803D3*
X541603D3*
D122*
X466603Y3894000D3*
Y3831008D3*
X741603Y3894000D3*
Y3831008D3*
D120*
X2979103Y982000D3*
Y1307000D3*
D118*
Y882000D3*
D120*
X2179103Y982000D3*
Y1307000D3*
D118*
Y882000D3*
D116*
X1567103Y1544000D3*
X1892103D3*
D118*
X1467103D3*
D120*
X1379103Y781000D3*
Y456000D3*
D118*
Y881000D3*
D120*
X3379103Y982000D3*
Y1307000D3*
D118*
Y882000D3*
D120*
Y781000D3*
Y456000D3*
D118*
Y881000D3*
D120*
X979103Y781000D3*
Y456000D3*
D118*
Y881000D3*
D116*
X2667103Y1544000D3*
X2992103D3*
D118*
X2567103D3*
D120*
X579103Y982000D3*
Y1307000D3*
D118*
Y882000D3*
D116*
X2391103Y1544000D3*
X2066103D3*
D118*
X2491103D3*
D120*
X1779103Y781000D3*
Y456000D3*
D118*
Y881000D3*
D120*
X2579103Y982000D3*
Y1307000D3*
D118*
Y882000D3*
D120*
X2979103Y781000D3*
Y456000D3*
D118*
Y881000D3*
D120*
X579103Y781000D3*
Y456000D3*
D118*
Y881000D3*
D120*
X1779103Y982000D3*
Y1307000D3*
D118*
Y882000D3*
D120*
X1379103Y982000D3*
Y1307000D3*
D118*
Y882000D3*
D120*
X979103Y982000D3*
Y1307000D3*
D118*
Y882000D3*
D116*
X1291103Y1544000D3*
X966103D3*
D118*
X1391103D3*
D120*
X2179103Y781000D3*
Y456000D3*
D118*
Y881000D3*
D138*
X584065Y4654962D3*
D35*
X684065D3*
X784065D3*
X884065D3*
D112*
X3429103Y2694000D3*
X3329103D3*
X3429103Y2494000D3*
X3329103D3*
X3429103Y2294000D3*
X3329103D3*
X3429103Y2094000D3*
X3329103D3*
X2266603Y4619000D3*
X2366603D3*
X2041603D3*
X2141603D3*
X1816603D3*
X1916603D3*
X1591603D3*
X1691603D3*
X2266603Y4444000D3*
X2366603D3*
X2041603D3*
X2141603D3*
X1816603D3*
X1916603D3*
X1591603D3*
X1691603D3*
X629103Y2694000D3*
X529103D3*
X629103Y2494000D3*
X529103D3*
X629103Y2294000D3*
X529103D3*
X629103Y2094000D3*
X529103D3*
D139*
X971116Y4144209D3*
Y4044209D3*
X871116Y4144209D3*
Y4044209D3*
X771116Y4144209D3*
Y4044209D3*
X671116Y4144209D3*
Y4044209D3*
X571116Y4144209D3*
Y4044209D3*
D141*
X1040548Y4649172D3*
X1090548D3*
X1040548Y4599172D3*
X1090548D3*
X1040548Y4549172D3*
X1090548D3*
X1040548Y4499172D3*
X1090548D3*
X1040548Y4449172D3*
X1090548D3*
D110*
X2491603Y4069000D3*
X2691230D3*
X1431092Y3219000D3*
X1630720D3*
D108*
X746965Y1765188D3*
X784366Y1851802D3*
X821768Y1765188D3*
X903080Y1763547D3*
X940482Y1850161D3*
X977884Y1763547D3*
D128*
X1607322Y4356160D3*
X1540393D3*
X1737994D3*
X1671065D3*
X1871817D3*
X1804887D3*
X1937798D3*
X2004727D3*
X2070075D3*
X2137004D3*
X2206844D3*
X2273773D3*
D132*
X2342264Y4375781D3*
Y4308852D3*
X2404103Y4375781D3*
Y4308852D3*
D128*
X1994191Y3885928D3*
X2061120D3*
X3459597Y3856500D3*
X3526527D3*
X1998231Y3797934D3*
X2065160D3*
X3526220Y3669000D3*
X3459290D3*
X2804103Y3658399D3*
X2871032D3*
D132*
X1167663Y3588068D3*
Y3654997D3*
D128*
X2958138Y3619000D3*
X3025067D3*
X3459382Y3594000D3*
X3526311D3*
X3075067Y3506500D3*
X3008138D3*
X2737567Y3269000D3*
X2670638D3*
X2337567Y3256500D3*
X2270638D3*
X3216603Y3231500D3*
X3283532D3*
X1866603Y3169000D3*
X1933532D3*
X2670638Y3188743D3*
X2737567D3*
X521032Y3119000D3*
X454103D3*
X2737567Y3108480D3*
X2670638D3*
X2087567Y3037445D3*
X2020638D3*
X3145638Y3006500D3*
X3212567D3*
X2575067Y2998035D3*
X2508138D3*
X2737567Y3028219D3*
X2670638D3*
X2020638Y2949945D3*
X2087567D3*
X3212567Y2919000D3*
X3145638D3*
X2508138Y2906500D3*
X2575067D3*
X2087567Y2862445D3*
X2020638D3*
X3212567Y2831500D3*
X3145638D3*
X2575067Y2819000D3*
X2508138D3*
X2670638Y2867697D3*
X2737567D3*
X3145638Y2744000D3*
X3212567D3*
X2575067Y2731500D3*
X2508138D3*
X2737567Y2787436D3*
X2670638D3*
X720638Y2644000D3*
X787567D3*
X2737567Y2707175D3*
X2670638D3*
X3145638Y2644000D3*
X3212567D3*
X720638Y2569000D3*
X787567D3*
X3145638Y2556500D3*
X3212567D3*
X720638Y2494000D3*
X787567D3*
X3212567Y2469000D3*
X3145638D3*
X720638Y2419000D3*
X787567D3*
X720638Y2331500D3*
X787567D3*
X720638Y2256500D3*
X787567D3*
X720638Y2181500D3*
X787567D3*
X720638Y2106500D3*
X787567D3*
X839346Y1970881D3*
X772416D3*
X973947Y1969560D3*
X907017D3*
X1845626Y1803134D3*
X1778697D3*
X2204103Y1791504D3*
X2271032D3*
X2966603Y1777340D3*
X2899674D3*
X2036342Y1755171D3*
X2103271D3*
X1846032Y1719000D3*
X1779103D3*
X1624674Y1718071D3*
X1691603D3*
X2796032Y1711492D3*
X2729103D3*
X1127189Y1705168D3*
X1060260D3*
X2968717Y1680008D3*
X2901788D3*
X833188Y1657096D3*
X766259D3*
X969126Y1656093D3*
X902197D3*
X2032584Y1642173D3*
X2099513D3*
X1690008Y1622909D3*
X1623079D3*
X1063441Y1610745D3*
X1130370D3*
X3171742Y1452433D3*
X3238671D3*
X1953004Y1328882D3*
X1886075D3*
X1566603Y1306500D3*
X1633532D3*
X1271629Y1302465D3*
X1204700D3*
X2699674Y1269000D3*
X2766603D3*
X1951115Y1235167D3*
X1884185D3*
X2437567Y1227465D3*
X2370638D3*
X1766985Y1191554D3*
X1700055D3*
X2691603Y1169000D3*
X2758532D3*
X579103Y1144000D3*
X512174D3*
X979103D3*
X1046032D3*
X3183138Y1127465D3*
X3250067D3*
X1208138Y1110535D3*
X1275067D3*
X1701548Y1095970D3*
X1768477D3*
X1888510Y1051681D3*
X1955439D3*
X3250067Y1039965D3*
X3183138D3*
X1204103Y1019000D3*
X1271032D3*
X2383138Y1010535D3*
X2450067D3*
X2366603Y894000D3*
X2433532D3*
D132*
X729103Y794000D3*
Y727071D3*
X829103Y794000D3*
Y727071D3*
D128*
X1512174Y769000D3*
X1579103D3*
X2216603Y669000D3*
X2149674D3*
D132*
X629103Y581500D3*
Y648429D3*
X929103Y581500D3*
Y648429D3*
X729103Y644000D3*
Y577071D3*
X829103Y644000D3*
Y577071D3*
D128*
X1349674Y619000D3*
X1416603D3*
X1579103Y594000D3*
X1512174D3*
X2071032Y581500D3*
X2004103D3*
X2229103D3*
X2162174D3*
X1187567Y2169000D3*
X1120638D3*
X2770638D3*
X2837567D3*
X2287567D3*
X2220638D3*
X1670638D3*
X1737567D3*
D114*
X3290103Y1922000D3*
Y1666000D3*
X3468103Y1922000D3*
Y1666000D3*
D106*
X729103Y4295575D3*
Y4492425D3*
X827528D3*
Y4295575D3*
X630678D3*
Y4492425D3*
D104*
X925953Y4394000D3*
X532252D3*
D114*
X1240103Y4647000D3*
Y4391000D3*
X1418103Y4647000D3*
Y4391000D3*
X2718103D3*
Y4647000D3*
X2540103Y4391000D3*
Y4647000D3*
X490103Y1922000D3*
Y1666000D3*
X668103Y1922000D3*
Y1666000D3*
X2490103Y772000D3*
Y516000D3*
X2668103Y772000D3*
Y516000D3*
D144*
X1341603Y3469000D3*
X1361288D3*
X1380973D3*
X1400658D3*
X1420343D3*
X1440028D3*
X1459713D3*
X1479398D3*
X1499083D3*
X1518768D3*
X1538453D3*
X1558138D3*
X1577823D3*
X1597508D3*
X1617193D3*
X1636878D3*
X1656563D3*
X1676248D3*
X1695933D3*
X1715618D3*
X1735304D3*
X1754989D3*
X1774674D3*
X1794359D3*
X1814044D3*
D147*
X1882941Y3537898D3*
Y3557583D3*
Y3577268D3*
Y3596953D3*
Y3616638D3*
Y3636323D3*
Y3656008D3*
Y3675693D3*
Y3695378D3*
Y3715063D3*
Y3734748D3*
Y3754433D3*
Y3774118D3*
Y3793803D3*
Y3813488D3*
Y3833173D3*
Y3852858D3*
Y3872543D3*
Y3892228D3*
Y3911913D3*
Y3931598D3*
Y3951283D3*
Y3970969D3*
Y3990654D3*
Y4010339D3*
D144*
X1814044Y4079236D3*
X1794359D3*
X1774674D3*
X1754989D3*
X1735304D3*
X1715618D3*
X1695933D3*
X1676248D3*
X1656563D3*
X1636878D3*
X1617193D3*
X1597508D3*
X1577823D3*
X1558138D3*
X1538453D3*
X1518768D3*
X1499083D3*
X1479398D3*
X1459713D3*
X1440028D3*
X1420343D3*
X1400658D3*
X1380973D3*
X1361288D3*
X1341603D3*
D147*
X1272705Y4010339D3*
Y3990654D3*
Y3970969D3*
Y3951283D3*
Y3931598D3*
Y3911913D3*
Y3892228D3*
Y3872543D3*
Y3852858D3*
Y3833173D3*
Y3813488D3*
Y3793803D3*
Y3774118D3*
Y3754433D3*
Y3734748D3*
Y3715063D3*
Y3695378D3*
Y3675693D3*
Y3656008D3*
Y3636323D3*
Y3616638D3*
Y3596953D3*
Y3577268D3*
Y3557583D3*
Y3537898D3*
D102*
X2354103Y3945899D3*
Y3920308D3*
Y3894717D3*
Y3869126D3*
Y3843535D3*
Y3817946D3*
Y3792356D3*
Y3766764D3*
Y3741173D3*
Y3715583D3*
Y3689993D3*
Y3664403D3*
Y3638811D3*
Y3613220D3*
X2639536D3*
Y3638811D3*
Y3664403D3*
Y3689993D3*
Y3715583D3*
Y3741173D3*
Y3766764D3*
Y3792356D3*
Y3817946D3*
Y3843535D3*
Y3869126D3*
Y3894717D3*
Y3920308D3*
Y3945899D3*
D100*
X3341603Y3594000D3*
Y3644000D3*
Y3694000D3*
Y3744000D3*
Y3794000D3*
Y3844000D3*
Y3894000D3*
X3136877D3*
Y3844000D3*
Y3794000D3*
Y3744000D3*
Y3694000D3*
Y3644000D3*
Y3594000D3*
D98*
X1036071Y3800517D3*
X945087D3*
X854103D3*
D96*
X945087Y3556500D3*
D94*
X2406103Y2731500D3*
X2202103D3*
X2406103Y2781500D3*
Y2831500D3*
X2202103Y2781500D3*
Y2831500D3*
X2406103Y2881500D3*
X2202103D3*
X2406103Y2931500D3*
X2202103D3*
X2406103Y2981500D3*
Y3031500D3*
X2202103Y2981500D3*
Y3031500D3*
X2406103Y3081500D3*
X2202103D3*
D92*
X3520540Y3068114D3*
X3445737D3*
X3483138Y2981500D3*
X450166Y2950693D3*
X524969D3*
X487567Y3037307D3*
D94*
X1241603Y2720984D3*
X1037603D3*
X1241603Y2770984D3*
Y2820984D3*
X1037603Y2770984D3*
Y2820984D3*
X1241603Y2870984D3*
X1037603D3*
X1241603Y2920984D3*
X1037603D3*
X1241603Y2970984D3*
Y3020984D3*
X1037603Y2970984D3*
Y3020984D3*
X1241603Y3070984D3*
X1037603D3*
X3043603Y2705194D3*
X2839603D3*
X3043603Y2755194D3*
Y2805194D3*
X2839603Y2755194D3*
Y2805194D3*
X3043603Y2855194D3*
X2839603D3*
X3043603Y2905194D3*
X2839603D3*
X3043603Y2955194D3*
Y3005194D3*
X2839603Y2955194D3*
Y3005194D3*
X3043603Y3055194D3*
X2839603D3*
D90*
X1479103Y2918159D3*
Y2827175D3*
Y2736190D3*
D88*
X1723120Y2827175D3*
D86*
X1460402Y1650299D3*
Y1700299D3*
Y1750299D3*
Y1800299D3*
X1247804D3*
Y1750299D3*
Y1700299D3*
Y1650299D3*
X2597902D3*
Y1700299D3*
Y1750299D3*
Y1800299D3*
X2385304D3*
Y1750299D3*
Y1700299D3*
Y1650299D3*
D84*
X3404103Y1444000D3*
Y1518803D3*
X3317489Y1481402D3*
D82*
X3079103Y1081500D3*
Y1131500D3*
Y1181500D3*
Y1231500D3*
X2873104D3*
Y1181500D3*
Y1131500D3*
Y1081500D3*
D86*
X1604103Y1069000D3*
Y1119000D3*
Y1169000D3*
Y1219000D3*
X1391504D3*
Y1169000D3*
Y1119000D3*
Y1069000D3*
D100*
X879103Y919000D3*
Y969000D3*
Y1019000D3*
Y1069000D3*
Y1119000D3*
Y1169000D3*
Y1219000D3*
X674377D3*
Y1169000D3*
Y1119000D3*
Y1069000D3*
Y1019000D3*
Y969000D3*
Y919000D3*
D86*
X2279103Y1056500D3*
Y1106500D3*
Y1156500D3*
Y1206500D3*
X2066504D3*
Y1156500D3*
Y1106500D3*
Y1056500D3*
X1897902Y537799D3*
Y587799D3*
Y637799D3*
Y687799D3*
X1685304D3*
Y637799D3*
Y587799D3*
Y537799D3*
D80*
X1543276Y2036865D3*
Y2062455D3*
Y2088046D3*
Y2113636D3*
X1314929D3*
Y2088046D3*
Y2062455D3*
Y2036865D3*
X2643276D3*
Y2062455D3*
Y2088046D3*
Y2113636D3*
X2414929D3*
Y2088046D3*
Y2062455D3*
Y2036865D3*
D78*
X2254103Y2631598D3*
X2354103D3*
X2254103Y4206402D3*
X2154103Y2631598D3*
X2054103Y4206402D3*
Y2631598D3*
D58*
X1605678Y1918409D3*
X1704103D3*
X1802528D3*
D59*
X1519063Y2194000D3*
X1889142D3*
D58*
X3130678Y3118409D3*
X3229103D3*
X3327528D3*
D59*
X3044063Y3394000D3*
X3414142D3*
D58*
X2705678Y1918409D3*
X2804103D3*
X2902528D3*
D59*
X2619063Y2194000D3*
X2989142D3*
D58*
X630678Y3118409D3*
X729103D3*
X827528D3*
D59*
X544063Y3394000D3*
X914142D3*
D58*
X2155678Y1918409D3*
X2254103D3*
X2352528D3*
D59*
X2069063Y2194000D3*
X2439142D3*
D58*
X3130678Y4118409D3*
X3229103D3*
X3327528D3*
D59*
X3044063Y4394000D3*
X3414142D3*
D78*
X2729103Y2631598D3*
X2829103D3*
X2729103Y4206402D3*
X2629103Y2631598D3*
X2529103Y4206402D3*
Y2631598D3*
X1779103D3*
X1879103D3*
X1779103Y4206402D3*
X1679103Y2631598D3*
X1579103Y4206402D3*
Y2631598D3*
X1329103D3*
X1429103D3*
X1329103Y4206402D3*
X1229103Y2631598D3*
X1129103Y4206402D3*
Y2631598D3*
D58*
X1055678Y1918409D3*
X1154103D3*
X1252528D3*
D59*
X969063Y2194000D3*
X1339142D3*
G36*
X1104103Y3706500D2*
X1066603D1*
X1079103D1*
Y3606500D1*
X1029103D1*
Y3506500D1*
X866603D1*
Y3606500D1*
X816603D1*
Y3706500D1*
X741603D1*
Y3644000D1*
X791603Y3606500D1*
Y3506500D1*
X804103Y3494000D1*
Y3419000D1*
X766603Y3394000D1*
Y3356500D1*
X816603Y3294000D1*
Y3181500D1*
X891603D1*
X916603Y3106500D1*
X979103D1*
X1016603Y3169000D1*
X1079103D1*
Y3294000D1*
X891603D1*
X854103Y3331500D1*
Y3444000D1*
X879103Y3469000D1*
X954103D1*
X979103Y3444000D1*
Y3294000D1*
X1079103D1*
Y3331500D1*
X1016603D1*
Y3494000D1*
X1066603Y3544000D1*
X1116603D1*
Y3706500D1*
X1104103D1*
G37*
G36*
X1554103Y2951239D2*
X1679103D1*
Y2901239D1*
X1779103D1*
Y2776239D1*
X1816603D1*
Y2838739D1*
X1904103D1*
Y2738739D1*
Y2726239D1*
X1929103D1*
X1966603Y2763739D1*
Y3088739D1*
Y3101239D1*
X1929103Y3126239D1*
X1816603D1*
X1791603Y3101239D1*
Y3051239D1*
X1766603Y3013739D1*
X1579103D1*
X1554103Y2988739D1*
D1*
Y2951239D1*
G37*
G36*
X1616603Y2688739D2*
Y2638739D1*
X1729103D1*
Y2726239D1*
X1754103Y2738739D1*
Y2751239D1*
X1666603D1*
Y2688739D1*
D1*
X1616603D1*
G37*
X1110003Y846528D2*
D12*
X1122003D1*
X1151003D2*
X1168003D1*
X1236003D2*
X1253003D1*
X1110003Y845528D2*
X1122003D1*
X1151003D2*
X1168503D1*
X1235848D2*
X1253041D1*
X1110003Y844528D2*
X1122003D1*
X1151003D2*
X1168918D1*
X1235597D2*
X1253169D1*
X1110003Y843528D2*
X1122003D1*
X1151003D2*
X1169307D1*
X1235303D2*
X1253409D1*
X1110003Y842528D2*
X1122003D1*
X1151003D2*
X1169663D1*
X1235000D2*
X1253665D1*
X1110003Y841528D2*
X1122003D1*
X1151003D2*
X1169991D1*
X1234664D2*
X1253840D1*
X1110003Y840528D2*
X1122003D1*
X1151003D2*
X1170337D1*
X1234330D2*
X1253933D1*
X1110003Y839528D2*
X1122003D1*
X1151003D2*
X1170675D1*
X1234010D2*
X1253975D1*
X1110003Y838528D2*
X1122003D1*
X1150999D2*
X1170995D1*
X1233667D2*
X1253992D1*
X1110003Y837528D2*
X1122003D1*
X1150964D2*
X1171338D1*
X1233331D2*
X1253999D1*
X1110003Y836528D2*
X1122003D1*
X1150836D2*
X1171675D1*
X1233011D2*
X1254002D1*
X1110003Y835528D2*
X1122003D1*
X1150597D2*
X1171995D1*
X1232667D2*
X1254003D1*
X1110003Y834528D2*
X1122003D1*
X1150341D2*
X1172339D1*
X1232331D2*
X1254003D1*
X1110003Y833528D2*
X1122003D1*
X1150166D2*
X1172675D1*
X1232011D2*
X1254007D1*
X1110003Y832528D2*
X1122003D1*
X1150073D2*
X1172995D1*
X1231671D2*
X1254042D1*
X1110003Y831528D2*
X1122003D1*
X1150031D2*
X1173339D1*
X1231366D2*
X1254169D1*
X1110003Y830528D2*
X1122003D1*
X1150013D2*
X1173675D1*
X1231138D2*
X1254409D1*
X1110003Y829528D2*
X1122003D1*
X1150007D2*
X1173995D1*
X1230911D2*
X1254665D1*
X1110003Y828528D2*
X1122003D1*
X1150004D2*
X1174339D1*
X1230622D2*
X1254840D1*
X1110003Y827528D2*
X1122003D1*
X1150003D2*
X1174675D1*
X1230312D2*
X1254933D1*
X1110003Y826528D2*
X1122003D1*
X1150003D2*
X1174995D1*
X1230004D2*
X1254975D1*
X1110003Y825528D2*
X1122003D1*
X1150003D2*
X1175335D1*
X1229665D2*
X1254992D1*
X1110003Y824528D2*
X1122003D1*
X1150003D2*
X1175640D1*
X1229330D2*
X1254999D1*
X1110003Y823528D2*
X1122003D1*
X1149999D2*
X1175868D1*
X1229010D2*
X1255002D1*
X1110003Y822528D2*
X1122003D1*
X1149964D2*
X1176095D1*
X1228667D2*
X1255003D1*
X1110003Y821528D2*
X1122003D1*
X1149836D2*
X1162003D1*
X1164041D2*
X1176384D1*
X1228331D2*
X1240999D1*
X1243003D2*
X1255003D1*
X1110003Y820528D2*
X1122003D1*
X1149597D2*
X1162003D1*
X1164169D2*
X1176693D1*
X1228011D2*
X1240964D1*
X1243007D2*
X1255007D1*
X1110003Y819528D2*
X1122003D1*
X1149341D2*
X1161999D1*
X1164409D2*
X1177002D1*
X1227671D2*
X1240836D1*
X1243042D2*
X1255042D1*
X1110003Y818528D2*
X1122003D1*
X1149166D2*
X1161964D1*
X1164669D2*
X1177341D1*
X1227366D2*
X1240593D1*
X1243169D2*
X1255169D1*
X1110003Y817528D2*
X1122003D1*
X1149073D2*
X1161836D1*
X1164879D2*
X1177676D1*
X1227138D2*
X1240302D1*
X1243409D2*
X1255409D1*
X1110003Y816528D2*
X1122003D1*
X1149031D2*
X1161597D1*
X1165099D2*
X1177996D1*
X1226911D2*
X1240000D1*
X1243665D2*
X1255665D1*
X1110003Y815528D2*
X1122003D1*
X1149013D2*
X1161341D1*
X1165385D2*
X1178339D1*
X1226622D2*
X1239664D1*
X1243840D2*
X1255840D1*
X1110003Y814528D2*
X1122003D1*
X1149007D2*
X1161166D1*
X1165694D2*
X1178675D1*
X1226312D2*
X1239330D1*
X1243933D2*
X1255933D1*
X1110003Y813528D2*
X1122003D1*
X1149004D2*
X1161073D1*
X1166003D2*
X1178995D1*
X1226004D2*
X1239010D1*
X1243975D2*
X1255975D1*
X1110003Y812528D2*
X1122003D1*
X1149003D2*
X1161031D1*
X1166341D2*
X1179339D1*
X1225665D2*
X1238667D1*
X1243992D2*
X1255992D1*
X1110003Y811528D2*
X1122003D1*
X1149003D2*
X1161013D1*
X1166676D2*
X1179675D1*
X1225330D2*
X1238331D1*
X1243999D2*
X1255999D1*
X1110003Y810528D2*
X1122003D1*
X1149003D2*
X1161007D1*
X1166996D2*
X1179995D1*
X1225010D2*
X1238011D1*
X1244002D2*
X1256002D1*
X1110003Y809528D2*
X1122003D1*
X1149003D2*
X1161004D1*
X1167339D2*
X1180339D1*
X1224667D2*
X1237667D1*
X1244003D2*
X1256003D1*
X1110003Y808528D2*
X1122003D1*
X1148999D2*
X1161003D1*
X1167675D2*
X1180675D1*
X1224331D2*
X1237331D1*
X1244003D2*
X1256003D1*
X1110003Y807528D2*
X1122003D1*
X1148964D2*
X1161003D1*
X1167995D2*
X1180995D1*
X1224011D2*
X1237011D1*
X1244003D2*
X1256007D1*
X1110003Y806528D2*
X1122003D1*
X1148836D2*
X1161003D1*
X1168339D2*
X1181339D1*
X1223667D2*
X1236667D1*
X1244007D2*
X1256042D1*
X1110003Y805528D2*
X1122003D1*
X1148597D2*
X1161003D1*
X1168675D2*
X1181675D1*
X1223331D2*
X1236331D1*
X1244042D2*
X1256169D1*
X1110003Y804528D2*
X1122003D1*
X1148341D2*
X1160999D1*
X1168995D2*
X1181995D1*
X1223011D2*
X1236011D1*
X1244169D2*
X1256409D1*
X1110003Y803528D2*
X1122003D1*
X1148166D2*
X1160964D1*
X1169339D2*
X1182339D1*
X1222671D2*
X1235671D1*
X1244409D2*
X1256665D1*
X1110003Y802528D2*
X1122003D1*
X1148073D2*
X1160836D1*
X1169675D2*
X1182675D1*
X1222366D2*
X1235366D1*
X1244665D2*
X1256840D1*
X1110003Y801528D2*
X1122003D1*
X1148031D2*
X1160597D1*
X1169995D2*
X1182995D1*
X1222138D2*
X1235138D1*
X1244840D2*
X1256933D1*
X1110003Y800528D2*
X1122003D1*
X1148013D2*
X1160341D1*
X1170339D2*
X1183335D1*
X1221911D2*
X1234911D1*
X1244933D2*
X1256975D1*
X1110003Y799528D2*
X1122003D1*
X1148007D2*
X1160166D1*
X1170675D2*
X1183640D1*
X1221622D2*
X1234622D1*
X1244975D2*
X1256992D1*
X1110003Y798528D2*
X1122003D1*
X1148004D2*
X1160073D1*
X1170995D2*
X1183868D1*
X1221312D2*
X1234312D1*
X1244992D2*
X1256999D1*
X1110003Y797528D2*
X1122003D1*
X1148003D2*
X1160031D1*
X1171339D2*
X1184095D1*
X1221004D2*
X1234004D1*
X1244999D2*
X1257002D1*
X1110003Y796528D2*
X1122003D1*
X1148003D2*
X1160013D1*
X1171675D2*
X1184384D1*
X1220665D2*
X1233665D1*
X1245002D2*
X1257003D1*
X1110003Y795528D2*
X1122003D1*
X1148003D2*
X1160007D1*
X1171995D2*
X1184693D1*
X1220330D2*
X1233330D1*
X1245003D2*
X1257003D1*
X1110003Y794528D2*
X1122003D1*
X1148003D2*
X1160004D1*
X1172339D2*
X1185002D1*
X1220010D2*
X1233010D1*
X1245003D2*
X1257003D1*
X1110003Y793528D2*
X1122003D1*
X1148003D2*
X1160003D1*
X1172675D2*
X1185341D1*
X1219667D2*
X1232667D1*
X1245007D2*
X1257007D1*
X1110003Y792528D2*
X1122003D1*
X1147999D2*
X1160003D1*
X1172995D2*
X1185676D1*
X1219331D2*
X1232331D1*
X1245042D2*
X1257042D1*
X1110003Y791528D2*
X1122003D1*
X1147964D2*
X1160003D1*
X1173339D2*
X1185996D1*
X1219011D2*
X1232011D1*
X1245169D2*
X1257169D1*
X1110003Y790528D2*
X1122003D1*
X1147836D2*
X1160003D1*
X1173675D2*
X1186339D1*
X1218671D2*
X1231667D1*
X1245409D2*
X1257409D1*
X1110003Y789528D2*
X1122003D1*
X1147597D2*
X1159999D1*
X1173995D2*
X1186675D1*
X1218366D2*
X1231331D1*
X1245665D2*
X1257665D1*
X1110003Y788528D2*
X1122003D1*
X1147341D2*
X1159964D1*
X1174339D2*
X1186995D1*
X1218138D2*
X1231011D1*
X1245840D2*
X1257840D1*
X1110003Y787528D2*
X1122003D1*
X1147166D2*
X1159836D1*
X1174675D2*
X1187339D1*
X1217911D2*
X1230671D1*
X1245933D2*
X1257933D1*
X1110003Y786528D2*
X1122003D1*
X1147073D2*
X1159597D1*
X1174995D2*
X1187675D1*
X1217622D2*
X1230366D1*
X1245975D2*
X1257975D1*
X1110003Y785528D2*
X1122003D1*
X1147031D2*
X1159341D1*
X1175339D2*
X1187995D1*
X1217312D2*
X1230138D1*
X1245992D2*
X1257992D1*
X1110003Y784528D2*
X1122003D1*
X1147013D2*
X1159166D1*
X1175675D2*
X1188339D1*
X1217004D2*
X1229911D1*
X1245999D2*
X1257999D1*
X1110003Y783528D2*
X1122003D1*
X1147007D2*
X1159073D1*
X1175995D2*
X1188675D1*
X1216665D2*
X1229622D1*
X1246002D2*
X1258002D1*
X1110003Y782528D2*
X1122003D1*
X1147004D2*
X1159031D1*
X1176335D2*
X1188995D1*
X1216330D2*
X1229312D1*
X1246003D2*
X1258003D1*
X1110003Y781528D2*
X1122003D1*
X1147003D2*
X1159013D1*
X1176640D2*
X1189339D1*
X1216010D2*
X1229004D1*
X1246003D2*
X1258003D1*
X1110003Y780528D2*
X1122003D1*
X1147003D2*
X1159007D1*
X1176868D2*
X1189675D1*
X1215667D2*
X1228665D1*
X1246007D2*
X1258007D1*
X1110003Y779528D2*
X1122003D1*
X1147003D2*
X1159004D1*
X1177095D2*
X1189995D1*
X1215331D2*
X1228330D1*
X1246042D2*
X1258042D1*
X1110003Y778528D2*
X1122003D1*
X1147003D2*
X1159003D1*
X1177384D2*
X1190339D1*
X1215011D2*
X1228010D1*
X1246169D2*
X1258169D1*
X1110003Y777528D2*
X1122003D1*
X1146999D2*
X1159003D1*
X1177693D2*
X1190675D1*
X1214667D2*
X1227667D1*
X1246409D2*
X1258409D1*
X1110003Y776528D2*
X1122003D1*
X1146964D2*
X1159003D1*
X1178002D2*
X1190995D1*
X1214331D2*
X1227331D1*
X1246665D2*
X1258665D1*
X1110003Y775528D2*
X1122003D1*
X1146836D2*
X1159003D1*
X1178341D2*
X1191335D1*
X1214011D2*
X1227011D1*
X1246840D2*
X1258840D1*
X1110003Y774528D2*
X1122003D1*
X1146597D2*
X1158999D1*
X1178676D2*
X1191640D1*
X1213671D2*
X1226667D1*
X1246933D2*
X1258933D1*
X1110003Y773528D2*
X1122003D1*
X1146341D2*
X1158964D1*
X1178996D2*
X1191868D1*
X1213366D2*
X1226331D1*
X1246975D2*
X1258975D1*
X1110003Y772528D2*
X1122003D1*
X1146166D2*
X1158836D1*
X1179339D2*
X1192095D1*
X1213138D2*
X1226011D1*
X1246992D2*
X1258992D1*
X1110003Y771528D2*
X1122003D1*
X1146073D2*
X1158597D1*
X1179675D2*
X1192384D1*
X1212911D2*
X1225667D1*
X1246999D2*
X1258999D1*
X1110003Y770528D2*
X1122003D1*
X1146031D2*
X1158341D1*
X1179995D2*
X1192693D1*
X1212622D2*
X1225331D1*
X1247002D2*
X1259002D1*
X1110003Y769528D2*
X1122003D1*
X1146013D2*
X1158166D1*
X1180339D2*
X1193002D1*
X1212312D2*
X1225011D1*
X1247003D2*
X1259003D1*
X1110003Y768528D2*
X1122003D1*
X1146007D2*
X1158073D1*
X1180675D2*
X1193341D1*
X1212004D2*
X1224671D1*
X1247003D2*
X1259003D1*
X1110003Y767528D2*
X1122003D1*
X1146004D2*
X1158031D1*
X1180995D2*
X1193676D1*
X1211665D2*
X1224366D1*
X1247003D2*
X1259007D1*
X1110003Y766528D2*
X1122003D1*
X1146003D2*
X1158013D1*
X1181339D2*
X1193996D1*
X1211330D2*
X1224138D1*
X1247007D2*
X1259042D1*
X1110003Y765528D2*
X1122003D1*
X1146003D2*
X1158007D1*
X1181675D2*
X1194339D1*
X1211010D2*
X1223911D1*
X1247042D2*
X1259169D1*
X1110003Y764528D2*
X1122003D1*
X1146003D2*
X1158004D1*
X1181995D2*
X1194675D1*
X1210667D2*
X1223622D1*
X1247169D2*
X1259409D1*
X1110003Y763528D2*
X1122003D1*
X1146003D2*
X1158003D1*
X1182339D2*
X1194995D1*
X1210331D2*
X1223312D1*
X1247409D2*
X1259665D1*
X1110003Y762528D2*
X1122003D1*
X1145999D2*
X1158003D1*
X1182675D2*
X1195339D1*
X1210011D2*
X1223004D1*
X1247665D2*
X1259840D1*
X1110003Y761528D2*
X1122003D1*
X1145964D2*
X1158003D1*
X1182995D2*
X1195675D1*
X1209671D2*
X1222665D1*
X1247840D2*
X1259933D1*
X1110003Y760528D2*
X1122003D1*
X1145836D2*
X1158003D1*
X1183339D2*
X1195995D1*
X1209366D2*
X1222330D1*
X1247933D2*
X1259975D1*
X1110003Y759528D2*
X1122003D1*
X1145597D2*
X1157999D1*
X1183675D2*
X1196339D1*
X1209138D2*
X1222010D1*
X1247975D2*
X1259992D1*
X1110003Y758528D2*
X1122003D1*
X1145341D2*
X1157964D1*
X1183995D2*
X1196675D1*
X1208911D2*
X1221667D1*
X1247992D2*
X1259999D1*
X1110003Y757528D2*
X1122003D1*
X1145166D2*
X1157836D1*
X1184339D2*
X1196995D1*
X1208622D2*
X1221331D1*
X1247999D2*
X1260002D1*
X1110003Y756528D2*
X1122003D1*
X1145073D2*
X1157597D1*
X1184675D2*
X1197339D1*
X1208312D2*
X1221011D1*
X1248002D2*
X1260003D1*
X1110003Y755528D2*
X1122003D1*
X1145031D2*
X1157341D1*
X1184995D2*
X1197675D1*
X1208004D2*
X1220667D1*
X1248003D2*
X1260003D1*
X1110003Y754528D2*
X1122003D1*
X1145013D2*
X1157166D1*
X1185339D2*
X1197995D1*
X1207665D2*
X1220331D1*
X1248003D2*
X1260007D1*
X1110003Y753528D2*
X1122003D1*
X1145007D2*
X1157073D1*
X1185675D2*
X1198339D1*
X1207330D2*
X1220011D1*
X1248007D2*
X1260042D1*
X1110003Y752528D2*
X1122003D1*
X1145004D2*
X1157031D1*
X1185995D2*
X1198675D1*
X1207010D2*
X1219671D1*
X1248042D2*
X1260169D1*
X1110003Y751528D2*
X1122003D1*
X1145003D2*
X1157013D1*
X1186339D2*
X1198995D1*
X1206667D2*
X1219366D1*
X1248169D2*
X1260409D1*
X1110003Y750528D2*
X1122003D1*
X1145003D2*
X1157007D1*
X1186675D2*
X1199339D1*
X1206331D2*
X1219138D1*
X1248409D2*
X1260665D1*
X1110003Y749528D2*
X1122003D1*
X1145003D2*
X1157004D1*
X1186995D2*
X1199675D1*
X1206011D2*
X1218911D1*
X1248665D2*
X1260840D1*
X1109999Y748528D2*
X1122003D1*
X1145003D2*
X1157003D1*
X1187339D2*
X1199995D1*
X1205667D2*
X1218622D1*
X1248840D2*
X1260933D1*
X1109964Y747528D2*
X1122003D1*
X1144999D2*
X1157003D1*
X1187675D2*
X1200335D1*
X1205331D2*
X1218312D1*
X1248933D2*
X1260975D1*
X1109836Y746528D2*
X1122003D1*
X1144964D2*
X1157003D1*
X1187995D2*
X1200640D1*
X1205011D2*
X1218004D1*
X1248975D2*
X1260992D1*
X1109597Y745528D2*
X1121999D1*
X1144836D2*
X1156999D1*
X1188335D2*
X1200876D1*
X1204667D2*
X1217665D1*
X1248992D2*
X1260999D1*
X1109341Y744528D2*
X1121964D1*
X1144597D2*
X1156964D1*
X1188640D2*
X1201180D1*
X1204328D2*
X1217330D1*
X1248999D2*
X1261002D1*
X1109162Y743528D2*
X1121836D1*
X1144341D2*
X1156836D1*
X1188868D2*
X1201638D1*
X1203980D2*
X1217010D1*
X1249002D2*
X1261003D1*
X1109034Y742528D2*
X1121597D1*
X1144166D2*
X1156597D1*
X1189095D2*
X1202746D1*
X1203533D2*
X1216667D1*
X1249003D2*
X1261003D1*
X1108865Y741528D2*
X1121341D1*
X1144073D2*
X1156341D1*
X1189384D2*
X1216331D1*
X1249003D2*
X1261007D1*
X1108604Y740528D2*
X1121166D1*
X1144031D2*
X1156166D1*
X1189693D2*
X1216011D1*
X1249007D2*
X1261042D1*
X1108305Y739528D2*
X1121073D1*
X1144013D2*
X1156073D1*
X1190002D2*
X1215667D1*
X1249042D2*
X1261169D1*
X1107997Y738528D2*
X1121027D1*
X1144007D2*
X1156031D1*
X1190341D2*
X1215331D1*
X1249169D2*
X1261409D1*
X1107625Y737528D2*
X1120974D1*
X1144004D2*
X1156013D1*
X1190676D2*
X1215011D1*
X1249409D2*
X1261665D1*
X1107159Y736528D2*
X1120840D1*
X1144003D2*
X1156007D1*
X1190996D2*
X1214667D1*
X1249665D2*
X1261840D1*
X1106561Y735528D2*
X1120594D1*
X1144003D2*
X1156004D1*
X1191339D2*
X1214331D1*
X1249840D2*
X1261933D1*
X1105792Y734528D2*
X1120302D1*
X1144003D2*
X1156003D1*
X1191675D2*
X1214011D1*
X1249933D2*
X1261975D1*
X1104832Y733528D2*
X1120000D1*
X1144003D2*
X1156003D1*
X1191995D2*
X1213671D1*
X1249975D2*
X1261992D1*
X1103523Y732528D2*
X1119664D1*
X1143999D2*
X1156003D1*
X1192339D2*
X1213366D1*
X1249992D2*
X1261999D1*
X1077003Y731528D2*
X1079003D1*
X1101466D2*
X1119330D1*
X1143964D2*
X1156003D1*
X1192675D2*
X1213138D1*
X1249999D2*
X1262002D1*
X1077003Y730528D2*
X1085359D1*
X1098069D2*
X1119006D1*
X1143836D2*
X1155999D1*
X1192995D2*
X1212911D1*
X1250002D2*
X1262003D1*
X1077003Y729528D2*
X1093197D1*
X1093021D2*
X1118628D1*
X1143597D2*
X1155964D1*
X1193339D2*
X1212622D1*
X1250003D2*
X1262003D1*
X1077003Y728528D2*
X1118160D1*
X1143341D2*
X1155836D1*
X1193675D2*
X1212312D1*
X1250003D2*
X1262007D1*
X1076999Y727528D2*
X1117562D1*
X1143166D2*
X1155597D1*
X1193995D2*
X1212004D1*
X1250007D2*
X1262042D1*
X1076961Y726528D2*
X1116799D1*
X1143073D2*
X1155341D1*
X1194339D2*
X1211665D1*
X1250042D2*
X1262169D1*
X1076806Y725528D2*
X1115918D1*
X1143031D2*
X1155166D1*
X1194675D2*
X1211330D1*
X1250169D2*
X1262409D1*
X1076465Y724528D2*
X1114962D1*
X1143013D2*
X1155073D1*
X1194995D2*
X1211010D1*
X1250409D2*
X1262665D1*
X1076003Y723528D2*
X1113909D1*
X1143007D2*
X1155031D1*
X1195339D2*
X1210667D1*
X1250665D2*
X1262840D1*
X1077249Y722528D2*
X1112611D1*
X1143004D2*
X1155013D1*
X1195678D2*
X1210328D1*
X1250840D2*
X1262933D1*
X1078908Y721528D2*
X1110854D1*
X1143003D2*
X1155007D1*
X1196026D2*
X1209980D1*
X1250933D2*
X1262975D1*
X1081283Y720528D2*
X1108471D1*
X1143003D2*
X1155004D1*
X1196473D2*
X1209533D1*
X1250977D2*
X1262993D1*
X1084436Y719528D2*
X1105427D1*
X1143003D2*
X1155003D1*
X1197003D2*
X1209003D1*
X1251003D2*
X1263003D1*
X1088003Y718528D2*
X1102003D1*
X1110003Y846528D2*
Y845528D1*
Y844528D1*
Y843528D1*
Y842528D1*
Y841528D1*
Y840528D1*
Y839528D1*
Y838528D1*
Y837528D1*
Y836528D1*
Y835528D1*
Y834528D1*
Y833528D1*
Y832528D1*
Y831528D1*
Y830528D1*
Y829528D1*
Y828528D1*
Y827528D1*
Y826528D1*
Y825528D1*
Y824528D1*
Y823528D1*
Y822528D1*
Y821528D1*
Y820528D1*
Y819528D1*
Y818528D1*
Y817528D1*
Y816528D1*
Y815528D1*
Y814528D1*
Y813528D1*
Y812528D1*
Y811528D1*
Y810528D1*
Y809528D1*
Y808528D1*
Y807528D1*
Y806528D1*
Y805528D1*
Y804528D1*
Y803528D1*
Y802528D1*
Y801528D1*
Y800528D1*
Y799528D1*
Y798528D1*
Y797528D1*
Y796528D1*
Y795528D1*
Y794528D1*
Y793528D1*
Y792528D1*
Y791528D1*
Y790528D1*
Y789528D1*
Y788528D1*
Y787528D1*
Y786528D1*
Y785528D1*
Y784528D1*
Y783528D1*
Y782528D1*
Y781528D1*
Y780528D1*
Y779528D1*
Y778528D1*
Y777528D1*
Y776528D1*
Y775528D1*
Y774528D1*
Y773528D1*
Y772528D1*
Y771528D1*
Y770528D1*
Y769528D1*
Y768528D1*
Y767528D1*
Y766528D1*
Y765528D1*
Y764528D1*
Y763528D1*
Y762528D1*
Y761528D1*
Y760528D1*
Y759528D1*
Y758528D1*
Y757528D1*
Y756528D1*
Y755528D1*
Y754528D1*
Y753528D1*
Y752528D1*
Y751528D1*
Y750528D1*
Y749528D1*
X1109999Y748528D1*
X1109964Y747528D1*
X1109836Y746528D1*
X1109597Y745528D1*
X1109341Y744528D1*
X1109162Y743528D1*
X1109034Y742528D1*
X1108865Y741528D1*
X1108604Y740528D1*
X1108305Y739528D1*
X1107997Y738528D1*
X1107625Y737528D1*
X1107159Y736528D1*
X1106561Y735528D1*
X1105792Y734528D1*
X1104832Y733528D1*
X1103523Y732528D1*
X1101466Y731528D1*
X1098069Y730528D1*
X1093021Y729528D1*
X1087003Y728528D1*
X1122003Y846528D2*
Y845528D1*
Y844528D1*
Y843528D1*
Y842528D1*
Y841528D1*
Y840528D1*
Y839528D1*
Y838528D1*
Y837528D1*
Y836528D1*
Y835528D1*
Y834528D1*
Y833528D1*
Y832528D1*
Y831528D1*
Y830528D1*
Y829528D1*
Y828528D1*
Y827528D1*
Y826528D1*
Y825528D1*
Y824528D1*
Y823528D1*
Y822528D1*
Y821528D1*
Y820528D1*
Y819528D1*
Y818528D1*
Y817528D1*
Y816528D1*
Y815528D1*
Y814528D1*
Y813528D1*
Y812528D1*
Y811528D1*
Y810528D1*
Y809528D1*
Y808528D1*
Y807528D1*
Y806528D1*
Y805528D1*
Y804528D1*
Y803528D1*
Y802528D1*
Y801528D1*
Y800528D1*
Y799528D1*
Y798528D1*
Y797528D1*
Y796528D1*
Y795528D1*
Y794528D1*
Y793528D1*
Y792528D1*
Y791528D1*
Y790528D1*
Y789528D1*
Y788528D1*
Y787528D1*
Y786528D1*
Y785528D1*
Y784528D1*
Y783528D1*
Y782528D1*
Y781528D1*
Y780528D1*
Y779528D1*
Y778528D1*
Y777528D1*
Y776528D1*
Y775528D1*
Y774528D1*
Y773528D1*
Y772528D1*
Y771528D1*
Y770528D1*
Y769528D1*
Y768528D1*
Y767528D1*
Y766528D1*
Y765528D1*
Y764528D1*
Y763528D1*
Y762528D1*
Y761528D1*
Y760528D1*
Y759528D1*
Y758528D1*
Y757528D1*
Y756528D1*
Y755528D1*
Y754528D1*
Y753528D1*
Y752528D1*
Y751528D1*
Y750528D1*
Y749528D1*
Y748528D1*
Y747528D1*
Y746528D1*
X1121999Y745528D1*
X1121964Y744528D1*
X1121836Y743528D1*
X1121597Y742528D1*
X1121341Y741528D1*
X1121166Y740528D1*
X1121073Y739528D1*
X1121027Y738528D1*
X1120974Y737528D1*
X1120840Y736528D1*
X1120594Y735528D1*
X1120302Y734528D1*
X1120000Y733528D1*
X1119664Y732528D1*
X1119330Y731528D1*
X1119006Y730528D1*
X1118628Y729528D1*
X1118160Y728528D1*
X1117562Y727528D1*
X1116799Y726528D1*
X1115918Y725528D1*
X1114962Y724528D1*
X1113909Y723528D1*
X1112611Y722528D1*
X1110854Y721528D1*
X1108471Y720528D1*
X1105427Y719528D1*
X1102003Y718528D1*
X1151003Y846528D2*
Y845528D1*
Y844528D1*
Y843528D1*
Y842528D1*
Y841528D1*
Y840528D1*
Y839528D1*
X1150999Y838528D1*
X1150964Y837528D1*
X1150836Y836528D1*
X1150597Y835528D1*
X1150341Y834528D1*
X1150166Y833528D1*
X1150073Y832528D1*
X1150031Y831528D1*
X1150013Y830528D1*
X1150007Y829528D1*
X1150004Y828528D1*
X1150003Y827528D1*
Y826528D1*
Y825528D1*
Y824528D1*
X1149999Y823528D1*
X1149964Y822528D1*
X1149836Y821528D1*
X1149597Y820528D1*
X1149341Y819528D1*
X1149166Y818528D1*
X1149073Y817528D1*
X1149031Y816528D1*
X1149013Y815528D1*
X1149007Y814528D1*
X1149004Y813528D1*
X1149003Y812528D1*
Y811528D1*
Y810528D1*
Y809528D1*
X1148999Y808528D1*
X1148964Y807528D1*
X1148836Y806528D1*
X1148597Y805528D1*
X1148341Y804528D1*
X1148166Y803528D1*
X1148073Y802528D1*
X1148031Y801528D1*
X1148013Y800528D1*
X1148007Y799528D1*
X1148004Y798528D1*
X1148003Y797528D1*
Y796528D1*
Y795528D1*
Y794528D1*
Y793528D1*
X1147999Y792528D1*
X1147964Y791528D1*
X1147836Y790528D1*
X1147597Y789528D1*
X1147341Y788528D1*
X1147166Y787528D1*
X1147073Y786528D1*
X1147031Y785528D1*
X1147013Y784528D1*
X1147007Y783528D1*
X1147004Y782528D1*
X1147003Y781528D1*
Y780528D1*
Y779528D1*
Y778528D1*
X1146999Y777528D1*
X1146964Y776528D1*
X1146836Y775528D1*
X1146597Y774528D1*
X1146341Y773528D1*
X1146166Y772528D1*
X1146073Y771528D1*
X1146031Y770528D1*
X1146013Y769528D1*
X1146007Y768528D1*
X1146004Y767528D1*
X1146003Y766528D1*
Y765528D1*
Y764528D1*
Y763528D1*
X1145999Y762528D1*
X1145964Y761528D1*
X1145836Y760528D1*
X1145597Y759528D1*
X1145341Y758528D1*
X1145166Y757528D1*
X1145073Y756528D1*
X1145031Y755528D1*
X1145013Y754528D1*
X1145007Y753528D1*
X1145004Y752528D1*
X1145003Y751528D1*
Y750528D1*
Y749528D1*
Y748528D1*
X1144999Y747528D1*
X1144964Y746528D1*
X1144836Y745528D1*
X1144597Y744528D1*
X1144341Y743528D1*
X1144166Y742528D1*
X1144073Y741528D1*
X1144031Y740528D1*
X1144013Y739528D1*
X1144007Y738528D1*
X1144004Y737528D1*
X1144003Y736528D1*
Y735528D1*
Y734528D1*
Y733528D1*
X1143999Y732528D1*
X1143964Y731528D1*
X1143836Y730528D1*
X1143597Y729528D1*
X1143341Y728528D1*
X1143166Y727528D1*
X1143073Y726528D1*
X1143031Y725528D1*
X1143013Y724528D1*
X1143007Y723528D1*
X1143004Y722528D1*
X1143003Y721528D1*
Y720528D1*
Y719528D1*
X1168003Y846528D2*
X1168503Y845528D1*
X1168918Y844528D1*
X1169307Y843528D1*
X1169663Y842528D1*
X1169991Y841528D1*
X1170337Y840528D1*
X1170675Y839528D1*
X1170995Y838528D1*
X1171338Y837528D1*
X1171675Y836528D1*
X1171995Y835528D1*
X1172339Y834528D1*
X1172675Y833528D1*
X1172995Y832528D1*
X1173339Y831528D1*
X1173675Y830528D1*
X1173995Y829528D1*
X1174339Y828528D1*
X1174675Y827528D1*
X1174995Y826528D1*
X1175335Y825528D1*
X1175640Y824528D1*
X1175868Y823528D1*
X1176095Y822528D1*
X1176384Y821528D1*
X1176693Y820528D1*
X1177002Y819528D1*
X1177341Y818528D1*
X1177676Y817528D1*
X1177996Y816528D1*
X1178339Y815528D1*
X1178675Y814528D1*
X1178995Y813528D1*
X1179339Y812528D1*
X1179675Y811528D1*
X1179995Y810528D1*
X1180339Y809528D1*
X1180675Y808528D1*
X1180995Y807528D1*
X1181339Y806528D1*
X1181675Y805528D1*
X1181995Y804528D1*
X1182339Y803528D1*
X1182675Y802528D1*
X1182995Y801528D1*
X1183335Y800528D1*
X1183640Y799528D1*
X1183868Y798528D1*
X1184095Y797528D1*
X1184384Y796528D1*
X1184693Y795528D1*
X1185002Y794528D1*
X1185341Y793528D1*
X1185676Y792528D1*
X1185996Y791528D1*
X1186339Y790528D1*
X1186675Y789528D1*
X1186995Y788528D1*
X1187339Y787528D1*
X1187675Y786528D1*
X1187995Y785528D1*
X1188339Y784528D1*
X1188675Y783528D1*
X1188995Y782528D1*
X1189339Y781528D1*
X1189675Y780528D1*
X1189995Y779528D1*
X1190339Y778528D1*
X1190675Y777528D1*
X1190995Y776528D1*
X1191335Y775528D1*
X1191640Y774528D1*
X1191868Y773528D1*
X1192095Y772528D1*
X1192384Y771528D1*
X1192693Y770528D1*
X1193002Y769528D1*
X1193341Y768528D1*
X1193676Y767528D1*
X1193996Y766528D1*
X1194339Y765528D1*
X1194675Y764528D1*
X1194995Y763528D1*
X1195339Y762528D1*
X1195675Y761528D1*
X1195995Y760528D1*
X1196339Y759528D1*
X1196675Y758528D1*
X1196995Y757528D1*
X1197339Y756528D1*
X1197675Y755528D1*
X1197995Y754528D1*
X1198339Y753528D1*
X1198675Y752528D1*
X1198995Y751528D1*
X1199339Y750528D1*
X1199675Y749528D1*
X1199995Y748528D1*
X1200335Y747528D1*
X1200640Y746528D1*
X1200876Y745528D1*
X1201180Y744528D1*
X1201638Y743528D1*
X1202746Y742528D1*
X1204003Y741528D1*
X1236003Y846528D2*
X1235848Y845528D1*
X1235597Y844528D1*
X1235303Y843528D1*
X1235000Y842528D1*
X1234664Y841528D1*
X1234330Y840528D1*
X1234010Y839528D1*
X1233667Y838528D1*
X1233331Y837528D1*
X1233011Y836528D1*
X1232667Y835528D1*
X1232331Y834528D1*
X1232011Y833528D1*
X1231671Y832528D1*
X1231366Y831528D1*
X1231138Y830528D1*
X1230911Y829528D1*
X1230622Y828528D1*
X1230312Y827528D1*
X1230004Y826528D1*
X1229665Y825528D1*
X1229330Y824528D1*
X1229010Y823528D1*
X1228667Y822528D1*
X1228331Y821528D1*
X1228011Y820528D1*
X1227671Y819528D1*
X1227366Y818528D1*
X1227138Y817528D1*
X1226911Y816528D1*
X1226622Y815528D1*
X1226312Y814528D1*
X1226004Y813528D1*
X1225665Y812528D1*
X1225330Y811528D1*
X1225010Y810528D1*
X1224667Y809528D1*
X1224331Y808528D1*
X1224011Y807528D1*
X1223667Y806528D1*
X1223331Y805528D1*
X1223011Y804528D1*
X1222671Y803528D1*
X1222366Y802528D1*
X1222138Y801528D1*
X1221911Y800528D1*
X1221622Y799528D1*
X1221312Y798528D1*
X1221004Y797528D1*
X1220665Y796528D1*
X1220330Y795528D1*
X1220010Y794528D1*
X1219667Y793528D1*
X1219331Y792528D1*
X1219011Y791528D1*
X1218671Y790528D1*
X1218366Y789528D1*
X1218138Y788528D1*
X1217911Y787528D1*
X1217622Y786528D1*
X1217312Y785528D1*
X1217004Y784528D1*
X1216665Y783528D1*
X1216330Y782528D1*
X1216010Y781528D1*
X1215667Y780528D1*
X1215331Y779528D1*
X1215011Y778528D1*
X1214667Y777528D1*
X1214331Y776528D1*
X1214011Y775528D1*
X1213671Y774528D1*
X1213366Y773528D1*
X1213138Y772528D1*
X1212911Y771528D1*
X1212622Y770528D1*
X1212312Y769528D1*
X1212004Y768528D1*
X1211665Y767528D1*
X1211330Y766528D1*
X1211010Y765528D1*
X1210667Y764528D1*
X1210331Y763528D1*
X1210011Y762528D1*
X1209671Y761528D1*
X1209366Y760528D1*
X1209138Y759528D1*
X1208911Y758528D1*
X1208622Y757528D1*
X1208312Y756528D1*
X1208004Y755528D1*
X1207665Y754528D1*
X1207330Y753528D1*
X1207010Y752528D1*
X1206667Y751528D1*
X1206331Y750528D1*
X1206011Y749528D1*
X1205667Y748528D1*
X1205331Y747528D1*
X1205011Y746528D1*
X1204667Y745528D1*
X1204328Y744528D1*
X1203980Y743528D1*
X1203533Y742528D1*
X1203003Y741528D1*
X1253003Y846528D2*
X1253041Y845528D1*
X1253169Y844528D1*
X1253409Y843528D1*
X1253665Y842528D1*
X1253840Y841528D1*
X1253933Y840528D1*
X1253975Y839528D1*
X1253992Y838528D1*
X1253999Y837528D1*
X1254002Y836528D1*
X1254003Y835528D1*
Y834528D1*
X1254007Y833528D1*
X1254042Y832528D1*
X1254169Y831528D1*
X1254409Y830528D1*
X1254665Y829528D1*
X1254840Y828528D1*
X1254933Y827528D1*
X1254975Y826528D1*
X1254992Y825528D1*
X1254999Y824528D1*
X1255002Y823528D1*
X1255003Y822528D1*
Y821528D1*
X1255007Y820528D1*
X1255042Y819528D1*
X1255169Y818528D1*
X1255409Y817528D1*
X1255665Y816528D1*
X1255840Y815528D1*
X1255933Y814528D1*
X1255975Y813528D1*
X1255992Y812528D1*
X1255999Y811528D1*
X1256002Y810528D1*
X1256003Y809528D1*
Y808528D1*
X1256007Y807528D1*
X1256042Y806528D1*
X1256169Y805528D1*
X1256409Y804528D1*
X1256665Y803528D1*
X1256840Y802528D1*
X1256933Y801528D1*
X1256975Y800528D1*
X1256992Y799528D1*
X1256999Y798528D1*
X1257002Y797528D1*
X1257003Y796528D1*
Y795528D1*
Y794528D1*
X1257007Y793528D1*
X1257042Y792528D1*
X1257169Y791528D1*
X1257409Y790528D1*
X1257665Y789528D1*
X1257840Y788528D1*
X1257933Y787528D1*
X1257975Y786528D1*
X1257992Y785528D1*
X1257999Y784528D1*
X1258002Y783528D1*
X1258003Y782528D1*
Y781528D1*
X1258007Y780528D1*
X1258042Y779528D1*
X1258169Y778528D1*
X1258409Y777528D1*
X1258665Y776528D1*
X1258840Y775528D1*
X1258933Y774528D1*
X1258975Y773528D1*
X1258992Y772528D1*
X1258999Y771528D1*
X1259002Y770528D1*
X1259003Y769528D1*
Y768528D1*
X1259007Y767528D1*
X1259042Y766528D1*
X1259169Y765528D1*
X1259409Y764528D1*
X1259665Y763528D1*
X1259840Y762528D1*
X1259933Y761528D1*
X1259975Y760528D1*
X1259992Y759528D1*
X1259999Y758528D1*
X1260002Y757528D1*
X1260003Y756528D1*
Y755528D1*
X1260007Y754528D1*
X1260042Y753528D1*
X1260169Y752528D1*
X1260409Y751528D1*
X1260665Y750528D1*
X1260840Y749528D1*
X1260933Y748528D1*
X1260975Y747528D1*
X1260992Y746528D1*
X1260999Y745528D1*
X1261002Y744528D1*
X1261003Y743528D1*
Y742528D1*
X1261007Y741528D1*
X1261042Y740528D1*
X1261169Y739528D1*
X1261409Y738528D1*
X1261665Y737528D1*
X1261840Y736528D1*
X1261933Y735528D1*
X1261975Y734528D1*
X1261992Y733528D1*
X1261999Y732528D1*
X1262002Y731528D1*
X1262003Y730528D1*
Y729528D1*
X1262007Y728528D1*
X1262042Y727528D1*
X1262169Y726528D1*
X1262409Y725528D1*
X1262665Y724528D1*
X1262840Y723528D1*
X1262933Y722528D1*
X1262975Y721528D1*
X1262993Y720528D1*
X1263003Y719528D1*
X1162003Y822528D2*
Y821528D1*
Y820528D1*
X1161999Y819528D1*
X1161964Y818528D1*
X1161836Y817528D1*
X1161597Y816528D1*
X1161341Y815528D1*
X1161166Y814528D1*
X1161073Y813528D1*
X1161031Y812528D1*
X1161013Y811528D1*
X1161007Y810528D1*
X1161004Y809528D1*
X1161003Y808528D1*
Y807528D1*
Y806528D1*
Y805528D1*
X1160999Y804528D1*
X1160964Y803528D1*
X1160836Y802528D1*
X1160597Y801528D1*
X1160341Y800528D1*
X1160166Y799528D1*
X1160073Y798528D1*
X1160031Y797528D1*
X1160013Y796528D1*
X1160007Y795528D1*
X1160004Y794528D1*
X1160003Y793528D1*
Y792528D1*
Y791528D1*
Y790528D1*
X1159999Y789528D1*
X1159964Y788528D1*
X1159836Y787528D1*
X1159597Y786528D1*
X1159341Y785528D1*
X1159166Y784528D1*
X1159073Y783528D1*
X1159031Y782528D1*
X1159013Y781528D1*
X1159007Y780528D1*
X1159004Y779528D1*
X1159003Y778528D1*
Y777528D1*
Y776528D1*
Y775528D1*
X1158999Y774528D1*
X1158964Y773528D1*
X1158836Y772528D1*
X1158597Y771528D1*
X1158341Y770528D1*
X1158166Y769528D1*
X1158073Y768528D1*
X1158031Y767528D1*
X1158013Y766528D1*
X1158007Y765528D1*
X1158004Y764528D1*
X1158003Y763528D1*
Y762528D1*
Y761528D1*
Y760528D1*
X1157999Y759528D1*
X1157964Y758528D1*
X1157836Y757528D1*
X1157597Y756528D1*
X1157341Y755528D1*
X1157166Y754528D1*
X1157073Y753528D1*
X1157031Y752528D1*
X1157013Y751528D1*
X1157007Y750528D1*
X1157004Y749528D1*
X1157003Y748528D1*
Y747528D1*
Y746528D1*
X1156999Y745528D1*
X1156964Y744528D1*
X1156836Y743528D1*
X1156597Y742528D1*
X1156341Y741528D1*
X1156166Y740528D1*
X1156073Y739528D1*
X1156031Y738528D1*
X1156013Y737528D1*
X1156007Y736528D1*
X1156004Y735528D1*
X1156003Y734528D1*
Y733528D1*
Y732528D1*
Y731528D1*
X1155999Y730528D1*
X1155964Y729528D1*
X1155836Y728528D1*
X1155597Y727528D1*
X1155341Y726528D1*
X1155166Y725528D1*
X1155073Y724528D1*
X1155031Y723528D1*
X1155013Y722528D1*
X1155007Y721528D1*
X1155004Y720528D1*
X1155003Y719528D1*
X1164003Y822528D2*
X1164041Y821528D1*
X1164169Y820528D1*
X1164409Y819528D1*
X1164669Y818528D1*
X1164879Y817528D1*
X1165099Y816528D1*
X1165385Y815528D1*
X1165694Y814528D1*
X1166003Y813528D1*
X1166341Y812528D1*
X1166676Y811528D1*
X1166996Y810528D1*
X1167339Y809528D1*
X1167675Y808528D1*
X1167995Y807528D1*
X1168339Y806528D1*
X1168675Y805528D1*
X1168995Y804528D1*
X1169339Y803528D1*
X1169675Y802528D1*
X1169995Y801528D1*
X1170339Y800528D1*
X1170675Y799528D1*
X1170995Y798528D1*
X1171339Y797528D1*
X1171675Y796528D1*
X1171995Y795528D1*
X1172339Y794528D1*
X1172675Y793528D1*
X1172995Y792528D1*
X1173339Y791528D1*
X1173675Y790528D1*
X1173995Y789528D1*
X1174339Y788528D1*
X1174675Y787528D1*
X1174995Y786528D1*
X1175339Y785528D1*
X1175675Y784528D1*
X1175995Y783528D1*
X1176335Y782528D1*
X1176640Y781528D1*
X1176868Y780528D1*
X1177095Y779528D1*
X1177384Y778528D1*
X1177693Y777528D1*
X1178002Y776528D1*
X1178341Y775528D1*
X1178676Y774528D1*
X1178996Y773528D1*
X1179339Y772528D1*
X1179675Y771528D1*
X1179995Y770528D1*
X1180339Y769528D1*
X1180675Y768528D1*
X1180995Y767528D1*
X1181339Y766528D1*
X1181675Y765528D1*
X1181995Y764528D1*
X1182339Y763528D1*
X1182675Y762528D1*
X1182995Y761528D1*
X1183339Y760528D1*
X1183675Y759528D1*
X1183995Y758528D1*
X1184339Y757528D1*
X1184675Y756528D1*
X1184995Y755528D1*
X1185339Y754528D1*
X1185675Y753528D1*
X1185995Y752528D1*
X1186339Y751528D1*
X1186675Y750528D1*
X1186995Y749528D1*
X1187339Y748528D1*
X1187675Y747528D1*
X1187995Y746528D1*
X1188335Y745528D1*
X1188640Y744528D1*
X1188868Y743528D1*
X1189095Y742528D1*
X1189384Y741528D1*
X1189693Y740528D1*
X1190002Y739528D1*
X1190341Y738528D1*
X1190676Y737528D1*
X1190996Y736528D1*
X1191339Y735528D1*
X1191675Y734528D1*
X1191995Y733528D1*
X1192339Y732528D1*
X1192675Y731528D1*
X1192995Y730528D1*
X1193339Y729528D1*
X1193675Y728528D1*
X1193995Y727528D1*
X1194339Y726528D1*
X1194675Y725528D1*
X1194995Y724528D1*
X1195339Y723528D1*
X1195678Y722528D1*
X1196026Y721528D1*
X1196473Y720528D1*
X1197003Y719528D1*
X1241003Y822528D2*
X1240999Y821528D1*
X1240964Y820528D1*
X1240836Y819528D1*
X1240593Y818528D1*
X1240302Y817528D1*
X1240000Y816528D1*
X1239664Y815528D1*
X1239330Y814528D1*
X1239010Y813528D1*
X1238667Y812528D1*
X1238331Y811528D1*
X1238011Y810528D1*
X1237667Y809528D1*
X1237331Y808528D1*
X1237011Y807528D1*
X1236667Y806528D1*
X1236331Y805528D1*
X1236011Y804528D1*
X1235671Y803528D1*
X1235366Y802528D1*
X1235138Y801528D1*
X1234911Y800528D1*
X1234622Y799528D1*
X1234312Y798528D1*
X1234004Y797528D1*
X1233665Y796528D1*
X1233330Y795528D1*
X1233010Y794528D1*
X1232667Y793528D1*
X1232331Y792528D1*
X1232011Y791528D1*
X1231667Y790528D1*
X1231331Y789528D1*
X1231011Y788528D1*
X1230671Y787528D1*
X1230366Y786528D1*
X1230138Y785528D1*
X1229911Y784528D1*
X1229622Y783528D1*
X1229312Y782528D1*
X1229004Y781528D1*
X1228665Y780528D1*
X1228330Y779528D1*
X1228010Y778528D1*
X1227667Y777528D1*
X1227331Y776528D1*
X1227011Y775528D1*
X1226667Y774528D1*
X1226331Y773528D1*
X1226011Y772528D1*
X1225667Y771528D1*
X1225331Y770528D1*
X1225011Y769528D1*
X1224671Y768528D1*
X1224366Y767528D1*
X1224138Y766528D1*
X1223911Y765528D1*
X1223622Y764528D1*
X1223312Y763528D1*
X1223004Y762528D1*
X1222665Y761528D1*
X1222330Y760528D1*
X1222010Y759528D1*
X1221667Y758528D1*
X1221331Y757528D1*
X1221011Y756528D1*
X1220667Y755528D1*
X1220331Y754528D1*
X1220011Y753528D1*
X1219671Y752528D1*
X1219366Y751528D1*
X1219138Y750528D1*
X1218911Y749528D1*
X1218622Y748528D1*
X1218312Y747528D1*
X1218004Y746528D1*
X1217665Y745528D1*
X1217330Y744528D1*
X1217010Y743528D1*
X1216667Y742528D1*
X1216331Y741528D1*
X1216011Y740528D1*
X1215667Y739528D1*
X1215331Y738528D1*
X1215011Y737528D1*
X1214667Y736528D1*
X1214331Y735528D1*
X1214011Y734528D1*
X1213671Y733528D1*
X1213366Y732528D1*
X1213138Y731528D1*
X1212911Y730528D1*
X1212622Y729528D1*
X1212312Y728528D1*
X1212004Y727528D1*
X1211665Y726528D1*
X1211330Y725528D1*
X1211010Y724528D1*
X1210667Y723528D1*
X1210328Y722528D1*
X1209980Y721528D1*
X1209533Y720528D1*
X1209003Y719528D1*
X1243003Y822528D2*
Y821528D1*
X1243007Y820528D1*
X1243042Y819528D1*
X1243169Y818528D1*
X1243409Y817528D1*
X1243665Y816528D1*
X1243840Y815528D1*
X1243933Y814528D1*
X1243975Y813528D1*
X1243992Y812528D1*
X1243999Y811528D1*
X1244002Y810528D1*
X1244003Y809528D1*
Y808528D1*
Y807528D1*
X1244007Y806528D1*
X1244042Y805528D1*
X1244169Y804528D1*
X1244409Y803528D1*
X1244665Y802528D1*
X1244840Y801528D1*
X1244933Y800528D1*
X1244975Y799528D1*
X1244992Y798528D1*
X1244999Y797528D1*
X1245002Y796528D1*
X1245003Y795528D1*
Y794528D1*
X1245007Y793528D1*
X1245042Y792528D1*
X1245169Y791528D1*
X1245409Y790528D1*
X1245665Y789528D1*
X1245840Y788528D1*
X1245933Y787528D1*
X1245975Y786528D1*
X1245992Y785528D1*
X1245999Y784528D1*
X1246002Y783528D1*
X1246003Y782528D1*
Y781528D1*
X1246007Y780528D1*
X1246042Y779528D1*
X1246169Y778528D1*
X1246409Y777528D1*
X1246665Y776528D1*
X1246840Y775528D1*
X1246933Y774528D1*
X1246975Y773528D1*
X1246992Y772528D1*
X1246999Y771528D1*
X1247002Y770528D1*
X1247003Y769528D1*
Y768528D1*
Y767528D1*
X1247007Y766528D1*
X1247042Y765528D1*
X1247169Y764528D1*
X1247409Y763528D1*
X1247665Y762528D1*
X1247840Y761528D1*
X1247933Y760528D1*
X1247975Y759528D1*
X1247992Y758528D1*
X1247999Y757528D1*
X1248002Y756528D1*
X1248003Y755528D1*
Y754528D1*
X1248007Y753528D1*
X1248042Y752528D1*
X1248169Y751528D1*
X1248409Y750528D1*
X1248665Y749528D1*
X1248840Y748528D1*
X1248933Y747528D1*
X1248975Y746528D1*
X1248992Y745528D1*
X1248999Y744528D1*
X1249002Y743528D1*
X1249003Y742528D1*
Y741528D1*
X1249007Y740528D1*
X1249042Y739528D1*
X1249169Y738528D1*
X1249409Y737528D1*
X1249665Y736528D1*
X1249840Y735528D1*
X1249933Y734528D1*
X1249975Y733528D1*
X1249992Y732528D1*
X1249999Y731528D1*
X1250002Y730528D1*
X1250003Y729528D1*
Y728528D1*
X1250007Y727528D1*
X1250042Y726528D1*
X1250169Y725528D1*
X1250409Y724528D1*
X1250665Y723528D1*
X1250840Y722528D1*
X1250933Y721528D1*
X1250977Y720528D1*
X1251003Y719528D1*
X1077003Y731528D2*
Y730528D1*
Y729528D1*
Y728528D1*
X1076999Y727528D1*
X1076961Y726528D1*
X1076806Y725528D1*
X1076465Y724528D1*
X1076003Y723528D1*
X1077249Y722528D1*
X1078908Y721528D1*
X1081283Y720528D1*
X1084436Y719528D1*
X1088003Y718528D1*
X1079003Y731528D2*
X1085359Y730528D1*
X1093197Y729528D1*
X1102003Y728528D1*
M02*
