G04 DipTrace 3.3.0.0*
G04 typhoon_panel.GBL*
%MOIN*%
G04 #@! TF.FileFunction,Copper,L2,Bot*
G04 #@! TF.Part,Single*
%AMOUTLINE0*
4,1,20,
0.098425,0.0,
0.093608,-0.018249,
0.079628,-0.034712,
0.057853,-0.047777,
0.030415,-0.056165,
0.0,-0.059055,
-0.030415,-0.056165,
-0.057853,-0.047777,
-0.079628,-0.034712,
-0.093608,-0.018249,
-0.098425,0.0,
-0.093608,0.018249,
-0.079628,0.034712,
-0.057853,0.047777,
-0.030415,0.056165,
0.0,0.059055,
0.030415,0.056165,
0.057853,0.047777,
0.079628,0.034712,
0.093608,0.018249,
0.098425,0.0,
0*%
G04 #@! TA.AperFunction,Conductor*
%ADD14C,0.007*%
G04 #@! TA.AperFunction,CopperBalancing*
%ADD16C,0.009*%
G04 #@! TA.AperFunction,ComponentPad*
%ADD32O,0.098425X0.15748*%
%ADD33C,0.32*%
%ADD34O,0.299213X0.177165*%
%ADD35C,0.334646*%
%ADD56OUTLINE0*%
%FSLAX26Y26*%
G04*
G70*
G90*
G75*
G01*
G04 Bottom*
%LPD*%
X881751Y2937749D2*
D14*
Y2806500D1*
X906751Y2781500D1*
X415409Y5420631D2*
D16*
X574712D1*
X801301D2*
X3174710D1*
X3401299D2*
X3560603D1*
X415409Y5411762D2*
X561792D1*
X814204D2*
X3161790D1*
X3414202D2*
X3560603D1*
X415409Y5402894D2*
X552124D1*
X823872D2*
X3152122D1*
X3423870D2*
X3560603D1*
X415409Y5394025D2*
X544548D1*
X831448D2*
X3144546D1*
X3431463D2*
X3560603D1*
X415409Y5385156D2*
X538501D1*
X837495D2*
X3138499D1*
X3437493D2*
X3560603D1*
X415409Y5376287D2*
X533703D1*
X842294D2*
X3133701D1*
X3442292D2*
X3560603D1*
X415409Y5367419D2*
X529958D1*
X846055D2*
X3129956D1*
X3446053D2*
X3560603D1*
X415409Y5358550D2*
X527128D1*
X848868D2*
X3127126D1*
X3448866D2*
X3560603D1*
X415409Y5349681D2*
X525177D1*
X850837D2*
X3125175D1*
X3450835D2*
X3560603D1*
X415409Y5340812D2*
X524017D1*
X851979D2*
X3124015D1*
X3451995D2*
X3560603D1*
X415409Y5331944D2*
X523630D1*
X852366D2*
X3123628D1*
X3452364D2*
X3560603D1*
X415409Y5323075D2*
X524017D1*
X851979D2*
X3124015D1*
X3451977D2*
X3560603D1*
X415409Y5314206D2*
X525195D1*
X850801D2*
X3125193D1*
X3450817D2*
X3560603D1*
X415409Y5305337D2*
X527163D1*
X848833D2*
X3127162D1*
X3448831D2*
X3560603D1*
X415409Y5296469D2*
X529994D1*
X846003D2*
X3129992D1*
X3446001D2*
X3560603D1*
X415409Y5287600D2*
X533755D1*
X842241D2*
X3133753D1*
X3442239D2*
X3560603D1*
X415409Y5278731D2*
X538572D1*
X837424D2*
X3138570D1*
X3437422D2*
X3560603D1*
X415409Y5269862D2*
X544636D1*
X831378D2*
X3144634D1*
X3431376D2*
X3560603D1*
X415409Y5260993D2*
X552230D1*
X823766D2*
X3152228D1*
X3423764D2*
X3560603D1*
X415409Y5252125D2*
X561933D1*
X814063D2*
X3161931D1*
X3414061D2*
X3560603D1*
X415409Y5243256D2*
X574906D1*
X801108D2*
X3174904D1*
X3401106D2*
X3560603D1*
X415409Y5234387D2*
X594997D1*
X781016D2*
X3194995D1*
X3381014D2*
X3560603D1*
X415409Y5225518D2*
X3560603D1*
X415409Y5216650D2*
X3560603D1*
X415409Y5207781D2*
X3560603D1*
X415409Y5198912D2*
X3560603D1*
X415409Y5190043D2*
X3560603D1*
X415409Y5181175D2*
X3560603D1*
X415409Y5172306D2*
X3560603D1*
X415409Y5163437D2*
X3560603D1*
X415409Y5154568D2*
X3560603D1*
X415409Y5145699D2*
X3560603D1*
X415409Y5136831D2*
X3560603D1*
X415409Y5127962D2*
X3560603D1*
X415409Y5119093D2*
X3560603D1*
X415409Y5110224D2*
X1636501D1*
X1664493D2*
X1861501D1*
X1889493D2*
X2086501D1*
X2114493D2*
X2311501D1*
X2339493D2*
X3560603D1*
X415409Y5101356D2*
X1615144D1*
X1685850D2*
X1840144D1*
X1910850D2*
X2065144D1*
X2135850D2*
X2290144D1*
X2360850D2*
X3560603D1*
X415409Y5092487D2*
X1604369D1*
X1696626D2*
X1829369D1*
X1921626D2*
X2054369D1*
X2146626D2*
X2279369D1*
X2371626D2*
X3560603D1*
X415409Y5083618D2*
X1597197D1*
X1703815D2*
X1822197D1*
X1928815D2*
X2047197D1*
X2153815D2*
X2272197D1*
X2378815D2*
X3560603D1*
X415409Y5074749D2*
X1592240D1*
X1708772D2*
X1817240D1*
X1933772D2*
X2042240D1*
X2158772D2*
X2267240D1*
X2383772D2*
X3560603D1*
X415409Y5065881D2*
X1588970D1*
X1712042D2*
X1813970D1*
X1937042D2*
X2038970D1*
X2162042D2*
X2263970D1*
X2387042D2*
X3560603D1*
X415409Y5057012D2*
X1587107D1*
X1713905D2*
X1812107D1*
X1938905D2*
X2037107D1*
X2163905D2*
X2262107D1*
X2388905D2*
X3560603D1*
X415409Y5048143D2*
X1325861D1*
X1350143D2*
X1586527D1*
X1714467D2*
X1811527D1*
X1939467D2*
X2036527D1*
X2164467D2*
X2261527D1*
X2389467D2*
X2625869D1*
X2650133D2*
X3560603D1*
X415409Y5039274D2*
X1288736D1*
X1387251D2*
X1586527D1*
X1714467D2*
X1811527D1*
X1939467D2*
X2036527D1*
X2164467D2*
X2261527D1*
X2389467D2*
X2588744D1*
X2687258D2*
X3560603D1*
X415409Y5030406D2*
X1270824D1*
X1405180D2*
X1586527D1*
X1714467D2*
X1811527D1*
X1939467D2*
X2036527D1*
X2164467D2*
X2261527D1*
X2389467D2*
X2570814D1*
X2705188D2*
X3560603D1*
X415409Y5021537D2*
X1257781D1*
X1418206D2*
X1586527D1*
X1714467D2*
X1811527D1*
X1939467D2*
X2036527D1*
X2164467D2*
X2261527D1*
X2389467D2*
X2557788D1*
X2718213D2*
X3560603D1*
X415409Y5012668D2*
X1247480D1*
X1428506D2*
X1586527D1*
X1714467D2*
X1811527D1*
X1939467D2*
X2036527D1*
X2164467D2*
X2261527D1*
X2389467D2*
X2547488D1*
X2728514D2*
X3560603D1*
X415409Y5003799D2*
X1239060D1*
X1436944D2*
X1586527D1*
X1714467D2*
X1811527D1*
X1939467D2*
X2036527D1*
X2164467D2*
X2261527D1*
X2389467D2*
X2539050D1*
X2736952D2*
X3560603D1*
X415409Y4994930D2*
X1232029D1*
X1443958D2*
X1586527D1*
X1714467D2*
X1811527D1*
X1939467D2*
X2036527D1*
X2164467D2*
X2261527D1*
X2389467D2*
X2532037D1*
X2743965D2*
X3560603D1*
X415409Y4986062D2*
X1226158D1*
X1449829D2*
X1586615D1*
X1714379D2*
X1811615D1*
X1939379D2*
X2036615D1*
X2164379D2*
X2261615D1*
X2389379D2*
X2526165D1*
X2749837D2*
X3560603D1*
X415409Y4977193D2*
X1221271D1*
X1454733D2*
X1587740D1*
X1713272D2*
X1812740D1*
X1938272D2*
X2037740D1*
X2163272D2*
X2262740D1*
X2388272D2*
X2521261D1*
X2754741D2*
X3560603D1*
X415409Y4968324D2*
X1217228D1*
X1458776D2*
X1590183D1*
X1710829D2*
X1815183D1*
X1935829D2*
X2040183D1*
X2160829D2*
X2265183D1*
X2385829D2*
X2517218D1*
X2758784D2*
X3187718D1*
X3288272D2*
X3560603D1*
X415409Y4959455D2*
X688812D1*
X797417D2*
X1213941D1*
X1462063D2*
X1594120D1*
X1706874D2*
X1819120D1*
X1931874D2*
X2044120D1*
X2156874D2*
X2269120D1*
X2381874D2*
X2513949D1*
X2762053D2*
X3163267D1*
X3312741D2*
X3560603D1*
X415409Y4950587D2*
X666663D1*
X819565D2*
X1211374D1*
X1464629D2*
X1599939D1*
X1701055D2*
X1824939D1*
X1926055D2*
X2049939D1*
X2151055D2*
X2274939D1*
X2376055D2*
X2511382D1*
X2764620D2*
X3145953D1*
X3330055D2*
X3560603D1*
X415409Y4941718D2*
X650527D1*
X835702D2*
X1209476D1*
X1466528D2*
X1608394D1*
X1692600D2*
X1833394D1*
X1917600D2*
X2058394D1*
X2142600D2*
X2283394D1*
X2367600D2*
X2509466D1*
X2766518D2*
X3132189D1*
X3343819D2*
X3560603D1*
X415409Y4932849D2*
X637589D1*
X848657D2*
X1208210D1*
X1467794D2*
X1621824D1*
X1679188D2*
X1846824D1*
X1904188D2*
X2071824D1*
X2129188D2*
X2296824D1*
X2354188D2*
X2508218D1*
X2767784D2*
X3120710D1*
X3355297D2*
X3560603D1*
X415409Y4923980D2*
X626744D1*
X859485D2*
X1207560D1*
X1468444D2*
X1611751D1*
X1689243D2*
X1836751D1*
X1914243D2*
X2061751D1*
X2139243D2*
X2286751D1*
X2364243D2*
X2507568D1*
X2768434D2*
X3110884D1*
X3365124D2*
X3560603D1*
X415409Y4915112D2*
X617480D1*
X868749D2*
X1207525D1*
X1468479D2*
X1602171D1*
X1698823D2*
X1827171D1*
X1923823D2*
X2052171D1*
X2148823D2*
X2277171D1*
X2373823D2*
X2507533D1*
X2768469D2*
X3102341D1*
X3373649D2*
X3560603D1*
X415409Y4906243D2*
X609447D1*
X876782D2*
X1208105D1*
X1467899D2*
X1595667D1*
X1705327D2*
X1820667D1*
X1930327D2*
X2045667D1*
X2155327D2*
X2270667D1*
X2380327D2*
X2508095D1*
X2767907D2*
X3094870D1*
X3381120D2*
X3560603D1*
X415409Y4897374D2*
X602433D1*
X883813D2*
X1209283D1*
X1466721D2*
X1591203D1*
X1709792D2*
X1816203D1*
X1934792D2*
X2041203D1*
X2159792D2*
X2266203D1*
X2384792D2*
X2509290D1*
X2766712D2*
X3088296D1*
X3387694D2*
X3560603D1*
X415409Y4888505D2*
X596281D1*
X889948D2*
X1211111D1*
X1464893D2*
X1588337D1*
X1712674D2*
X1813337D1*
X1937674D2*
X2038337D1*
X2162674D2*
X2263337D1*
X2387674D2*
X2511101D1*
X2764901D2*
X3082513D1*
X3393477D2*
X3560603D1*
X415409Y4879636D2*
X590919D1*
X895327D2*
X1213589D1*
X1462415D2*
X1586826D1*
X1714169D2*
X1811826D1*
X1939169D2*
X2036826D1*
X2164169D2*
X2261826D1*
X2389169D2*
X2513597D1*
X2762405D2*
X3077433D1*
X3398575D2*
X3560603D1*
X415409Y4870768D2*
X586226D1*
X900003D2*
X1216771D1*
X1459215D2*
X1586527D1*
X1714467D2*
X1811527D1*
X1939467D2*
X2036527D1*
X2164467D2*
X2261527D1*
X2389467D2*
X2516779D1*
X2759223D2*
X3072986D1*
X3403022D2*
X3560603D1*
X415409Y4861899D2*
X582165D1*
X904063D2*
X1220726D1*
X1455278D2*
X1586527D1*
X1714467D2*
X1811527D1*
X1939467D2*
X2036527D1*
X2164467D2*
X2261527D1*
X2389467D2*
X2520716D1*
X2755286D2*
X3069119D1*
X3406872D2*
X3560603D1*
X415409Y4853030D2*
X578685D1*
X907544D2*
X1225507D1*
X1450497D2*
X1586527D1*
X1714467D2*
X1811527D1*
X1939467D2*
X2036527D1*
X2164467D2*
X2261527D1*
X2389467D2*
X2525515D1*
X2750487D2*
X3065796D1*
X3410194D2*
X3560603D1*
X415409Y4844161D2*
X575749D1*
X910479D2*
X1231255D1*
X1444749D2*
X1586527D1*
X1714467D2*
X1811527D1*
X1939467D2*
X2036527D1*
X2164467D2*
X2261527D1*
X2389467D2*
X2531245D1*
X2744739D2*
X3063001D1*
X3413006D2*
X3560603D1*
X415409Y4835293D2*
X573324D1*
X912905D2*
X1238111D1*
X1437876D2*
X1586527D1*
X1714467D2*
X1811527D1*
X1939467D2*
X2036527D1*
X2164467D2*
X2261527D1*
X2389467D2*
X2538119D1*
X2737883D2*
X3060681D1*
X3415309D2*
X3560603D1*
X415409Y4826424D2*
X571408D1*
X914821D2*
X1246355D1*
X1429649D2*
X1586527D1*
X1714467D2*
X1811527D1*
X1939467D2*
X2036527D1*
X2164467D2*
X2261527D1*
X2389467D2*
X2546363D1*
X2729639D2*
X3058835D1*
X3417155D2*
X3560603D1*
X415409Y4817555D2*
X569966D1*
X916280D2*
X1256392D1*
X1419612D2*
X1586527D1*
X1714467D2*
X1811527D1*
X1939467D2*
X2036527D1*
X2164467D2*
X2261527D1*
X2389467D2*
X2556400D1*
X2719602D2*
X3057447D1*
X3418544D2*
X3560603D1*
X415409Y4808686D2*
X568982D1*
X917247D2*
X1269013D1*
X1406973D2*
X1586790D1*
X1714204D2*
X1811790D1*
X1939204D2*
X2036790D1*
X2164204D2*
X2261790D1*
X2389204D2*
X2569021D1*
X2706981D2*
X3056515D1*
X3419493D2*
X3560603D1*
X415409Y4799818D2*
X568454D1*
X917774D2*
X1286117D1*
X1389887D2*
X1588249D1*
X1712745D2*
X1813249D1*
X1937745D2*
X2038249D1*
X2162745D2*
X2263249D1*
X2387745D2*
X2586107D1*
X2689895D2*
X3056005D1*
X3419985D2*
X3560603D1*
X415409Y4790949D2*
X568384D1*
X917844D2*
X1316913D1*
X1359073D2*
X1591079D1*
X1709915D2*
X1816079D1*
X1934915D2*
X2041079D1*
X2159915D2*
X2266079D1*
X2384915D2*
X2616921D1*
X2659081D2*
X3055935D1*
X3420055D2*
X3560603D1*
X415409Y4782080D2*
X568771D1*
X917475D2*
X1595474D1*
X1705520D2*
X1820474D1*
X1930520D2*
X2045474D1*
X2155520D2*
X2270474D1*
X2380520D2*
X3056304D1*
X3419686D2*
X3560603D1*
X415409Y4773211D2*
X569597D1*
X916631D2*
X1601890D1*
X1699104D2*
X1826890D1*
X1924104D2*
X2051890D1*
X2149104D2*
X2276890D1*
X2374104D2*
X3057113D1*
X3418878D2*
X3560603D1*
X415409Y4764343D2*
X570898D1*
X915331D2*
X1611329D1*
X1689682D2*
X1836329D1*
X1914682D2*
X2061329D1*
X2139682D2*
X2286329D1*
X2364682D2*
X3058361D1*
X3417647D2*
X3560603D1*
X415409Y4755474D2*
X572673D1*
X913555D2*
X1627308D1*
X1673704D2*
X1852308D1*
X1898704D2*
X2077308D1*
X2123704D2*
X2302308D1*
X2348704D2*
X3060066D1*
X3415942D2*
X3560603D1*
X415409Y4746605D2*
X574941D1*
X911288D2*
X3062228D1*
X3413780D2*
X3560603D1*
X415409Y4737736D2*
X577718D1*
X908528D2*
X3064882D1*
X3411126D2*
X3560603D1*
X415409Y4728867D2*
X581023D1*
X905223D2*
X3068029D1*
X3407979D2*
X3560603D1*
X415409Y4719999D2*
X584890D1*
X901338D2*
X3071720D1*
X3404288D2*
X3560603D1*
X415409Y4711130D2*
X589372D1*
X896856D2*
X3075974D1*
X3400016D2*
X3560603D1*
X415409Y4702261D2*
X594523D1*
X891706D2*
X3080861D1*
X3395147D2*
X3560603D1*
X415409Y4693392D2*
X600429D1*
X885817D2*
X3086415D1*
X3389575D2*
X3560603D1*
X415409Y4684524D2*
X607144D1*
X879085D2*
X3092726D1*
X3383264D2*
X3560603D1*
X415409Y4675655D2*
X614843D1*
X871385D2*
X1267730D1*
X1308272D2*
X2667722D1*
X2708282D2*
X3099915D1*
X3376092D2*
X3560603D1*
X415409Y4666786D2*
X623703D1*
X862526D2*
X1252806D1*
X1323196D2*
X2652798D1*
X2723188D2*
X3108089D1*
X3367919D2*
X3560603D1*
X415409Y4657917D2*
X634003D1*
X852225D2*
X1244439D1*
X1331563D2*
X2644449D1*
X2731555D2*
X3117476D1*
X3358514D2*
X3560603D1*
X415409Y4649049D2*
X646220D1*
X840026D2*
X1239078D1*
X1336924D2*
X2639087D1*
X2736917D2*
X3128392D1*
X3347598D2*
X3560603D1*
X415409Y4640180D2*
X661179D1*
X825049D2*
X1235773D1*
X1340229D2*
X2635765D1*
X2740221D2*
X3141365D1*
X3334643D2*
X3560603D1*
X415409Y4631311D2*
X680902D1*
X805344D2*
X1234120D1*
X1341864D2*
X2634130D1*
X2741874D2*
X3157361D1*
X3318647D2*
X3560603D1*
X415409Y4622442D2*
X714001D1*
X772227D2*
X1233997D1*
X1342004D2*
X2633990D1*
X2742014D2*
X3178824D1*
X3297167D2*
X3560603D1*
X415409Y4613574D2*
X1235351D1*
X1340633D2*
X2635361D1*
X2740643D2*
X3220554D1*
X3255436D2*
X3560603D1*
X415409Y4604705D2*
X1238357D1*
X1337645D2*
X2638349D1*
X2737655D2*
X3560603D1*
X415409Y4595836D2*
X1243296D1*
X1332706D2*
X2643288D1*
X2732698D2*
X3560603D1*
X415409Y4586967D2*
X1227283D1*
X1348895D2*
X1702349D1*
X1822344D2*
X2177292D1*
X2298905D2*
X2627292D1*
X2748905D2*
X3560603D1*
X415409Y4578098D2*
X1219372D1*
X1356805D2*
X1693841D1*
X1830852D2*
X2169382D1*
X2306797D2*
X2619382D1*
X2756797D2*
X3560603D1*
X415409Y4569230D2*
X1217703D1*
X1358493D2*
X1691960D1*
X1832751D2*
X2167695D1*
X2308485D2*
X2617695D1*
X2758485D2*
X3560603D1*
X415409Y4560361D2*
X1217703D1*
X1358493D2*
X1691960D1*
X1832751D2*
X2167695D1*
X2308485D2*
X2617695D1*
X2758485D2*
X3560603D1*
X415409Y4551492D2*
X1217703D1*
X1358493D2*
X1691960D1*
X1832751D2*
X2167695D1*
X2308485D2*
X2617695D1*
X2758485D2*
X3560603D1*
X415409Y4542623D2*
X1217703D1*
X1358493D2*
X1691960D1*
X1832751D2*
X2167695D1*
X2308485D2*
X2617695D1*
X2758485D2*
X3560603D1*
X415409Y4533755D2*
X1217703D1*
X1358493D2*
X1691960D1*
X1832751D2*
X2167695D1*
X2308485D2*
X2617695D1*
X2758485D2*
X3560603D1*
X415409Y4524886D2*
X1217703D1*
X1358493D2*
X1691960D1*
X1832751D2*
X2167695D1*
X2308485D2*
X2617695D1*
X2758485D2*
X3560603D1*
X415409Y4516017D2*
X1217703D1*
X1358493D2*
X1691960D1*
X1832751D2*
X2167695D1*
X2308485D2*
X2617695D1*
X2758485D2*
X3560603D1*
X415409Y4507148D2*
X1217703D1*
X1358493D2*
X1691960D1*
X1832751D2*
X2167695D1*
X2308485D2*
X2617695D1*
X2758485D2*
X3560603D1*
X415409Y4498280D2*
X1217703D1*
X1358493D2*
X1691960D1*
X1832751D2*
X2167695D1*
X2308485D2*
X2617695D1*
X2758485D2*
X3560603D1*
X415409Y4489411D2*
X1217703D1*
X1358493D2*
X1691960D1*
X1832751D2*
X2167695D1*
X2308485D2*
X2617695D1*
X2758485D2*
X3560603D1*
X415409Y4480542D2*
X1217703D1*
X1358493D2*
X1691960D1*
X1832751D2*
X2167695D1*
X2308485D2*
X2617695D1*
X2758485D2*
X3560603D1*
X415409Y4471673D2*
X1217703D1*
X1358493D2*
X1691960D1*
X1832751D2*
X2167695D1*
X2308485D2*
X2617695D1*
X2758485D2*
X3560603D1*
X415409Y4462804D2*
X1217703D1*
X1358493D2*
X1691960D1*
X1832751D2*
X2167695D1*
X2308485D2*
X2617695D1*
X2758485D2*
X3560603D1*
X415409Y4453936D2*
X1217703D1*
X1358493D2*
X1691960D1*
X1832751D2*
X2167695D1*
X2308485D2*
X2617695D1*
X2758485D2*
X3560603D1*
X415409Y4445067D2*
X1217703D1*
X1358493D2*
X1691960D1*
X1832751D2*
X2167695D1*
X2308485D2*
X2617695D1*
X2758485D2*
X3560603D1*
X415409Y4436198D2*
X1217703D1*
X1358493D2*
X1691960D1*
X1832751D2*
X2167695D1*
X2308485D2*
X2617695D1*
X2758485D2*
X3560603D1*
X415409Y4427329D2*
X1217703D1*
X1358493D2*
X1691960D1*
X1832751D2*
X2167695D1*
X2308485D2*
X2617695D1*
X2758485D2*
X3560603D1*
X415409Y4418461D2*
X1217703D1*
X1358493D2*
X1691960D1*
X1832751D2*
X2167695D1*
X2308485D2*
X2617695D1*
X2758485D2*
X3560603D1*
X415409Y4409592D2*
X1217703D1*
X1358493D2*
X1691960D1*
X1832751D2*
X2167695D1*
X2308485D2*
X2617695D1*
X2758485D2*
X3560603D1*
X415409Y4400723D2*
X1217703D1*
X1358493D2*
X1691960D1*
X1832751D2*
X2167695D1*
X2308485D2*
X2617695D1*
X2758485D2*
X3560603D1*
X415409Y4391854D2*
X1217703D1*
X1358493D2*
X1691960D1*
X1832751D2*
X2167695D1*
X2308485D2*
X2617695D1*
X2758485D2*
X3560603D1*
X415409Y4382986D2*
X1217703D1*
X1358493D2*
X1691960D1*
X1832751D2*
X2167695D1*
X2308485D2*
X2617695D1*
X2758485D2*
X3560603D1*
X415409Y4374117D2*
X1217703D1*
X1358493D2*
X1691960D1*
X1832751D2*
X2167695D1*
X2308485D2*
X2617695D1*
X2758485D2*
X3560603D1*
X415409Y4365248D2*
X1217703D1*
X1358493D2*
X1691960D1*
X1832751D2*
X2167695D1*
X2308485D2*
X2617695D1*
X2758485D2*
X3560603D1*
X415409Y4356379D2*
X1217703D1*
X1358493D2*
X1691960D1*
X1832751D2*
X2167695D1*
X2308485D2*
X2617695D1*
X2758485D2*
X3560603D1*
X415409Y4347511D2*
X1217703D1*
X1358493D2*
X1691960D1*
X1832751D2*
X2167695D1*
X2308485D2*
X2617695D1*
X2758485D2*
X3560603D1*
X415409Y4338642D2*
X1217703D1*
X1358493D2*
X1691960D1*
X1832751D2*
X2167695D1*
X2308485D2*
X2617695D1*
X2758485D2*
X3560603D1*
X415409Y4329773D2*
X1217703D1*
X1358493D2*
X1691960D1*
X1832751D2*
X2167695D1*
X2308485D2*
X2617695D1*
X2758485D2*
X3560603D1*
X415409Y4320904D2*
X1217703D1*
X1358493D2*
X1691960D1*
X1832751D2*
X2167695D1*
X2308485D2*
X2617695D1*
X2758485D2*
X3560603D1*
X415409Y4312035D2*
X1217703D1*
X1358493D2*
X1691960D1*
X1832751D2*
X2167695D1*
X2308485D2*
X2617695D1*
X2758485D2*
X3560603D1*
X415409Y4303167D2*
X1217703D1*
X1358493D2*
X1691960D1*
X1832751D2*
X2167695D1*
X2308485D2*
X2617695D1*
X2758485D2*
X3560603D1*
X415409Y4294298D2*
X1217703D1*
X1358493D2*
X1691960D1*
X1832751D2*
X2167695D1*
X2308485D2*
X2617695D1*
X2758485D2*
X3560603D1*
X415409Y4285429D2*
X1217703D1*
X1358493D2*
X1691960D1*
X1832751D2*
X2167695D1*
X2308485D2*
X2617695D1*
X2758485D2*
X3560603D1*
X415409Y4276560D2*
X1217703D1*
X1358493D2*
X1691960D1*
X1832751D2*
X2167695D1*
X2308485D2*
X2617695D1*
X2758485D2*
X3560603D1*
X415409Y4267692D2*
X1217703D1*
X1358493D2*
X1691960D1*
X1832751D2*
X2167695D1*
X2308485D2*
X2617695D1*
X2758485D2*
X3560603D1*
X415409Y4258823D2*
X1217703D1*
X1358493D2*
X1691960D1*
X1832751D2*
X2167695D1*
X2308485D2*
X2617695D1*
X2758485D2*
X3560603D1*
X415409Y4249954D2*
X1217703D1*
X1358493D2*
X1691960D1*
X1832751D2*
X2167695D1*
X2308485D2*
X2617695D1*
X2758485D2*
X3560603D1*
X415409Y4241085D2*
X1217703D1*
X1358493D2*
X1691960D1*
X1832751D2*
X2167695D1*
X2308485D2*
X2617695D1*
X2758485D2*
X3560603D1*
X415409Y4232217D2*
X1217703D1*
X1358493D2*
X1691960D1*
X1832751D2*
X2167695D1*
X2308485D2*
X2617695D1*
X2758485D2*
X3560603D1*
X415409Y4223348D2*
X1217703D1*
X1358493D2*
X1691960D1*
X1832751D2*
X2167695D1*
X2308485D2*
X2617695D1*
X2758485D2*
X3560603D1*
X415409Y4214479D2*
X1217703D1*
X1358493D2*
X1691960D1*
X1832751D2*
X2167695D1*
X2308485D2*
X2617695D1*
X2758485D2*
X3560603D1*
X415409Y4205610D2*
X1217703D1*
X1358493D2*
X1691960D1*
X1832751D2*
X2167695D1*
X2308485D2*
X2617695D1*
X2758485D2*
X3560603D1*
X415409Y4196741D2*
X1217703D1*
X1358493D2*
X1691960D1*
X1832751D2*
X2167695D1*
X2308485D2*
X2617695D1*
X2758485D2*
X3560603D1*
X415409Y4187873D2*
X1217703D1*
X1358493D2*
X1691960D1*
X1832751D2*
X2167695D1*
X2308485D2*
X2617695D1*
X2758485D2*
X3560603D1*
X415409Y4179004D2*
X1217703D1*
X1358493D2*
X1691960D1*
X1832751D2*
X2167695D1*
X2308485D2*
X2617695D1*
X2758485D2*
X3560603D1*
X415409Y4170135D2*
X1217703D1*
X1358493D2*
X1691960D1*
X1832751D2*
X2167695D1*
X2308485D2*
X2617695D1*
X2758485D2*
X3560603D1*
X415409Y4161266D2*
X1217703D1*
X1358493D2*
X1691960D1*
X1832751D2*
X2167695D1*
X2308485D2*
X2617695D1*
X2758485D2*
X3560603D1*
X415409Y4152398D2*
X1217703D1*
X1358493D2*
X1691960D1*
X1832751D2*
X2167695D1*
X2308485D2*
X2617695D1*
X2758485D2*
X3560603D1*
X415409Y4143529D2*
X1217703D1*
X1358493D2*
X1691960D1*
X1832751D2*
X2167695D1*
X2308485D2*
X2617695D1*
X2758485D2*
X3560603D1*
X415409Y4134660D2*
X1217703D1*
X1358493D2*
X1691960D1*
X1832751D2*
X2167695D1*
X2308485D2*
X2617695D1*
X2758485D2*
X3560603D1*
X415409Y4125791D2*
X1217703D1*
X1358493D2*
X1691960D1*
X1832751D2*
X2167695D1*
X2308485D2*
X2617695D1*
X2758485D2*
X3560603D1*
X415409Y4116923D2*
X1217703D1*
X1358493D2*
X1691960D1*
X1832751D2*
X2167695D1*
X2308485D2*
X2617695D1*
X2758485D2*
X3560603D1*
X415409Y4108054D2*
X1217703D1*
X1358493D2*
X1691960D1*
X1832751D2*
X2167695D1*
X2308485D2*
X2617695D1*
X2758485D2*
X3560603D1*
X415409Y4099185D2*
X1217703D1*
X1358493D2*
X1691960D1*
X1832751D2*
X2167695D1*
X2308485D2*
X2617695D1*
X2758485D2*
X3560603D1*
X415409Y4090316D2*
X1217703D1*
X1358493D2*
X1691960D1*
X1832751D2*
X2167695D1*
X2308485D2*
X2617695D1*
X2758485D2*
X3560603D1*
X415409Y4081448D2*
X1217703D1*
X1358493D2*
X1691960D1*
X1832751D2*
X2167695D1*
X2308485D2*
X2617695D1*
X2758485D2*
X3560603D1*
X415409Y4072579D2*
X1217703D1*
X1358493D2*
X1691960D1*
X1832751D2*
X2167695D1*
X2308485D2*
X2617695D1*
X2758485D2*
X3560603D1*
X415409Y4063710D2*
X1217703D1*
X1358493D2*
X1691960D1*
X1832751D2*
X2167695D1*
X2308485D2*
X2617695D1*
X2758485D2*
X3560603D1*
X415409Y4054841D2*
X1217703D1*
X1358493D2*
X1691960D1*
X1832751D2*
X2167695D1*
X2308485D2*
X2617695D1*
X2758485D2*
X3560603D1*
X415409Y4045972D2*
X1217703D1*
X1358493D2*
X1691960D1*
X1832751D2*
X2167695D1*
X2308485D2*
X2617695D1*
X2758485D2*
X3560603D1*
X415409Y4037104D2*
X1217703D1*
X1358493D2*
X1691960D1*
X1832751D2*
X2167695D1*
X2308485D2*
X2617695D1*
X2758485D2*
X3560603D1*
X415409Y4028235D2*
X1217703D1*
X1358493D2*
X1691960D1*
X1832751D2*
X2167695D1*
X2308485D2*
X2617695D1*
X2758485D2*
X3560603D1*
X415409Y4019366D2*
X1217703D1*
X1358493D2*
X1691960D1*
X1832751D2*
X2167695D1*
X2308485D2*
X2617695D1*
X2758485D2*
X3560603D1*
X415409Y4010497D2*
X1217703D1*
X1358493D2*
X1691960D1*
X1832751D2*
X2167695D1*
X2308485D2*
X2617695D1*
X2758485D2*
X3560603D1*
X415409Y4001629D2*
X1217703D1*
X1358493D2*
X1691960D1*
X1832751D2*
X2167695D1*
X2308485D2*
X2617695D1*
X2758485D2*
X3560603D1*
X415409Y3992760D2*
X1217703D1*
X1358493D2*
X1691960D1*
X1832751D2*
X2167695D1*
X2308485D2*
X2617695D1*
X2758485D2*
X3560603D1*
X415409Y3983891D2*
X1217703D1*
X1358493D2*
X1691960D1*
X1832751D2*
X2167695D1*
X2308485D2*
X2617695D1*
X2758485D2*
X3560603D1*
X415409Y3975022D2*
X1217703D1*
X1358493D2*
X1691960D1*
X1832751D2*
X2167695D1*
X2308485D2*
X2617695D1*
X2758485D2*
X3560603D1*
X415409Y3966154D2*
X712806D1*
X763192D2*
X1217703D1*
X1358493D2*
X1691960D1*
X1832751D2*
X2167695D1*
X2308485D2*
X2617695D1*
X2758485D2*
X3212802D1*
X3263206D2*
X3560603D1*
X415409Y3957285D2*
X677386D1*
X798612D2*
X1217703D1*
X1358493D2*
X1691960D1*
X1832751D2*
X2167695D1*
X2308485D2*
X2617695D1*
X2758485D2*
X3177382D1*
X3298608D2*
X3560603D1*
X415409Y3948416D2*
X657206D1*
X818792D2*
X1217703D1*
X1358493D2*
X1691960D1*
X1832751D2*
X2167695D1*
X2308485D2*
X2617695D1*
X2758485D2*
X3157203D1*
X3318788D2*
X3560603D1*
X415409Y3939547D2*
X642001D1*
X833997D2*
X1217703D1*
X1358493D2*
X1691960D1*
X1832751D2*
X2167695D1*
X2308485D2*
X2617695D1*
X2758485D2*
X3141997D1*
X3333993D2*
X3560603D1*
X415409Y3930678D2*
X629644D1*
X846354D2*
X1217703D1*
X1358493D2*
X1691960D1*
X1832751D2*
X2167695D1*
X2308485D2*
X2617695D1*
X2758485D2*
X3129640D1*
X3346350D2*
X3560603D1*
X415409Y3921810D2*
X619238D1*
X856760D2*
X1217703D1*
X1358493D2*
X1691960D1*
X1832751D2*
X2167695D1*
X2308485D2*
X2617695D1*
X2758485D2*
X3119234D1*
X3356756D2*
X3560603D1*
X415409Y3912941D2*
X610290D1*
X865708D2*
X1217703D1*
X1358493D2*
X1691960D1*
X1832751D2*
X2167695D1*
X2308485D2*
X2617695D1*
X2758485D2*
X3110287D1*
X3365704D2*
X3560603D1*
X415409Y3904072D2*
X602521D1*
X873477D2*
X1217703D1*
X1358493D2*
X1691960D1*
X1832751D2*
X2167695D1*
X2308485D2*
X2617695D1*
X2758485D2*
X3102517D1*
X3373473D2*
X3560603D1*
X415409Y3895203D2*
X595736D1*
X880262D2*
X1217703D1*
X1358493D2*
X1691960D1*
X1832751D2*
X2167695D1*
X2308485D2*
X2617695D1*
X2758485D2*
X3095732D1*
X3380276D2*
X3560603D1*
X415409Y3886335D2*
X589777D1*
X886221D2*
X1217703D1*
X1358493D2*
X1691960D1*
X1832751D2*
X2167695D1*
X2308485D2*
X2617695D1*
X2758485D2*
X3089790D1*
X3386217D2*
X3560603D1*
X415409Y3877466D2*
X584591D1*
X891407D2*
X1217703D1*
X1358493D2*
X1691960D1*
X1832751D2*
X2167695D1*
X2308485D2*
X2617695D1*
X2758485D2*
X3084587D1*
X3391420D2*
X3560603D1*
X415409Y3868597D2*
X580056D1*
X895942D2*
X1217703D1*
X1358493D2*
X1691960D1*
X1832751D2*
X2167695D1*
X2308485D2*
X2617695D1*
X2758485D2*
X3080052D1*
X3395938D2*
X3560603D1*
X415409Y3859728D2*
X576136D1*
X899862D2*
X1217703D1*
X1358493D2*
X1691960D1*
X1832751D2*
X2167695D1*
X2308485D2*
X2617695D1*
X2758485D2*
X3076150D1*
X3399858D2*
X3560603D1*
X415409Y3850860D2*
X572796D1*
X903202D2*
X1217703D1*
X1358493D2*
X1691960D1*
X1832751D2*
X2167695D1*
X2308485D2*
X2617695D1*
X2758485D2*
X3072792D1*
X3403198D2*
X3560603D1*
X415409Y3841991D2*
X570001D1*
X905997D2*
X1217703D1*
X1358493D2*
X1691960D1*
X1832751D2*
X2167695D1*
X2308485D2*
X2617695D1*
X2758485D2*
X3069997D1*
X3406010D2*
X3560603D1*
X415409Y3833122D2*
X567699D1*
X908299D2*
X1217703D1*
X1358493D2*
X1691960D1*
X1832751D2*
X2167695D1*
X2308485D2*
X2617695D1*
X2758485D2*
X3067695D1*
X3408295D2*
X3560603D1*
X415409Y3824253D2*
X565888D1*
X910110D2*
X1217703D1*
X1358493D2*
X1691960D1*
X1832751D2*
X2167695D1*
X2308485D2*
X2617695D1*
X2758485D2*
X3065884D1*
X3410106D2*
X3560603D1*
X415409Y3815385D2*
X564552D1*
X911446D2*
X1217703D1*
X1358493D2*
X1691960D1*
X1832751D2*
X2167695D1*
X2308485D2*
X2617695D1*
X2758485D2*
X3064566D1*
X3411442D2*
X3560603D1*
X415409Y3806516D2*
X563691D1*
X912307D2*
X1217703D1*
X1358493D2*
X1691960D1*
X1832751D2*
X2167695D1*
X2308485D2*
X2617695D1*
X2758485D2*
X3063687D1*
X3412303D2*
X3560603D1*
X415409Y3797647D2*
X563287D1*
X912729D2*
X1217703D1*
X1358493D2*
X1691960D1*
X1832751D2*
X2167695D1*
X2308485D2*
X2617695D1*
X2758485D2*
X3063283D1*
X3412725D2*
X3560603D1*
X415409Y3788778D2*
X563322D1*
X912676D2*
X1217703D1*
X1358493D2*
X1691960D1*
X1832751D2*
X2167695D1*
X2308485D2*
X2617695D1*
X2758485D2*
X3063318D1*
X3412690D2*
X3560603D1*
X415409Y3779909D2*
X563814D1*
X912184D2*
X1217703D1*
X1358493D2*
X1691960D1*
X1832751D2*
X2167695D1*
X2308485D2*
X2617695D1*
X2758485D2*
X3063810D1*
X3412180D2*
X3560603D1*
X415409Y3771041D2*
X564763D1*
X911235D2*
X1217703D1*
X1358493D2*
X1691960D1*
X1832751D2*
X2167695D1*
X2308485D2*
X2617695D1*
X2758485D2*
X3064759D1*
X3411231D2*
X3560603D1*
X415409Y3762172D2*
X566187D1*
X909829D2*
X1217703D1*
X1358493D2*
X1691960D1*
X1832751D2*
X2167695D1*
X2308485D2*
X2617695D1*
X2758485D2*
X3066183D1*
X3409825D2*
X3560603D1*
X415409Y3753303D2*
X568068D1*
X907930D2*
X1217703D1*
X1358493D2*
X1691960D1*
X1832751D2*
X2167695D1*
X2308485D2*
X2617695D1*
X2758485D2*
X3068064D1*
X3407926D2*
X3560603D1*
X415409Y3744434D2*
X570458D1*
X905540D2*
X1217703D1*
X1358493D2*
X1691960D1*
X1832751D2*
X2167695D1*
X2308485D2*
X2617695D1*
X2758485D2*
X3070454D1*
X3405553D2*
X3560603D1*
X415409Y3735566D2*
X573359D1*
X902639D2*
X1217703D1*
X1358493D2*
X1691960D1*
X1832751D2*
X2167695D1*
X2308485D2*
X2617695D1*
X2758485D2*
X3073355D1*
X3402653D2*
X3560603D1*
X415409Y3726697D2*
X576804D1*
X899212D2*
X1217703D1*
X1358493D2*
X1691960D1*
X1832751D2*
X2167695D1*
X2308485D2*
X2617695D1*
X2758485D2*
X3076800D1*
X3399208D2*
X3560603D1*
X415409Y3717828D2*
X580812D1*
X895186D2*
X1217703D1*
X1358493D2*
X1691960D1*
X1832751D2*
X2167695D1*
X2308485D2*
X2617695D1*
X2758485D2*
X3080808D1*
X3395182D2*
X3560603D1*
X415409Y3708959D2*
X585453D1*
X890545D2*
X1217703D1*
X1358493D2*
X1691960D1*
X1832751D2*
X2167695D1*
X2308485D2*
X2617695D1*
X2758485D2*
X3085466D1*
X3390542D2*
X3560603D1*
X415409Y3700091D2*
X590779D1*
X885219D2*
X1217703D1*
X1358493D2*
X1691960D1*
X1832751D2*
X2167695D1*
X2308485D2*
X2617695D1*
X2758485D2*
X3090792D1*
X3385215D2*
X3560603D1*
X415409Y3691222D2*
X596878D1*
X879120D2*
X1217703D1*
X1358493D2*
X1691960D1*
X1832751D2*
X2167695D1*
X2308485D2*
X2617695D1*
X2758485D2*
X3096874D1*
X3379133D2*
X3560603D1*
X415409Y3682353D2*
X603822D1*
X872176D2*
X1217703D1*
X1358493D2*
X1691960D1*
X1832751D2*
X2167695D1*
X2308485D2*
X2617695D1*
X2758485D2*
X3103818D1*
X3372172D2*
X3560603D1*
X415409Y3673484D2*
X611785D1*
X864213D2*
X1217703D1*
X1358493D2*
X1691960D1*
X1832751D2*
X2167695D1*
X2308485D2*
X2617695D1*
X2758485D2*
X3111781D1*
X3364210D2*
X3560603D1*
X415409Y3664616D2*
X620960D1*
X855038D2*
X1217703D1*
X1358493D2*
X1691960D1*
X1832751D2*
X2167695D1*
X2308485D2*
X2617695D1*
X2758485D2*
X3120974D1*
X3355034D2*
X3560603D1*
X415409Y3655747D2*
X631683D1*
X844315D2*
X1217703D1*
X1358493D2*
X1691960D1*
X1832751D2*
X2167695D1*
X2308485D2*
X2617695D1*
X2758485D2*
X3131679D1*
X3344311D2*
X3560603D1*
X415409Y3646878D2*
X644462D1*
X831536D2*
X1217703D1*
X1358493D2*
X1691960D1*
X1832751D2*
X2167695D1*
X2308485D2*
X2617695D1*
X2758485D2*
X3144458D1*
X3331549D2*
X3560603D1*
X415409Y3638009D2*
X660318D1*
X815680D2*
X1217703D1*
X1358493D2*
X1691960D1*
X1832751D2*
X2167695D1*
X2308485D2*
X2617695D1*
X2758485D2*
X3160331D1*
X3315676D2*
X3560603D1*
X415409Y3629140D2*
X681886D1*
X794112D2*
X1217703D1*
X1358493D2*
X1691960D1*
X1832751D2*
X2167695D1*
X2308485D2*
X2617695D1*
X2758485D2*
X3181882D1*
X3294108D2*
X3560603D1*
X415409Y3620272D2*
X730331D1*
X745667D2*
X1217703D1*
X1358493D2*
X1691960D1*
X1832751D2*
X2167695D1*
X2308485D2*
X2617695D1*
X2758485D2*
X3230328D1*
X3245663D2*
X3560603D1*
X415409Y3611403D2*
X1217703D1*
X1358493D2*
X1691960D1*
X1832751D2*
X2167695D1*
X2308485D2*
X2617695D1*
X2758485D2*
X3560603D1*
X415409Y3602534D2*
X1217703D1*
X1358493D2*
X1691960D1*
X1832751D2*
X2167695D1*
X2308485D2*
X2617695D1*
X2758485D2*
X3560603D1*
X415409Y3593665D2*
X1217703D1*
X1358493D2*
X1691960D1*
X1832751D2*
X2167695D1*
X2308485D2*
X2617695D1*
X2758485D2*
X3560603D1*
X415409Y3584797D2*
X1217703D1*
X1358493D2*
X1691960D1*
X1832751D2*
X2167695D1*
X2308485D2*
X2617695D1*
X2758485D2*
X3560603D1*
X415409Y3575928D2*
X1217703D1*
X1358493D2*
X1691960D1*
X1832751D2*
X2167695D1*
X2308485D2*
X2617695D1*
X2758485D2*
X3560603D1*
X415409Y3567059D2*
X1217703D1*
X1358493D2*
X1691960D1*
X1832751D2*
X2167695D1*
X2308485D2*
X2617695D1*
X2758485D2*
X3560603D1*
X415409Y3558190D2*
X1217703D1*
X1358493D2*
X1691960D1*
X1832751D2*
X2167695D1*
X2308485D2*
X2617695D1*
X2758485D2*
X3560603D1*
X415409Y3549322D2*
X1217703D1*
X1358493D2*
X1691960D1*
X1832751D2*
X2167695D1*
X2308485D2*
X2617695D1*
X2758485D2*
X3560603D1*
X415409Y3540453D2*
X1217703D1*
X1358493D2*
X1691960D1*
X1832751D2*
X2167695D1*
X2308485D2*
X2617695D1*
X2758485D2*
X3560603D1*
X415409Y3531584D2*
X1217703D1*
X1358493D2*
X1691960D1*
X1832751D2*
X2167695D1*
X2308485D2*
X2617695D1*
X2758485D2*
X3560603D1*
X415409Y3522715D2*
X1217703D1*
X1358493D2*
X1691960D1*
X1832751D2*
X2167695D1*
X2308485D2*
X2617695D1*
X2758485D2*
X3560603D1*
X415409Y3513846D2*
X1217703D1*
X1358493D2*
X1691960D1*
X1832751D2*
X2167695D1*
X2308485D2*
X2617695D1*
X2758485D2*
X3560603D1*
X415409Y3504978D2*
X1217703D1*
X1358493D2*
X1691960D1*
X1832751D2*
X2167695D1*
X2308485D2*
X2617695D1*
X2758485D2*
X3560603D1*
X415409Y3496109D2*
X1217703D1*
X1358493D2*
X1691960D1*
X1832751D2*
X2167695D1*
X2308485D2*
X2617695D1*
X2758485D2*
X3560603D1*
X415409Y3487240D2*
X1217703D1*
X1358493D2*
X1691960D1*
X1832751D2*
X2167695D1*
X2308485D2*
X2617695D1*
X2758485D2*
X3560603D1*
X415409Y3478371D2*
X1217703D1*
X1358493D2*
X1691960D1*
X1832751D2*
X2167695D1*
X2308485D2*
X2617695D1*
X2758485D2*
X3560603D1*
X415409Y3469503D2*
X1217703D1*
X1358493D2*
X1691960D1*
X1832751D2*
X2167695D1*
X2308485D2*
X2617695D1*
X2758485D2*
X3560603D1*
X415409Y3460634D2*
X1217703D1*
X1358493D2*
X1691960D1*
X1832751D2*
X2167695D1*
X2308485D2*
X2617695D1*
X2758485D2*
X3560603D1*
X415409Y3451765D2*
X1217703D1*
X1358493D2*
X1691960D1*
X1832751D2*
X2167695D1*
X2308485D2*
X2617695D1*
X2758485D2*
X3560603D1*
X415409Y3442896D2*
X1217703D1*
X1358493D2*
X1691960D1*
X1832751D2*
X2167695D1*
X2308485D2*
X2617695D1*
X2758485D2*
X3560603D1*
X415409Y3434028D2*
X1217703D1*
X1358493D2*
X1691960D1*
X1832751D2*
X2167695D1*
X2308485D2*
X2617695D1*
X2758485D2*
X3560603D1*
X415409Y3425159D2*
X1217703D1*
X1358493D2*
X1691960D1*
X1832751D2*
X2167695D1*
X2308485D2*
X2617695D1*
X2758485D2*
X3560603D1*
X415409Y3416290D2*
X1217703D1*
X1358493D2*
X1691960D1*
X1832751D2*
X2167695D1*
X2308485D2*
X2617695D1*
X2758485D2*
X3560603D1*
X415409Y3407421D2*
X1217703D1*
X1358493D2*
X1691960D1*
X1832751D2*
X2167695D1*
X2308485D2*
X2617695D1*
X2758485D2*
X3560603D1*
X415409Y3398553D2*
X1217703D1*
X1358493D2*
X1691960D1*
X1832751D2*
X2167695D1*
X2308485D2*
X2617695D1*
X2758485D2*
X3560603D1*
X415409Y3389684D2*
X1217703D1*
X1358493D2*
X1691960D1*
X1832751D2*
X2167695D1*
X2308485D2*
X2617695D1*
X2758485D2*
X3560603D1*
X415409Y3380815D2*
X1217703D1*
X1358493D2*
X1691960D1*
X1832751D2*
X2167695D1*
X2308485D2*
X2617695D1*
X2758485D2*
X3560603D1*
X415409Y3371946D2*
X1217703D1*
X1358493D2*
X1691960D1*
X1832751D2*
X2167695D1*
X2308485D2*
X2617695D1*
X2758485D2*
X3560603D1*
X415409Y3363077D2*
X1217703D1*
X1358493D2*
X1691960D1*
X1832751D2*
X2167695D1*
X2308485D2*
X2617695D1*
X2758485D2*
X3560603D1*
X415409Y3354209D2*
X1217703D1*
X1358493D2*
X1691960D1*
X1832751D2*
X2167695D1*
X2308485D2*
X2617695D1*
X2758485D2*
X3560603D1*
X415409Y3345340D2*
X1217703D1*
X1358493D2*
X1691960D1*
X1832751D2*
X2167695D1*
X2308485D2*
X2617695D1*
X2758485D2*
X3560603D1*
X415409Y3336471D2*
X1217703D1*
X1358493D2*
X1691960D1*
X1832751D2*
X2167695D1*
X2308485D2*
X2617695D1*
X2758485D2*
X3560603D1*
X415409Y3327602D2*
X1217703D1*
X1358493D2*
X1691960D1*
X1832751D2*
X2167695D1*
X2308485D2*
X2617695D1*
X2758485D2*
X3560603D1*
X415409Y3318734D2*
X1217703D1*
X1358493D2*
X1691960D1*
X1832751D2*
X2167695D1*
X2308485D2*
X2617695D1*
X2758485D2*
X3560603D1*
X415409Y3309865D2*
X1217703D1*
X1358493D2*
X1691960D1*
X1832751D2*
X2167695D1*
X2308485D2*
X2617695D1*
X2758485D2*
X3560603D1*
X415409Y3300996D2*
X1217703D1*
X1358493D2*
X1691960D1*
X1832751D2*
X2167695D1*
X2308485D2*
X2617695D1*
X2758485D2*
X3560603D1*
X415409Y3292127D2*
X1217703D1*
X1358493D2*
X1691960D1*
X1832751D2*
X2167695D1*
X2308485D2*
X2617695D1*
X2758485D2*
X3560603D1*
X415409Y3283259D2*
X1217703D1*
X1358493D2*
X1691960D1*
X1832751D2*
X2167695D1*
X2308485D2*
X2617695D1*
X2758485D2*
X3560603D1*
X415409Y3274390D2*
X1217703D1*
X1358493D2*
X1691960D1*
X1832751D2*
X2167695D1*
X2308485D2*
X2617695D1*
X2758485D2*
X3560603D1*
X415409Y3265521D2*
X1217703D1*
X1358493D2*
X1691960D1*
X1832751D2*
X2167695D1*
X2308485D2*
X2617695D1*
X2758485D2*
X3560603D1*
X415409Y3256652D2*
X1217703D1*
X1358493D2*
X1691960D1*
X1832751D2*
X2167695D1*
X2308485D2*
X2617695D1*
X2758485D2*
X3560603D1*
X415409Y3247783D2*
X1217703D1*
X1358493D2*
X1691960D1*
X1832751D2*
X2167695D1*
X2308485D2*
X2617695D1*
X2758485D2*
X3560603D1*
X415409Y3238915D2*
X1217703D1*
X1358493D2*
X1691960D1*
X1832751D2*
X2167695D1*
X2308485D2*
X2617695D1*
X2758485D2*
X3560603D1*
X415409Y3230046D2*
X1217703D1*
X1358493D2*
X1691960D1*
X1832751D2*
X2167695D1*
X2308485D2*
X2617695D1*
X2758485D2*
X3560603D1*
X415409Y3221177D2*
X1217703D1*
X1358493D2*
X1691960D1*
X1832751D2*
X2167695D1*
X2308485D2*
X2617695D1*
X2758485D2*
X3560603D1*
X415409Y3212308D2*
X1217703D1*
X1358493D2*
X1691960D1*
X1832751D2*
X2167695D1*
X2308485D2*
X2617695D1*
X2758485D2*
X3560603D1*
X415409Y3203440D2*
X1217703D1*
X1358493D2*
X1691960D1*
X1832751D2*
X2167695D1*
X2308485D2*
X2617695D1*
X2758485D2*
X3560603D1*
X415409Y3194571D2*
X1217703D1*
X1358493D2*
X1691960D1*
X1832751D2*
X2167695D1*
X2308485D2*
X2617695D1*
X2758485D2*
X3560603D1*
X415409Y3185702D2*
X1217703D1*
X1358493D2*
X1691960D1*
X1832751D2*
X2167695D1*
X2308485D2*
X2617695D1*
X2758485D2*
X3560603D1*
X415409Y3176833D2*
X1217703D1*
X1358493D2*
X1691960D1*
X1832751D2*
X2167695D1*
X2308485D2*
X2617695D1*
X2758485D2*
X3560603D1*
X415409Y3167965D2*
X1217703D1*
X1358493D2*
X1691960D1*
X1832751D2*
X2167695D1*
X2308485D2*
X2617695D1*
X2758485D2*
X3560603D1*
X415409Y3159096D2*
X514876D1*
X661116D2*
X1217703D1*
X1358493D2*
X1691960D1*
X1832751D2*
X2167695D1*
X2308485D2*
X2617695D1*
X2758485D2*
X3314878D1*
X3461118D2*
X3560603D1*
X415409Y3150227D2*
X501306D1*
X674686D2*
X1217703D1*
X1358493D2*
X1691960D1*
X1832751D2*
X2167695D1*
X2308485D2*
X2617695D1*
X2758485D2*
X3301308D1*
X3474688D2*
X3560603D1*
X415409Y3141358D2*
X492288D1*
X683704D2*
X1217703D1*
X1358493D2*
X1691960D1*
X1832751D2*
X2167695D1*
X2308485D2*
X2617695D1*
X2758485D2*
X3292290D1*
X3483706D2*
X3560603D1*
X415409Y3132490D2*
X485802D1*
X690208D2*
X1217703D1*
X1358493D2*
X1691960D1*
X1832751D2*
X2167695D1*
X2308485D2*
X2617695D1*
X2758485D2*
X3285804D1*
X3490192D2*
X3560603D1*
X415409Y3123621D2*
X481109D1*
X694901D2*
X1217703D1*
X1358493D2*
X1691960D1*
X1832751D2*
X2167695D1*
X2308485D2*
X2617695D1*
X2758485D2*
X3281111D1*
X3494903D2*
X3560603D1*
X415409Y3114752D2*
X477822D1*
X698170D2*
X1217703D1*
X1358493D2*
X1691960D1*
X1832751D2*
X2167695D1*
X2308485D2*
X2617695D1*
X2758485D2*
X3277824D1*
X3498172D2*
X3560603D1*
X415409Y3105883D2*
X475783D1*
X700210D2*
X1217703D1*
X1358493D2*
X1691960D1*
X1832751D2*
X2167695D1*
X2308485D2*
X2617695D1*
X2758485D2*
X3275785D1*
X3500212D2*
X3560603D1*
X415409Y3097014D2*
X474869D1*
X701124D2*
X1217703D1*
X1358493D2*
X1691960D1*
X1832751D2*
X2167695D1*
X2308485D2*
X2617695D1*
X2758485D2*
X3274870D1*
X3501126D2*
X3560603D1*
X415409Y3088146D2*
X475044D1*
X700948D2*
X1217703D1*
X1358493D2*
X1691960D1*
X1832751D2*
X2167695D1*
X2308485D2*
X2617695D1*
X2758485D2*
X3275046D1*
X3500950D2*
X3560603D1*
X415409Y3079277D2*
X476310D1*
X699682D2*
X1217703D1*
X1358493D2*
X1691960D1*
X1832751D2*
X2167695D1*
X2308485D2*
X2617695D1*
X2758485D2*
X3276312D1*
X3499684D2*
X3560603D1*
X415409Y3070408D2*
X478736D1*
X697256D2*
X1217703D1*
X1358493D2*
X1691960D1*
X1832751D2*
X2167695D1*
X2308485D2*
X2617695D1*
X2758485D2*
X3278738D1*
X3497258D2*
X3560603D1*
X415409Y3061539D2*
X482445D1*
X693565D2*
X1219794D1*
X1356401D2*
X1693824D1*
X1830870D2*
X2169787D1*
X2306393D2*
X2619787D1*
X2756393D2*
X3282447D1*
X3493567D2*
X3560603D1*
X415409Y3052671D2*
X487665D1*
X688344D2*
X1228935D1*
X1347260D2*
X1702279D1*
X1822415D2*
X2178927D1*
X2297253D2*
X2628927D1*
X2747253D2*
X3287667D1*
X3488346D2*
X3560603D1*
X415409Y3043802D2*
X494837D1*
X681155D2*
X3294839D1*
X3481157D2*
X3560603D1*
X415409Y3034933D2*
X504980D1*
X671030D2*
X3304982D1*
X3471014D2*
X3560603D1*
X415409Y3026064D2*
X521240D1*
X654753D2*
X3321242D1*
X3454754D2*
X3560603D1*
X415409Y3017196D2*
X3560603D1*
X415409Y3008327D2*
X3560603D1*
X415409Y2999458D2*
X3560603D1*
X415409Y2990589D2*
X3560603D1*
X415409Y2981720D2*
X3560603D1*
X415409Y2972852D2*
X3560603D1*
X415409Y2963983D2*
X527269D1*
X648741D2*
X3327253D1*
X3448743D2*
X3560603D1*
X415409Y2955114D2*
X507968D1*
X668042D2*
X3307953D1*
X3468044D2*
X3560603D1*
X415409Y2946245D2*
X496859D1*
X679133D2*
X865718D1*
X897788D2*
X3296861D1*
X3479135D2*
X3560603D1*
X415409Y2937377D2*
X489124D1*
X686885D2*
X863486D1*
X900003D2*
X3289126D1*
X3486887D2*
X3560603D1*
X415409Y2928508D2*
X483499D1*
X692510D2*
X863486D1*
X900003D2*
X3283501D1*
X3492495D2*
X3560603D1*
X415409Y2919639D2*
X479474D1*
X696536D2*
X863486D1*
X900003D2*
X3279476D1*
X3496520D2*
X3560603D1*
X415409Y2910770D2*
X476767D1*
X699225D2*
X863486D1*
X900003D2*
X3276769D1*
X3499227D2*
X3560603D1*
X415409Y2901902D2*
X475238D1*
X700754D2*
X863486D1*
X900003D2*
X3275240D1*
X3500756D2*
X3560603D1*
X415409Y2893033D2*
X474816D1*
X701176D2*
X863486D1*
X900003D2*
X3274818D1*
X3501178D2*
X3560603D1*
X415409Y2884164D2*
X475484D1*
X700526D2*
X863486D1*
X900003D2*
X3275486D1*
X3500510D2*
X3560603D1*
X415409Y2875295D2*
X477259D1*
X698751D2*
X863486D1*
X900003D2*
X3277261D1*
X3498753D2*
X3560603D1*
X415409Y2866427D2*
X480230D1*
X695762D2*
X863486D1*
X900003D2*
X3280232D1*
X3495764D2*
X3560603D1*
X415409Y2857558D2*
X484572D1*
X691420D2*
X863486D1*
X900003D2*
X3284574D1*
X3491422D2*
X3560603D1*
X415409Y2848689D2*
X490601D1*
X685391D2*
X863486D1*
X900003D2*
X3290603D1*
X3485393D2*
X3560603D1*
X415409Y2839820D2*
X498933D1*
X677059D2*
X863486D1*
X900003D2*
X3298935D1*
X3477061D2*
X3560603D1*
X415409Y2830951D2*
X511097D1*
X664895D2*
X863486D1*
X900003D2*
X3311099D1*
X3464897D2*
X3560603D1*
X415409Y2822083D2*
X535706D1*
X640286D2*
X863486D1*
X900003D2*
X3335708D1*
X3440288D2*
X3560603D1*
X415409Y2813214D2*
X863486D1*
X900495D2*
X3560603D1*
X415409Y2804345D2*
X863626D1*
X909354D2*
X3560603D1*
X415409Y2795476D2*
X867441D1*
X918231D2*
X3560603D1*
X415409Y2786608D2*
X876195D1*
X924243D2*
X3560603D1*
X415409Y2777739D2*
X885054D1*
X924594D2*
X3560603D1*
X415409Y2768870D2*
X893949D1*
X919567D2*
X3560603D1*
X415409Y2760001D2*
X516740D1*
X659253D2*
X1110423D1*
X1215583D2*
X1660425D1*
X1765585D2*
X2210427D1*
X2315587D2*
X2760412D1*
X2865588D2*
X3316742D1*
X3459254D2*
X3560603D1*
X415409Y2751133D2*
X502431D1*
X673579D2*
X1087695D1*
X1238311D2*
X1637697D1*
X1788313D2*
X2187699D1*
X2338315D2*
X2737683D1*
X2888317D2*
X3302433D1*
X3473581D2*
X3560603D1*
X415409Y2742264D2*
X493079D1*
X682930D2*
X1071294D1*
X1254712D2*
X1621296D1*
X1804696D2*
X2171298D1*
X2354698D2*
X2721300D1*
X2904700D2*
X3293081D1*
X3482932D2*
X3560603D1*
X415409Y2733395D2*
X486365D1*
X689628D2*
X1058199D1*
X1267807D2*
X1608201D1*
X1817809D2*
X2158203D1*
X2367811D2*
X2708187D1*
X2917813D2*
X3286367D1*
X3489629D2*
X3560603D1*
X415409Y2724526D2*
X481513D1*
X694479D2*
X1047247D1*
X1278741D2*
X1597249D1*
X1828743D2*
X2147251D1*
X2378745D2*
X2697253D1*
X2928747D2*
X3281515D1*
X3494481D2*
X3560603D1*
X415409Y2715657D2*
X478103D1*
X697889D2*
X1037896D1*
X1288110D2*
X1587898D1*
X1838112D2*
X2137900D1*
X2388096D2*
X2687902D1*
X2938098D2*
X3278105D1*
X3497891D2*
X3560603D1*
X415409Y2706789D2*
X475941D1*
X700051D2*
X1029792D1*
X1296213D2*
X1579794D1*
X1846215D2*
X2129796D1*
X2396217D2*
X2679798D1*
X2946202D2*
X3275943D1*
X3500053D2*
X3560603D1*
X415409Y2697920D2*
X474921D1*
X701088D2*
X1022708D1*
X1303280D2*
X1572710D1*
X1853282D2*
X2122712D1*
X2403284D2*
X2672714D1*
X2953286D2*
X3274923D1*
X3501073D2*
X3560603D1*
X415409Y2689051D2*
X474992D1*
X701018D2*
X1016521D1*
X1309485D2*
X1566523D1*
X1859469D2*
X2116525D1*
X2409471D2*
X2666527D1*
X2959473D2*
X3274976D1*
X3501020D2*
X3560603D1*
X415409Y2680182D2*
X476134D1*
X699858D2*
X1011107D1*
X1314899D2*
X1561109D1*
X1864901D2*
X2111111D1*
X2414903D2*
X2661095D1*
X2964905D2*
X3276136D1*
X3499860D2*
X3560603D1*
X415409Y2671314D2*
X478437D1*
X697573D2*
X1006378D1*
X1319628D2*
X1556380D1*
X1869629D2*
X2106382D1*
X2419631D2*
X2656384D1*
X2969616D2*
X3278439D1*
X3497575D2*
X3560603D1*
X415409Y2662445D2*
X481988D1*
X694004D2*
X1002283D1*
X1323723D2*
X1552285D1*
X1873725D2*
X2102287D1*
X2423727D2*
X2652271D1*
X2973729D2*
X3281990D1*
X3494006D2*
X3560603D1*
X415409Y2653576D2*
X487050D1*
X688960D2*
X998767D1*
X1327239D2*
X1548769D1*
X1877241D2*
X2098771D1*
X2427225D2*
X2648773D1*
X2977227D2*
X3287052D1*
X3488962D2*
X3560603D1*
X415409Y2644707D2*
X493994D1*
X681999D2*
X995796D1*
X1330210D2*
X1545798D1*
X1880194D2*
X2095800D1*
X2430196D2*
X2645802D1*
X2980198D2*
X3293995D1*
X3482001D2*
X3560603D1*
X415409Y2635839D2*
X503749D1*
X672243D2*
X993353D1*
X1332653D2*
X1543355D1*
X1882655D2*
X2093357D1*
X2432657D2*
X2643341D1*
X2982659D2*
X3303751D1*
X3472245D2*
X3560603D1*
X415409Y2626970D2*
X519025D1*
X656967D2*
X991402D1*
X1334604D2*
X1541386D1*
X1884606D2*
X2091388D1*
X2434608D2*
X2641390D1*
X2984610D2*
X3319027D1*
X3456969D2*
X3560603D1*
X415409Y2618101D2*
X989925D1*
X1336081D2*
X1539927D1*
X1886083D2*
X2089912D1*
X2436085D2*
X2639913D1*
X2986087D2*
X3560603D1*
X415409Y2609232D2*
X988906D1*
X1337100D2*
X1538908D1*
X1887085D2*
X2088910D1*
X2437087D2*
X2638912D1*
X2987088D2*
X3560603D1*
X415409Y2600364D2*
X988361D1*
X1337645D2*
X1538363D1*
X1887647D2*
X2088365D1*
X2437649D2*
X2638349D1*
X2987651D2*
X3560603D1*
X415409Y2591495D2*
X988255D1*
X1337751D2*
X1538257D1*
X1887735D2*
X2088259D1*
X2437737D2*
X2638261D1*
X2987739D2*
X3560603D1*
X415409Y2582626D2*
X988607D1*
X1337381D2*
X1538609D1*
X1887383D2*
X2088611D1*
X2437385D2*
X2638613D1*
X2987387D2*
X3560603D1*
X415409Y2573757D2*
X989415D1*
X1336573D2*
X1539417D1*
X1886575D2*
X2089419D1*
X2436577D2*
X2639421D1*
X2986579D2*
X3560603D1*
X415409Y2564888D2*
X530662D1*
X645348D2*
X990699D1*
X1335307D2*
X1540701D1*
X1885309D2*
X2090703D1*
X2435311D2*
X2640687D1*
X2985313D2*
X3330663D1*
X3445350D2*
X3560603D1*
X415409Y2556020D2*
X509392D1*
X666618D2*
X992439D1*
X1333567D2*
X1542441D1*
X1883569D2*
X2092443D1*
X2433553D2*
X2642445D1*
X2983555D2*
X3309394D1*
X3466620D2*
X3560603D1*
X415409Y2547151D2*
X497808D1*
X678184D2*
X994671D1*
X1331335D2*
X1544673D1*
X1881337D2*
X2094675D1*
X2431321D2*
X2644677D1*
X2981323D2*
X3297810D1*
X3478186D2*
X3560603D1*
X415409Y2538282D2*
X489810D1*
X686200D2*
X997413D1*
X1328592D2*
X1547415D1*
X1878594D2*
X2097417D1*
X2428596D2*
X2647402D1*
X2978598D2*
X3289794D1*
X3486202D2*
X3560603D1*
X415409Y2529413D2*
X483992D1*
X692001D2*
X1000683D1*
X1325323D2*
X1550685D1*
X1875325D2*
X2100687D1*
X2425327D2*
X2650689D1*
X2975311D2*
X3283994D1*
X3492003D2*
X3560603D1*
X415409Y2520545D2*
X479826D1*
X696184D2*
X1004515D1*
X1321473D2*
X1554517D1*
X1871475D2*
X2104519D1*
X2421477D2*
X2654521D1*
X2971479D2*
X3279810D1*
X3496186D2*
X3560603D1*
X415409Y2511676D2*
X476995D1*
X699014D2*
X1008962D1*
X1317026D2*
X1558964D1*
X1867028D2*
X2108966D1*
X2417030D2*
X2658968D1*
X2967032D2*
X3276997D1*
X3499016D2*
X3560603D1*
X415409Y2502807D2*
X475343D1*
X700649D2*
X1014078D1*
X1311928D2*
X1564079D1*
X1861930D2*
X2114081D1*
X2411932D2*
X2664083D1*
X2961917D2*
X3275345D1*
X3500651D2*
X3560603D1*
X415409Y2493938D2*
X474816D1*
X701194D2*
X1019913D1*
X1306075D2*
X1569915D1*
X1856077D2*
X2119917D1*
X2406079D2*
X2669919D1*
X2956081D2*
X3274818D1*
X3501178D2*
X3560603D1*
X415409Y2485070D2*
X475361D1*
X700631D2*
X1026593D1*
X1299413D2*
X1576595D1*
X1849397D2*
X2126597D1*
X2399399D2*
X2676599D1*
X2949401D2*
X3275363D1*
X3500633D2*
X3560603D1*
X415409Y2476201D2*
X477013D1*
X698979D2*
X1034222D1*
X1291766D2*
X1584224D1*
X1841768D2*
X2134226D1*
X2391770D2*
X2684228D1*
X2941772D2*
X3277015D1*
X3498981D2*
X3560603D1*
X415409Y2467332D2*
X479861D1*
X696131D2*
X1043011D1*
X1282995D2*
X1593013D1*
X1832997D2*
X2143015D1*
X2382999D2*
X2693017D1*
X2932983D2*
X3279863D1*
X3496133D2*
X3560603D1*
X415409Y2458463D2*
X484062D1*
X691948D2*
X1053206D1*
X1272782D2*
X1603208D1*
X1822784D2*
X2153210D1*
X2372786D2*
X2703212D1*
X2922788D2*
X3284064D1*
X3491932D2*
X3560603D1*
X415409Y2449595D2*
X489898D1*
X686112D2*
X1065283D1*
X1260723D2*
X1615285D1*
X1810725D2*
X2165287D1*
X2360727D2*
X2715271D1*
X2910729D2*
X3289900D1*
X3486096D2*
X3560603D1*
X415409Y2440726D2*
X497949D1*
X678061D2*
X1080031D1*
X1245958D2*
X1630033D1*
X1795960D2*
X2180035D1*
X2345962D2*
X2730037D1*
X2895963D2*
X3297951D1*
X3478063D2*
X3560603D1*
X415409Y2431857D2*
X509585D1*
X666407D2*
X1099349D1*
X1226639D2*
X1649351D1*
X1776641D2*
X2199353D1*
X2326643D2*
X2749355D1*
X2876645D2*
X3309587D1*
X3466409D2*
X3560603D1*
X415409Y2422988D2*
X531171D1*
X644821D2*
X1130761D1*
X1195245D2*
X1680763D1*
X1745247D2*
X2230765D1*
X2295249D2*
X2780767D1*
X2845233D2*
X3331173D1*
X3444823D2*
X3560603D1*
X415409Y2414119D2*
X3560603D1*
X415409Y2405251D2*
X3560603D1*
X415409Y2396382D2*
X3560603D1*
X415409Y2387513D2*
X3560603D1*
X415409Y2378644D2*
X3560603D1*
X415409Y2369776D2*
X3560603D1*
X415409Y2360907D2*
X3560603D1*
X415409Y2352038D2*
X3560603D1*
X415409Y2343169D2*
X3560603D1*
X415409Y2334301D2*
X3560603D1*
X415409Y2325432D2*
X3560603D1*
X415409Y2316563D2*
X544882D1*
X631128D2*
X3344884D1*
X3431112D2*
X3560603D1*
X415409Y2307694D2*
X524826D1*
X651167D2*
X3324828D1*
X3451169D2*
X3560603D1*
X415409Y2298825D2*
X510833D1*
X665159D2*
X3310835D1*
X3465161D2*
X3560603D1*
X415409Y2289957D2*
X499935D1*
X676057D2*
X3299937D1*
X3476059D2*
X3560603D1*
X415409Y2281088D2*
X491076D1*
X684917D2*
X3291078D1*
X3484919D2*
X3560603D1*
X415409Y2272219D2*
X483728D1*
X692282D2*
X3283730D1*
X3492266D2*
X3560603D1*
X415409Y2263350D2*
X477576D1*
X698417D2*
X3277578D1*
X3498419D2*
X3560603D1*
X415409Y2254482D2*
X472443D1*
X703549D2*
X3272445D1*
X3503551D2*
X3560603D1*
X415409Y2245613D2*
X468189D1*
X707821D2*
X3268191D1*
X3507805D2*
X3560603D1*
X415409Y2236744D2*
X464726D1*
X711284D2*
X3264710D1*
X3511286D2*
X3560603D1*
X415409Y2227875D2*
X461966D1*
X714026D2*
X3261968D1*
X3514028D2*
X3560603D1*
X415409Y2219007D2*
X459910D1*
X716100D2*
X3259912D1*
X3516102D2*
X3560603D1*
X415409Y2210138D2*
X458486D1*
X717524D2*
X3258470D1*
X3517526D2*
X3560603D1*
X415409Y2201269D2*
X457677D1*
X718333D2*
X3257679D1*
X3518335D2*
X3560603D1*
X415409Y2192400D2*
X457484D1*
X718526D2*
X3257486D1*
X3518528D2*
X3560603D1*
X415409Y2183532D2*
X457888D1*
X718104D2*
X3257890D1*
X3518106D2*
X3560603D1*
X415409Y2174663D2*
X458925D1*
X717085D2*
X3258927D1*
X3517087D2*
X3560603D1*
X415409Y2165794D2*
X460578D1*
X715432D2*
X3260579D1*
X3515434D2*
X3560603D1*
X415409Y2156925D2*
X462880D1*
X713112D2*
X3262882D1*
X3513114D2*
X3560603D1*
X415409Y2148056D2*
X465886D1*
X710124D2*
X3265888D1*
X3510108D2*
X3560603D1*
X415409Y2139188D2*
X469630D1*
X706379D2*
X3269632D1*
X3506381D2*
X3560603D1*
X415409Y2130319D2*
X474183D1*
X701809D2*
X3274185D1*
X3501811D2*
X3560603D1*
X415409Y2121450D2*
X479667D1*
X696325D2*
X3279669D1*
X3496327D2*
X3560603D1*
X415409Y2112581D2*
X486224D1*
X689768D2*
X1119581D1*
X1206424D2*
X1669583D1*
X1756409D2*
X2219585D1*
X2306411D2*
X2769587D1*
X2856413D2*
X3286226D1*
X3489770D2*
X3560603D1*
X415409Y2103713D2*
X494081D1*
X681911D2*
X1093408D1*
X1232598D2*
X1643410D1*
X1782600D2*
X2193412D1*
X2332602D2*
X2743396D1*
X2882604D2*
X3294083D1*
X3481913D2*
X3560603D1*
X415409Y2094844D2*
X503591D1*
X672401D2*
X1075654D1*
X1250352D2*
X1625656D1*
X1800354D2*
X2175658D1*
X2350356D2*
X2725660D1*
X2900340D2*
X3303593D1*
X3472403D2*
X3560603D1*
X415409Y2085975D2*
X515439D1*
X660553D2*
X1061749D1*
X1264256D2*
X1611751D1*
X1814258D2*
X2161753D1*
X2364243D2*
X2711755D1*
X2914245D2*
X3315441D1*
X3460555D2*
X3560603D1*
X415409Y2077106D2*
X531066D1*
X644944D2*
X1050253D1*
X1275753D2*
X1600255D1*
X1825754D2*
X2150257D1*
X2375756D2*
X2700259D1*
X2925741D2*
X3331068D1*
X3444928D2*
X3560603D1*
X415409Y2068238D2*
X555675D1*
X620335D2*
X1040480D1*
X1285526D2*
X1590482D1*
X1835528D2*
X2140484D1*
X2385530D2*
X2690468D1*
X2935532D2*
X3355660D1*
X3420337D2*
X3560603D1*
X415409Y2059369D2*
X1032025D1*
X1293963D2*
X1582027D1*
X1843965D2*
X2132029D1*
X2393967D2*
X2682031D1*
X2943969D2*
X3560603D1*
X415409Y2050500D2*
X1024677D1*
X1301329D2*
X1574679D1*
X1851331D2*
X2124681D1*
X2401315D2*
X2674683D1*
X2951317D2*
X3560603D1*
X415409Y2041631D2*
X1018244D1*
X1307762D2*
X1568245D1*
X1857764D2*
X2118247D1*
X2407766D2*
X2668249D1*
X2957751D2*
X3560603D1*
X415409Y2032762D2*
X1012601D1*
X1313387D2*
X1562603D1*
X1863389D2*
X2112605D1*
X2413391D2*
X2662607D1*
X2963393D2*
X3560603D1*
X415409Y2023894D2*
X1007679D1*
X1318309D2*
X1557681D1*
X1868311D2*
X2107683D1*
X2418313D2*
X2657685D1*
X2968315D2*
X3560603D1*
X415409Y2015025D2*
X1003408D1*
X1322598D2*
X1553410D1*
X1872583D2*
X2103412D1*
X2422585D2*
X2653413D1*
X2972587D2*
X3560603D1*
X415409Y2006156D2*
X999734D1*
X1326272D2*
X1549736D1*
X1876274D2*
X2099738D1*
X2426276D2*
X2649722D1*
X2976278D2*
X3560603D1*
X415409Y1997287D2*
X996605D1*
X1329401D2*
X1546607D1*
X1879385D2*
X2096609D1*
X2429387D2*
X2646611D1*
X2979389D2*
X3560603D1*
X415409Y1988419D2*
X994003D1*
X1331985D2*
X1544005D1*
X1881987D2*
X2094007D1*
X2431989D2*
X2644009D1*
X2981991D2*
X3560603D1*
X415409Y1979550D2*
X991912D1*
X1334094D2*
X1541913D1*
X1884079D2*
X2091915D1*
X2434081D2*
X2641917D1*
X2984083D2*
X3560603D1*
X415409Y1970681D2*
X990294D1*
X1335694D2*
X1540296D1*
X1885696D2*
X2090298D1*
X2435698D2*
X2640300D1*
X2985700D2*
X3560603D1*
X415409Y1961812D2*
X989152D1*
X1336837D2*
X1539154D1*
X1886838D2*
X2089156D1*
X2436840D2*
X2639158D1*
X2986842D2*
X3560603D1*
X415409Y1952944D2*
X988466D1*
X1337522D2*
X1538468D1*
X1887524D2*
X2088470D1*
X2437526D2*
X2638472D1*
X2987528D2*
X3560603D1*
X415409Y1944075D2*
X988238D1*
X1337768D2*
X1538240D1*
X1887753D2*
X2088242D1*
X2437754D2*
X2638244D1*
X2987756D2*
X3560603D1*
X415409Y1935206D2*
X988466D1*
X1337540D2*
X1538468D1*
X1887542D2*
X2088470D1*
X2437544D2*
X2638454D1*
X2987545D2*
X3560603D1*
X415409Y1926337D2*
X989134D1*
X1336854D2*
X1539136D1*
X1886856D2*
X2089138D1*
X2436858D2*
X2639140D1*
X2986860D2*
X3560603D1*
X415409Y1917469D2*
X990277D1*
X1335729D2*
X1540279D1*
X1885731D2*
X2090281D1*
X2435715D2*
X2640283D1*
X2985717D2*
X3560603D1*
X415409Y1908600D2*
X991876D1*
X1334112D2*
X1541878D1*
X1884114D2*
X2091880D1*
X2434116D2*
X2641882D1*
X2984118D2*
X3560603D1*
X415409Y1899731D2*
X993968D1*
X1332038D2*
X1543970D1*
X1882022D2*
X2093972D1*
X2432024D2*
X2643974D1*
X2982026D2*
X3560603D1*
X415409Y1890862D2*
X996552D1*
X1329436D2*
X1546554D1*
X1879438D2*
X2096556D1*
X2429440D2*
X2646558D1*
X2979442D2*
X3560603D1*
X415409Y1881993D2*
X999681D1*
X1326325D2*
X1549665D1*
X1876327D2*
X2099667D1*
X2426329D2*
X2649669D1*
X2976331D2*
X3560603D1*
X415409Y1873125D2*
X1003337D1*
X1322651D2*
X1553339D1*
X1872653D2*
X2103341D1*
X2422655D2*
X2653343D1*
X2972657D2*
X3560603D1*
X415409Y1864256D2*
X1007609D1*
X1318397D2*
X1557611D1*
X1868399D2*
X2107613D1*
X2418401D2*
X2657615D1*
X2968385D2*
X3560603D1*
X415409Y1855387D2*
X1012513D1*
X1313475D2*
X1562515D1*
X1863477D2*
X2112517D1*
X2413479D2*
X2662519D1*
X2963481D2*
X3560603D1*
X415409Y1846518D2*
X1018138D1*
X1307868D2*
X1568140D1*
X1857852D2*
X2118142D1*
X2407854D2*
X2668144D1*
X2957856D2*
X3560603D1*
X415409Y1837650D2*
X1024554D1*
X1301434D2*
X1574556D1*
X1851436D2*
X2124558D1*
X2401438D2*
X2674560D1*
X2951440D2*
X3560603D1*
X415409Y1828781D2*
X1031902D1*
X1294104D2*
X1581904D1*
X1844106D2*
X2131906D1*
X2394108D2*
X2681908D1*
X2944092D2*
X3560603D1*
X415409Y1819912D2*
X1040322D1*
X1285684D2*
X1590324D1*
X1835669D2*
X2140326D1*
X2385670D2*
X2690328D1*
X2935672D2*
X3560603D1*
X415409Y1811043D2*
X1050078D1*
X1275928D2*
X1600079D1*
X1825930D2*
X2150081D1*
X2375932D2*
X2700066D1*
X2925934D2*
X3560603D1*
X415409Y1802175D2*
X1061538D1*
X1264467D2*
X1611540D1*
X1814469D2*
X2161542D1*
X2364471D2*
X2711544D1*
X2914456D2*
X3560603D1*
X415409Y1793306D2*
X1075390D1*
X1250616D2*
X1625392D1*
X1800618D2*
X2175394D1*
X2350602D2*
X2725396D1*
X2900604D2*
X3560603D1*
X415409Y1784437D2*
X1093056D1*
X1232950D2*
X1643058D1*
X1782952D2*
X2193060D1*
X2332936D2*
X2743062D1*
X2882938D2*
X3560603D1*
X415409Y1775568D2*
X1119001D1*
X1207004D2*
X1669003D1*
X1757006D2*
X2218988D1*
X2307008D2*
X2768990D1*
X2857010D2*
X3560603D1*
X415409Y1766699D2*
X3560603D1*
X415409Y1757831D2*
X3560603D1*
X415409Y1748962D2*
X3560603D1*
X415409Y1740093D2*
X3560603D1*
X415409Y1731224D2*
X3560603D1*
X415409Y1722356D2*
X3560603D1*
X415409Y1713487D2*
X3560603D1*
X415409Y1704618D2*
X3560603D1*
X415409Y1695749D2*
X3560603D1*
X415409Y1686881D2*
X538712D1*
X636788D2*
X938720D1*
X1036795D2*
X1341892D1*
X1434096D2*
X1741900D1*
X1834104D2*
X2141890D1*
X2234112D2*
X2541898D1*
X2634102D2*
X2942152D1*
X3034356D2*
X3338714D1*
X3436790D2*
X3560603D1*
X415409Y1678012D2*
X514718D1*
X660782D2*
X914726D1*
X1060772D2*
X1316790D1*
X1459198D2*
X1716798D1*
X1859206D2*
X2116788D1*
X2259196D2*
X2516796D1*
X2659204D2*
X2917050D1*
X3059458D2*
X3314720D1*
X3460766D2*
X3560603D1*
X415409Y1669143D2*
X497808D1*
X677692D2*
X897798D1*
X1077700D2*
X1299441D1*
X1476565D2*
X1699431D1*
X1876555D2*
X2099439D1*
X2276563D2*
X2499447D1*
X2676553D2*
X2899683D1*
X3076807D2*
X3297810D1*
X3477694D2*
X3560603D1*
X415409Y1660274D2*
X484378D1*
X691122D2*
X884386D1*
X1091112D2*
X1285765D1*
X1490241D2*
X1685773D1*
X1890231D2*
X2085763D1*
X2290239D2*
X2485771D1*
X2690229D2*
X2886007D1*
X3090483D2*
X3284380D1*
X3491124D2*
X3560603D1*
X415409Y1651406D2*
X473216D1*
X702284D2*
X873224D1*
X1102274D2*
X1274427D1*
X1501579D2*
X1674417D1*
X1901569D2*
X2074425D1*
X2301577D2*
X2474415D1*
X2701585D2*
X2874669D1*
X3101821D2*
X3273218D1*
X3502286D2*
X3560603D1*
X415409Y1642537D2*
X463689D1*
X711811D2*
X863697D1*
X1111801D2*
X1264759D1*
X1511229D2*
X1664767D1*
X1911237D2*
X2064757D1*
X2311227D2*
X2464765D1*
X2711235D2*
X2865019D1*
X3111489D2*
X3263691D1*
X3511813D2*
X3560603D1*
X415409Y1633668D2*
X455445D1*
X720055D2*
X855453D1*
X1120045D2*
X1256410D1*
X1519579D2*
X1656417D1*
X1919587D2*
X2056408D1*
X2319577D2*
X2456415D1*
X2719585D2*
X2856669D1*
X3119838D2*
X3255447D1*
X3520040D2*
X3560603D1*
X415409Y1624799D2*
X448255D1*
X727227D2*
X848263D1*
X1127235D2*
X1249132D1*
X1526856D2*
X1649140D1*
X1926864D2*
X2049130D1*
X2326872D2*
X2449138D1*
X2726862D2*
X2849392D1*
X3127116D2*
X3248257D1*
X3527229D2*
X3560603D1*
X415409Y1615930D2*
X441980D1*
X733520D2*
X841970D1*
X1133528D2*
X1242769D1*
X1533237D2*
X1642759D1*
X1933227D2*
X2042767D1*
X2333235D2*
X2442775D1*
X2733225D2*
X2843011D1*
X3133479D2*
X3241964D1*
X3533522D2*
X3560603D1*
X415409Y1607062D2*
X436460D1*
X739040D2*
X836468D1*
X1139030D2*
X1237197D1*
X1538809D2*
X1637187D1*
X1938799D2*
X2037195D1*
X2338807D2*
X2437185D1*
X2738815D2*
X2837439D1*
X3139051D2*
X3236462D1*
X3539042D2*
X3560603D1*
X415409Y1598193D2*
X431662D1*
X743838D2*
X831652D1*
X1143846D2*
X1232328D1*
X1543678D2*
X1632318D1*
X1943669D2*
X2032326D1*
X2343676D2*
X2432316D1*
X2743684D2*
X2832570D1*
X3143920D2*
X3231663D1*
X3543840D2*
X3560603D1*
X415409Y1589324D2*
X427495D1*
X748004D2*
X827486D1*
X1148012D2*
X1228091D1*
X1547897D2*
X1628099D1*
X1947905D2*
X2028089D1*
X2347895D2*
X2428097D1*
X2747903D2*
X2828351D1*
X3148157D2*
X3227480D1*
X3548006D2*
X3560603D1*
X415409Y1580455D2*
X423910D1*
X751590D2*
X823900D1*
X1151598D2*
X1224470D1*
X1551536D2*
X1624460D1*
X1951544D2*
X2024468D1*
X2351534D2*
X2424458D1*
X2751542D2*
X2824712D1*
X3151778D2*
X3223912D1*
X3551592D2*
X3560603D1*
X415409Y1571587D2*
X420861D1*
X754631D2*
X820876D1*
X1154622D2*
X1221376D1*
X1554612D2*
X1621384D1*
X1954620D2*
X2021392D1*
X2354610D2*
X2421382D1*
X2754618D2*
X2821636D1*
X3154872D2*
X3220870D1*
X3554616D2*
X3560603D1*
X415409Y1562718D2*
X418368D1*
X757128D2*
X818363D1*
X1157135D2*
X1218828D1*
X1557178D2*
X1618818D1*
X1957169D2*
X2018826D1*
X2357176D2*
X2418833D1*
X2757167D2*
X2819070D1*
X3157420D2*
X3218357D1*
X3557129D2*
X3560612D1*
X759149Y1553849D2*
X816359D1*
X1159139D2*
X1216771D1*
X1559235D2*
X1616761D1*
X1959225D2*
X2016769D1*
X2359233D2*
X2416777D1*
X2759223D2*
X2817013D1*
X3159477D2*
X3216353D1*
X760678Y1544980D2*
X814812D1*
X1160686D2*
X1215189D1*
X1560799D2*
X1615197D1*
X1960807D2*
X2015187D1*
X2360815D2*
X2415195D1*
X2760805D2*
X2815449D1*
X3161059D2*
X3214824D1*
X761751Y1536112D2*
X813757D1*
X1161741D2*
X1214081D1*
X1561924D2*
X1614089D1*
X1961915D2*
X2014079D1*
X2361922D2*
X2414087D1*
X2761913D2*
X2814341D1*
X3162167D2*
X3213751D1*
X762348Y1527243D2*
X813142D1*
X1162356D2*
X1213431D1*
X1562557D2*
X1613439D1*
X1962565D2*
X2013429D1*
X2362573D2*
X2413437D1*
X2762563D2*
X2813691D1*
X3162817D2*
X3213154D1*
X762506Y1518374D2*
X813001D1*
X1162497D2*
X1213238D1*
X1562751D2*
X1613245D1*
X1962758D2*
X2013236D1*
X2362766D2*
X2413244D1*
X2762756D2*
X2813497D1*
X3163010D2*
X3212995D1*
X762208Y1509505D2*
X813300D1*
X1162198D2*
X1213501D1*
X1562504D2*
X1613492D1*
X1962495D2*
X2013499D1*
X2362503D2*
X2413507D1*
X2762493D2*
X2813744D1*
X3162747D2*
X3213294D1*
X761452Y1500636D2*
X814056D1*
X1161442D2*
X1214204D1*
X1561784D2*
X1614212D1*
X1961792D2*
X2014220D1*
X2361782D2*
X2414210D1*
X2761790D2*
X2814464D1*
X3162044D2*
X3214050D1*
X760239Y1491768D2*
X815269D1*
X1160229D2*
X1215382D1*
X1560606D2*
X1615390D1*
X1960614D2*
X2015380D1*
X2360622D2*
X2415388D1*
X2760612D2*
X2815642D1*
X3160866D2*
X3215263D1*
X758551Y1482899D2*
X816956D1*
X1158542D2*
X1217035D1*
X1558971D2*
X1617025D1*
X1958979D2*
X2017033D1*
X2358969D2*
X2417023D1*
X2758977D2*
X2817277D1*
X3159213D2*
X3216951D1*
X415409Y1474030D2*
X419140D1*
X756372D2*
X819119D1*
X1156379D2*
X1219162D1*
X1556844D2*
X1619152D1*
X1956852D2*
X2019160D1*
X2356842D2*
X2419150D1*
X2756850D2*
X2819404D1*
X3157087D2*
X3219130D1*
X3556374D2*
X3560603D1*
X415409Y1465161D2*
X421810D1*
X753700D2*
X821808D1*
X1153690D2*
X1221781D1*
X1554208D2*
X1621788D1*
X1954215D2*
X2021779D1*
X2354206D2*
X2421787D1*
X2754213D2*
X2822040D1*
X3154467D2*
X3221802D1*
X3553702D2*
X3560603D1*
X415409Y1456293D2*
X425017D1*
X750483D2*
X825007D1*
X1150491D2*
X1224945D1*
X1551061D2*
X1624935D1*
X1951051D2*
X2024943D1*
X2351059D2*
X2424951D1*
X2751049D2*
X2825187D1*
X3151303D2*
X3225019D1*
X3550485D2*
X3560603D1*
X415409Y1447424D2*
X428779D1*
X746721D2*
X828787D1*
X1146729D2*
X1228654D1*
X1547335D2*
X1628662D1*
X1947342D2*
X2028652D1*
X2347350D2*
X2428660D1*
X2747340D2*
X2828913D1*
X3147594D2*
X3228781D1*
X3546723D2*
X3560603D1*
X415409Y1438555D2*
X433156D1*
X742344D2*
X833146D1*
X1142352D2*
X1232978D1*
X1543028D2*
X1632968D1*
X1943036D2*
X2032976D1*
X2343026D2*
X2432966D1*
X2743034D2*
X2833220D1*
X3143288D2*
X3233158D1*
X3542346D2*
X3560603D1*
X415409Y1429686D2*
X438183D1*
X737317D2*
X838173D1*
X1137325D2*
X1237935D1*
X1538071D2*
X1637943D1*
X1938061D2*
X2037933D1*
X2338069D2*
X2437941D1*
X2738059D2*
X2838177D1*
X3138313D2*
X3238185D1*
X3537319D2*
X3560603D1*
X415409Y1420818D2*
X443931D1*
X731569D2*
X843921D1*
X1131577D2*
X1243613D1*
X1532376D2*
X1643620D1*
X1932383D2*
X2043611D1*
X2332391D2*
X2443619D1*
X2732381D2*
X2843872D1*
X3132635D2*
X3243933D1*
X3531571D2*
X3560603D1*
X415409Y1411949D2*
X450505D1*
X724995D2*
X850495D1*
X1125003D2*
X1250099D1*
X1525889D2*
X1650107D1*
X1925897D2*
X2050115D1*
X2325887D2*
X2450105D1*
X2725895D2*
X2850359D1*
X3126149D2*
X3250490D1*
X3524997D2*
X3560603D1*
X415409Y1403080D2*
X458011D1*
X717489D2*
X858001D1*
X1117497D2*
X1257517D1*
X1518471D2*
X1657525D1*
X1918479D2*
X2057533D1*
X2318469D2*
X2457523D1*
X2718477D2*
X2857777D1*
X3118731D2*
X3258013D1*
X3517491D2*
X3560603D1*
X415409Y1394211D2*
X466642D1*
X708858D2*
X866632D1*
X1108866D2*
X1266042D1*
X1509963D2*
X1666050D1*
X1909954D2*
X2066040D1*
X2309962D2*
X2466048D1*
X2709952D2*
X2866285D1*
X3110206D2*
X3266644D1*
X3508860D2*
X3560603D1*
X415409Y1385343D2*
X476644D1*
X698856D2*
X876652D1*
X1098846D2*
X1275904D1*
X1500085D2*
X1675912D1*
X1900092D2*
X2075919D1*
X2300083D2*
X2475910D1*
X2700090D2*
X2876163D1*
X3100344D2*
X3276646D1*
X3498840D2*
X3560603D1*
X415409Y1376474D2*
X488456D1*
X687044D2*
X888464D1*
X1087034D2*
X1287540D1*
X1488465D2*
X1687531D1*
X1888473D2*
X2087538D1*
X2288463D2*
X2487529D1*
X2688471D2*
X2887783D1*
X3088708D2*
X3288458D1*
X3487028D2*
X3560603D1*
X415409Y1367605D2*
X502835D1*
X672665D2*
X902826D1*
X1072672D2*
X1301620D1*
X1474385D2*
X1701628D1*
X1874376D2*
X2101619D1*
X2274383D2*
X2501626D1*
X2674374D2*
X2901863D1*
X3074628D2*
X3302837D1*
X3472667D2*
X3560603D1*
X415409Y1358736D2*
X521433D1*
X654067D2*
X921423D1*
X1054075D2*
X1319691D1*
X1456297D2*
X1719699D1*
X1856305D2*
X2119706D1*
X2256295D2*
X2519697D1*
X2656303D2*
X2919951D1*
X3056557D2*
X3321435D1*
X3454069D2*
X3560603D1*
X415409Y1349867D2*
X550191D1*
X625309D2*
X950181D1*
X1025317D2*
X1346831D1*
X1429174D2*
X1746839D1*
X1829165D2*
X2146829D1*
X2229172D2*
X2546837D1*
X2629163D2*
X2947074D1*
X3029417D2*
X3350193D1*
X3425311D2*
X3560603D1*
X415409Y1340999D2*
X3560603D1*
X415409Y1332130D2*
X3560603D1*
X415409Y1323261D2*
X3560603D1*
X415409Y1314392D2*
X3560603D1*
X415409Y1305524D2*
X3560603D1*
X415409Y1296655D2*
X3560603D1*
X415409Y1287786D2*
X3560603D1*
X415409Y1278917D2*
X3560603D1*
X415409Y1270049D2*
X3560603D1*
X415409Y1261180D2*
X3560603D1*
X415409Y1252311D2*
X3560603D1*
X415409Y1243442D2*
X3560603D1*
X415409Y1234574D2*
X3560603D1*
X415409Y1225705D2*
X3560603D1*
X415409Y1216836D2*
X568015D1*
X607485D2*
X968005D1*
X1007493D2*
X1768249D1*
X1807737D2*
X2168257D1*
X2207745D2*
X2568265D1*
X2607735D2*
X2968255D1*
X3007743D2*
X3367999D1*
X3407487D2*
X3560603D1*
X415409Y1207967D2*
X529044D1*
X646456D2*
X929035D1*
X1046463D2*
X1729296D1*
X1846708D2*
X2129287D1*
X2246715D2*
X2529294D1*
X2646706D2*
X2929285D1*
X3046713D2*
X3329046D1*
X3446458D2*
X3560603D1*
X415409Y1199098D2*
X508285D1*
X667215D2*
X908292D1*
X1067206D2*
X1708537D1*
X1867467D2*
X2108544D1*
X2267458D2*
X2508535D1*
X2667465D2*
X2908542D1*
X3067456D2*
X3308287D1*
X3467217D2*
X3560603D1*
X415409Y1190230D2*
X492798D1*
X682684D2*
X892806D1*
X1082692D2*
X1693050D1*
X1882936D2*
X2093058D1*
X2282944D2*
X2493048D1*
X2682952D2*
X2893056D1*
X3082942D2*
X3292800D1*
X3482686D2*
X3560603D1*
X415409Y1181361D2*
X480265D1*
X695235D2*
X880273D1*
X1095225D2*
X1680517D1*
X1895487D2*
X2080525D1*
X2295477D2*
X2480515D1*
X2695485D2*
X2880523D1*
X3095475D2*
X3280267D1*
X3495237D2*
X3560603D1*
X415409Y1172492D2*
X469736D1*
X705764D2*
X869726D1*
X1105772D2*
X1369947D1*
X1406042D2*
X1669988D1*
X1906016D2*
X2069978D1*
X2306024D2*
X2469986D1*
X2706014D2*
X2869976D1*
X3106022D2*
X3269738D1*
X3505766D2*
X3560603D1*
X415409Y1163623D2*
X460683D1*
X714817D2*
X860691D1*
X1114807D2*
X1337163D1*
X1438842D2*
X1660935D1*
X1915069D2*
X2060943D1*
X2315059D2*
X2460933D1*
X2715067D2*
X2860941D1*
X3115057D2*
X3260685D1*
X3514819D2*
X3560603D1*
X415409Y1154755D2*
X452826D1*
X722674D2*
X852833D1*
X1122665D2*
X1319744D1*
X1456262D2*
X1653078D1*
X1922926D2*
X2053085D1*
X2322917D2*
X2453076D1*
X2722924D2*
X2853083D1*
X3122915D2*
X3252828D1*
X3522659D2*
X3560603D1*
X415409Y1145886D2*
X445970D1*
X729530D2*
X845978D1*
X1129520D2*
X1306947D1*
X1469042D2*
X1646222D1*
X1929782D2*
X2046230D1*
X2329772D2*
X2446220D1*
X2729780D2*
X2846228D1*
X3129770D2*
X3245972D1*
X3529532D2*
X3560603D1*
X415409Y1137017D2*
X439958D1*
X735542D2*
X839966D1*
X1135532D2*
X1296804D1*
X1479184D2*
X1640210D1*
X1935776D2*
X2040218D1*
X2335784D2*
X2440208D1*
X2735792D2*
X2840216D1*
X3135782D2*
X3239960D1*
X3535526D2*
X3560603D1*
X415409Y1128148D2*
X434703D1*
X740780D2*
X834710D1*
X1140788D2*
X1288490D1*
X1487499D2*
X1634954D1*
X1941032D2*
X2034962D1*
X2341040D2*
X2434953D1*
X2741047D2*
X2834960D1*
X3141038D2*
X3234704D1*
X3540782D2*
X3560603D1*
X415409Y1119280D2*
X430132D1*
X745368D2*
X830140D1*
X1145358D2*
X1281564D1*
X1494424D2*
X1630384D1*
X1945620D2*
X2030374D1*
X2345610D2*
X2430382D1*
X2745618D2*
X2830390D1*
X3145626D2*
X3230134D1*
X3545370D2*
X3560603D1*
X415409Y1110411D2*
X426177D1*
X749323D2*
X826167D1*
X1149331D2*
X1275781D1*
X1500225D2*
X1626429D1*
X1949575D2*
X2026419D1*
X2349583D2*
X2426427D1*
X2749573D2*
X2826417D1*
X3149581D2*
X3226179D1*
X3549325D2*
X3560603D1*
X415409Y1101542D2*
X422785D1*
X752715D2*
X822792D1*
X1152706D2*
X1270947D1*
X1505059D2*
X1623037D1*
X1952967D2*
X2023044D1*
X2352958D2*
X2423035D1*
X2752965D2*
X2823042D1*
X3152956D2*
X3222787D1*
X3552717D2*
X3560603D1*
X415409Y1092673D2*
X419948D1*
X755563D2*
X819945D1*
X1155553D2*
X1266956D1*
X1509049D2*
X1620189D1*
X1955815D2*
X2020197D1*
X2355805D2*
X2420187D1*
X2755813D2*
X2820195D1*
X3155803D2*
X3219939D1*
X3555565D2*
X3560603D1*
X757883Y1083804D2*
X817607D1*
X1157891D2*
X1263740D1*
X1512266D2*
X1617851D1*
X1958135D2*
X2017859D1*
X2358143D2*
X2417867D1*
X2758133D2*
X2817857D1*
X3158141D2*
X3217601D1*
X3557885D2*
X3560591D1*
X759729Y1074936D2*
X815761D1*
X1159737D2*
X1261208D1*
X1514780D2*
X1616023D1*
X1959981D2*
X2016013D1*
X2359989D2*
X2416021D1*
X2759979D2*
X2816011D1*
X3159987D2*
X3215755D1*
X761100Y1066067D2*
X814390D1*
X1161108D2*
X1259363D1*
X1516643D2*
X1614652D1*
X1961352D2*
X2014642D1*
X2361360D2*
X2414650D1*
X2761350D2*
X2814640D1*
X3161358D2*
X3214402D1*
X762014Y1057198D2*
X813494D1*
X1162004D2*
X1258150D1*
X1517856D2*
X1613738D1*
X1962266D2*
X2013745D1*
X2362256D2*
X2413736D1*
X2762264D2*
X2813744D1*
X3162254D2*
X3213488D1*
X762454Y1048329D2*
X813037D1*
X1162462D2*
X1257535D1*
X1518454D2*
X1613298D1*
X1962706D2*
X2013288D1*
X2362713D2*
X2413296D1*
X2762704D2*
X2813287D1*
X3162712D2*
X3213048D1*
X762454Y1039461D2*
X813054D1*
X1162444D2*
X1257552D1*
X1518454D2*
X1613298D1*
X1962706D2*
X2013306D1*
X2362696D2*
X2413296D1*
X2762704D2*
X2813304D1*
X3162694D2*
X3213048D1*
X761997Y1030592D2*
X813511D1*
X1161987D2*
X1258167D1*
X1517838D2*
X1613755D1*
X1962249D2*
X2013763D1*
X2362239D2*
X2413753D1*
X2762247D2*
X2813761D1*
X3162237D2*
X3213505D1*
X761083Y1021723D2*
X814425D1*
X1161073D2*
X1259398D1*
X1516608D2*
X1614669D1*
X1961335D2*
X2014677D1*
X2361325D2*
X2414667D1*
X2761333D2*
X2814675D1*
X3161323D2*
X3214419D1*
X759694Y1012854D2*
X815796D1*
X1159702D2*
X1261261D1*
X1514727D2*
X1616058D1*
X1959946D2*
X2016048D1*
X2359954D2*
X2416056D1*
X2759944D2*
X2816046D1*
X3159952D2*
X3215808D1*
X757848Y1003986D2*
X817660D1*
X1157838D2*
X1263792D1*
X1512196D2*
X1617904D1*
X1958100D2*
X2017912D1*
X2358090D2*
X2417902D1*
X2758098D2*
X2817910D1*
X3158088D2*
X3217654D1*
X3557850D2*
X3560607D1*
X415409Y995117D2*
X420019D1*
X755493D2*
X819997D1*
X1155501D2*
X1267044D1*
X1508962D2*
X1620259D1*
X1955745D2*
X2020249D1*
X2355753D2*
X2420257D1*
X2755743D2*
X2820247D1*
X3155751D2*
X3220009D1*
X3555495D2*
X3560603D1*
X415409Y986248D2*
X422855D1*
X752645D2*
X822863D1*
X1152635D2*
X1271052D1*
X1504954D2*
X1623107D1*
X1952879D2*
X2023115D1*
X2352887D2*
X2423105D1*
X2752895D2*
X2823113D1*
X3152885D2*
X3222857D1*
X3552629D2*
X3560603D1*
X415409Y977379D2*
X426265D1*
X749235D2*
X826255D1*
X1149243D2*
X1275904D1*
X1500102D2*
X1626517D1*
X1949487D2*
X2026507D1*
X2349495D2*
X2426515D1*
X2749485D2*
X2826505D1*
X3149493D2*
X3226267D1*
X3549237D2*
X3560603D1*
X415409Y968511D2*
X430238D1*
X745262D2*
X830228D1*
X1145270D2*
X1281722D1*
X1494284D2*
X1630490D1*
X1945514D2*
X2030480D1*
X2345522D2*
X2430488D1*
X2745512D2*
X2830478D1*
X3145520D2*
X3230240D1*
X3545264D2*
X3560603D1*
X415409Y959642D2*
X434826D1*
X740674D2*
X834833D1*
X1140665D2*
X1288665D1*
X1487323D2*
X1635078D1*
X1940926D2*
X2035085D1*
X2340917D2*
X2435076D1*
X2740924D2*
X2835083D1*
X3140915D2*
X3234828D1*
X3540676D2*
X3560603D1*
X415409Y950773D2*
X440099D1*
X735401D2*
X840089D1*
X1135409D2*
X1297033D1*
X1478973D2*
X1640351D1*
X1935653D2*
X2040341D1*
X2335643D2*
X2440349D1*
X2735651D2*
X2840357D1*
X3135659D2*
X3240101D1*
X3535403D2*
X3560603D1*
X415409Y941904D2*
X446128D1*
X729372D2*
X846119D1*
X1129379D2*
X1307228D1*
X1468778D2*
X1646380D1*
X1929624D2*
X2046370D1*
X2329631D2*
X2446378D1*
X2729622D2*
X2846369D1*
X3129629D2*
X3246130D1*
X3529374D2*
X3560603D1*
X415409Y933035D2*
X453001D1*
X722499D2*
X853009D1*
X1122489D2*
X1320078D1*
X1455911D2*
X1653253D1*
X1922751D2*
X2053261D1*
X2322741D2*
X2453251D1*
X2722749D2*
X2853259D1*
X3122739D2*
X3253003D1*
X3522501D2*
X3560603D1*
X415409Y924167D2*
X460876D1*
X714606D2*
X860884D1*
X1114614D2*
X1337656D1*
X1438333D2*
X1661128D1*
X1914858D2*
X2061136D1*
X2314866D2*
X2461126D1*
X2714874D2*
X2861134D1*
X3114864D2*
X3260878D1*
X3514608D2*
X3560603D1*
X415409Y915298D2*
X469964D1*
X705536D2*
X869954D1*
X1105544D2*
X1371599D1*
X1404389D2*
X1670216D1*
X1905788D2*
X2070206D1*
X2305795D2*
X2470214D1*
X2705786D2*
X2870204D1*
X3105794D2*
X3269966D1*
X3505538D2*
X3560603D1*
X415409Y906429D2*
X480546D1*
X694954D2*
X880537D1*
X1094962D2*
X1680798D1*
X1895206D2*
X2080788D1*
X2295213D2*
X2480796D1*
X2695204D2*
X2880787D1*
X3095212D2*
X3280548D1*
X3494956D2*
X3560603D1*
X415409Y897560D2*
X493132D1*
X682368D2*
X893140D1*
X1082358D2*
X1693384D1*
X1882620D2*
X2093392D1*
X2282610D2*
X2493382D1*
X2682618D2*
X2893390D1*
X3082608D2*
X3293134D1*
X3482370D2*
X3560603D1*
X415409Y888692D2*
X508706D1*
X666794D2*
X908697D1*
X1066801D2*
X1708958D1*
X1867045D2*
X2108949D1*
X2267053D2*
X2508956D1*
X2667044D2*
X2908947D1*
X3067051D2*
X3308708D1*
X3466795D2*
X3560603D1*
X415409Y879823D2*
X529642D1*
X645858D2*
X929632D1*
X1045866D2*
X1729894D1*
X1846110D2*
X2129884D1*
X2246118D2*
X2529892D1*
X2646108D2*
X2929882D1*
X3046116D2*
X3329644D1*
X3445860D2*
X3560603D1*
X415409Y870954D2*
X570037D1*
X605446D2*
X970044D1*
X1005454D2*
X1770288D1*
X1805698D2*
X2170296D1*
X2205706D2*
X2570287D1*
X2605713D2*
X2970294D1*
X3005704D2*
X3370038D1*
X3405448D2*
X3560603D1*
X415409Y862085D2*
X3560603D1*
X415409Y853217D2*
X3560603D1*
X415409Y844348D2*
X3560603D1*
X415409Y835479D2*
X3560603D1*
X415409Y826610D2*
X3560603D1*
X415409Y817741D2*
X3560603D1*
X415409Y808873D2*
X3560603D1*
X415409Y800004D2*
X3560603D1*
X415409Y791135D2*
X3560603D1*
X415409Y782266D2*
X3560603D1*
X415409Y773398D2*
X3560603D1*
X415409Y764529D2*
X3560603D1*
X415409Y755660D2*
X3560603D1*
X415409Y746791D2*
X3560603D1*
X415409Y737923D2*
X3560603D1*
X415409Y729054D2*
X3560603D1*
X415409Y720185D2*
X3560603D1*
X415409Y711316D2*
X3560603D1*
X415409Y702448D2*
X3560603D1*
X415409Y693579D2*
X3560603D1*
X415409Y684710D2*
X3560603D1*
X415409Y675841D2*
X3560603D1*
X415409Y666972D2*
X3560603D1*
X415409Y658104D2*
X3560603D1*
X415409Y649235D2*
X3560603D1*
X415409Y640366D2*
X3560603D1*
X415409Y631497D2*
X3560603D1*
X415409Y622629D2*
X3560603D1*
X415409Y613760D2*
X613050D1*
X762963D2*
X3213048D1*
X3362962D2*
X3560603D1*
X415409Y604891D2*
X582570D1*
X793444D2*
X3182568D1*
X3393442D2*
X3560603D1*
X415409Y596022D2*
X567259D1*
X808737D2*
X3167257D1*
X3408753D2*
X3560603D1*
X415409Y587154D2*
X556290D1*
X819706D2*
X3156306D1*
X3419704D2*
X3560603D1*
X415409Y578285D2*
X547835D1*
X828161D2*
X3147833D1*
X3428159D2*
X3560603D1*
X415409Y569416D2*
X541138D1*
X834858D2*
X3141136D1*
X3434874D2*
X3560603D1*
X415409Y560547D2*
X535794D1*
X840219D2*
X3135792D1*
X3440217D2*
X3560603D1*
X415409Y551678D2*
X531576D1*
X844438D2*
X3131574D1*
X3444436D2*
X3560603D1*
X415409Y542810D2*
X528324D1*
X847672D2*
X3128322D1*
X3447670D2*
X3560603D1*
X415409Y533941D2*
X525986D1*
X850028D2*
X3125984D1*
X3450026D2*
X3560603D1*
X415409Y525072D2*
X524456D1*
X851540D2*
X3124454D1*
X3451555D2*
X3560603D1*
X415409Y516203D2*
X523718D1*
X852278D2*
X3123716D1*
X3452294D2*
X3560603D1*
X415409Y507335D2*
X523753D1*
X852260D2*
X3123751D1*
X3452258D2*
X3560603D1*
X415409Y498466D2*
X524544D1*
X851452D2*
X3124560D1*
X3451450D2*
X3560603D1*
X415409Y489597D2*
X526144D1*
X849852D2*
X3126142D1*
X3449850D2*
X3560603D1*
X415409Y480728D2*
X528570D1*
X847426D2*
X3128568D1*
X3447424D2*
X3560603D1*
X415409Y471860D2*
X531892D1*
X844104D2*
X3131890D1*
X3444102D2*
X3560603D1*
X415409Y462991D2*
X536199D1*
X839797D2*
X3136197D1*
X3439795D2*
X3560603D1*
X415409Y454122D2*
X541648D1*
X834348D2*
X3141646D1*
X3434346D2*
X3560603D1*
X415409Y445253D2*
X548486D1*
X827510D2*
X3148484D1*
X3427508D2*
X3560603D1*
X415409Y436385D2*
X557134D1*
X818879D2*
X3157132D1*
X3418878D2*
X3560603D1*
X415409Y427516D2*
X568349D1*
X807647D2*
X3168365D1*
X3407645D2*
X3560603D1*
X415409Y418647D2*
X584222D1*
X791774D2*
X3184220D1*
X3391772D2*
X3560603D1*
X2262433Y5048537D2*
X2262577Y5052876D1*
X2263047Y5057350D1*
X2263835Y5061780D1*
X2264937Y5066142D1*
X2266347Y5070414D1*
X2268057Y5074575D1*
X2270060Y5078604D1*
X2272345Y5082479D1*
X2274901Y5086182D1*
X2277714Y5089694D1*
X2280770Y5092995D1*
X2284054Y5096071D1*
X2287548Y5098904D1*
X2291236Y5101482D1*
X2295098Y5103789D1*
X2299115Y5105816D1*
X2303266Y5107551D1*
X2307530Y5108986D1*
X2311885Y5110113D1*
X2316310Y5110927D1*
X2320782Y5111423D1*
X2325277Y5111600D1*
X2329774Y5111455D1*
X2334249Y5110990D1*
X2338680Y5110208D1*
X2343043Y5109111D1*
X2347317Y5107707D1*
X2351480Y5106001D1*
X2355511Y5104003D1*
X2359389Y5101722D1*
X2363095Y5099171D1*
X2366610Y5096362D1*
X2369915Y5093310D1*
X2372994Y5090030D1*
X2375832Y5086539D1*
X2378414Y5082854D1*
X2380726Y5078995D1*
X2382757Y5074980D1*
X2384497Y5070831D1*
X2385937Y5066569D1*
X2387070Y5062215D1*
X2387889Y5057791D1*
X2388390Y5053320D1*
X2388573Y5044028D1*
X2388555Y4989472D1*
X2388412Y4984976D1*
X2387932Y4980503D1*
X2387133Y4976075D1*
X2386022Y4971716D1*
X2384602Y4967447D1*
X2382881Y4963290D1*
X2380869Y4959266D1*
X2378575Y4955396D1*
X2376010Y4951699D1*
X2373189Y4948194D1*
X2370125Y4944900D1*
X2366834Y4941832D1*
X2363333Y4939007D1*
X2359639Y4936438D1*
X2355772Y4934139D1*
X2350306Y4931522D1*
X2355511Y4929003D1*
X2359389Y4926722D1*
X2363095Y4924171D1*
X2366610Y4921362D1*
X2369915Y4918310D1*
X2372994Y4915030D1*
X2375832Y4911539D1*
X2378414Y4907854D1*
X2380726Y4903995D1*
X2382757Y4899980D1*
X2384497Y4895831D1*
X2385937Y4891569D1*
X2387070Y4887215D1*
X2387889Y4882791D1*
X2388390Y4878320D1*
X2388573Y4869028D1*
X2388555Y4814472D1*
X2388412Y4809976D1*
X2387932Y4805503D1*
X2387133Y4801075D1*
X2386022Y4796716D1*
X2384602Y4792447D1*
X2382881Y4788290D1*
X2380869Y4784266D1*
X2378575Y4780396D1*
X2376010Y4776699D1*
X2373189Y4773194D1*
X2370125Y4769900D1*
X2366834Y4766832D1*
X2363333Y4764007D1*
X2359639Y4761438D1*
X2355772Y4759139D1*
X2351750Y4757122D1*
X2347595Y4755397D1*
X2343328Y4753972D1*
X2338970Y4752855D1*
X2334543Y4752051D1*
X2330070Y4751566D1*
X2325574Y4751400D1*
X2321078Y4751555D1*
X2316604Y4752030D1*
X2312175Y4752823D1*
X2307815Y4753930D1*
X2303544Y4755345D1*
X2299385Y4757060D1*
X2295358Y4759068D1*
X2291486Y4761358D1*
X2287786Y4763918D1*
X2284278Y4766735D1*
X2280980Y4769795D1*
X2277908Y4773082D1*
X2275079Y4776580D1*
X2272506Y4780271D1*
X2270202Y4784135D1*
X2268181Y4788155D1*
X2266450Y4792308D1*
X2265020Y4796573D1*
X2263898Y4800930D1*
X2263090Y4805356D1*
X2262599Y4809828D1*
X2262427Y4818972D1*
Y4873452D1*
X2262577Y4877876D1*
X2263047Y4882350D1*
X2263835Y4886780D1*
X2264937Y4891142D1*
X2266347Y4895414D1*
X2268057Y4899575D1*
X2270060Y4903604D1*
X2272345Y4907479D1*
X2274901Y4911182D1*
X2277714Y4914694D1*
X2280770Y4917995D1*
X2284054Y4921071D1*
X2287548Y4923904D1*
X2291236Y4926482D1*
X2295098Y4928789D1*
X2300688Y4931474D1*
X2295358Y4934068D1*
X2291486Y4936358D1*
X2287786Y4938918D1*
X2284278Y4941735D1*
X2280980Y4944795D1*
X2277908Y4948082D1*
X2275079Y4951580D1*
X2272506Y4955271D1*
X2270202Y4959135D1*
X2268181Y4963155D1*
X2266450Y4967308D1*
X2265020Y4971573D1*
X2263898Y4975930D1*
X2263090Y4980356D1*
X2262599Y4984828D1*
X2262427Y4993972D1*
Y5048486D1*
X2037433Y5048537D2*
X2037577Y5052876D1*
X2038047Y5057350D1*
X2038835Y5061780D1*
X2039937Y5066142D1*
X2041347Y5070414D1*
X2043057Y5074575D1*
X2045060Y5078604D1*
X2047345Y5082479D1*
X2049901Y5086182D1*
X2052714Y5089694D1*
X2055770Y5092995D1*
X2059054Y5096071D1*
X2062548Y5098904D1*
X2066236Y5101482D1*
X2070098Y5103789D1*
X2074115Y5105816D1*
X2078266Y5107551D1*
X2082530Y5108986D1*
X2086885Y5110113D1*
X2091310Y5110927D1*
X2095782Y5111423D1*
X2100277Y5111600D1*
X2104774Y5111455D1*
X2109249Y5110990D1*
X2113680Y5110208D1*
X2118043Y5109111D1*
X2122317Y5107707D1*
X2126480Y5106001D1*
X2130511Y5104003D1*
X2134389Y5101722D1*
X2138095Y5099171D1*
X2141610Y5096362D1*
X2144915Y5093310D1*
X2147994Y5090030D1*
X2150832Y5086539D1*
X2153414Y5082854D1*
X2155726Y5078995D1*
X2157757Y5074980D1*
X2159497Y5070831D1*
X2160937Y5066569D1*
X2162070Y5062215D1*
X2162889Y5057791D1*
X2163390Y5053320D1*
X2163573Y5044028D1*
X2163555Y4989472D1*
X2163412Y4984976D1*
X2162932Y4980503D1*
X2162133Y4976075D1*
X2161022Y4971716D1*
X2159602Y4967447D1*
X2157881Y4963290D1*
X2155869Y4959266D1*
X2153575Y4955396D1*
X2151010Y4951699D1*
X2148189Y4948194D1*
X2145125Y4944900D1*
X2141834Y4941832D1*
X2138333Y4939007D1*
X2134639Y4936438D1*
X2130772Y4934139D1*
X2125306Y4931522D1*
X2130511Y4929003D1*
X2134389Y4926722D1*
X2138095Y4924171D1*
X2141610Y4921362D1*
X2144915Y4918310D1*
X2147994Y4915030D1*
X2150832Y4911539D1*
X2153414Y4907854D1*
X2155726Y4903995D1*
X2157757Y4899980D1*
X2159497Y4895831D1*
X2160937Y4891569D1*
X2162070Y4887215D1*
X2162889Y4882791D1*
X2163390Y4878320D1*
X2163573Y4869027D1*
X2163555Y4814472D1*
X2163412Y4809976D1*
X2162932Y4805503D1*
X2162133Y4801075D1*
X2161022Y4796716D1*
X2159602Y4792447D1*
X2157881Y4788290D1*
X2155869Y4784266D1*
X2153575Y4780396D1*
X2151010Y4776699D1*
X2148189Y4773194D1*
X2145125Y4769900D1*
X2141834Y4766832D1*
X2138333Y4764007D1*
X2134639Y4761438D1*
X2130772Y4759139D1*
X2126750Y4757122D1*
X2122595Y4755397D1*
X2118328Y4753972D1*
X2113970Y4752855D1*
X2109543Y4752051D1*
X2105070Y4751566D1*
X2100574Y4751400D1*
X2096078Y4751555D1*
X2091604Y4752030D1*
X2087175Y4752823D1*
X2082815Y4753930D1*
X2078544Y4755345D1*
X2074385Y4757060D1*
X2070358Y4759068D1*
X2066486Y4761358D1*
X2062786Y4763918D1*
X2059278Y4766735D1*
X2055980Y4769795D1*
X2052908Y4773082D1*
X2050079Y4776580D1*
X2047506Y4780271D1*
X2045202Y4784135D1*
X2043181Y4788155D1*
X2041450Y4792308D1*
X2040020Y4796573D1*
X2038898Y4800930D1*
X2038090Y4805356D1*
X2037599Y4809828D1*
X2037427Y4818972D1*
Y4873439D1*
X2037577Y4877876D1*
X2038047Y4882350D1*
X2038835Y4886780D1*
X2039937Y4891142D1*
X2041347Y4895414D1*
X2043057Y4899575D1*
X2045060Y4903604D1*
X2047345Y4907479D1*
X2049901Y4911182D1*
X2052714Y4914694D1*
X2055770Y4917995D1*
X2059054Y4921071D1*
X2062548Y4923904D1*
X2066236Y4926482D1*
X2070098Y4928789D1*
X2075688Y4931474D1*
X2070358Y4934068D1*
X2066486Y4936358D1*
X2062786Y4938918D1*
X2059278Y4941735D1*
X2055980Y4944795D1*
X2052908Y4948082D1*
X2050079Y4951580D1*
X2047506Y4955271D1*
X2045202Y4959135D1*
X2043181Y4963155D1*
X2041450Y4967308D1*
X2040020Y4971573D1*
X2038898Y4975930D1*
X2038090Y4980356D1*
X2037599Y4984828D1*
X2037427Y4993972D1*
Y5048465D1*
X1467553Y4914501D2*
X1466929Y4905524D1*
X1465683Y4896613D1*
X1463823Y4887809D1*
X1461356Y4879156D1*
X1458295Y4870694D1*
X1454654Y4862466D1*
X1450451Y4854509D1*
X1445706Y4846864D1*
X1440442Y4839566D1*
X1434685Y4832650D1*
X1428462Y4826151D1*
X1421803Y4820099D1*
X1414740Y4814524D1*
X1407307Y4809452D1*
X1399541Y4804908D1*
X1391478Y4800914D1*
X1383157Y4797488D1*
X1374619Y4794648D1*
X1365904Y4792408D1*
X1357055Y4790777D1*
X1348114Y4789764D1*
X1339124Y4789374D1*
X1330129Y4789608D1*
X1321172Y4790466D1*
X1312296Y4791943D1*
X1303543Y4794032D1*
X1294957Y4796723D1*
X1286578Y4800004D1*
X1278447Y4803858D1*
X1270603Y4808266D1*
X1263084Y4813209D1*
X1255925Y4818661D1*
X1249162Y4824596D1*
X1242827Y4830986D1*
X1236951Y4837801D1*
X1231561Y4845006D1*
X1226685Y4852568D1*
X1222344Y4860451D1*
X1218561Y4868615D1*
X1215354Y4877022D1*
X1212737Y4885631D1*
X1210724Y4894402D1*
X1209324Y4903290D1*
X1208544Y4912255D1*
X1208388Y4921251D1*
X1208857Y4930237D1*
X1209947Y4939169D1*
X1211655Y4948004D1*
X1213972Y4956699D1*
X1216886Y4965212D1*
X1220383Y4973503D1*
X1224447Y4981531D1*
X1229059Y4989257D1*
X1234195Y4996646D1*
X1239832Y5003660D1*
X1245941Y5010266D1*
X1252494Y5016432D1*
X1259459Y5022129D1*
X1266803Y5027329D1*
X1274489Y5032007D1*
X1282482Y5036141D1*
X1290742Y5039710D1*
X1299230Y5042698D1*
X1307904Y5045089D1*
X1316724Y5046873D1*
X1325646Y5048041D1*
X1334628Y5048587D1*
X1343625Y5048509D1*
X1352596Y5047807D1*
X1361497Y5046484D1*
X1370284Y5044547D1*
X1378915Y5042005D1*
X1387350Y5038870D1*
X1395547Y5035158D1*
X1403466Y5030886D1*
X1411070Y5026075D1*
X1418322Y5020748D1*
X1425187Y5014931D1*
X1431632Y5008651D1*
X1437626Y5001940D1*
X1443139Y4994829D1*
X1448146Y4987352D1*
X1452623Y4979547D1*
X1456547Y4971449D1*
X1459900Y4963099D1*
X1462665Y4954536D1*
X1464830Y4945802D1*
X1466384Y4936939D1*
X1467319Y4927990D1*
X1467631Y4919000D1*
X1467553Y4914501D1*
X1341066Y4621901D2*
X1340575Y4617750D1*
X1339759Y4613651D1*
X1338625Y4609628D1*
X1337178Y4605707D1*
X1335428Y4601911D1*
X1333386Y4598265D1*
X1331064Y4594790D1*
X1328476Y4591507D1*
X1326781Y4589673D1*
X1339617Y4589614D1*
X1342639Y4589136D1*
X1345549Y4588190D1*
X1348275Y4586801D1*
X1350751Y4585003D1*
X1352915Y4582839D1*
X1354713Y4580363D1*
X1356102Y4577637D1*
X1357048Y4574727D1*
X1357527Y4571704D1*
X1357587Y4552175D1*
X1357527Y3068801D1*
X1357048Y3065779D1*
X1356102Y3062868D1*
X1354713Y3060142D1*
X1352915Y3057666D1*
X1350751Y3055503D1*
X1348275Y3053704D1*
X1345549Y3052315D1*
X1342639Y3051369D1*
X1339617Y3050891D1*
X1320087Y3050831D1*
X1236567Y3050891D1*
X1233545Y3051369D1*
X1230635Y3052315D1*
X1227908Y3053704D1*
X1225433Y3055503D1*
X1223269Y3057666D1*
X1221471Y3060142D1*
X1220081Y3062868D1*
X1219136Y3065779D1*
X1218657Y3068801D1*
X1218597Y3088331D1*
X1218657Y4571704D1*
X1219136Y4574727D1*
X1220081Y4577637D1*
X1221471Y4580363D1*
X1223269Y4582839D1*
X1225433Y4585003D1*
X1227908Y4586801D1*
X1230635Y4588190D1*
X1233545Y4589136D1*
X1236567Y4589615D1*
X1249154Y4589675D1*
X1244936Y4594790D1*
X1242614Y4598265D1*
X1240572Y4601911D1*
X1238822Y4605707D1*
X1237375Y4609628D1*
X1236241Y4613651D1*
X1235425Y4617750D1*
X1234934Y4621901D1*
X1234770Y4626077D1*
X1234934Y4630254D1*
X1235425Y4634404D1*
X1236241Y4638504D1*
X1237375Y4642526D1*
X1238822Y4646448D1*
X1240572Y4650243D1*
X1242614Y4653890D1*
X1244936Y4657365D1*
X1247524Y4660648D1*
X1250361Y4663717D1*
X1253430Y4666554D1*
X1256712Y4669141D1*
X1260187Y4671464D1*
X1263834Y4673506D1*
X1267630Y4675256D1*
X1271551Y4676702D1*
X1275574Y4677837D1*
X1279673Y4678652D1*
X1283824Y4679143D1*
X1288000Y4679308D1*
X1292176Y4679143D1*
X1296327Y4678652D1*
X1300426Y4677837D1*
X1304449Y4676702D1*
X1308370Y4675256D1*
X1312166Y4673506D1*
X1315813Y4671464D1*
X1319288Y4669141D1*
X1322570Y4666554D1*
X1325639Y4663717D1*
X1328476Y4660648D1*
X1331064Y4657365D1*
X1333386Y4653890D1*
X1335428Y4650243D1*
X1337178Y4646448D1*
X1338625Y4642526D1*
X1339759Y4638504D1*
X1340575Y4634404D1*
X1341066Y4630254D1*
X1341230Y4626077D1*
X1341066Y4621901D1*
X2741066D2*
X2740575Y4617750D1*
X2739759Y4613651D1*
X2738625Y4609628D1*
X2737178Y4605707D1*
X2735428Y4601911D1*
X2733386Y4598265D1*
X2731064Y4594790D1*
X2728476Y4591507D1*
X2726781Y4589673D1*
X2739618Y4589615D1*
X2742640Y4589136D1*
X2745550Y4588190D1*
X2748277Y4586801D1*
X2750752Y4585003D1*
X2752916Y4582839D1*
X2754715Y4580363D1*
X2756104Y4577637D1*
X2757049Y4574727D1*
X2757528Y4571705D1*
X2757588Y4552175D1*
X2757528Y3068801D1*
X2757049Y3065779D1*
X2756104Y3062868D1*
X2754714Y3060142D1*
X2752916Y3057666D1*
X2750752Y3055503D1*
X2748277Y3053704D1*
X2745550Y3052315D1*
X2742640Y3051369D1*
X2739618Y3050891D1*
X2720088Y3050831D1*
X2636568Y3050891D1*
X2633546Y3051369D1*
X2630636Y3052315D1*
X2627910Y3053704D1*
X2625434Y3055503D1*
X2623270Y3057666D1*
X2621472Y3060142D1*
X2620083Y3062868D1*
X2619137Y3065779D1*
X2618659Y3068801D1*
X2618598Y3088331D1*
X2618658Y4571705D1*
X2619137Y4574727D1*
X2620083Y4577637D1*
X2621472Y4580363D1*
X2623270Y4582839D1*
X2625434Y4585003D1*
X2627910Y4586801D1*
X2630636Y4588190D1*
X2633546Y4589136D1*
X2636568Y4589615D1*
X2649155Y4589675D1*
X2644936Y4594790D1*
X2642614Y4598265D1*
X2640572Y4601911D1*
X2638822Y4605707D1*
X2637375Y4609628D1*
X2636241Y4613651D1*
X2635425Y4617750D1*
X2634934Y4621901D1*
X2634770Y4626077D1*
X2634934Y4630254D1*
X2635425Y4634404D1*
X2636241Y4638504D1*
X2637375Y4642526D1*
X2638822Y4646448D1*
X2640572Y4650243D1*
X2642614Y4653890D1*
X2644936Y4657365D1*
X2647524Y4660648D1*
X2650361Y4663717D1*
X2653430Y4666554D1*
X2656712Y4669141D1*
X2660187Y4671464D1*
X2663834Y4673506D1*
X2667630Y4675256D1*
X2671551Y4676702D1*
X2675574Y4677837D1*
X2679673Y4678652D1*
X2683824Y4679143D1*
X2688000Y4679308D1*
X2692176Y4679143D1*
X2696327Y4678652D1*
X2700426Y4677837D1*
X2704449Y4676702D1*
X2708370Y4675256D1*
X2712166Y4673506D1*
X2715813Y4671464D1*
X2719288Y4669141D1*
X2722570Y4666554D1*
X2725639Y4663717D1*
X2728476Y4660648D1*
X2731064Y4657365D1*
X2733386Y4653890D1*
X2735428Y4650243D1*
X2737178Y4646448D1*
X2738625Y4642526D1*
X2739759Y4638504D1*
X2740575Y4634404D1*
X2741066Y4630254D1*
X2741230Y4626077D1*
X2741066Y4621901D1*
X2767553Y4914501D2*
X2766929Y4905524D1*
X2765683Y4896613D1*
X2763823Y4887809D1*
X2761356Y4879156D1*
X2758295Y4870694D1*
X2754654Y4862466D1*
X2750451Y4854509D1*
X2745706Y4846864D1*
X2740442Y4839566D1*
X2734685Y4832650D1*
X2728462Y4826151D1*
X2721803Y4820099D1*
X2714740Y4814524D1*
X2707307Y4809452D1*
X2699541Y4804908D1*
X2691478Y4800914D1*
X2683157Y4797488D1*
X2674619Y4794648D1*
X2665904Y4792408D1*
X2657055Y4790777D1*
X2648114Y4789764D1*
X2639124Y4789374D1*
X2630129Y4789608D1*
X2621172Y4790466D1*
X2612296Y4791943D1*
X2603543Y4794032D1*
X2594957Y4796723D1*
X2586578Y4800004D1*
X2578447Y4803858D1*
X2570603Y4808266D1*
X2563084Y4813209D1*
X2555925Y4818661D1*
X2549162Y4824596D1*
X2542827Y4830986D1*
X2536951Y4837801D1*
X2531561Y4845006D1*
X2526685Y4852568D1*
X2522344Y4860451D1*
X2518561Y4868615D1*
X2515354Y4877022D1*
X2512737Y4885631D1*
X2510724Y4894402D1*
X2509324Y4903290D1*
X2508544Y4912255D1*
X2508388Y4921251D1*
X2508857Y4930237D1*
X2509947Y4939169D1*
X2511655Y4948004D1*
X2513972Y4956699D1*
X2516886Y4965212D1*
X2520383Y4973503D1*
X2524447Y4981531D1*
X2529059Y4989257D1*
X2534195Y4996646D1*
X2539832Y5003660D1*
X2545941Y5010266D1*
X2552494Y5016432D1*
X2559459Y5022129D1*
X2566803Y5027329D1*
X2574489Y5032007D1*
X2582482Y5036141D1*
X2590742Y5039710D1*
X2599230Y5042698D1*
X2607904Y5045089D1*
X2616724Y5046873D1*
X2625646Y5048041D1*
X2634628Y5048587D1*
X2643625Y5048509D1*
X2652596Y5047807D1*
X2661497Y5046484D1*
X2670284Y5044547D1*
X2678915Y5042005D1*
X2687350Y5038870D1*
X2695547Y5035158D1*
X2703466Y5030886D1*
X2711070Y5026075D1*
X2718322Y5020748D1*
X2725187Y5014931D1*
X2731632Y5008651D1*
X2737626Y5001940D1*
X2743139Y4994829D1*
X2748146Y4987352D1*
X2752623Y4979547D1*
X2756547Y4971449D1*
X2759900Y4963099D1*
X2762665Y4954536D1*
X2764830Y4945802D1*
X2766384Y4936939D1*
X2767319Y4927990D1*
X2767631Y4919000D1*
X2767553Y4914501D1*
X2761802Y1039501D2*
X2761336Y1030514D1*
X2760406Y1021563D1*
X2759014Y1012672D1*
X2757164Y1003865D1*
X2754861Y995166D1*
X2752111Y986598D1*
X2748921Y978183D1*
X2745299Y969945D1*
X2741257Y961905D1*
X2736804Y954085D1*
X2731952Y946506D1*
X2726715Y939188D1*
X2721106Y932151D1*
X2715140Y925413D1*
X2708834Y918994D1*
X2702204Y912909D1*
X2695268Y907175D1*
X2688044Y901808D1*
X2680553Y896822D1*
X2672813Y892231D1*
X2664847Y888045D1*
X2656674Y884278D1*
X2648318Y880939D1*
X2639800Y878036D1*
X2631143Y875578D1*
X2622371Y873571D1*
X2613506Y872021D1*
X2604573Y870932D1*
X2595596Y870306D1*
X2586599Y870146D1*
X2577605Y870451D1*
X2568639Y871221D1*
X2559725Y872455D1*
X2550886Y874147D1*
X2542148Y876295D1*
X2533531Y878893D1*
X2525061Y881932D1*
X2516760Y885406D1*
X2508649Y889304D1*
X2500751Y893617D1*
X2493087Y898333D1*
X2485677Y903440D1*
X2478541Y908922D1*
X2471698Y914767D1*
X2465167Y920958D1*
X2458965Y927478D1*
X2453109Y934311D1*
X2447614Y941438D1*
X2442495Y948839D1*
X2437766Y956495D1*
X2433440Y964386D1*
X2429527Y972490D1*
X2426039Y980786D1*
X2422985Y989251D1*
X2420374Y997862D1*
X2418211Y1006597D1*
X2416503Y1015433D1*
X2415255Y1024345D1*
X2414469Y1033309D1*
X2414148Y1042303D1*
X2414293Y1051301D1*
X2414904Y1060279D1*
X2415978Y1069213D1*
X2417513Y1078081D1*
X2419505Y1086856D1*
X2421948Y1095517D1*
X2424836Y1104040D1*
X2428161Y1112402D1*
X2431915Y1120581D1*
X2436086Y1128555D1*
X2440665Y1136302D1*
X2445638Y1143802D1*
X2450993Y1151034D1*
X2456715Y1157980D1*
X2462788Y1164621D1*
X2469197Y1170938D1*
X2475924Y1176915D1*
X2482952Y1182536D1*
X2490261Y1187786D1*
X2497832Y1192651D1*
X2505644Y1197117D1*
X2513677Y1201173D1*
X2521909Y1204808D1*
X2530318Y1208013D1*
X2538882Y1210777D1*
X2547577Y1213096D1*
X2556381Y1214961D1*
X2565269Y1216368D1*
X2574219Y1217313D1*
X2583205Y1217794D1*
X2592204Y1217809D1*
X2601191Y1217359D1*
X2610144Y1216444D1*
X2619037Y1215067D1*
X2627847Y1213232D1*
X2636550Y1210944D1*
X2645123Y1208208D1*
X2653543Y1205032D1*
X2661787Y1201425D1*
X2669834Y1197396D1*
X2677662Y1192957D1*
X2685249Y1188118D1*
X2692576Y1182893D1*
X2699622Y1177296D1*
X2706370Y1171342D1*
X2712800Y1165046D1*
X2718896Y1158427D1*
X2724642Y1151500D1*
X2730021Y1144286D1*
X2735020Y1136803D1*
X2739625Y1129072D1*
X2743824Y1121112D1*
X2747605Y1112946D1*
X2750959Y1104595D1*
X2753876Y1096082D1*
X2756348Y1087430D1*
X2758370Y1078661D1*
X2759935Y1069799D1*
X2761040Y1060868D1*
X2761681Y1051892D1*
X2761860Y1044000D1*
X2761802Y1039501D1*
X1961802D2*
X1961336Y1030514D1*
X1960406Y1021563D1*
X1959014Y1012672D1*
X1957164Y1003865D1*
X1954861Y995166D1*
X1952111Y986598D1*
X1948921Y978183D1*
X1945299Y969945D1*
X1941257Y961905D1*
X1936804Y954085D1*
X1931952Y946506D1*
X1926715Y939188D1*
X1921106Y932151D1*
X1915140Y925413D1*
X1908834Y918994D1*
X1902204Y912909D1*
X1895268Y907175D1*
X1888044Y901808D1*
X1880553Y896822D1*
X1872813Y892231D1*
X1864847Y888045D1*
X1856674Y884278D1*
X1848318Y880939D1*
X1839800Y878036D1*
X1831143Y875578D1*
X1822371Y873571D1*
X1813506Y872021D1*
X1804573Y870932D1*
X1795596Y870306D1*
X1786599Y870146D1*
X1777605Y870451D1*
X1768639Y871221D1*
X1759725Y872455D1*
X1750886Y874147D1*
X1742148Y876295D1*
X1733531Y878893D1*
X1725061Y881932D1*
X1716760Y885406D1*
X1708649Y889304D1*
X1700751Y893617D1*
X1693087Y898333D1*
X1685677Y903440D1*
X1678541Y908922D1*
X1671698Y914767D1*
X1665167Y920958D1*
X1658965Y927478D1*
X1653109Y934311D1*
X1647614Y941438D1*
X1642495Y948839D1*
X1637766Y956495D1*
X1633440Y964386D1*
X1629527Y972490D1*
X1626039Y980786D1*
X1622985Y989251D1*
X1620374Y997862D1*
X1618211Y1006597D1*
X1616503Y1015433D1*
X1615255Y1024345D1*
X1614469Y1033309D1*
X1614148Y1042303D1*
X1614293Y1051301D1*
X1614904Y1060279D1*
X1615978Y1069213D1*
X1617513Y1078081D1*
X1619505Y1086856D1*
X1621948Y1095517D1*
X1624836Y1104040D1*
X1628161Y1112402D1*
X1631915Y1120581D1*
X1636086Y1128555D1*
X1640665Y1136302D1*
X1645638Y1143802D1*
X1650993Y1151034D1*
X1656715Y1157980D1*
X1662788Y1164621D1*
X1669197Y1170938D1*
X1675924Y1176915D1*
X1682952Y1182536D1*
X1690261Y1187786D1*
X1697832Y1192651D1*
X1705644Y1197117D1*
X1713677Y1201173D1*
X1721909Y1204808D1*
X1730318Y1208013D1*
X1738882Y1210777D1*
X1747577Y1213096D1*
X1756381Y1214961D1*
X1765269Y1216368D1*
X1774219Y1217313D1*
X1783205Y1217794D1*
X1792204Y1217809D1*
X1801191Y1217359D1*
X1810144Y1216444D1*
X1819037Y1215067D1*
X1827847Y1213232D1*
X1836550Y1210944D1*
X1845123Y1208208D1*
X1853543Y1205032D1*
X1861787Y1201425D1*
X1869834Y1197396D1*
X1877662Y1192957D1*
X1885249Y1188118D1*
X1892576Y1182893D1*
X1899622Y1177296D1*
X1906370Y1171342D1*
X1912800Y1165046D1*
X1918896Y1158427D1*
X1924642Y1151500D1*
X1930021Y1144286D1*
X1935020Y1136803D1*
X1939625Y1129072D1*
X1943824Y1121112D1*
X1947605Y1112946D1*
X1950959Y1104595D1*
X1953876Y1096082D1*
X1956348Y1087430D1*
X1958370Y1078661D1*
X1959935Y1069799D1*
X1961040Y1060868D1*
X1961681Y1051892D1*
X1961860Y1044000D1*
X1961802Y1039501D1*
X1161551D2*
X1161085Y1030514D1*
X1160155Y1021563D1*
X1158764Y1012672D1*
X1156913Y1003865D1*
X1154610Y995166D1*
X1151860Y986598D1*
X1148670Y978183D1*
X1145049Y969945D1*
X1141006Y961905D1*
X1136553Y954085D1*
X1131701Y946506D1*
X1126464Y939188D1*
X1120855Y932151D1*
X1114889Y925413D1*
X1108583Y918994D1*
X1101953Y912909D1*
X1095017Y907175D1*
X1087794Y901808D1*
X1080302Y896822D1*
X1072563Y892231D1*
X1064596Y888045D1*
X1056424Y884278D1*
X1048067Y880939D1*
X1039549Y878036D1*
X1030892Y875578D1*
X1022120Y873571D1*
X1013256Y872021D1*
X1004323Y870932D1*
X995346Y870306D1*
X986348Y870146D1*
X977354Y870451D1*
X968388Y871221D1*
X959474Y872455D1*
X950636Y874147D1*
X941897Y876295D1*
X933281Y878893D1*
X924811Y881932D1*
X916509Y885406D1*
X908399Y889304D1*
X900500Y893617D1*
X892836Y898333D1*
X885426Y903440D1*
X878290Y908922D1*
X871448Y914767D1*
X864916Y920958D1*
X858714Y927478D1*
X852858Y934311D1*
X847363Y941438D1*
X842244Y948839D1*
X837515Y956495D1*
X833189Y964386D1*
X829277Y972490D1*
X825789Y980786D1*
X822735Y989251D1*
X820123Y997862D1*
X817960Y1006597D1*
X816252Y1015433D1*
X815004Y1024345D1*
X814218Y1033309D1*
X813898Y1042303D1*
X814043Y1051301D1*
X814653Y1060279D1*
X815727Y1069213D1*
X817262Y1078081D1*
X819254Y1086856D1*
X821697Y1095517D1*
X824585Y1104040D1*
X827911Y1112402D1*
X831664Y1120581D1*
X835836Y1128555D1*
X840414Y1136302D1*
X845388Y1143802D1*
X850742Y1151034D1*
X856464Y1157980D1*
X862538Y1164621D1*
X868947Y1170938D1*
X875674Y1176915D1*
X882701Y1182536D1*
X890010Y1187786D1*
X897581Y1192651D1*
X905393Y1197117D1*
X913426Y1201173D1*
X921659Y1204808D1*
X930068Y1208013D1*
X938631Y1210777D1*
X947327Y1213096D1*
X956130Y1214961D1*
X965019Y1216368D1*
X973968Y1217313D1*
X982954Y1217794D1*
X991953Y1217809D1*
X1000941Y1217359D1*
X1009893Y1216444D1*
X1018786Y1215067D1*
X1027596Y1213232D1*
X1036299Y1210944D1*
X1044872Y1208208D1*
X1053292Y1205032D1*
X1061537Y1201425D1*
X1069584Y1197396D1*
X1077411Y1192957D1*
X1084998Y1188118D1*
X1092325Y1182893D1*
X1099372Y1177296D1*
X1106119Y1171342D1*
X1112550Y1165046D1*
X1118646Y1158427D1*
X1124391Y1151500D1*
X1129770Y1144286D1*
X1134769Y1136803D1*
X1139374Y1129072D1*
X1143573Y1121112D1*
X1147354Y1112946D1*
X1150708Y1104595D1*
X1153625Y1096082D1*
X1156098Y1087430D1*
X1158119Y1078661D1*
X1159685Y1069799D1*
X1160789Y1060868D1*
X1161430Y1051892D1*
X1161609Y1044000D1*
X1161551Y1039501D1*
Y1515318D2*
X1161085Y1506331D1*
X1160155Y1497380D1*
X1158764Y1488490D1*
X1156913Y1479683D1*
X1154610Y1470984D1*
X1151860Y1462415D1*
X1148670Y1454001D1*
X1145049Y1445762D1*
X1141006Y1437722D1*
X1136553Y1429902D1*
X1131701Y1422323D1*
X1126464Y1415006D1*
X1120855Y1407968D1*
X1114889Y1401231D1*
X1108583Y1394811D1*
X1101953Y1388727D1*
X1095017Y1382993D1*
X1087794Y1377626D1*
X1080302Y1372640D1*
X1072563Y1368048D1*
X1064596Y1363863D1*
X1056424Y1360096D1*
X1048067Y1356756D1*
X1039549Y1353854D1*
X1030892Y1351396D1*
X1022120Y1349389D1*
X1013256Y1347839D1*
X1004323Y1346749D1*
X995346Y1346124D1*
X986348Y1345963D1*
X977354Y1346269D1*
X968388Y1347039D1*
X959474Y1348272D1*
X950636Y1349965D1*
X941897Y1352113D1*
X933281Y1354710D1*
X924811Y1357750D1*
X916509Y1361223D1*
X908399Y1365122D1*
X900500Y1369435D1*
X892836Y1374151D1*
X885426Y1379257D1*
X878290Y1384740D1*
X871448Y1390585D1*
X864916Y1396775D1*
X858714Y1403296D1*
X852858Y1410129D1*
X847363Y1417255D1*
X842244Y1424657D1*
X837515Y1432313D1*
X833189Y1440204D1*
X829277Y1448308D1*
X825789Y1456603D1*
X822735Y1465068D1*
X820123Y1473680D1*
X817960Y1482415D1*
X816252Y1491250D1*
X815004Y1500162D1*
X814218Y1509127D1*
X813898Y1518120D1*
X814043Y1527118D1*
X814653Y1536096D1*
X815727Y1545031D1*
X817262Y1553898D1*
X819254Y1562674D1*
X821697Y1571335D1*
X824585Y1579858D1*
X827911Y1588220D1*
X831664Y1596399D1*
X835836Y1604373D1*
X840414Y1612120D1*
X845388Y1619620D1*
X850742Y1626852D1*
X856464Y1633798D1*
X862538Y1640438D1*
X868947Y1646755D1*
X875674Y1652733D1*
X882701Y1658354D1*
X890010Y1663603D1*
X897581Y1668468D1*
X905393Y1672935D1*
X913426Y1676991D1*
X921659Y1680626D1*
X930068Y1683830D1*
X938631Y1686595D1*
X947327Y1688913D1*
X956130Y1690778D1*
X965019Y1692185D1*
X973968Y1693131D1*
X982954Y1693611D1*
X991953Y1693627D1*
X1000941Y1693176D1*
X1009893Y1692262D1*
X1018786Y1690885D1*
X1027596Y1689050D1*
X1036299Y1686761D1*
X1044872Y1684026D1*
X1053292Y1680850D1*
X1061537Y1677243D1*
X1069584Y1673214D1*
X1077411Y1668774D1*
X1084998Y1663935D1*
X1092325Y1658710D1*
X1099372Y1653113D1*
X1106119Y1647159D1*
X1112550Y1640864D1*
X1118646Y1634244D1*
X1124391Y1627318D1*
X1129770Y1620104D1*
X1134769Y1612621D1*
X1139374Y1604889D1*
X1143573Y1596930D1*
X1147354Y1588764D1*
X1150708Y1580413D1*
X1153625Y1571900D1*
X1156098Y1563247D1*
X1158119Y1554478D1*
X1159685Y1545617D1*
X1160789Y1536686D1*
X1161430Y1527709D1*
X1161609Y1519818D1*
X1161551Y1515318D1*
X1561802Y1514501D2*
X1561336Y1505514D1*
X1560406Y1496563D1*
X1559014Y1487672D1*
X1557164Y1478865D1*
X1554861Y1470166D1*
X1552111Y1461598D1*
X1548921Y1453183D1*
X1545299Y1444945D1*
X1541257Y1436905D1*
X1536804Y1429085D1*
X1531952Y1421506D1*
X1526715Y1414188D1*
X1521106Y1407151D1*
X1515140Y1400413D1*
X1508834Y1393994D1*
X1502204Y1387909D1*
X1495268Y1382175D1*
X1488044Y1376808D1*
X1480553Y1371822D1*
X1472813Y1367231D1*
X1464847Y1363045D1*
X1456674Y1359278D1*
X1448318Y1355939D1*
X1439800Y1353036D1*
X1431143Y1350578D1*
X1422371Y1348571D1*
X1413506Y1347021D1*
X1404573Y1345932D1*
X1395596Y1345306D1*
X1386599Y1345146D1*
X1377605Y1345451D1*
X1368639Y1346221D1*
X1359725Y1347455D1*
X1350886Y1349147D1*
X1342148Y1351295D1*
X1333531Y1353893D1*
X1325061Y1356932D1*
X1316760Y1360406D1*
X1308649Y1364304D1*
X1300751Y1368617D1*
X1293087Y1373333D1*
X1285677Y1378440D1*
X1278541Y1383922D1*
X1271698Y1389767D1*
X1265167Y1395958D1*
X1258965Y1402478D1*
X1253109Y1409311D1*
X1247614Y1416438D1*
X1242495Y1423839D1*
X1237766Y1431495D1*
X1233440Y1439386D1*
X1229527Y1447490D1*
X1226039Y1455786D1*
X1222985Y1464251D1*
X1220374Y1472862D1*
X1218211Y1481597D1*
X1216503Y1490433D1*
X1215255Y1499345D1*
X1214469Y1508309D1*
X1214148Y1517303D1*
X1214293Y1526301D1*
X1214904Y1535279D1*
X1215978Y1544213D1*
X1217513Y1553081D1*
X1219505Y1561856D1*
X1221948Y1570517D1*
X1224836Y1579040D1*
X1228161Y1587402D1*
X1231915Y1595581D1*
X1236086Y1603555D1*
X1240665Y1611302D1*
X1245638Y1618802D1*
X1250993Y1626034D1*
X1256715Y1632980D1*
X1262788Y1639621D1*
X1269197Y1645938D1*
X1275924Y1651915D1*
X1282952Y1657536D1*
X1290261Y1662786D1*
X1297832Y1667651D1*
X1305644Y1672117D1*
X1313677Y1676173D1*
X1321909Y1679808D1*
X1330318Y1683013D1*
X1338882Y1685777D1*
X1347577Y1688096D1*
X1356381Y1689961D1*
X1365269Y1691368D1*
X1374219Y1692313D1*
X1383205Y1692794D1*
X1392204Y1692809D1*
X1401191Y1692359D1*
X1410144Y1691444D1*
X1419037Y1690067D1*
X1427847Y1688232D1*
X1436550Y1685944D1*
X1445123Y1683208D1*
X1453543Y1680032D1*
X1461787Y1676425D1*
X1469834Y1672396D1*
X1477662Y1667957D1*
X1485249Y1663118D1*
X1492576Y1657893D1*
X1499622Y1652296D1*
X1506370Y1646342D1*
X1512800Y1640046D1*
X1518896Y1633427D1*
X1524642Y1626500D1*
X1530021Y1619286D1*
X1535020Y1611803D1*
X1539625Y1604072D1*
X1543824Y1596112D1*
X1547605Y1587946D1*
X1550959Y1579595D1*
X1553876Y1571082D1*
X1556348Y1562430D1*
X1558370Y1553661D1*
X1559935Y1544799D1*
X1561040Y1535868D1*
X1561681Y1526892D1*
X1561860Y1519000D1*
X1561802Y1514501D1*
X2361802Y1039501D2*
X2361336Y1030514D1*
X2360406Y1021563D1*
X2359014Y1012672D1*
X2357164Y1003865D1*
X2354861Y995166D1*
X2352111Y986598D1*
X2348921Y978183D1*
X2345299Y969945D1*
X2341257Y961905D1*
X2336804Y954085D1*
X2331952Y946506D1*
X2326715Y939188D1*
X2321106Y932151D1*
X2315140Y925413D1*
X2308834Y918994D1*
X2302204Y912909D1*
X2295268Y907175D1*
X2288044Y901808D1*
X2280553Y896822D1*
X2272813Y892231D1*
X2264847Y888045D1*
X2256674Y884278D1*
X2248318Y880939D1*
X2239800Y878036D1*
X2231143Y875578D1*
X2222371Y873571D1*
X2213506Y872021D1*
X2204573Y870932D1*
X2195596Y870306D1*
X2186599Y870146D1*
X2177605Y870451D1*
X2168639Y871221D1*
X2159725Y872455D1*
X2150886Y874147D1*
X2142148Y876295D1*
X2133531Y878893D1*
X2125061Y881932D1*
X2116760Y885406D1*
X2108649Y889304D1*
X2100751Y893617D1*
X2093087Y898333D1*
X2085677Y903440D1*
X2078541Y908922D1*
X2071698Y914767D1*
X2065167Y920958D1*
X2058965Y927478D1*
X2053109Y934311D1*
X2047614Y941438D1*
X2042495Y948839D1*
X2037766Y956495D1*
X2033440Y964386D1*
X2029527Y972490D1*
X2026039Y980786D1*
X2022985Y989251D1*
X2020374Y997862D1*
X2018211Y1006597D1*
X2016503Y1015433D1*
X2015255Y1024345D1*
X2014469Y1033309D1*
X2014148Y1042303D1*
X2014293Y1051301D1*
X2014904Y1060279D1*
X2015978Y1069213D1*
X2017513Y1078081D1*
X2019505Y1086856D1*
X2021948Y1095517D1*
X2024836Y1104040D1*
X2028161Y1112402D1*
X2031915Y1120581D1*
X2036086Y1128555D1*
X2040665Y1136302D1*
X2045638Y1143802D1*
X2050993Y1151034D1*
X2056715Y1157980D1*
X2062788Y1164621D1*
X2069197Y1170938D1*
X2075924Y1176915D1*
X2082952Y1182536D1*
X2090261Y1187786D1*
X2097832Y1192651D1*
X2105644Y1197117D1*
X2113677Y1201173D1*
X2121909Y1204808D1*
X2130318Y1208013D1*
X2138882Y1210777D1*
X2147577Y1213096D1*
X2156381Y1214961D1*
X2165269Y1216368D1*
X2174219Y1217313D1*
X2183205Y1217794D1*
X2192204Y1217809D1*
X2201191Y1217359D1*
X2210144Y1216444D1*
X2219037Y1215067D1*
X2227847Y1213232D1*
X2236550Y1210944D1*
X2245123Y1208208D1*
X2253543Y1205032D1*
X2261787Y1201425D1*
X2269834Y1197396D1*
X2277662Y1192957D1*
X2285249Y1188118D1*
X2292576Y1182893D1*
X2299622Y1177296D1*
X2306370Y1171342D1*
X2312800Y1165046D1*
X2318896Y1158427D1*
X2324642Y1151500D1*
X2330021Y1144286D1*
X2335020Y1136803D1*
X2339625Y1129072D1*
X2343824Y1121112D1*
X2347605Y1112946D1*
X2350959Y1104595D1*
X2353876Y1096082D1*
X2356348Y1087430D1*
X2358370Y1078661D1*
X2359935Y1069799D1*
X2361040Y1060868D1*
X2361681Y1051892D1*
X2361860Y1044000D1*
X2361802Y1039501D1*
X1961802Y1514501D2*
X1961336Y1505514D1*
X1960406Y1496563D1*
X1959014Y1487672D1*
X1957164Y1478865D1*
X1954861Y1470166D1*
X1952111Y1461598D1*
X1948921Y1453183D1*
X1945299Y1444945D1*
X1941257Y1436905D1*
X1936804Y1429085D1*
X1931952Y1421506D1*
X1926715Y1414188D1*
X1921106Y1407151D1*
X1915140Y1400413D1*
X1908834Y1393994D1*
X1902204Y1387909D1*
X1895268Y1382175D1*
X1888044Y1376808D1*
X1880553Y1371822D1*
X1872813Y1367231D1*
X1864847Y1363045D1*
X1856674Y1359278D1*
X1848318Y1355939D1*
X1839800Y1353036D1*
X1831143Y1350578D1*
X1822371Y1348571D1*
X1813506Y1347021D1*
X1804573Y1345932D1*
X1795596Y1345306D1*
X1786599Y1345146D1*
X1777605Y1345451D1*
X1768639Y1346221D1*
X1759725Y1347455D1*
X1750886Y1349147D1*
X1742148Y1351295D1*
X1733531Y1353893D1*
X1725061Y1356932D1*
X1716760Y1360406D1*
X1708649Y1364304D1*
X1700751Y1368617D1*
X1693087Y1373333D1*
X1685677Y1378440D1*
X1678541Y1383922D1*
X1671698Y1389767D1*
X1665167Y1395958D1*
X1658965Y1402478D1*
X1653109Y1409311D1*
X1647614Y1416438D1*
X1642495Y1423839D1*
X1637766Y1431495D1*
X1633440Y1439386D1*
X1629527Y1447490D1*
X1626039Y1455786D1*
X1622985Y1464251D1*
X1620374Y1472862D1*
X1618211Y1481597D1*
X1616503Y1490433D1*
X1615255Y1499345D1*
X1614469Y1508309D1*
X1614148Y1517303D1*
X1614293Y1526301D1*
X1614904Y1535279D1*
X1615978Y1544213D1*
X1617513Y1553081D1*
X1619505Y1561856D1*
X1621948Y1570517D1*
X1624836Y1579040D1*
X1628161Y1587402D1*
X1631915Y1595581D1*
X1636086Y1603555D1*
X1640665Y1611302D1*
X1645638Y1618802D1*
X1650993Y1626034D1*
X1656715Y1632980D1*
X1662788Y1639621D1*
X1669197Y1645938D1*
X1675924Y1651915D1*
X1682952Y1657536D1*
X1690261Y1662786D1*
X1697832Y1667651D1*
X1705644Y1672117D1*
X1713677Y1676173D1*
X1721909Y1679808D1*
X1730318Y1683013D1*
X1738882Y1685777D1*
X1747577Y1688096D1*
X1756381Y1689961D1*
X1765269Y1691368D1*
X1774219Y1692313D1*
X1783205Y1692794D1*
X1792204Y1692809D1*
X1801191Y1692359D1*
X1810144Y1691444D1*
X1819037Y1690067D1*
X1827847Y1688232D1*
X1836550Y1685944D1*
X1845123Y1683208D1*
X1853543Y1680032D1*
X1861787Y1676425D1*
X1869834Y1672396D1*
X1877662Y1667957D1*
X1885249Y1663118D1*
X1892576Y1657893D1*
X1899622Y1652296D1*
X1906370Y1646342D1*
X1912800Y1640046D1*
X1918896Y1633427D1*
X1924642Y1626500D1*
X1930021Y1619286D1*
X1935020Y1611803D1*
X1939625Y1604072D1*
X1943824Y1596112D1*
X1947605Y1587946D1*
X1950959Y1579595D1*
X1953876Y1571082D1*
X1956348Y1562430D1*
X1958370Y1553661D1*
X1959935Y1544799D1*
X1961040Y1535868D1*
X1961681Y1526892D1*
X1961860Y1519000D1*
X1961802Y1514501D1*
X2361802D2*
X2361336Y1505514D1*
X2360406Y1496563D1*
X2359014Y1487672D1*
X2357164Y1478865D1*
X2354861Y1470166D1*
X2352111Y1461598D1*
X2348921Y1453183D1*
X2345299Y1444945D1*
X2341257Y1436905D1*
X2336804Y1429085D1*
X2331952Y1421506D1*
X2326715Y1414188D1*
X2321106Y1407151D1*
X2315140Y1400413D1*
X2308834Y1393994D1*
X2302204Y1387909D1*
X2295268Y1382175D1*
X2288044Y1376808D1*
X2280553Y1371822D1*
X2272813Y1367231D1*
X2264847Y1363045D1*
X2256674Y1359278D1*
X2248318Y1355939D1*
X2239800Y1353036D1*
X2231143Y1350578D1*
X2222371Y1348571D1*
X2213506Y1347021D1*
X2204573Y1345932D1*
X2195596Y1345306D1*
X2186599Y1345146D1*
X2177605Y1345451D1*
X2168639Y1346221D1*
X2159725Y1347455D1*
X2150886Y1349147D1*
X2142148Y1351295D1*
X2133531Y1353893D1*
X2125061Y1356932D1*
X2116760Y1360406D1*
X2108649Y1364304D1*
X2100751Y1368617D1*
X2093087Y1373333D1*
X2085677Y1378440D1*
X2078541Y1383922D1*
X2071698Y1389767D1*
X2065167Y1395958D1*
X2058965Y1402478D1*
X2053109Y1409311D1*
X2047614Y1416438D1*
X2042495Y1423839D1*
X2037766Y1431495D1*
X2033440Y1439386D1*
X2029527Y1447490D1*
X2026039Y1455786D1*
X2022985Y1464251D1*
X2020374Y1472862D1*
X2018211Y1481597D1*
X2016503Y1490433D1*
X2015255Y1499345D1*
X2014469Y1508309D1*
X2014148Y1517303D1*
X2014293Y1526301D1*
X2014904Y1535279D1*
X2015978Y1544213D1*
X2017513Y1553081D1*
X2019505Y1561856D1*
X2021948Y1570517D1*
X2024836Y1579040D1*
X2028161Y1587402D1*
X2031915Y1595581D1*
X2036086Y1603555D1*
X2040665Y1611302D1*
X2045638Y1618802D1*
X2050993Y1626034D1*
X2056715Y1632980D1*
X2062788Y1639621D1*
X2069197Y1645938D1*
X2075924Y1651915D1*
X2082952Y1657536D1*
X2090261Y1662786D1*
X2097832Y1667651D1*
X2105644Y1672117D1*
X2113677Y1676173D1*
X2121909Y1679808D1*
X2130318Y1683013D1*
X2138882Y1685777D1*
X2147577Y1688096D1*
X2156381Y1689961D1*
X2165269Y1691368D1*
X2174219Y1692313D1*
X2183205Y1692794D1*
X2192204Y1692809D1*
X2201191Y1692359D1*
X2210144Y1691444D1*
X2219037Y1690067D1*
X2227847Y1688232D1*
X2236550Y1685944D1*
X2245123Y1683208D1*
X2253543Y1680032D1*
X2261787Y1676425D1*
X2269834Y1672396D1*
X2277662Y1667957D1*
X2285249Y1663118D1*
X2292576Y1657893D1*
X2299622Y1652296D1*
X2306370Y1646342D1*
X2312800Y1640046D1*
X2318896Y1633427D1*
X2324642Y1626500D1*
X2330021Y1619286D1*
X2335020Y1611803D1*
X2339625Y1604072D1*
X2343824Y1596112D1*
X2347605Y1587946D1*
X2350959Y1579595D1*
X2353876Y1571082D1*
X2356348Y1562430D1*
X2358370Y1553661D1*
X2359935Y1544799D1*
X2361040Y1535868D1*
X2361681Y1526892D1*
X2361860Y1519000D1*
X2361802Y1514501D1*
X2761802D2*
X2761336Y1505514D1*
X2760406Y1496563D1*
X2759014Y1487672D1*
X2757164Y1478865D1*
X2754861Y1470166D1*
X2752111Y1461598D1*
X2748921Y1453183D1*
X2745299Y1444945D1*
X2741257Y1436905D1*
X2736804Y1429085D1*
X2731952Y1421506D1*
X2726715Y1414188D1*
X2721106Y1407151D1*
X2715140Y1400413D1*
X2708834Y1393994D1*
X2702204Y1387909D1*
X2695268Y1382175D1*
X2688044Y1376808D1*
X2680553Y1371822D1*
X2672813Y1367231D1*
X2664847Y1363045D1*
X2656674Y1359278D1*
X2648318Y1355939D1*
X2639800Y1353036D1*
X2631143Y1350578D1*
X2622371Y1348571D1*
X2613506Y1347021D1*
X2604573Y1345932D1*
X2595596Y1345306D1*
X2586599Y1345146D1*
X2577605Y1345451D1*
X2568639Y1346221D1*
X2559725Y1347455D1*
X2550886Y1349147D1*
X2542148Y1351295D1*
X2533531Y1353893D1*
X2525061Y1356932D1*
X2516760Y1360406D1*
X2508649Y1364304D1*
X2500751Y1368617D1*
X2493087Y1373333D1*
X2485677Y1378440D1*
X2478541Y1383922D1*
X2471698Y1389767D1*
X2465167Y1395958D1*
X2458965Y1402478D1*
X2453109Y1409311D1*
X2447614Y1416438D1*
X2442495Y1423839D1*
X2437766Y1431495D1*
X2433440Y1439386D1*
X2429527Y1447490D1*
X2426039Y1455786D1*
X2422985Y1464251D1*
X2420374Y1472862D1*
X2418211Y1481597D1*
X2416503Y1490433D1*
X2415255Y1499345D1*
X2414469Y1508309D1*
X2414148Y1517303D1*
X2414293Y1526301D1*
X2414904Y1535279D1*
X2415978Y1544213D1*
X2417513Y1553081D1*
X2419505Y1561856D1*
X2421948Y1570517D1*
X2424836Y1579040D1*
X2428161Y1587402D1*
X2431915Y1595581D1*
X2436086Y1603555D1*
X2440665Y1611302D1*
X2445638Y1618802D1*
X2450993Y1626034D1*
X2456715Y1632980D1*
X2462788Y1639621D1*
X2469197Y1645938D1*
X2475924Y1651915D1*
X2482952Y1657536D1*
X2490261Y1662786D1*
X2497832Y1667651D1*
X2505644Y1672117D1*
X2513677Y1676173D1*
X2521909Y1679808D1*
X2530318Y1683013D1*
X2538882Y1685777D1*
X2547577Y1688096D1*
X2556381Y1689961D1*
X2565269Y1691368D1*
X2574219Y1692313D1*
X2583205Y1692794D1*
X2592204Y1692809D1*
X2601191Y1692359D1*
X2610144Y1691444D1*
X2619037Y1690067D1*
X2627847Y1688232D1*
X2636550Y1685944D1*
X2645123Y1683208D1*
X2653543Y1680032D1*
X2661787Y1676425D1*
X2669834Y1672396D1*
X2677662Y1667957D1*
X2685249Y1663118D1*
X2692576Y1657893D1*
X2699622Y1652296D1*
X2706370Y1646342D1*
X2712800Y1640046D1*
X2718896Y1633427D1*
X2724642Y1626500D1*
X2730021Y1619286D1*
X2735020Y1611803D1*
X2739625Y1604072D1*
X2743824Y1596112D1*
X2747605Y1587946D1*
X2750959Y1579595D1*
X2753876Y1571082D1*
X2756348Y1562430D1*
X2758370Y1553661D1*
X2759935Y1544799D1*
X2761040Y1535868D1*
X2761681Y1526892D1*
X2761860Y1519000D1*
X2761802Y1514501D1*
X3196066Y414502D2*
X3190698Y416346D1*
X3182432Y419899D1*
X3174509Y424163D1*
X3166991Y429106D1*
X3159936Y434689D1*
X3153398Y440870D1*
X3147428Y447601D1*
X3142071Y454829D1*
X3137369Y462500D1*
X3133359Y470554D1*
X3130070Y478928D1*
X3127529Y487559D1*
X3125755Y496379D1*
X3124762Y505322D1*
X3124557Y514316D1*
X3125142Y523294D1*
X3126512Y532186D1*
X3128658Y540924D1*
X3131562Y549440D1*
X3135202Y557668D1*
X3139549Y565544D1*
X3144571Y573009D1*
X3150229Y580005D1*
X3156479Y586477D1*
X3163272Y592376D1*
X3170557Y597656D1*
X3178277Y602277D1*
X3186373Y606202D1*
X3194782Y609402D1*
X3203439Y611852D1*
X3212278Y613532D1*
X3221230Y614431D1*
X3231476Y614592D1*
X3352273Y614541D1*
X3361245Y613861D1*
X3370122Y612396D1*
X3378836Y610158D1*
X3387321Y607165D1*
X3395510Y603438D1*
X3403340Y599007D1*
X3410752Y593906D1*
X3417687Y588175D1*
X3424093Y581857D1*
X3429919Y575002D1*
X3435122Y567661D1*
X3439661Y559893D1*
X3443500Y551756D1*
X3446611Y543314D1*
X3448969Y534631D1*
X3450556Y525775D1*
X3451360Y516814D1*
X3451367Y507651D1*
X3450578Y498689D1*
X3449005Y489830D1*
X3446661Y481144D1*
X3443564Y472696D1*
X3439738Y464553D1*
X3435212Y456778D1*
X3430021Y449429D1*
X3424206Y442564D1*
X3417810Y436236D1*
X3410884Y430493D1*
X3403481Y425380D1*
X3395658Y420937D1*
X3387475Y417197D1*
X3380000Y414500D1*
X3561494D1*
X3561500Y1037838D1*
X3561085Y1030514D1*
X3560155Y1021563D1*
X3558764Y1012672D1*
X3556913Y1003865D1*
X3554610Y995166D1*
X3551860Y986598D1*
X3548670Y978183D1*
X3545049Y969945D1*
X3541006Y961905D1*
X3536553Y954085D1*
X3531701Y946506D1*
X3526464Y939188D1*
X3520855Y932151D1*
X3514889Y925413D1*
X3508583Y918994D1*
X3501953Y912909D1*
X3495017Y907175D1*
X3487794Y901808D1*
X3480302Y896822D1*
X3472563Y892231D1*
X3464596Y888045D1*
X3456424Y884278D1*
X3448067Y880939D1*
X3439549Y878036D1*
X3430892Y875578D1*
X3422120Y873571D1*
X3413256Y872021D1*
X3404323Y870932D1*
X3395346Y870306D1*
X3386348Y870146D1*
X3377354Y870451D1*
X3368388Y871221D1*
X3359474Y872455D1*
X3350636Y874147D1*
X3341897Y876295D1*
X3333281Y878893D1*
X3324811Y881932D1*
X3316509Y885406D1*
X3308399Y889304D1*
X3300500Y893617D1*
X3292836Y898333D1*
X3285426Y903440D1*
X3278290Y908922D1*
X3271448Y914767D1*
X3264916Y920958D1*
X3258714Y927478D1*
X3252858Y934311D1*
X3247363Y941438D1*
X3242244Y948839D1*
X3237515Y956495D1*
X3233189Y964386D1*
X3229277Y972490D1*
X3225789Y980786D1*
X3222735Y989251D1*
X3220123Y997862D1*
X3217960Y1006597D1*
X3216252Y1015433D1*
X3215004Y1024345D1*
X3214218Y1033309D1*
X3213898Y1042303D1*
X3214043Y1051301D1*
X3214653Y1060279D1*
X3215727Y1069213D1*
X3217262Y1078081D1*
X3219254Y1086856D1*
X3221697Y1095517D1*
X3224585Y1104040D1*
X3227911Y1112402D1*
X3231664Y1120581D1*
X3235836Y1128555D1*
X3240414Y1136302D1*
X3245388Y1143802D1*
X3250742Y1151034D1*
X3256464Y1157980D1*
X3262538Y1164621D1*
X3268947Y1170938D1*
X3275674Y1176915D1*
X3282701Y1182536D1*
X3290010Y1187786D1*
X3297581Y1192651D1*
X3305393Y1197117D1*
X3313426Y1201173D1*
X3321659Y1204808D1*
X3330068Y1208013D1*
X3338631Y1210777D1*
X3347327Y1213096D1*
X3356130Y1214961D1*
X3365019Y1216368D1*
X3373968Y1217313D1*
X3382954Y1217794D1*
X3391953Y1217809D1*
X3400941Y1217359D1*
X3409893Y1216444D1*
X3418786Y1215067D1*
X3427596Y1213232D1*
X3436299Y1210944D1*
X3444872Y1208208D1*
X3453292Y1205032D1*
X3461537Y1201425D1*
X3469584Y1197396D1*
X3477411Y1192957D1*
X3484998Y1188118D1*
X3492325Y1182893D1*
X3499372Y1177296D1*
X3506119Y1171342D1*
X3512550Y1165046D1*
X3518646Y1158427D1*
X3524391Y1151500D1*
X3529770Y1144286D1*
X3534769Y1136803D1*
X3539374Y1129072D1*
X3543573Y1121112D1*
X3547354Y1112946D1*
X3550708Y1104595D1*
X3553625Y1096082D1*
X3556098Y1087430D1*
X3558119Y1078661D1*
X3559685Y1069799D1*
X3560789Y1060868D1*
X3561430Y1051892D1*
X3561500Y1049731D1*
Y1513643D1*
X3561085Y1506331D1*
X3560155Y1497380D1*
X3558764Y1488490D1*
X3556913Y1479683D1*
X3554610Y1470984D1*
X3551860Y1462415D1*
X3548670Y1454001D1*
X3545049Y1445762D1*
X3541006Y1437722D1*
X3536553Y1429902D1*
X3531701Y1422323D1*
X3526464Y1415006D1*
X3520855Y1407968D1*
X3514889Y1401231D1*
X3508583Y1394811D1*
X3501953Y1388727D1*
X3495017Y1382993D1*
X3487794Y1377626D1*
X3480302Y1372640D1*
X3472563Y1368048D1*
X3464596Y1363863D1*
X3456424Y1360096D1*
X3448067Y1356756D1*
X3439549Y1353854D1*
X3430892Y1351396D1*
X3422120Y1349389D1*
X3413256Y1347839D1*
X3404323Y1346749D1*
X3395346Y1346124D1*
X3386348Y1345963D1*
X3377354Y1346269D1*
X3368388Y1347039D1*
X3359474Y1348272D1*
X3350636Y1349965D1*
X3341897Y1352113D1*
X3333281Y1354710D1*
X3324811Y1357750D1*
X3316509Y1361223D1*
X3308399Y1365122D1*
X3300500Y1369435D1*
X3292836Y1374151D1*
X3285426Y1379257D1*
X3278290Y1384740D1*
X3271448Y1390585D1*
X3264916Y1396775D1*
X3258714Y1403296D1*
X3252858Y1410129D1*
X3247363Y1417255D1*
X3242244Y1424657D1*
X3237515Y1432313D1*
X3233189Y1440204D1*
X3229277Y1448308D1*
X3225789Y1456603D1*
X3222735Y1465068D1*
X3220123Y1473680D1*
X3217960Y1482415D1*
X3216252Y1491250D1*
X3215004Y1500162D1*
X3214218Y1509127D1*
X3213898Y1518120D1*
X3214043Y1527118D1*
X3214653Y1536096D1*
X3215727Y1545031D1*
X3217262Y1553898D1*
X3219254Y1562674D1*
X3221697Y1571335D1*
X3224585Y1579858D1*
X3227911Y1588220D1*
X3231664Y1596399D1*
X3235836Y1604373D1*
X3240414Y1612120D1*
X3245388Y1619620D1*
X3250742Y1626852D1*
X3256464Y1633798D1*
X3262538Y1640438D1*
X3268947Y1646755D1*
X3275674Y1652733D1*
X3282701Y1658354D1*
X3290010Y1663603D1*
X3297581Y1668468D1*
X3305393Y1672935D1*
X3313426Y1676991D1*
X3321659Y1680626D1*
X3330068Y1683830D1*
X3338631Y1686595D1*
X3347327Y1688913D1*
X3356130Y1690778D1*
X3365019Y1692185D1*
X3373968Y1693131D1*
X3382954Y1693611D1*
X3391953Y1693627D1*
X3400941Y1693176D1*
X3409893Y1692262D1*
X3418786Y1690885D1*
X3427596Y1689050D1*
X3436299Y1686761D1*
X3444872Y1684026D1*
X3453292Y1680850D1*
X3461537Y1677243D1*
X3469584Y1673214D1*
X3477411Y1668774D1*
X3484998Y1663935D1*
X3492325Y1658710D1*
X3499372Y1653113D1*
X3506119Y1647159D1*
X3512550Y1640864D1*
X3518646Y1634244D1*
X3524391Y1627318D1*
X3529770Y1620104D1*
X3534769Y1612621D1*
X3539374Y1604889D1*
X3543573Y1596930D1*
X3547354Y1588764D1*
X3550708Y1580413D1*
X3553625Y1571900D1*
X3556098Y1563247D1*
X3558119Y1554478D1*
X3559685Y1545617D1*
X3560789Y1536686D1*
X3561430Y1527709D1*
X3561500Y1526000D1*
Y5429486D1*
X3380463Y5429500D1*
X3387321Y5427015D1*
X3395510Y5423288D1*
X3403340Y5418858D1*
X3410752Y5413757D1*
X3417687Y5408025D1*
X3424093Y5401708D1*
X3429919Y5394852D1*
X3435122Y5387512D1*
X3439661Y5379743D1*
X3443500Y5371607D1*
X3446611Y5363164D1*
X3448969Y5354482D1*
X3450556Y5345626D1*
X3451360Y5336665D1*
X3451367Y5327501D1*
X3450578Y5318539D1*
X3449005Y5309680D1*
X3446661Y5300994D1*
X3443564Y5292547D1*
X3439738Y5284404D1*
X3435212Y5276628D1*
X3430021Y5269279D1*
X3424206Y5262414D1*
X3417810Y5256086D1*
X3410884Y5250344D1*
X3403481Y5245231D1*
X3395658Y5240787D1*
X3387475Y5237047D1*
X3378995Y5234040D1*
X3370285Y5231788D1*
X3361410Y5230309D1*
X3352440Y5229614D1*
X3326524Y5229557D1*
X3225893Y5229563D1*
X3216909Y5230053D1*
X3208003Y5231330D1*
X3199243Y5233383D1*
X3190698Y5236196D1*
X3182432Y5239749D1*
X3174509Y5244013D1*
X3166991Y5248956D1*
X3159936Y5254539D1*
X3153398Y5260720D1*
X3147428Y5267451D1*
X3142071Y5274680D1*
X3137369Y5282350D1*
X3133359Y5290404D1*
X3130070Y5298779D1*
X3127529Y5307409D1*
X3125755Y5316230D1*
X3124762Y5325172D1*
X3124557Y5334167D1*
X3125142Y5343145D1*
X3126512Y5352037D1*
X3128658Y5360774D1*
X3131562Y5369290D1*
X3135202Y5377518D1*
X3139549Y5385395D1*
X3144571Y5392860D1*
X3150229Y5399855D1*
X3156479Y5406328D1*
X3163272Y5412226D1*
X3170557Y5417507D1*
X3178277Y5422127D1*
X3186373Y5426052D1*
X3194782Y5429252D1*
X3195605Y5429505D1*
X780447Y5429500D1*
X787321Y5427015D1*
X795510Y5423288D1*
X803340Y5418858D1*
X810752Y5413757D1*
X817687Y5408025D1*
X824093Y5401708D1*
X829919Y5394852D1*
X835122Y5387512D1*
X839661Y5379743D1*
X843500Y5371607D1*
X846611Y5363164D1*
X848969Y5354482D1*
X850556Y5345626D1*
X851360Y5336665D1*
X851367Y5327501D1*
X850578Y5318539D1*
X849005Y5309680D1*
X846661Y5300994D1*
X843564Y5292547D1*
X839738Y5284404D1*
X835212Y5276628D1*
X830021Y5269279D1*
X824206Y5262414D1*
X817810Y5256086D1*
X810884Y5250344D1*
X803481Y5245231D1*
X795658Y5240787D1*
X787475Y5237047D1*
X778995Y5234040D1*
X770285Y5231788D1*
X761410Y5230309D1*
X752440Y5229614D1*
X726524Y5229557D1*
X625893Y5229563D1*
X616909Y5230053D1*
X608003Y5231330D1*
X599243Y5233383D1*
X590698Y5236196D1*
X582432Y5239749D1*
X574509Y5244013D1*
X566991Y5248956D1*
X559936Y5254539D1*
X553398Y5260720D1*
X547428Y5267451D1*
X542071Y5274680D1*
X537369Y5282350D1*
X533359Y5290404D1*
X530070Y5298779D1*
X527529Y5307409D1*
X525755Y5316230D1*
X524762Y5325172D1*
X524557Y5334167D1*
X525142Y5343145D1*
X526512Y5352037D1*
X528658Y5360774D1*
X531562Y5369290D1*
X535202Y5377518D1*
X539549Y5385395D1*
X544571Y5392860D1*
X550229Y5399855D1*
X556479Y5406328D1*
X563272Y5412226D1*
X570557Y5417507D1*
X578277Y5422127D1*
X586373Y5426052D1*
X594782Y5429252D1*
X595605Y5429505D1*
X414506Y5429500D1*
X414500Y1534381D1*
X415727Y1545031D1*
X417262Y1553898D1*
X419254Y1562674D1*
X421697Y1571335D1*
X424585Y1579858D1*
X427911Y1588220D1*
X431664Y1596399D1*
X435836Y1604373D1*
X440414Y1612120D1*
X445388Y1619620D1*
X450742Y1626852D1*
X456464Y1633798D1*
X462538Y1640438D1*
X468947Y1646755D1*
X475674Y1652733D1*
X482701Y1658354D1*
X490010Y1663603D1*
X497581Y1668468D1*
X505393Y1672935D1*
X513426Y1676991D1*
X521659Y1680626D1*
X530068Y1683830D1*
X538631Y1686595D1*
X547327Y1688913D1*
X556130Y1690778D1*
X565019Y1692185D1*
X573968Y1693131D1*
X582954Y1693611D1*
X591953Y1693627D1*
X600941Y1693176D1*
X609893Y1692262D1*
X618786Y1690885D1*
X627596Y1689050D1*
X636299Y1686761D1*
X644872Y1684026D1*
X653292Y1680850D1*
X661537Y1677243D1*
X669584Y1673214D1*
X677411Y1668774D1*
X684998Y1663935D1*
X692325Y1658710D1*
X699372Y1653113D1*
X706119Y1647159D1*
X712550Y1640864D1*
X718646Y1634244D1*
X724391Y1627318D1*
X729770Y1620104D1*
X734769Y1612621D1*
X739374Y1604889D1*
X743573Y1596930D1*
X747354Y1588764D1*
X750708Y1580413D1*
X753625Y1571900D1*
X756098Y1563247D1*
X758119Y1554478D1*
X759685Y1545617D1*
X760789Y1536686D1*
X761430Y1527709D1*
X761609Y1519818D1*
X761376Y1510822D1*
X760678Y1501850D1*
X759517Y1492926D1*
X757896Y1484074D1*
X755818Y1475318D1*
X753290Y1466682D1*
X750319Y1458187D1*
X746913Y1449858D1*
X743080Y1441716D1*
X738830Y1433784D1*
X734176Y1426082D1*
X729130Y1418631D1*
X723705Y1411451D1*
X717916Y1404561D1*
X711778Y1397980D1*
X705307Y1391726D1*
X698522Y1385815D1*
X691440Y1380263D1*
X684080Y1375084D1*
X676462Y1370294D1*
X668607Y1365904D1*
X660534Y1361926D1*
X652267Y1358372D1*
X643827Y1355250D1*
X635237Y1352569D1*
X626519Y1350335D1*
X617698Y1348556D1*
X608796Y1347236D1*
X599838Y1346378D1*
X590848Y1345985D1*
X581849Y1346058D1*
X572866Y1346596D1*
X563923Y1347598D1*
X555044Y1349061D1*
X546252Y1350982D1*
X537572Y1353356D1*
X529026Y1356175D1*
X520637Y1359433D1*
X512429Y1363120D1*
X504422Y1367227D1*
X496638Y1371743D1*
X489098Y1376656D1*
X481823Y1381952D1*
X474831Y1387618D1*
X468142Y1393638D1*
X461773Y1399996D1*
X455742Y1406674D1*
X450065Y1413656D1*
X444756Y1420923D1*
X439830Y1428454D1*
X435301Y1436230D1*
X431180Y1444230D1*
X427479Y1452433D1*
X424207Y1460816D1*
X421373Y1469357D1*
X418985Y1478033D1*
X417049Y1486822D1*
X415570Y1495698D1*
X414500Y1505358D1*
Y1058576D1*
X415727Y1069213D1*
X417262Y1078081D1*
X419254Y1086856D1*
X421697Y1095517D1*
X424585Y1104040D1*
X427911Y1112402D1*
X431664Y1120581D1*
X435836Y1128555D1*
X440414Y1136302D1*
X445388Y1143802D1*
X450742Y1151034D1*
X456464Y1157980D1*
X462538Y1164621D1*
X468947Y1170938D1*
X475674Y1176915D1*
X482701Y1182536D1*
X490010Y1187786D1*
X497581Y1192651D1*
X505393Y1197117D1*
X513426Y1201173D1*
X521659Y1204808D1*
X530068Y1208013D1*
X538631Y1210777D1*
X547327Y1213096D1*
X556130Y1214961D1*
X565019Y1216368D1*
X573968Y1217313D1*
X582954Y1217794D1*
X591953Y1217809D1*
X600941Y1217359D1*
X609893Y1216444D1*
X618786Y1215067D1*
X627596Y1213232D1*
X636299Y1210944D1*
X644872Y1208208D1*
X653292Y1205032D1*
X661537Y1201425D1*
X669584Y1197396D1*
X677411Y1192957D1*
X684998Y1188118D1*
X692325Y1182893D1*
X699372Y1177296D1*
X706119Y1171342D1*
X712550Y1165046D1*
X718646Y1158427D1*
X724391Y1151500D1*
X729770Y1144286D1*
X734769Y1136803D1*
X739374Y1129072D1*
X743573Y1121112D1*
X747354Y1112946D1*
X750708Y1104595D1*
X753625Y1096082D1*
X756098Y1087430D1*
X758119Y1078661D1*
X759685Y1069799D1*
X760789Y1060868D1*
X761430Y1051892D1*
X761609Y1044000D1*
X761376Y1035004D1*
X760678Y1026032D1*
X759517Y1017108D1*
X757896Y1008257D1*
X755818Y999501D1*
X753290Y990864D1*
X750319Y982370D1*
X746913Y974040D1*
X743080Y965899D1*
X738830Y957966D1*
X734176Y950264D1*
X729130Y942813D1*
X723705Y935633D1*
X717916Y928744D1*
X711778Y922163D1*
X705307Y915908D1*
X698522Y909997D1*
X691440Y904445D1*
X684080Y899267D1*
X676462Y894476D1*
X668607Y890086D1*
X660534Y886109D1*
X652267Y882554D1*
X643827Y879432D1*
X635237Y876751D1*
X626519Y874518D1*
X617698Y872739D1*
X608796Y871419D1*
X599838Y870561D1*
X590848Y870168D1*
X581849Y870240D1*
X572866Y870778D1*
X563923Y871780D1*
X555044Y873244D1*
X546252Y875165D1*
X537572Y877538D1*
X529026Y880357D1*
X520637Y883615D1*
X512429Y887303D1*
X504422Y891410D1*
X496638Y895926D1*
X489098Y900838D1*
X481823Y906135D1*
X474831Y911800D1*
X468142Y917820D1*
X461773Y924178D1*
X455742Y930857D1*
X450065Y937839D1*
X444756Y945105D1*
X439830Y952636D1*
X435301Y960413D1*
X431180Y968413D1*
X427479Y976615D1*
X424207Y984998D1*
X421373Y993539D1*
X418985Y1002216D1*
X417049Y1011004D1*
X415570Y1019881D1*
X414500Y1029541D1*
Y414514D1*
X595994Y414500D1*
X590698Y416346D1*
X582432Y419899D1*
X574509Y424163D1*
X566991Y429106D1*
X559936Y434689D1*
X553398Y440870D1*
X547428Y447601D1*
X542071Y454829D1*
X537369Y462500D1*
X533359Y470554D1*
X530070Y478928D1*
X527529Y487559D1*
X525755Y496379D1*
X524762Y505322D1*
X524557Y514316D1*
X525142Y523294D1*
X526512Y532186D1*
X528658Y540924D1*
X531562Y549440D1*
X535202Y557668D1*
X539549Y565544D1*
X544571Y573009D1*
X550229Y580005D1*
X556479Y586477D1*
X563272Y592376D1*
X570557Y597656D1*
X578277Y602277D1*
X586373Y606202D1*
X594782Y609402D1*
X603439Y611852D1*
X612278Y613532D1*
X621230Y614431D1*
X631477Y614592D1*
X752273Y614541D1*
X761245Y613861D1*
X770122Y612396D1*
X778836Y610158D1*
X787321Y607165D1*
X795510Y603438D1*
X803340Y599007D1*
X810752Y593906D1*
X817687Y588175D1*
X824093Y581857D1*
X829919Y575002D1*
X835122Y567661D1*
X839661Y559893D1*
X843500Y551756D1*
X846611Y543314D1*
X848969Y534631D1*
X850556Y525775D1*
X851360Y516814D1*
X851367Y507651D1*
X850578Y498689D1*
X849005Y489830D1*
X846661Y481144D1*
X843564Y472696D1*
X839738Y464553D1*
X835212Y456778D1*
X830021Y449429D1*
X824206Y442564D1*
X817810Y436236D1*
X810884Y430493D1*
X803481Y425380D1*
X795658Y420937D1*
X787475Y417197D1*
X779947Y414503D1*
X3196010Y414500D1*
X3419127Y4789500D2*
X3418680Y4780512D1*
X3417788Y4771558D1*
X3416451Y4762658D1*
X3414675Y4753836D1*
X3412463Y4745113D1*
X3409820Y4736511D1*
X3406754Y4728051D1*
X3403271Y4719753D1*
X3399381Y4711638D1*
X3395092Y4703727D1*
X3390416Y4696038D1*
X3385364Y4688591D1*
X3379948Y4681404D1*
X3374182Y4674494D1*
X3368081Y4667880D1*
X3361658Y4661577D1*
X3354930Y4655600D1*
X3347914Y4649965D1*
X3340627Y4644685D1*
X3333086Y4639773D1*
X3325311Y4635242D1*
X3317320Y4631103D1*
X3309134Y4627365D1*
X3300772Y4624039D1*
X3292256Y4621131D1*
X3283605Y4618651D1*
X3274843Y4616603D1*
X3265989Y4614992D1*
X3257066Y4613823D1*
X3248096Y4613099D1*
X3239101Y4612821D1*
X3230104Y4612989D1*
X3221126Y4613605D1*
X3212189Y4614665D1*
X3203317Y4616168D1*
X3194530Y4618109D1*
X3185850Y4620485D1*
X3177298Y4623288D1*
X3168897Y4626513D1*
X3160666Y4630151D1*
X3152626Y4634193D1*
X3144796Y4638629D1*
X3137196Y4643448D1*
X3129845Y4648639D1*
X3122761Y4654189D1*
X3115961Y4660083D1*
X3109462Y4666308D1*
X3103280Y4672848D1*
X3097431Y4679686D1*
X3091928Y4686807D1*
X3086786Y4694192D1*
X3082017Y4701824D1*
X3077632Y4709682D1*
X3073644Y4717749D1*
X3070060Y4726004D1*
X3066891Y4734427D1*
X3064144Y4742996D1*
X3061826Y4751692D1*
X3059943Y4760491D1*
X3058499Y4769374D1*
X3057497Y4778317D1*
X3056941Y4787299D1*
X3056832Y4796297D1*
X3057169Y4805290D1*
X3057953Y4814255D1*
X3059181Y4823170D1*
X3060850Y4832013D1*
X3062956Y4840762D1*
X3065493Y4849396D1*
X3068457Y4857893D1*
X3071838Y4866233D1*
X3075630Y4874394D1*
X3079822Y4882357D1*
X3084404Y4890102D1*
X3089366Y4897610D1*
X3094693Y4904862D1*
X3100375Y4911841D1*
X3106396Y4918529D1*
X3112741Y4924910D1*
X3119396Y4930968D1*
X3126343Y4936688D1*
X3133566Y4942057D1*
X3141046Y4947059D1*
X3148766Y4951685D1*
X3156705Y4955921D1*
X3164845Y4959758D1*
X3173166Y4963186D1*
X3181647Y4966196D1*
X3190266Y4968782D1*
X3199004Y4970936D1*
X3207837Y4972654D1*
X3216745Y4973932D1*
X3225705Y4974765D1*
X3234696Y4975153D1*
X3243695Y4975093D1*
X3252680Y4974587D1*
X3261629Y4973636D1*
X3270519Y4972241D1*
X3279329Y4970406D1*
X3288037Y4968136D1*
X3296622Y4965437D1*
X3305062Y4962315D1*
X3313337Y4958778D1*
X3321425Y4954834D1*
X3329308Y4950493D1*
X3336966Y4945766D1*
X3344380Y4940665D1*
X3351531Y4935202D1*
X3358402Y4929391D1*
X3364976Y4923245D1*
X3371237Y4916781D1*
X3377169Y4910014D1*
X3382758Y4902961D1*
X3387989Y4895639D1*
X3392851Y4888066D1*
X3397331Y4880261D1*
X3401417Y4872243D1*
X3405101Y4864033D1*
X3408372Y4855649D1*
X3411223Y4847114D1*
X3413646Y4838447D1*
X3415637Y4829671D1*
X3417189Y4820807D1*
X3418299Y4811876D1*
X3418964Y4802902D1*
X3419183Y4794000D1*
X3419127Y4789500D1*
X3162051Y1514501D2*
X3161585Y1505514D1*
X3160655Y1496563D1*
X3159264Y1487672D1*
X3157413Y1478865D1*
X3155110Y1470166D1*
X3152360Y1461598D1*
X3149170Y1453183D1*
X3145549Y1444945D1*
X3141506Y1436905D1*
X3137053Y1429085D1*
X3132201Y1421506D1*
X3126964Y1414188D1*
X3121355Y1407151D1*
X3115389Y1400413D1*
X3109083Y1393994D1*
X3102453Y1387909D1*
X3095517Y1382175D1*
X3088294Y1376808D1*
X3080802Y1371822D1*
X3073063Y1367231D1*
X3065096Y1363045D1*
X3056924Y1359278D1*
X3048567Y1355939D1*
X3040049Y1353036D1*
X3031392Y1350578D1*
X3022620Y1348571D1*
X3013756Y1347021D1*
X3004823Y1345932D1*
X2995846Y1345306D1*
X2986848Y1345146D1*
X2977854Y1345451D1*
X2968888Y1346221D1*
X2959974Y1347455D1*
X2951136Y1349147D1*
X2942397Y1351295D1*
X2933781Y1353893D1*
X2925311Y1356932D1*
X2917009Y1360406D1*
X2908899Y1364304D1*
X2901000Y1368617D1*
X2893336Y1373333D1*
X2885926Y1378440D1*
X2878790Y1383922D1*
X2871948Y1389767D1*
X2865416Y1395958D1*
X2859214Y1402478D1*
X2853358Y1409311D1*
X2847863Y1416438D1*
X2842744Y1423839D1*
X2838015Y1431495D1*
X2833689Y1439386D1*
X2829777Y1447490D1*
X2826289Y1455786D1*
X2823235Y1464251D1*
X2820623Y1472862D1*
X2818460Y1481597D1*
X2816752Y1490433D1*
X2815504Y1499345D1*
X2814718Y1508309D1*
X2814398Y1517303D1*
X2814543Y1526301D1*
X2815153Y1535279D1*
X2816227Y1544213D1*
X2817762Y1553081D1*
X2819754Y1561856D1*
X2822197Y1570517D1*
X2825085Y1579040D1*
X2828411Y1587402D1*
X2832164Y1595581D1*
X2836336Y1603555D1*
X2840914Y1611302D1*
X2845888Y1618802D1*
X2851242Y1626034D1*
X2856964Y1632980D1*
X2863038Y1639621D1*
X2869447Y1645938D1*
X2876174Y1651915D1*
X2883201Y1657536D1*
X2890510Y1662786D1*
X2898081Y1667651D1*
X2905893Y1672117D1*
X2913926Y1676173D1*
X2922159Y1679808D1*
X2930568Y1683013D1*
X2939131Y1685777D1*
X2947827Y1688096D1*
X2956630Y1689961D1*
X2965519Y1691368D1*
X2974468Y1692313D1*
X2983454Y1692794D1*
X2992453Y1692809D1*
X3001441Y1692359D1*
X3010393Y1691444D1*
X3019286Y1690067D1*
X3028096Y1688232D1*
X3036799Y1685944D1*
X3045372Y1683208D1*
X3053792Y1680032D1*
X3062037Y1676425D1*
X3070084Y1672396D1*
X3077911Y1667957D1*
X3085498Y1663118D1*
X3092825Y1657893D1*
X3099872Y1652296D1*
X3106619Y1646342D1*
X3113050Y1640046D1*
X3119146Y1633427D1*
X3124891Y1626500D1*
X3130270Y1619286D1*
X3135269Y1611803D1*
X3139874Y1604072D1*
X3144073Y1596112D1*
X3147854Y1587946D1*
X3151208Y1579595D1*
X3154125Y1571082D1*
X3156598Y1562430D1*
X3158619Y1553661D1*
X3160185Y1544799D1*
X3161289Y1535868D1*
X3161930Y1526892D1*
X3162109Y1519000D1*
X3162051Y1514501D1*
X3161802Y1039501D2*
X3161336Y1030514D1*
X3160406Y1021563D1*
X3159014Y1012672D1*
X3157164Y1003865D1*
X3154861Y995166D1*
X3152111Y986598D1*
X3148921Y978183D1*
X3145299Y969945D1*
X3141257Y961905D1*
X3136804Y954085D1*
X3131952Y946506D1*
X3126715Y939188D1*
X3121106Y932151D1*
X3115140Y925413D1*
X3108834Y918994D1*
X3102204Y912909D1*
X3095268Y907175D1*
X3088044Y901808D1*
X3080553Y896822D1*
X3072813Y892231D1*
X3064847Y888045D1*
X3056674Y884278D1*
X3048318Y880939D1*
X3039800Y878036D1*
X3031143Y875578D1*
X3022371Y873571D1*
X3013506Y872021D1*
X3004573Y870932D1*
X2995596Y870306D1*
X2986599Y870146D1*
X2977605Y870451D1*
X2968639Y871221D1*
X2959725Y872455D1*
X2950886Y874147D1*
X2942148Y876295D1*
X2933531Y878893D1*
X2925061Y881932D1*
X2916760Y885406D1*
X2908649Y889304D1*
X2900751Y893617D1*
X2893087Y898333D1*
X2885677Y903440D1*
X2878541Y908922D1*
X2871698Y914767D1*
X2865167Y920958D1*
X2858965Y927478D1*
X2853109Y934311D1*
X2847614Y941438D1*
X2842495Y948839D1*
X2837766Y956495D1*
X2833440Y964386D1*
X2829527Y972490D1*
X2826039Y980786D1*
X2822985Y989251D1*
X2820374Y997862D1*
X2818211Y1006597D1*
X2816503Y1015433D1*
X2815255Y1024345D1*
X2814469Y1033309D1*
X2814148Y1042303D1*
X2814293Y1051301D1*
X2814904Y1060279D1*
X2815978Y1069213D1*
X2817513Y1078081D1*
X2819505Y1086856D1*
X2821948Y1095517D1*
X2824836Y1104040D1*
X2828161Y1112402D1*
X2831915Y1120581D1*
X2836086Y1128555D1*
X2840665Y1136302D1*
X2845638Y1143802D1*
X2850993Y1151034D1*
X2856715Y1157980D1*
X2862788Y1164621D1*
X2869197Y1170938D1*
X2875924Y1176915D1*
X2882952Y1182536D1*
X2890261Y1187786D1*
X2897832Y1192651D1*
X2905644Y1197117D1*
X2913677Y1201173D1*
X2921909Y1204808D1*
X2930318Y1208013D1*
X2938882Y1210777D1*
X2947577Y1213096D1*
X2956381Y1214961D1*
X2965269Y1216368D1*
X2974219Y1217313D1*
X2983205Y1217794D1*
X2992204Y1217809D1*
X3001191Y1217359D1*
X3010144Y1216444D1*
X3019037Y1215067D1*
X3027847Y1213232D1*
X3036550Y1210944D1*
X3045123Y1208208D1*
X3053543Y1205032D1*
X3061787Y1201425D1*
X3069834Y1197396D1*
X3077662Y1192957D1*
X3085249Y1188118D1*
X3092576Y1182893D1*
X3099622Y1177296D1*
X3106370Y1171342D1*
X3112800Y1165046D1*
X3118896Y1158427D1*
X3124642Y1151500D1*
X3130021Y1144286D1*
X3135020Y1136803D1*
X3139625Y1129072D1*
X3143824Y1121112D1*
X3147605Y1112946D1*
X3150959Y1104595D1*
X3153876Y1096082D1*
X3156348Y1087430D1*
X3158370Y1078661D1*
X3159935Y1069799D1*
X3161040Y1060868D1*
X3161681Y1051892D1*
X3161860Y1044000D1*
X3161802Y1039501D1*
X1336802Y1939501D2*
X1336336Y1930514D1*
X1335406Y1921563D1*
X1334014Y1912672D1*
X1332164Y1903865D1*
X1329861Y1895166D1*
X1327111Y1886598D1*
X1323921Y1878183D1*
X1320299Y1869945D1*
X1316257Y1861905D1*
X1311804Y1854085D1*
X1306952Y1846506D1*
X1301715Y1839188D1*
X1296106Y1832151D1*
X1290140Y1825413D1*
X1283834Y1818994D1*
X1277204Y1812909D1*
X1270268Y1807175D1*
X1263044Y1801808D1*
X1255553Y1796822D1*
X1247813Y1792231D1*
X1239847Y1788045D1*
X1231674Y1784278D1*
X1223318Y1780939D1*
X1214800Y1778036D1*
X1206143Y1775578D1*
X1197371Y1773571D1*
X1188506Y1772021D1*
X1179573Y1770932D1*
X1170596Y1770306D1*
X1161599Y1770146D1*
X1152605Y1770451D1*
X1143639Y1771221D1*
X1134725Y1772455D1*
X1125886Y1774147D1*
X1117148Y1776295D1*
X1108531Y1778893D1*
X1100061Y1781932D1*
X1091760Y1785406D1*
X1083649Y1789304D1*
X1075751Y1793617D1*
X1068087Y1798333D1*
X1060677Y1803440D1*
X1053541Y1808922D1*
X1046698Y1814767D1*
X1040167Y1820958D1*
X1033965Y1827478D1*
X1028109Y1834311D1*
X1022614Y1841438D1*
X1017495Y1848839D1*
X1012766Y1856495D1*
X1008440Y1864386D1*
X1004527Y1872490D1*
X1001039Y1880786D1*
X997985Y1889251D1*
X995374Y1897862D1*
X993211Y1906597D1*
X991503Y1915433D1*
X990255Y1924345D1*
X989469Y1933309D1*
X989148Y1942303D1*
X989293Y1951301D1*
X989904Y1960279D1*
X990978Y1969213D1*
X992513Y1978081D1*
X994505Y1986856D1*
X996948Y1995517D1*
X999836Y2004040D1*
X1003161Y2012402D1*
X1006915Y2020581D1*
X1011086Y2028555D1*
X1015665Y2036302D1*
X1020638Y2043802D1*
X1025993Y2051034D1*
X1031715Y2057980D1*
X1037788Y2064621D1*
X1044197Y2070938D1*
X1050924Y2076915D1*
X1057952Y2082536D1*
X1065261Y2087786D1*
X1072832Y2092651D1*
X1080644Y2097117D1*
X1088677Y2101173D1*
X1096909Y2104808D1*
X1105318Y2108013D1*
X1113882Y2110777D1*
X1122577Y2113096D1*
X1131381Y2114961D1*
X1140269Y2116368D1*
X1149219Y2117313D1*
X1158205Y2117794D1*
X1167204Y2117809D1*
X1176191Y2117359D1*
X1185144Y2116444D1*
X1194037Y2115067D1*
X1202847Y2113232D1*
X1211550Y2110944D1*
X1220123Y2108208D1*
X1228543Y2105032D1*
X1236787Y2101425D1*
X1244834Y2097396D1*
X1252662Y2092957D1*
X1260249Y2088118D1*
X1267576Y2082893D1*
X1274622Y2077296D1*
X1281370Y2071342D1*
X1287800Y2065046D1*
X1293896Y2058427D1*
X1299642Y2051500D1*
X1305021Y2044286D1*
X1310020Y2036803D1*
X1314625Y2029072D1*
X1318824Y2021112D1*
X1322605Y2012946D1*
X1325959Y2004595D1*
X1328876Y1996082D1*
X1331348Y1987430D1*
X1333370Y1978661D1*
X1334935Y1969799D1*
X1336040Y1960868D1*
X1336681Y1951892D1*
X1336860Y1944000D1*
X1336802Y1939501D1*
X1886802D2*
X1886336Y1930514D1*
X1885406Y1921563D1*
X1884014Y1912672D1*
X1882164Y1903865D1*
X1879861Y1895166D1*
X1877111Y1886598D1*
X1873921Y1878183D1*
X1870299Y1869945D1*
X1866257Y1861905D1*
X1861804Y1854085D1*
X1856952Y1846506D1*
X1851715Y1839188D1*
X1846106Y1832151D1*
X1840140Y1825413D1*
X1833834Y1818994D1*
X1827204Y1812909D1*
X1820268Y1807175D1*
X1813044Y1801808D1*
X1805553Y1796822D1*
X1797813Y1792231D1*
X1789847Y1788045D1*
X1781674Y1784278D1*
X1773318Y1780939D1*
X1764800Y1778036D1*
X1756143Y1775578D1*
X1747371Y1773571D1*
X1738506Y1772021D1*
X1729573Y1770932D1*
X1720596Y1770306D1*
X1711599Y1770146D1*
X1702605Y1770451D1*
X1693639Y1771221D1*
X1684725Y1772455D1*
X1675886Y1774147D1*
X1667148Y1776295D1*
X1658531Y1778893D1*
X1650061Y1781932D1*
X1641760Y1785406D1*
X1633649Y1789304D1*
X1625751Y1793617D1*
X1618087Y1798333D1*
X1610677Y1803440D1*
X1603541Y1808922D1*
X1596698Y1814767D1*
X1590167Y1820958D1*
X1583965Y1827478D1*
X1578109Y1834311D1*
X1572614Y1841438D1*
X1567495Y1848839D1*
X1562766Y1856495D1*
X1558440Y1864386D1*
X1554527Y1872490D1*
X1551039Y1880786D1*
X1547985Y1889251D1*
X1545374Y1897862D1*
X1543211Y1906597D1*
X1541503Y1915433D1*
X1540255Y1924345D1*
X1539469Y1933309D1*
X1539148Y1942303D1*
X1539293Y1951301D1*
X1539904Y1960279D1*
X1540978Y1969213D1*
X1542513Y1978081D1*
X1544505Y1986856D1*
X1546948Y1995517D1*
X1549836Y2004040D1*
X1553161Y2012402D1*
X1556915Y2020581D1*
X1561086Y2028555D1*
X1565665Y2036302D1*
X1570638Y2043802D1*
X1575993Y2051034D1*
X1581715Y2057980D1*
X1587788Y2064621D1*
X1594197Y2070938D1*
X1600924Y2076915D1*
X1607952Y2082536D1*
X1615261Y2087786D1*
X1622832Y2092651D1*
X1630644Y2097117D1*
X1638677Y2101173D1*
X1646909Y2104808D1*
X1655318Y2108013D1*
X1663882Y2110777D1*
X1672577Y2113096D1*
X1681381Y2114961D1*
X1690269Y2116368D1*
X1699219Y2117313D1*
X1708205Y2117794D1*
X1717204Y2117809D1*
X1726191Y2117359D1*
X1735144Y2116444D1*
X1744037Y2115067D1*
X1752847Y2113232D1*
X1761550Y2110944D1*
X1770123Y2108208D1*
X1778543Y2105032D1*
X1786787Y2101425D1*
X1794834Y2097396D1*
X1802662Y2092957D1*
X1810249Y2088118D1*
X1817576Y2082893D1*
X1824622Y2077296D1*
X1831370Y2071342D1*
X1837800Y2065046D1*
X1843896Y2058427D1*
X1849642Y2051500D1*
X1855021Y2044286D1*
X1860020Y2036803D1*
X1864625Y2029072D1*
X1868824Y2021112D1*
X1872605Y2012946D1*
X1875959Y2004595D1*
X1878876Y1996082D1*
X1881348Y1987430D1*
X1883370Y1978661D1*
X1884935Y1969799D1*
X1886040Y1960868D1*
X1886681Y1951892D1*
X1886860Y1944000D1*
X1886802Y1939501D1*
X2436802D2*
X2436336Y1930514D1*
X2435406Y1921563D1*
X2434014Y1912672D1*
X2432164Y1903865D1*
X2429861Y1895166D1*
X2427111Y1886598D1*
X2423921Y1878183D1*
X2420299Y1869945D1*
X2416257Y1861905D1*
X2411804Y1854085D1*
X2406952Y1846506D1*
X2401715Y1839188D1*
X2396106Y1832151D1*
X2390140Y1825413D1*
X2383834Y1818994D1*
X2377204Y1812909D1*
X2370268Y1807175D1*
X2363044Y1801808D1*
X2355553Y1796822D1*
X2347813Y1792231D1*
X2339847Y1788045D1*
X2331674Y1784278D1*
X2323318Y1780939D1*
X2314800Y1778036D1*
X2306143Y1775578D1*
X2297371Y1773571D1*
X2288506Y1772021D1*
X2279573Y1770932D1*
X2270596Y1770306D1*
X2261599Y1770146D1*
X2252605Y1770451D1*
X2243639Y1771221D1*
X2234725Y1772455D1*
X2225886Y1774147D1*
X2217148Y1776295D1*
X2208531Y1778893D1*
X2200061Y1781932D1*
X2191760Y1785406D1*
X2183649Y1789304D1*
X2175751Y1793617D1*
X2168087Y1798333D1*
X2160677Y1803440D1*
X2153541Y1808922D1*
X2146698Y1814767D1*
X2140167Y1820958D1*
X2133965Y1827478D1*
X2128109Y1834311D1*
X2122614Y1841438D1*
X2117495Y1848839D1*
X2112766Y1856495D1*
X2108440Y1864386D1*
X2104527Y1872490D1*
X2101039Y1880786D1*
X2097985Y1889251D1*
X2095374Y1897862D1*
X2093211Y1906597D1*
X2091503Y1915433D1*
X2090255Y1924345D1*
X2089469Y1933309D1*
X2089148Y1942303D1*
X2089293Y1951301D1*
X2089904Y1960279D1*
X2090978Y1969213D1*
X2092513Y1978081D1*
X2094505Y1986856D1*
X2096948Y1995517D1*
X2099836Y2004040D1*
X2103161Y2012402D1*
X2106915Y2020581D1*
X2111086Y2028555D1*
X2115665Y2036302D1*
X2120638Y2043802D1*
X2125993Y2051034D1*
X2131715Y2057980D1*
X2137788Y2064621D1*
X2144197Y2070938D1*
X2150924Y2076915D1*
X2157952Y2082536D1*
X2165261Y2087786D1*
X2172832Y2092651D1*
X2180644Y2097117D1*
X2188677Y2101173D1*
X2196909Y2104808D1*
X2205318Y2108013D1*
X2213882Y2110777D1*
X2222577Y2113096D1*
X2231381Y2114961D1*
X2240269Y2116368D1*
X2249219Y2117313D1*
X2258205Y2117794D1*
X2267204Y2117809D1*
X2276191Y2117359D1*
X2285144Y2116444D1*
X2294037Y2115067D1*
X2302847Y2113232D1*
X2311550Y2110944D1*
X2320123Y2108208D1*
X2328543Y2105032D1*
X2336787Y2101425D1*
X2344834Y2097396D1*
X2352662Y2092957D1*
X2360249Y2088118D1*
X2367576Y2082893D1*
X2374622Y2077296D1*
X2381370Y2071342D1*
X2387800Y2065046D1*
X2393896Y2058427D1*
X2399642Y2051500D1*
X2405021Y2044286D1*
X2410020Y2036803D1*
X2414625Y2029072D1*
X2418824Y2021112D1*
X2422605Y2012946D1*
X2425959Y2004595D1*
X2428876Y1996082D1*
X2431348Y1987430D1*
X2433370Y1978661D1*
X2434935Y1969799D1*
X2436040Y1960868D1*
X2436681Y1951892D1*
X2436860Y1944000D1*
X2436802Y1939501D1*
X2986802D2*
X2986336Y1930514D1*
X2985406Y1921563D1*
X2984014Y1912672D1*
X2982164Y1903865D1*
X2979861Y1895166D1*
X2977111Y1886598D1*
X2973921Y1878183D1*
X2970299Y1869945D1*
X2966257Y1861905D1*
X2961804Y1854085D1*
X2956952Y1846506D1*
X2951715Y1839188D1*
X2946106Y1832151D1*
X2940140Y1825413D1*
X2933834Y1818994D1*
X2927204Y1812909D1*
X2920268Y1807175D1*
X2913044Y1801808D1*
X2905553Y1796822D1*
X2897813Y1792231D1*
X2889847Y1788045D1*
X2881674Y1784278D1*
X2873318Y1780939D1*
X2864800Y1778036D1*
X2856143Y1775578D1*
X2847371Y1773571D1*
X2838506Y1772021D1*
X2829573Y1770932D1*
X2820596Y1770306D1*
X2811599Y1770146D1*
X2802605Y1770451D1*
X2793639Y1771221D1*
X2784725Y1772455D1*
X2775886Y1774147D1*
X2767148Y1776295D1*
X2758531Y1778893D1*
X2750061Y1781932D1*
X2741760Y1785406D1*
X2733649Y1789304D1*
X2725751Y1793617D1*
X2718087Y1798333D1*
X2710677Y1803440D1*
X2703541Y1808922D1*
X2696698Y1814767D1*
X2690167Y1820958D1*
X2683965Y1827478D1*
X2678109Y1834311D1*
X2672614Y1841438D1*
X2667495Y1848839D1*
X2662766Y1856495D1*
X2658440Y1864386D1*
X2654527Y1872490D1*
X2651039Y1880786D1*
X2647985Y1889251D1*
X2645374Y1897862D1*
X2643211Y1906597D1*
X2641503Y1915433D1*
X2640255Y1924345D1*
X2639469Y1933309D1*
X2639148Y1942303D1*
X2639293Y1951301D1*
X2639904Y1960279D1*
X2640978Y1969213D1*
X2642513Y1978081D1*
X2644505Y1986856D1*
X2646948Y1995517D1*
X2649836Y2004040D1*
X2653161Y2012402D1*
X2656915Y2020581D1*
X2661086Y2028555D1*
X2665665Y2036302D1*
X2670638Y2043802D1*
X2675993Y2051034D1*
X2681715Y2057980D1*
X2687788Y2064621D1*
X2694197Y2070938D1*
X2700924Y2076915D1*
X2707952Y2082536D1*
X2715261Y2087786D1*
X2722832Y2092651D1*
X2730644Y2097117D1*
X2738677Y2101173D1*
X2746909Y2104808D1*
X2755318Y2108013D1*
X2763882Y2110777D1*
X2772577Y2113096D1*
X2781381Y2114961D1*
X2790269Y2116368D1*
X2799219Y2117313D1*
X2808205Y2117794D1*
X2817204Y2117809D1*
X2826191Y2117359D1*
X2835144Y2116444D1*
X2844037Y2115067D1*
X2852847Y2113232D1*
X2861550Y2110944D1*
X2870123Y2108208D1*
X2878543Y2105032D1*
X2886787Y2101425D1*
X2894834Y2097396D1*
X2902662Y2092957D1*
X2910249Y2088118D1*
X2917576Y2082893D1*
X2924622Y2077296D1*
X2931370Y2071342D1*
X2937800Y2065046D1*
X2943896Y2058427D1*
X2949642Y2051500D1*
X2955021Y2044286D1*
X2960020Y2036803D1*
X2964625Y2029072D1*
X2968824Y2021112D1*
X2972605Y2012946D1*
X2975959Y2004595D1*
X2978876Y1996082D1*
X2981348Y1987430D1*
X2983370Y1978661D1*
X2984935Y1969799D1*
X2986040Y1960868D1*
X2986681Y1951892D1*
X2986860Y1944000D1*
X2986802Y1939501D1*
X1336802Y2589501D2*
X1336336Y2580514D1*
X1335406Y2571563D1*
X1334014Y2562672D1*
X1332164Y2553865D1*
X1329861Y2545166D1*
X1327111Y2536598D1*
X1323921Y2528183D1*
X1320299Y2519945D1*
X1316257Y2511905D1*
X1311804Y2504085D1*
X1306952Y2496506D1*
X1301715Y2489188D1*
X1296106Y2482151D1*
X1290140Y2475413D1*
X1283834Y2468994D1*
X1277204Y2462909D1*
X1270268Y2457175D1*
X1263044Y2451808D1*
X1255553Y2446822D1*
X1247813Y2442231D1*
X1239847Y2438045D1*
X1231674Y2434278D1*
X1223318Y2430939D1*
X1214800Y2428036D1*
X1206143Y2425578D1*
X1197371Y2423571D1*
X1188506Y2422021D1*
X1179573Y2420932D1*
X1170596Y2420306D1*
X1161599Y2420146D1*
X1152605Y2420451D1*
X1143639Y2421221D1*
X1134725Y2422455D1*
X1125886Y2424147D1*
X1117148Y2426295D1*
X1108531Y2428893D1*
X1100061Y2431932D1*
X1091760Y2435406D1*
X1083649Y2439304D1*
X1075751Y2443617D1*
X1068087Y2448333D1*
X1060677Y2453440D1*
X1053541Y2458922D1*
X1046698Y2464767D1*
X1040167Y2470958D1*
X1033965Y2477478D1*
X1028109Y2484311D1*
X1022614Y2491438D1*
X1017495Y2498839D1*
X1012766Y2506495D1*
X1008440Y2514386D1*
X1004527Y2522490D1*
X1001039Y2530786D1*
X997985Y2539251D1*
X995374Y2547862D1*
X993211Y2556597D1*
X991503Y2565433D1*
X990255Y2574345D1*
X989469Y2583309D1*
X989148Y2592303D1*
X989293Y2601301D1*
X989904Y2610279D1*
X990978Y2619213D1*
X992513Y2628081D1*
X994505Y2636856D1*
X996948Y2645517D1*
X999836Y2654040D1*
X1003161Y2662402D1*
X1006915Y2670581D1*
X1011086Y2678555D1*
X1015665Y2686302D1*
X1020638Y2693802D1*
X1025993Y2701034D1*
X1031715Y2707980D1*
X1037788Y2714621D1*
X1044197Y2720938D1*
X1050924Y2726915D1*
X1057952Y2732536D1*
X1065261Y2737786D1*
X1072832Y2742651D1*
X1080644Y2747117D1*
X1088677Y2751173D1*
X1096909Y2754808D1*
X1105318Y2758013D1*
X1113882Y2760777D1*
X1122577Y2763096D1*
X1131381Y2764961D1*
X1140269Y2766368D1*
X1149219Y2767313D1*
X1158205Y2767794D1*
X1167204Y2767809D1*
X1176191Y2767359D1*
X1185144Y2766444D1*
X1194037Y2765067D1*
X1202847Y2763232D1*
X1211550Y2760944D1*
X1220123Y2758208D1*
X1228543Y2755032D1*
X1236787Y2751425D1*
X1244834Y2747396D1*
X1252662Y2742957D1*
X1260249Y2738118D1*
X1267576Y2732893D1*
X1274622Y2727296D1*
X1281370Y2721342D1*
X1287800Y2715046D1*
X1293896Y2708427D1*
X1299642Y2701500D1*
X1305021Y2694286D1*
X1310020Y2686803D1*
X1314625Y2679072D1*
X1318824Y2671112D1*
X1322605Y2662946D1*
X1325959Y2654595D1*
X1328876Y2646082D1*
X1331348Y2637430D1*
X1333370Y2628661D1*
X1334935Y2619799D1*
X1336040Y2610868D1*
X1336681Y2601892D1*
X1336860Y2594000D1*
X1336802Y2589501D1*
X1886802D2*
X1886336Y2580514D1*
X1885406Y2571563D1*
X1884014Y2562672D1*
X1882164Y2553865D1*
X1879861Y2545166D1*
X1877111Y2536598D1*
X1873921Y2528183D1*
X1870299Y2519945D1*
X1866257Y2511905D1*
X1861804Y2504085D1*
X1856952Y2496506D1*
X1851715Y2489188D1*
X1846106Y2482151D1*
X1840140Y2475413D1*
X1833834Y2468994D1*
X1827204Y2462909D1*
X1820268Y2457175D1*
X1813044Y2451808D1*
X1805553Y2446822D1*
X1797813Y2442231D1*
X1789847Y2438045D1*
X1781674Y2434278D1*
X1773318Y2430939D1*
X1764800Y2428036D1*
X1756143Y2425578D1*
X1747371Y2423571D1*
X1738506Y2422021D1*
X1729573Y2420932D1*
X1720596Y2420306D1*
X1711599Y2420146D1*
X1702605Y2420451D1*
X1693639Y2421221D1*
X1684725Y2422455D1*
X1675886Y2424147D1*
X1667148Y2426295D1*
X1658531Y2428893D1*
X1650061Y2431932D1*
X1641760Y2435406D1*
X1633649Y2439304D1*
X1625751Y2443617D1*
X1618087Y2448333D1*
X1610677Y2453440D1*
X1603541Y2458922D1*
X1596698Y2464767D1*
X1590167Y2470958D1*
X1583965Y2477478D1*
X1578109Y2484311D1*
X1572614Y2491438D1*
X1567495Y2498839D1*
X1562766Y2506495D1*
X1558440Y2514386D1*
X1554527Y2522490D1*
X1551039Y2530786D1*
X1547985Y2539251D1*
X1545374Y2547862D1*
X1543211Y2556597D1*
X1541503Y2565433D1*
X1540255Y2574345D1*
X1539469Y2583309D1*
X1539148Y2592303D1*
X1539293Y2601301D1*
X1539904Y2610279D1*
X1540978Y2619213D1*
X1542513Y2628081D1*
X1544505Y2636856D1*
X1546948Y2645517D1*
X1549836Y2654040D1*
X1553161Y2662402D1*
X1556915Y2670581D1*
X1561086Y2678555D1*
X1565665Y2686302D1*
X1570638Y2693802D1*
X1575993Y2701034D1*
X1581715Y2707980D1*
X1587788Y2714621D1*
X1594197Y2720938D1*
X1600924Y2726915D1*
X1607952Y2732536D1*
X1615261Y2737786D1*
X1622832Y2742651D1*
X1630644Y2747117D1*
X1638677Y2751173D1*
X1646909Y2754808D1*
X1655318Y2758013D1*
X1663882Y2760777D1*
X1672577Y2763096D1*
X1681381Y2764961D1*
X1690269Y2766368D1*
X1699219Y2767313D1*
X1708205Y2767794D1*
X1717204Y2767809D1*
X1726191Y2767359D1*
X1735144Y2766444D1*
X1744037Y2765067D1*
X1752847Y2763232D1*
X1761550Y2760944D1*
X1770123Y2758208D1*
X1778543Y2755032D1*
X1786787Y2751425D1*
X1794834Y2747396D1*
X1802662Y2742957D1*
X1810249Y2738118D1*
X1817576Y2732893D1*
X1824622Y2727296D1*
X1831370Y2721342D1*
X1837800Y2715046D1*
X1843896Y2708427D1*
X1849642Y2701500D1*
X1855021Y2694286D1*
X1860020Y2686803D1*
X1864625Y2679072D1*
X1868824Y2671112D1*
X1872605Y2662946D1*
X1875959Y2654595D1*
X1878876Y2646082D1*
X1881348Y2637430D1*
X1883370Y2628661D1*
X1884935Y2619799D1*
X1886040Y2610868D1*
X1886681Y2601892D1*
X1886860Y2594000D1*
X1886802Y2589501D1*
X2436802D2*
X2436336Y2580514D1*
X2435406Y2571563D1*
X2434014Y2562672D1*
X2432164Y2553865D1*
X2429861Y2545166D1*
X2427111Y2536598D1*
X2423921Y2528183D1*
X2420299Y2519945D1*
X2416257Y2511905D1*
X2411804Y2504085D1*
X2406952Y2496506D1*
X2401715Y2489188D1*
X2396106Y2482151D1*
X2390140Y2475413D1*
X2383834Y2468994D1*
X2377204Y2462909D1*
X2370268Y2457175D1*
X2363044Y2451808D1*
X2355553Y2446822D1*
X2347813Y2442231D1*
X2339847Y2438045D1*
X2331674Y2434278D1*
X2323318Y2430939D1*
X2314800Y2428036D1*
X2306143Y2425578D1*
X2297371Y2423571D1*
X2288506Y2422021D1*
X2279573Y2420932D1*
X2270596Y2420306D1*
X2261599Y2420146D1*
X2252605Y2420451D1*
X2243639Y2421221D1*
X2234725Y2422455D1*
X2225886Y2424147D1*
X2217148Y2426295D1*
X2208531Y2428893D1*
X2200061Y2431932D1*
X2191760Y2435406D1*
X2183649Y2439304D1*
X2175751Y2443617D1*
X2168087Y2448333D1*
X2160677Y2453440D1*
X2153541Y2458922D1*
X2146698Y2464767D1*
X2140167Y2470958D1*
X2133965Y2477478D1*
X2128109Y2484311D1*
X2122614Y2491438D1*
X2117495Y2498839D1*
X2112766Y2506495D1*
X2108440Y2514386D1*
X2104527Y2522490D1*
X2101039Y2530786D1*
X2097985Y2539251D1*
X2095374Y2547862D1*
X2093211Y2556597D1*
X2091503Y2565433D1*
X2090255Y2574345D1*
X2089469Y2583309D1*
X2089148Y2592303D1*
X2089293Y2601301D1*
X2089904Y2610279D1*
X2090978Y2619213D1*
X2092513Y2628081D1*
X2094505Y2636856D1*
X2096948Y2645517D1*
X2099836Y2654040D1*
X2103161Y2662402D1*
X2106915Y2670581D1*
X2111086Y2678555D1*
X2115665Y2686302D1*
X2120638Y2693802D1*
X2125993Y2701034D1*
X2131715Y2707980D1*
X2137788Y2714621D1*
X2144197Y2720938D1*
X2150924Y2726915D1*
X2157952Y2732536D1*
X2165261Y2737786D1*
X2172832Y2742651D1*
X2180644Y2747117D1*
X2188677Y2751173D1*
X2196909Y2754808D1*
X2205318Y2758013D1*
X2213882Y2760777D1*
X2222577Y2763096D1*
X2231381Y2764961D1*
X2240269Y2766368D1*
X2249219Y2767313D1*
X2258205Y2767794D1*
X2267204Y2767809D1*
X2276191Y2767359D1*
X2285144Y2766444D1*
X2294037Y2765067D1*
X2302847Y2763232D1*
X2311550Y2760944D1*
X2320123Y2758208D1*
X2328543Y2755032D1*
X2336787Y2751425D1*
X2344834Y2747396D1*
X2352662Y2742957D1*
X2360249Y2738118D1*
X2367576Y2732893D1*
X2374622Y2727296D1*
X2381370Y2721342D1*
X2387800Y2715046D1*
X2393896Y2708427D1*
X2399642Y2701500D1*
X2405021Y2694286D1*
X2410020Y2686803D1*
X2414625Y2679072D1*
X2418824Y2671112D1*
X2422605Y2662946D1*
X2425959Y2654595D1*
X2428876Y2646082D1*
X2431348Y2637430D1*
X2433370Y2628661D1*
X2434935Y2619799D1*
X2436040Y2610868D1*
X2436681Y2601892D1*
X2436860Y2594000D1*
X2436802Y2589501D1*
X2986802D2*
X2986336Y2580514D1*
X2985406Y2571563D1*
X2984014Y2562672D1*
X2982164Y2553865D1*
X2979861Y2545166D1*
X2977111Y2536598D1*
X2973921Y2528183D1*
X2970299Y2519945D1*
X2966257Y2511905D1*
X2961804Y2504085D1*
X2956952Y2496506D1*
X2951715Y2489188D1*
X2946106Y2482151D1*
X2940140Y2475413D1*
X2933834Y2468994D1*
X2927204Y2462909D1*
X2920268Y2457175D1*
X2913044Y2451808D1*
X2905553Y2446822D1*
X2897813Y2442231D1*
X2889847Y2438045D1*
X2881674Y2434278D1*
X2873318Y2430939D1*
X2864800Y2428036D1*
X2856143Y2425578D1*
X2847371Y2423571D1*
X2838506Y2422021D1*
X2829573Y2420932D1*
X2820596Y2420306D1*
X2811599Y2420146D1*
X2802605Y2420451D1*
X2793639Y2421221D1*
X2784725Y2422455D1*
X2775886Y2424147D1*
X2767148Y2426295D1*
X2758531Y2428893D1*
X2750061Y2431932D1*
X2741760Y2435406D1*
X2733649Y2439304D1*
X2725751Y2443617D1*
X2718087Y2448333D1*
X2710677Y2453440D1*
X2703541Y2458922D1*
X2696698Y2464767D1*
X2690167Y2470958D1*
X2683965Y2477478D1*
X2678109Y2484311D1*
X2672614Y2491438D1*
X2667495Y2498839D1*
X2662766Y2506495D1*
X2658440Y2514386D1*
X2654527Y2522490D1*
X2651039Y2530786D1*
X2647985Y2539251D1*
X2645374Y2547862D1*
X2643211Y2556597D1*
X2641503Y2565433D1*
X2640255Y2574345D1*
X2639469Y2583309D1*
X2639148Y2592303D1*
X2639293Y2601301D1*
X2639904Y2610279D1*
X2640978Y2619213D1*
X2642513Y2628081D1*
X2644505Y2636856D1*
X2646948Y2645517D1*
X2649836Y2654040D1*
X2653161Y2662402D1*
X2656915Y2670581D1*
X2661086Y2678555D1*
X2665665Y2686302D1*
X2670638Y2693802D1*
X2675993Y2701034D1*
X2681715Y2707980D1*
X2687788Y2714621D1*
X2694197Y2720938D1*
X2700924Y2726915D1*
X2707952Y2732536D1*
X2715261Y2737786D1*
X2722832Y2742651D1*
X2730644Y2747117D1*
X2738677Y2751173D1*
X2746909Y2754808D1*
X2755318Y2758013D1*
X2763882Y2760777D1*
X2772577Y2763096D1*
X2781381Y2764961D1*
X2790269Y2766368D1*
X2799219Y2767313D1*
X2808205Y2767794D1*
X2817204Y2767809D1*
X2826191Y2767359D1*
X2835144Y2766444D1*
X2844037Y2765067D1*
X2852847Y2763232D1*
X2861550Y2760944D1*
X2870123Y2758208D1*
X2878543Y2755032D1*
X2886787Y2751425D1*
X2894834Y2747396D1*
X2902662Y2742957D1*
X2910249Y2738118D1*
X2917576Y2732893D1*
X2924622Y2727296D1*
X2931370Y2721342D1*
X2937800Y2715046D1*
X2943896Y2708427D1*
X2949642Y2701500D1*
X2955021Y2694286D1*
X2960020Y2686803D1*
X2964625Y2679072D1*
X2968824Y2671112D1*
X2972605Y2662946D1*
X2975959Y2654595D1*
X2978876Y2646082D1*
X2981348Y2637430D1*
X2983370Y2628661D1*
X2984935Y2619799D1*
X2986040Y2610868D1*
X2986681Y2601892D1*
X2986860Y2594000D1*
X2986802Y2589501D1*
X916919Y4789499D2*
X916453Y4780512D1*
X915523Y4771561D1*
X914131Y4762671D1*
X912281Y4753864D1*
X909978Y4745165D1*
X907227Y4736596D1*
X904037Y4728182D1*
X900416Y4719943D1*
X896374Y4711904D1*
X891921Y4704084D1*
X887069Y4696504D1*
X881831Y4689187D1*
X876222Y4682150D1*
X870257Y4675412D1*
X863950Y4668992D1*
X857320Y4662908D1*
X850384Y4657174D1*
X843161Y4651807D1*
X835670Y4646821D1*
X827930Y4642229D1*
X819964Y4638044D1*
X811791Y4634277D1*
X803435Y4630937D1*
X794917Y4628035D1*
X786260Y4625577D1*
X777488Y4623570D1*
X768623Y4622020D1*
X759690Y4620930D1*
X750713Y4620305D1*
X741715Y4620144D1*
X732722Y4620450D1*
X723756Y4621220D1*
X714842Y4622453D1*
X706003Y4624146D1*
X697264Y4626294D1*
X688648Y4628891D1*
X680178Y4631931D1*
X671877Y4635404D1*
X663766Y4639303D1*
X655868Y4643616D1*
X648204Y4648332D1*
X640794Y4653438D1*
X633658Y4658921D1*
X626815Y4664766D1*
X620284Y4670957D1*
X614082Y4677477D1*
X608226Y4684310D1*
X602731Y4691436D1*
X597612Y4698838D1*
X592883Y4706494D1*
X588556Y4714385D1*
X584644Y4722489D1*
X581156Y4730784D1*
X578102Y4739249D1*
X575490Y4747861D1*
X573328Y4756596D1*
X571620Y4765432D1*
X570371Y4774343D1*
X569586Y4783308D1*
X569265Y4792301D1*
X569410Y4801299D1*
X570021Y4810278D1*
X571095Y4819212D1*
X572630Y4828079D1*
X574622Y4836855D1*
X577065Y4845516D1*
X579953Y4854039D1*
X583278Y4862401D1*
X587032Y4870580D1*
X591203Y4878554D1*
X595782Y4886301D1*
X600755Y4893801D1*
X606110Y4901033D1*
X611832Y4907979D1*
X617905Y4914619D1*
X624314Y4920936D1*
X631041Y4926914D1*
X638069Y4932535D1*
X645378Y4937785D1*
X652949Y4942649D1*
X660761Y4947116D1*
X668794Y4951172D1*
X677026Y4954807D1*
X685435Y4958011D1*
X693999Y4960776D1*
X702694Y4963094D1*
X711498Y4964959D1*
X720386Y4966366D1*
X729335Y4967312D1*
X738321Y4967793D1*
X747320Y4967808D1*
X756308Y4967358D1*
X765261Y4966443D1*
X774154Y4965066D1*
X782963Y4963231D1*
X791667Y4960942D1*
X800240Y4958207D1*
X808660Y4955031D1*
X816904Y4951424D1*
X824951Y4947395D1*
X832778Y4942955D1*
X840366Y4938116D1*
X847693Y4932891D1*
X854739Y4927294D1*
X861487Y4921340D1*
X867917Y4915045D1*
X874013Y4908425D1*
X879759Y4901499D1*
X885138Y4894285D1*
X890137Y4886802D1*
X894742Y4879070D1*
X898940Y4871111D1*
X902722Y4862945D1*
X906075Y4854594D1*
X908992Y4846081D1*
X911465Y4837428D1*
X913487Y4828659D1*
X915052Y4819798D1*
X916157Y4810867D1*
X916798Y4801891D1*
X916977Y4793999D1*
X916919Y4789499D1*
X911802Y3789501D2*
X911336Y3780514D1*
X910406Y3771563D1*
X909014Y3762672D1*
X907164Y3753865D1*
X904861Y3745166D1*
X902111Y3736598D1*
X898921Y3728183D1*
X895299Y3719945D1*
X891257Y3711905D1*
X886804Y3704085D1*
X881952Y3696506D1*
X876715Y3689188D1*
X871106Y3682151D1*
X865140Y3675413D1*
X858834Y3668994D1*
X852204Y3662909D1*
X845268Y3657175D1*
X838044Y3651808D1*
X830553Y3646822D1*
X822813Y3642231D1*
X814847Y3638045D1*
X806674Y3634278D1*
X798318Y3630939D1*
X789800Y3628036D1*
X781143Y3625578D1*
X772371Y3623571D1*
X763506Y3622021D1*
X754573Y3620932D1*
X745596Y3620306D1*
X736599Y3620146D1*
X727605Y3620451D1*
X718639Y3621221D1*
X709725Y3622455D1*
X700886Y3624147D1*
X692148Y3626295D1*
X683531Y3628893D1*
X675061Y3631932D1*
X666760Y3635406D1*
X658649Y3639304D1*
X650751Y3643617D1*
X643087Y3648333D1*
X635677Y3653440D1*
X628541Y3658922D1*
X621698Y3664767D1*
X615167Y3670958D1*
X608965Y3677478D1*
X603109Y3684311D1*
X597614Y3691438D1*
X592495Y3698839D1*
X587766Y3706495D1*
X583440Y3714386D1*
X579527Y3722490D1*
X576039Y3730786D1*
X572985Y3739251D1*
X570374Y3747862D1*
X568211Y3756597D1*
X566503Y3765433D1*
X565255Y3774345D1*
X564469Y3783309D1*
X564148Y3792303D1*
X564293Y3801301D1*
X564904Y3810279D1*
X565978Y3819213D1*
X567513Y3828081D1*
X569505Y3836856D1*
X571948Y3845517D1*
X574836Y3854040D1*
X578161Y3862402D1*
X581915Y3870581D1*
X586086Y3878555D1*
X590665Y3886302D1*
X595638Y3893802D1*
X600993Y3901034D1*
X606715Y3907980D1*
X612788Y3914621D1*
X619197Y3920938D1*
X625924Y3926915D1*
X632952Y3932536D1*
X640261Y3937786D1*
X647832Y3942651D1*
X655644Y3947117D1*
X663677Y3951173D1*
X671909Y3954808D1*
X680318Y3958013D1*
X688882Y3960777D1*
X697577Y3963096D1*
X706381Y3964961D1*
X715269Y3966368D1*
X724219Y3967313D1*
X733205Y3967794D1*
X742204Y3967809D1*
X751191Y3967359D1*
X760144Y3966444D1*
X769037Y3965067D1*
X777847Y3963232D1*
X786550Y3960944D1*
X795123Y3958208D1*
X803543Y3955032D1*
X811787Y3951425D1*
X819834Y3947396D1*
X827662Y3942957D1*
X835249Y3938118D1*
X842576Y3932893D1*
X849622Y3927296D1*
X856370Y3921342D1*
X862800Y3915046D1*
X868896Y3908427D1*
X874642Y3901500D1*
X880021Y3894286D1*
X885020Y3886803D1*
X889625Y3879072D1*
X893824Y3871112D1*
X897605Y3862946D1*
X900959Y3854595D1*
X903876Y3846082D1*
X906348Y3837430D1*
X908370Y3828661D1*
X909935Y3819799D1*
X911040Y3810868D1*
X911681Y3801892D1*
X911860Y3794000D1*
X911802Y3789501D1*
X3411802D2*
X3411336Y3780514D1*
X3410406Y3771563D1*
X3409014Y3762672D1*
X3407164Y3753865D1*
X3404861Y3745166D1*
X3402111Y3736598D1*
X3398921Y3728183D1*
X3395299Y3719945D1*
X3391257Y3711905D1*
X3386804Y3704085D1*
X3381952Y3696506D1*
X3376715Y3689188D1*
X3371106Y3682151D1*
X3365140Y3675413D1*
X3358834Y3668994D1*
X3352204Y3662909D1*
X3345268Y3657175D1*
X3338044Y3651808D1*
X3330553Y3646822D1*
X3322813Y3642231D1*
X3314847Y3638045D1*
X3306674Y3634278D1*
X3298318Y3630939D1*
X3289800Y3628036D1*
X3281143Y3625578D1*
X3272371Y3623571D1*
X3263506Y3622021D1*
X3254573Y3620932D1*
X3245596Y3620306D1*
X3236599Y3620146D1*
X3227605Y3620451D1*
X3218639Y3621221D1*
X3209725Y3622455D1*
X3200886Y3624147D1*
X3192148Y3626295D1*
X3183531Y3628893D1*
X3175061Y3631932D1*
X3166760Y3635406D1*
X3158649Y3639304D1*
X3150751Y3643617D1*
X3143087Y3648333D1*
X3135677Y3653440D1*
X3128541Y3658922D1*
X3121698Y3664767D1*
X3115167Y3670958D1*
X3108965Y3677478D1*
X3103109Y3684311D1*
X3097614Y3691438D1*
X3092495Y3698839D1*
X3087766Y3706495D1*
X3083440Y3714386D1*
X3079527Y3722490D1*
X3076039Y3730786D1*
X3072985Y3739251D1*
X3070374Y3747862D1*
X3068211Y3756597D1*
X3066503Y3765433D1*
X3065255Y3774345D1*
X3064469Y3783309D1*
X3064148Y3792303D1*
X3064293Y3801301D1*
X3064904Y3810279D1*
X3065978Y3819213D1*
X3067513Y3828081D1*
X3069505Y3836856D1*
X3071948Y3845517D1*
X3074836Y3854040D1*
X3078161Y3862402D1*
X3081915Y3870581D1*
X3086086Y3878555D1*
X3090665Y3886302D1*
X3095638Y3893802D1*
X3100993Y3901034D1*
X3106715Y3907980D1*
X3112788Y3914621D1*
X3119197Y3920938D1*
X3125924Y3926915D1*
X3132952Y3932536D1*
X3140261Y3937786D1*
X3147832Y3942651D1*
X3155644Y3947117D1*
X3163677Y3951173D1*
X3171909Y3954808D1*
X3180318Y3958013D1*
X3188882Y3960777D1*
X3197577Y3963096D1*
X3206381Y3964961D1*
X3215269Y3966368D1*
X3224219Y3967313D1*
X3233205Y3967794D1*
X3242204Y3967809D1*
X3251191Y3967359D1*
X3260144Y3966444D1*
X3269037Y3965067D1*
X3277847Y3963232D1*
X3286550Y3960944D1*
X3295123Y3958208D1*
X3303543Y3955032D1*
X3311787Y3951425D1*
X3319834Y3947396D1*
X3327662Y3942957D1*
X3335249Y3938118D1*
X3342576Y3932893D1*
X3349622Y3927296D1*
X3356370Y3921342D1*
X3362800Y3915046D1*
X3368896Y3908427D1*
X3374642Y3901500D1*
X3380021Y3894286D1*
X3385020Y3886803D1*
X3389625Y3879072D1*
X3393824Y3871112D1*
X3397605Y3862946D1*
X3400959Y3854595D1*
X3403876Y3846082D1*
X3406348Y3837430D1*
X3408370Y3828661D1*
X3409935Y3819799D1*
X3411040Y3810868D1*
X3411681Y3801892D1*
X3411860Y3794000D1*
X3411802Y3789501D1*
X717553Y2189501D2*
X716929Y2180524D1*
X715683Y2171613D1*
X713823Y2162809D1*
X711356Y2154156D1*
X708295Y2145694D1*
X704654Y2137466D1*
X700451Y2129509D1*
X695706Y2121864D1*
X690442Y2114566D1*
X684685Y2107650D1*
X678462Y2101151D1*
X671803Y2095099D1*
X664740Y2089524D1*
X657307Y2084452D1*
X649541Y2079908D1*
X641478Y2075914D1*
X633157Y2072488D1*
X624619Y2069648D1*
X615904Y2067408D1*
X607055Y2065777D1*
X598114Y2064764D1*
X589124Y2064374D1*
X580129Y2064608D1*
X571172Y2065466D1*
X562296Y2066943D1*
X553543Y2069032D1*
X544957Y2071723D1*
X536578Y2075004D1*
X528447Y2078858D1*
X520603Y2083266D1*
X513084Y2088209D1*
X505925Y2093661D1*
X499162Y2099596D1*
X492827Y2105986D1*
X486951Y2112801D1*
X481561Y2120006D1*
X476685Y2127568D1*
X472344Y2135451D1*
X468561Y2143615D1*
X465354Y2152022D1*
X462737Y2160631D1*
X460724Y2169402D1*
X459324Y2178290D1*
X458544Y2187255D1*
X458388Y2196251D1*
X458857Y2205237D1*
X459947Y2214169D1*
X461655Y2223004D1*
X463972Y2231699D1*
X466886Y2240212D1*
X470383Y2248503D1*
X474447Y2256531D1*
X479059Y2264257D1*
X484195Y2271646D1*
X489832Y2278660D1*
X495941Y2285266D1*
X502494Y2291432D1*
X509459Y2297129D1*
X516803Y2302329D1*
X524489Y2307007D1*
X532482Y2311141D1*
X540742Y2314710D1*
X549230Y2317698D1*
X557904Y2320089D1*
X566724Y2321873D1*
X575646Y2323041D1*
X584628Y2323587D1*
X593625Y2323509D1*
X602596Y2322807D1*
X611497Y2321484D1*
X620284Y2319547D1*
X628915Y2317005D1*
X637350Y2313870D1*
X645547Y2310158D1*
X653466Y2305886D1*
X661070Y2301075D1*
X668322Y2295748D1*
X675187Y2289931D1*
X681632Y2283651D1*
X687626Y2276940D1*
X693139Y2269829D1*
X698146Y2262352D1*
X702623Y2254547D1*
X706547Y2246449D1*
X709900Y2238099D1*
X712665Y2229536D1*
X714830Y2220802D1*
X716384Y2211939D1*
X717319Y2202990D1*
X717631Y2194000D1*
X717553Y2189501D1*
X3517553D2*
X3516929Y2180524D1*
X3515683Y2171613D1*
X3513823Y2162809D1*
X3511356Y2154156D1*
X3508295Y2145694D1*
X3504654Y2137466D1*
X3500451Y2129509D1*
X3495706Y2121864D1*
X3490442Y2114566D1*
X3484685Y2107650D1*
X3478462Y2101151D1*
X3471803Y2095099D1*
X3464740Y2089524D1*
X3457307Y2084452D1*
X3449541Y2079908D1*
X3441478Y2075914D1*
X3433157Y2072488D1*
X3424619Y2069648D1*
X3415904Y2067408D1*
X3407055Y2065777D1*
X3398114Y2064764D1*
X3389124Y2064374D1*
X3380129Y2064608D1*
X3371172Y2065466D1*
X3362296Y2066943D1*
X3353543Y2069032D1*
X3344957Y2071723D1*
X3336578Y2075004D1*
X3328447Y2078858D1*
X3320603Y2083266D1*
X3313084Y2088209D1*
X3305925Y2093661D1*
X3299162Y2099596D1*
X3292827Y2105986D1*
X3286951Y2112801D1*
X3281561Y2120006D1*
X3276685Y2127568D1*
X3272344Y2135451D1*
X3268561Y2143615D1*
X3265354Y2152022D1*
X3262737Y2160631D1*
X3260724Y2169402D1*
X3259324Y2178290D1*
X3258544Y2187255D1*
X3258388Y2196251D1*
X3258857Y2205237D1*
X3259947Y2214169D1*
X3261655Y2223004D1*
X3263972Y2231699D1*
X3266886Y2240212D1*
X3270383Y2248503D1*
X3274447Y2256531D1*
X3279059Y2264257D1*
X3284195Y2271646D1*
X3289832Y2278660D1*
X3295941Y2285266D1*
X3302494Y2291432D1*
X3309459Y2297129D1*
X3316803Y2302329D1*
X3324489Y2307007D1*
X3332482Y2311141D1*
X3340742Y2314710D1*
X3349230Y2317698D1*
X3357904Y2320089D1*
X3366724Y2321873D1*
X3375646Y2323041D1*
X3384628Y2323587D1*
X3393625Y2323509D1*
X3402596Y2322807D1*
X3411497Y2321484D1*
X3420284Y2319547D1*
X3428915Y2317005D1*
X3437350Y2313870D1*
X3445547Y2310158D1*
X3453466Y2305886D1*
X3461070Y2301075D1*
X3468322Y2295748D1*
X3475187Y2289931D1*
X3481632Y2283651D1*
X3487626Y2276940D1*
X3493139Y2269829D1*
X3498146Y2262352D1*
X3502623Y2254547D1*
X3506547Y2246449D1*
X3509900Y2238099D1*
X3512665Y2229536D1*
X3514830Y2220802D1*
X3516384Y2211939D1*
X3517319Y2202990D1*
X3517631Y2194000D1*
X3517553Y2189501D1*
X1517553Y1039501D2*
X1516929Y1030524D1*
X1515683Y1021613D1*
X1513823Y1012809D1*
X1511356Y1004156D1*
X1508295Y995694D1*
X1504654Y987466D1*
X1500451Y979509D1*
X1495706Y971864D1*
X1490442Y964566D1*
X1484685Y957650D1*
X1478462Y951151D1*
X1471803Y945099D1*
X1464740Y939524D1*
X1457307Y934452D1*
X1449541Y929908D1*
X1441478Y925914D1*
X1433157Y922488D1*
X1424619Y919648D1*
X1415904Y917408D1*
X1407055Y915777D1*
X1398114Y914764D1*
X1389124Y914374D1*
X1380129Y914608D1*
X1371172Y915466D1*
X1362296Y916943D1*
X1353543Y919032D1*
X1344957Y921723D1*
X1336578Y925004D1*
X1328447Y928858D1*
X1320603Y933266D1*
X1313084Y938209D1*
X1305925Y943661D1*
X1299162Y949596D1*
X1292827Y955986D1*
X1286951Y962801D1*
X1281561Y970006D1*
X1276685Y977568D1*
X1272344Y985451D1*
X1268561Y993615D1*
X1265354Y1002022D1*
X1262737Y1010631D1*
X1260724Y1019402D1*
X1259324Y1028290D1*
X1258544Y1037255D1*
X1258388Y1046251D1*
X1258857Y1055237D1*
X1259947Y1064169D1*
X1261655Y1073004D1*
X1263972Y1081699D1*
X1266886Y1090212D1*
X1270383Y1098503D1*
X1274447Y1106531D1*
X1279059Y1114257D1*
X1284195Y1121646D1*
X1289832Y1128660D1*
X1295941Y1135266D1*
X1302494Y1141432D1*
X1309459Y1147129D1*
X1316803Y1152329D1*
X1324489Y1157007D1*
X1332482Y1161141D1*
X1340742Y1164710D1*
X1349230Y1167698D1*
X1357904Y1170089D1*
X1366724Y1171873D1*
X1375646Y1173041D1*
X1384628Y1173587D1*
X1393625Y1173509D1*
X1402596Y1172807D1*
X1411497Y1171484D1*
X1420284Y1169547D1*
X1428915Y1167005D1*
X1437350Y1163870D1*
X1445547Y1160158D1*
X1453466Y1155886D1*
X1461070Y1151075D1*
X1468322Y1145748D1*
X1475187Y1139931D1*
X1481632Y1133651D1*
X1487626Y1126940D1*
X1493139Y1119829D1*
X1498146Y1112352D1*
X1502623Y1104547D1*
X1506547Y1096449D1*
X1509900Y1088099D1*
X1512665Y1079536D1*
X1514830Y1070802D1*
X1516384Y1061939D1*
X1517319Y1052990D1*
X1517631Y1044000D1*
X1517553Y1039501D1*
X548643Y2421119D2*
X541675Y2421417D1*
X537212Y2421984D1*
X532792Y2422826D1*
X528432Y2423938D1*
X524150Y2425317D1*
X519960Y2426958D1*
X515880Y2428854D1*
X511924Y2430998D1*
X508108Y2433381D1*
X504447Y2435996D1*
X500953Y2438832D1*
X497641Y2441877D1*
X494524Y2445121D1*
X491612Y2448551D1*
X488918Y2452154D1*
X486450Y2455917D1*
X484220Y2459824D1*
X482235Y2463862D1*
X480502Y2468014D1*
X479029Y2472266D1*
X477821Y2476600D1*
X476883Y2481000D1*
X476218Y2485450D1*
X475828Y2489933D1*
X475716Y2494430D1*
X475881Y2498927D1*
X476324Y2503404D1*
X477041Y2507846D1*
X478032Y2512235D1*
X479291Y2516554D1*
X480814Y2520788D1*
X482595Y2524920D1*
X484628Y2528934D1*
X486904Y2532814D1*
X489416Y2536548D1*
X492153Y2540119D1*
X495105Y2543514D1*
X498260Y2546721D1*
X501608Y2549727D1*
X505135Y2552521D1*
X508827Y2555093D1*
X512670Y2557431D1*
X516651Y2559528D1*
X520754Y2561376D1*
X524962Y2562967D1*
X529261Y2564295D1*
X533633Y2565356D1*
X538063Y2566145D1*
X542533Y2566660D1*
X548625Y2566883D1*
X627169Y2566915D1*
X634753Y2566540D1*
X639213Y2565947D1*
X643628Y2565080D1*
X647981Y2563941D1*
X652255Y2562537D1*
X656435Y2560872D1*
X660504Y2558952D1*
X664447Y2556785D1*
X668249Y2554378D1*
X671895Y2551742D1*
X675371Y2548886D1*
X678665Y2545821D1*
X681764Y2542559D1*
X684655Y2539111D1*
X687328Y2535492D1*
X689773Y2531715D1*
X691981Y2527795D1*
X693942Y2523745D1*
X695650Y2519583D1*
X697098Y2515323D1*
X698280Y2510982D1*
X699192Y2506576D1*
X699831Y2502122D1*
X700285Y2494000D1*
X700146Y2489503D1*
X699730Y2485023D1*
X699039Y2480577D1*
X698075Y2476182D1*
X696841Y2471855D1*
X695343Y2467613D1*
X693586Y2463471D1*
X691577Y2459445D1*
X689324Y2455551D1*
X686834Y2451803D1*
X684119Y2448215D1*
X681187Y2444803D1*
X678050Y2441577D1*
X674720Y2438551D1*
X671210Y2435736D1*
X667533Y2433143D1*
X663703Y2430782D1*
X659735Y2428661D1*
X655644Y2426790D1*
X651445Y2425174D1*
X647154Y2423820D1*
X642788Y2422734D1*
X638363Y2421918D1*
X633896Y2421378D1*
X627383Y2421119D1*
X564370Y2421085D1*
X548630Y2421102D1*
X548643Y2621119D2*
X541675Y2621417D1*
X537212Y2621984D1*
X532792Y2622826D1*
X528432Y2623938D1*
X524150Y2625317D1*
X519960Y2626958D1*
X515880Y2628854D1*
X511924Y2630998D1*
X508108Y2633381D1*
X504447Y2635996D1*
X500953Y2638832D1*
X497641Y2641877D1*
X494524Y2645121D1*
X491612Y2648551D1*
X488918Y2652154D1*
X486450Y2655917D1*
X484220Y2659824D1*
X482235Y2663862D1*
X480502Y2668014D1*
X479029Y2672266D1*
X477821Y2676600D1*
X476883Y2681000D1*
X476218Y2685450D1*
X475828Y2689933D1*
X475716Y2694430D1*
X475881Y2698927D1*
X476324Y2703404D1*
X477041Y2707846D1*
X478032Y2712235D1*
X479291Y2716554D1*
X480814Y2720788D1*
X482595Y2724920D1*
X484628Y2728934D1*
X486904Y2732814D1*
X489416Y2736548D1*
X492153Y2740119D1*
X495105Y2743514D1*
X498260Y2746721D1*
X501608Y2749727D1*
X505135Y2752521D1*
X508827Y2755093D1*
X512670Y2757431D1*
X516651Y2759528D1*
X520754Y2761376D1*
X524962Y2762967D1*
X529261Y2764295D1*
X533633Y2765356D1*
X538063Y2766145D1*
X542533Y2766660D1*
X548625Y2766883D1*
X627169Y2766915D1*
X634753Y2766540D1*
X639213Y2765947D1*
X643628Y2765080D1*
X647981Y2763941D1*
X652255Y2762537D1*
X656435Y2760872D1*
X660504Y2758952D1*
X664447Y2756785D1*
X668249Y2754378D1*
X671895Y2751742D1*
X675371Y2748886D1*
X678665Y2745821D1*
X681764Y2742559D1*
X684655Y2739111D1*
X687328Y2735492D1*
X689773Y2731715D1*
X691981Y2727795D1*
X693942Y2723745D1*
X695650Y2719583D1*
X697098Y2715323D1*
X698280Y2710982D1*
X699192Y2706576D1*
X699831Y2702122D1*
X700285Y2694000D1*
X700146Y2689503D1*
X699730Y2685023D1*
X699039Y2680577D1*
X698075Y2676182D1*
X696841Y2671855D1*
X695343Y2667613D1*
X693586Y2663471D1*
X691577Y2659445D1*
X689324Y2655551D1*
X686834Y2651803D1*
X684119Y2648215D1*
X681187Y2644803D1*
X678050Y2641577D1*
X674720Y2638551D1*
X671210Y2635736D1*
X667533Y2633143D1*
X663703Y2630782D1*
X659735Y2628661D1*
X655644Y2626790D1*
X651445Y2625174D1*
X647154Y2623820D1*
X642788Y2622734D1*
X638363Y2621918D1*
X633896Y2621378D1*
X627383Y2621119D1*
X564370Y2621085D1*
X548630Y2621102D1*
X548643Y2821119D2*
X541675Y2821417D1*
X537212Y2821984D1*
X532792Y2822826D1*
X528432Y2823938D1*
X524150Y2825317D1*
X519960Y2826958D1*
X515880Y2828854D1*
X511924Y2830998D1*
X508108Y2833381D1*
X504447Y2835996D1*
X500953Y2838832D1*
X497641Y2841877D1*
X494524Y2845121D1*
X491612Y2848551D1*
X488918Y2852154D1*
X486450Y2855917D1*
X484220Y2859824D1*
X482235Y2863862D1*
X480502Y2868014D1*
X479029Y2872266D1*
X477821Y2876600D1*
X476883Y2881000D1*
X476218Y2885450D1*
X475828Y2889933D1*
X475716Y2894430D1*
X475881Y2898927D1*
X476324Y2903404D1*
X477041Y2907846D1*
X478032Y2912235D1*
X479291Y2916554D1*
X480814Y2920788D1*
X482595Y2924920D1*
X484628Y2928934D1*
X486904Y2932814D1*
X489416Y2936548D1*
X492153Y2940119D1*
X495105Y2943514D1*
X498260Y2946721D1*
X501608Y2949727D1*
X505135Y2952521D1*
X508827Y2955093D1*
X512670Y2957431D1*
X516651Y2959528D1*
X520754Y2961376D1*
X524962Y2962967D1*
X529261Y2964295D1*
X533633Y2965356D1*
X538063Y2966145D1*
X542533Y2966660D1*
X548625Y2966883D1*
X627169Y2966915D1*
X634753Y2966540D1*
X639213Y2965947D1*
X643628Y2965080D1*
X647981Y2963941D1*
X652255Y2962537D1*
X656435Y2960872D1*
X660504Y2958952D1*
X664447Y2956785D1*
X668249Y2954378D1*
X671895Y2951742D1*
X675371Y2948886D1*
X678665Y2945821D1*
X681764Y2942559D1*
X684655Y2939111D1*
X687328Y2935492D1*
X689773Y2931715D1*
X691981Y2927795D1*
X693942Y2923745D1*
X695650Y2919583D1*
X697098Y2915323D1*
X698280Y2910982D1*
X699192Y2906576D1*
X699831Y2902122D1*
X700285Y2894000D1*
X700146Y2889503D1*
X699730Y2885023D1*
X699039Y2880577D1*
X698075Y2876182D1*
X696841Y2871855D1*
X695343Y2867613D1*
X693586Y2863471D1*
X691577Y2859445D1*
X689324Y2855551D1*
X686834Y2851803D1*
X684119Y2848215D1*
X681187Y2844803D1*
X678050Y2841577D1*
X674720Y2838551D1*
X671210Y2835736D1*
X667533Y2833143D1*
X663703Y2830782D1*
X659735Y2828661D1*
X655644Y2826790D1*
X651445Y2825174D1*
X647154Y2823820D1*
X642788Y2822734D1*
X638363Y2821918D1*
X633896Y2821378D1*
X627383Y2821119D1*
X568870Y2821085D1*
X548630Y2821102D1*
X548643Y3021119D2*
X541675Y3021417D1*
X537212Y3021984D1*
X532792Y3022826D1*
X528432Y3023938D1*
X524150Y3025317D1*
X519960Y3026958D1*
X515880Y3028854D1*
X511924Y3030998D1*
X508108Y3033381D1*
X504447Y3035996D1*
X500953Y3038832D1*
X497641Y3041877D1*
X494524Y3045121D1*
X491612Y3048551D1*
X488918Y3052154D1*
X486450Y3055917D1*
X484220Y3059824D1*
X482235Y3063862D1*
X480502Y3068014D1*
X479029Y3072266D1*
X477821Y3076600D1*
X476883Y3081000D1*
X476218Y3085450D1*
X475828Y3089933D1*
X475716Y3094430D1*
X475881Y3098927D1*
X476324Y3103404D1*
X477041Y3107846D1*
X478032Y3112235D1*
X479291Y3116554D1*
X480814Y3120788D1*
X482595Y3124920D1*
X484628Y3128934D1*
X486904Y3132814D1*
X489416Y3136548D1*
X492153Y3140119D1*
X495105Y3143514D1*
X498260Y3146721D1*
X501608Y3149727D1*
X505135Y3152521D1*
X508827Y3155093D1*
X512670Y3157431D1*
X516651Y3159528D1*
X520754Y3161376D1*
X524962Y3162967D1*
X529261Y3164295D1*
X533633Y3165356D1*
X538063Y3166145D1*
X542533Y3166660D1*
X548625Y3166883D1*
X627152Y3166915D1*
X634753Y3166540D1*
X639213Y3165947D1*
X643628Y3165080D1*
X647981Y3163941D1*
X652255Y3162537D1*
X656435Y3160872D1*
X660504Y3158952D1*
X664447Y3156785D1*
X668249Y3154378D1*
X671895Y3151742D1*
X675371Y3148886D1*
X678665Y3145821D1*
X681764Y3142559D1*
X684655Y3139111D1*
X687328Y3135492D1*
X689773Y3131715D1*
X691981Y3127795D1*
X693942Y3123745D1*
X695650Y3119583D1*
X697098Y3115323D1*
X698280Y3110982D1*
X699192Y3106576D1*
X699831Y3102122D1*
X700285Y3094000D1*
X700146Y3089503D1*
X699730Y3085023D1*
X699039Y3080577D1*
X698075Y3076182D1*
X696841Y3071855D1*
X695343Y3067613D1*
X693586Y3063471D1*
X691577Y3059445D1*
X689324Y3055551D1*
X686834Y3051803D1*
X684119Y3048215D1*
X681187Y3044803D1*
X678050Y3041577D1*
X674720Y3038551D1*
X671210Y3035736D1*
X667533Y3033143D1*
X663703Y3030782D1*
X659735Y3028661D1*
X655644Y3026790D1*
X651445Y3025174D1*
X647154Y3023820D1*
X642788Y3022734D1*
X638363Y3021918D1*
X633896Y3021378D1*
X627383Y3021119D1*
X568870Y3021085D1*
X548630Y3021102D1*
X3348643Y2421119D2*
X3341675Y2421417D1*
X3337212Y2421984D1*
X3332792Y2422826D1*
X3328432Y2423938D1*
X3324150Y2425317D1*
X3319960Y2426958D1*
X3315880Y2428854D1*
X3311924Y2430998D1*
X3308108Y2433381D1*
X3304447Y2435996D1*
X3300953Y2438832D1*
X3297641Y2441877D1*
X3294524Y2445121D1*
X3291612Y2448551D1*
X3288918Y2452154D1*
X3286450Y2455917D1*
X3284220Y2459824D1*
X3282235Y2463862D1*
X3280502Y2468014D1*
X3279029Y2472266D1*
X3277821Y2476600D1*
X3276883Y2481000D1*
X3276218Y2485450D1*
X3275828Y2489933D1*
X3275716Y2494430D1*
X3275881Y2498927D1*
X3276324Y2503404D1*
X3277041Y2507846D1*
X3278032Y2512235D1*
X3279291Y2516554D1*
X3280814Y2520788D1*
X3282595Y2524920D1*
X3284628Y2528934D1*
X3286904Y2532814D1*
X3289416Y2536548D1*
X3292153Y2540119D1*
X3295105Y2543514D1*
X3298260Y2546721D1*
X3301608Y2549727D1*
X3305135Y2552521D1*
X3308827Y2555093D1*
X3312670Y2557431D1*
X3316651Y2559528D1*
X3320754Y2561376D1*
X3324962Y2562967D1*
X3329261Y2564295D1*
X3333633Y2565356D1*
X3338063Y2566145D1*
X3342533Y2566660D1*
X3348630Y2566915D1*
X3430265Y2566858D1*
X3434753Y2566540D1*
X3439213Y2565947D1*
X3443628Y2565080D1*
X3447981Y2563941D1*
X3452255Y2562537D1*
X3456435Y2560872D1*
X3460504Y2558952D1*
X3464447Y2556785D1*
X3468249Y2554378D1*
X3471895Y2551742D1*
X3475371Y2548886D1*
X3478665Y2545821D1*
X3481764Y2542559D1*
X3484655Y2539111D1*
X3487328Y2535492D1*
X3489773Y2531715D1*
X3491981Y2527795D1*
X3493942Y2523745D1*
X3495650Y2519583D1*
X3497098Y2515323D1*
X3498280Y2510982D1*
X3499192Y2506576D1*
X3499831Y2502122D1*
X3500285Y2494000D1*
X3500146Y2489503D1*
X3499730Y2485023D1*
X3499039Y2480577D1*
X3498075Y2476182D1*
X3496841Y2471855D1*
X3495343Y2467613D1*
X3493586Y2463471D1*
X3491577Y2459445D1*
X3489324Y2455551D1*
X3486834Y2451803D1*
X3484119Y2448215D1*
X3481187Y2444803D1*
X3478050Y2441577D1*
X3474720Y2438551D1*
X3471210Y2435736D1*
X3467533Y2433143D1*
X3463703Y2430782D1*
X3459735Y2428661D1*
X3455644Y2426790D1*
X3451445Y2425174D1*
X3447154Y2423820D1*
X3442788Y2422734D1*
X3438363Y2421918D1*
X3433896Y2421378D1*
X3427383Y2421119D1*
X3364370Y2421085D1*
X3348630Y2421102D1*
X3348643Y2621119D2*
X3341675Y2621417D1*
X3337212Y2621984D1*
X3332792Y2622826D1*
X3328432Y2623938D1*
X3324150Y2625317D1*
X3319960Y2626958D1*
X3315880Y2628854D1*
X3311924Y2630998D1*
X3308108Y2633381D1*
X3304447Y2635996D1*
X3300953Y2638832D1*
X3297641Y2641877D1*
X3294524Y2645121D1*
X3291612Y2648551D1*
X3288918Y2652154D1*
X3286450Y2655917D1*
X3284220Y2659824D1*
X3282235Y2663862D1*
X3280502Y2668014D1*
X3279029Y2672266D1*
X3277821Y2676600D1*
X3276883Y2681000D1*
X3276218Y2685450D1*
X3275828Y2689933D1*
X3275716Y2694430D1*
X3275881Y2698927D1*
X3276324Y2703404D1*
X3277041Y2707846D1*
X3278032Y2712235D1*
X3279291Y2716554D1*
X3280814Y2720788D1*
X3282595Y2724920D1*
X3284628Y2728934D1*
X3286904Y2732814D1*
X3289416Y2736548D1*
X3292153Y2740119D1*
X3295105Y2743514D1*
X3298260Y2746721D1*
X3301608Y2749727D1*
X3305135Y2752521D1*
X3308827Y2755093D1*
X3312670Y2757431D1*
X3316651Y2759528D1*
X3320754Y2761376D1*
X3324962Y2762967D1*
X3329261Y2764295D1*
X3333633Y2765356D1*
X3338063Y2766145D1*
X3342533Y2766660D1*
X3348625Y2766883D1*
X3427326Y2766915D1*
X3434753Y2766540D1*
X3439213Y2765947D1*
X3443628Y2765080D1*
X3447981Y2763941D1*
X3452255Y2762537D1*
X3456435Y2760872D1*
X3460504Y2758952D1*
X3464447Y2756785D1*
X3468249Y2754378D1*
X3471895Y2751742D1*
X3475371Y2748886D1*
X3478665Y2745821D1*
X3481764Y2742559D1*
X3484655Y2739111D1*
X3487328Y2735492D1*
X3489773Y2731715D1*
X3491981Y2727795D1*
X3493942Y2723745D1*
X3495650Y2719583D1*
X3497098Y2715323D1*
X3498280Y2710982D1*
X3499192Y2706576D1*
X3499831Y2702122D1*
X3500285Y2694000D1*
X3500146Y2689503D1*
X3499730Y2685023D1*
X3499039Y2680577D1*
X3498075Y2676182D1*
X3496841Y2671855D1*
X3495343Y2667613D1*
X3493586Y2663471D1*
X3491577Y2659445D1*
X3489324Y2655551D1*
X3486834Y2651803D1*
X3484119Y2648215D1*
X3481187Y2644803D1*
X3478050Y2641577D1*
X3474720Y2638551D1*
X3471210Y2635736D1*
X3467533Y2633143D1*
X3463703Y2630782D1*
X3459735Y2628661D1*
X3455644Y2626790D1*
X3451445Y2625174D1*
X3447154Y2623820D1*
X3442788Y2622734D1*
X3438363Y2621918D1*
X3433896Y2621378D1*
X3427383Y2621119D1*
X3364370Y2621085D1*
X3348630Y2621102D1*
X3348643Y2821119D2*
X3341675Y2821417D1*
X3337212Y2821984D1*
X3332792Y2822826D1*
X3328432Y2823938D1*
X3324150Y2825317D1*
X3319960Y2826958D1*
X3315880Y2828854D1*
X3311924Y2830998D1*
X3308108Y2833381D1*
X3304447Y2835996D1*
X3300953Y2838832D1*
X3297641Y2841877D1*
X3294524Y2845121D1*
X3291612Y2848551D1*
X3288918Y2852154D1*
X3286450Y2855917D1*
X3284220Y2859824D1*
X3282235Y2863862D1*
X3280502Y2868014D1*
X3279029Y2872266D1*
X3277821Y2876600D1*
X3276883Y2881000D1*
X3276218Y2885450D1*
X3275828Y2889933D1*
X3275716Y2894430D1*
X3275881Y2898927D1*
X3276324Y2903404D1*
X3277041Y2907846D1*
X3278032Y2912235D1*
X3279291Y2916554D1*
X3280814Y2920788D1*
X3282595Y2924920D1*
X3284628Y2928934D1*
X3286904Y2932814D1*
X3289416Y2936548D1*
X3292153Y2940119D1*
X3295105Y2943514D1*
X3298260Y2946721D1*
X3301608Y2949727D1*
X3305135Y2952521D1*
X3308827Y2955093D1*
X3312670Y2957431D1*
X3316651Y2959528D1*
X3320754Y2961376D1*
X3324962Y2962967D1*
X3329261Y2964295D1*
X3333633Y2965356D1*
X3338063Y2966145D1*
X3342533Y2966660D1*
X3348625Y2966883D1*
X3427309Y2966915D1*
X3434753Y2966540D1*
X3439213Y2965947D1*
X3443628Y2965080D1*
X3447981Y2963941D1*
X3452255Y2962537D1*
X3456435Y2960872D1*
X3460504Y2958952D1*
X3464447Y2956785D1*
X3468249Y2954378D1*
X3471895Y2951742D1*
X3475371Y2948886D1*
X3478665Y2945821D1*
X3481764Y2942559D1*
X3484655Y2939111D1*
X3487328Y2935492D1*
X3489773Y2931715D1*
X3491981Y2927795D1*
X3493942Y2923745D1*
X3495650Y2919583D1*
X3497098Y2915323D1*
X3498280Y2910982D1*
X3499192Y2906576D1*
X3499831Y2902122D1*
X3500285Y2894000D1*
X3500146Y2889503D1*
X3499730Y2885023D1*
X3499039Y2880577D1*
X3498075Y2876182D1*
X3496841Y2871855D1*
X3495343Y2867613D1*
X3493586Y2863471D1*
X3491577Y2859445D1*
X3489324Y2855551D1*
X3486834Y2851803D1*
X3484119Y2848215D1*
X3481187Y2844803D1*
X3478050Y2841577D1*
X3474720Y2838551D1*
X3471210Y2835736D1*
X3467533Y2833143D1*
X3463703Y2830782D1*
X3459735Y2828661D1*
X3455644Y2826790D1*
X3451445Y2825174D1*
X3447154Y2823820D1*
X3442788Y2822734D1*
X3438363Y2821918D1*
X3433896Y2821378D1*
X3427383Y2821119D1*
X3364370Y2821085D1*
X3348630Y2821102D1*
X3348643Y3021119D2*
X3341675Y3021417D1*
X3337212Y3021984D1*
X3332792Y3022826D1*
X3328432Y3023938D1*
X3324150Y3025317D1*
X3319960Y3026958D1*
X3315880Y3028854D1*
X3311924Y3030998D1*
X3308108Y3033381D1*
X3304447Y3035996D1*
X3300953Y3038832D1*
X3297641Y3041877D1*
X3294524Y3045121D1*
X3291612Y3048551D1*
X3288918Y3052154D1*
X3286450Y3055917D1*
X3284220Y3059824D1*
X3282235Y3063862D1*
X3280502Y3068014D1*
X3279029Y3072266D1*
X3277821Y3076600D1*
X3276883Y3081000D1*
X3276218Y3085450D1*
X3275828Y3089933D1*
X3275716Y3094430D1*
X3275881Y3098927D1*
X3276324Y3103404D1*
X3277041Y3107846D1*
X3278032Y3112235D1*
X3279291Y3116554D1*
X3280814Y3120788D1*
X3282595Y3124920D1*
X3284628Y3128934D1*
X3286904Y3132814D1*
X3289416Y3136548D1*
X3292153Y3140119D1*
X3295105Y3143514D1*
X3298260Y3146721D1*
X3301608Y3149727D1*
X3305135Y3152521D1*
X3308827Y3155093D1*
X3312670Y3157431D1*
X3316651Y3159528D1*
X3320754Y3161376D1*
X3324962Y3162967D1*
X3329261Y3164295D1*
X3333633Y3165356D1*
X3338063Y3166145D1*
X3342533Y3166660D1*
X3348625Y3166883D1*
X3427291Y3166915D1*
X3434753Y3166540D1*
X3439213Y3165947D1*
X3443628Y3165080D1*
X3447981Y3163941D1*
X3452255Y3162537D1*
X3456435Y3160872D1*
X3460504Y3158952D1*
X3464447Y3156785D1*
X3468249Y3154378D1*
X3471895Y3151742D1*
X3475371Y3148886D1*
X3478665Y3145821D1*
X3481764Y3142559D1*
X3484655Y3139111D1*
X3487328Y3135492D1*
X3489773Y3131715D1*
X3491981Y3127795D1*
X3493942Y3123745D1*
X3495650Y3119583D1*
X3497098Y3115323D1*
X3498280Y3110982D1*
X3499192Y3106576D1*
X3499831Y3102122D1*
X3500285Y3094000D1*
X3500146Y3089503D1*
X3499730Y3085023D1*
X3499039Y3080577D1*
X3498075Y3076182D1*
X3496841Y3071855D1*
X3495343Y3067613D1*
X3493586Y3063471D1*
X3491577Y3059445D1*
X3489324Y3055551D1*
X3486834Y3051803D1*
X3484119Y3048215D1*
X3481187Y3044803D1*
X3478050Y3041577D1*
X3474720Y3038551D1*
X3471210Y3035736D1*
X3467533Y3033143D1*
X3463703Y3030782D1*
X3459735Y3028661D1*
X3455644Y3026790D1*
X3451445Y3025174D1*
X3447154Y3023820D1*
X3442788Y3022734D1*
X3438363Y3021918D1*
X3433896Y3021378D1*
X3427383Y3021119D1*
X3364370Y3021085D1*
X3348630Y3021102D1*
X1812433Y5048537D2*
X1812577Y5052876D1*
X1813047Y5057350D1*
X1813835Y5061780D1*
X1814937Y5066142D1*
X1816347Y5070414D1*
X1818057Y5074575D1*
X1820060Y5078604D1*
X1822345Y5082479D1*
X1824901Y5086182D1*
X1827714Y5089694D1*
X1830770Y5092995D1*
X1834054Y5096071D1*
X1837548Y5098904D1*
X1841236Y5101482D1*
X1845098Y5103789D1*
X1849115Y5105816D1*
X1853266Y5107551D1*
X1857530Y5108986D1*
X1861885Y5110113D1*
X1866310Y5110927D1*
X1870782Y5111423D1*
X1875277Y5111600D1*
X1879774Y5111455D1*
X1884249Y5110990D1*
X1888680Y5110208D1*
X1893043Y5109111D1*
X1897317Y5107707D1*
X1901480Y5106001D1*
X1905511Y5104003D1*
X1909389Y5101722D1*
X1913095Y5099171D1*
X1916610Y5096362D1*
X1919915Y5093310D1*
X1922994Y5090030D1*
X1925832Y5086539D1*
X1928414Y5082854D1*
X1930726Y5078995D1*
X1932757Y5074980D1*
X1934497Y5070831D1*
X1935937Y5066569D1*
X1937070Y5062215D1*
X1937889Y5057791D1*
X1938390Y5053320D1*
X1938573Y5044027D1*
X1938555Y4989472D1*
X1938412Y4984976D1*
X1937932Y4980503D1*
X1937133Y4976075D1*
X1936022Y4971716D1*
X1934602Y4967447D1*
X1932881Y4963290D1*
X1930869Y4959266D1*
X1928575Y4955396D1*
X1926010Y4951699D1*
X1923189Y4948194D1*
X1920125Y4944900D1*
X1916834Y4941832D1*
X1913333Y4939007D1*
X1909639Y4936438D1*
X1905772Y4934139D1*
X1900306Y4931522D1*
X1905511Y4929003D1*
X1909389Y4926722D1*
X1913095Y4924171D1*
X1916610Y4921362D1*
X1919915Y4918310D1*
X1922994Y4915030D1*
X1925832Y4911539D1*
X1928414Y4907854D1*
X1930726Y4903995D1*
X1932757Y4899980D1*
X1934497Y4895831D1*
X1935937Y4891569D1*
X1937070Y4887215D1*
X1937889Y4882791D1*
X1938390Y4878320D1*
X1938573Y4869027D1*
X1938555Y4814472D1*
X1938412Y4809976D1*
X1937932Y4805503D1*
X1937133Y4801075D1*
X1936022Y4796716D1*
X1934602Y4792447D1*
X1932881Y4788290D1*
X1930869Y4784266D1*
X1928575Y4780396D1*
X1926010Y4776699D1*
X1923189Y4773194D1*
X1920125Y4769900D1*
X1916834Y4766832D1*
X1913333Y4764007D1*
X1909639Y4761438D1*
X1905772Y4759139D1*
X1901750Y4757122D1*
X1897595Y4755397D1*
X1893328Y4753972D1*
X1888970Y4752855D1*
X1884543Y4752051D1*
X1880070Y4751566D1*
X1875574Y4751400D1*
X1871078Y4751555D1*
X1866604Y4752030D1*
X1862175Y4752823D1*
X1857815Y4753930D1*
X1853544Y4755345D1*
X1849385Y4757060D1*
X1845358Y4759068D1*
X1841486Y4761358D1*
X1837786Y4763918D1*
X1834278Y4766735D1*
X1830980Y4769795D1*
X1827908Y4773082D1*
X1825079Y4776580D1*
X1822506Y4780271D1*
X1820202Y4784135D1*
X1818181Y4788155D1*
X1816450Y4792308D1*
X1815020Y4796573D1*
X1813898Y4800930D1*
X1813090Y4805356D1*
X1812599Y4809828D1*
X1812427Y4818972D1*
Y4873430D1*
X1812577Y4877876D1*
X1813047Y4882350D1*
X1813835Y4886780D1*
X1814937Y4891142D1*
X1816347Y4895414D1*
X1818057Y4899575D1*
X1820060Y4903604D1*
X1822345Y4907479D1*
X1824901Y4911182D1*
X1827714Y4914694D1*
X1830770Y4917995D1*
X1834054Y4921071D1*
X1837548Y4923904D1*
X1841236Y4926482D1*
X1845098Y4928789D1*
X1850688Y4931474D1*
X1845358Y4934068D1*
X1841486Y4936358D1*
X1837786Y4938918D1*
X1834278Y4941735D1*
X1830980Y4944795D1*
X1827908Y4948082D1*
X1825079Y4951580D1*
X1822506Y4955271D1*
X1820202Y4959135D1*
X1818181Y4963155D1*
X1816450Y4967308D1*
X1815020Y4971573D1*
X1813898Y4975930D1*
X1813090Y4980356D1*
X1812599Y4984828D1*
X1812427Y4993972D1*
Y5048439D1*
X1587433Y4873537D2*
X1587577Y4877876D1*
X1588047Y4882350D1*
X1588835Y4886780D1*
X1589937Y4891142D1*
X1591347Y4895414D1*
X1593057Y4899575D1*
X1595060Y4903604D1*
X1597345Y4907479D1*
X1599901Y4911182D1*
X1602714Y4914694D1*
X1605770Y4917995D1*
X1609054Y4921071D1*
X1612548Y4923904D1*
X1616236Y4926482D1*
X1620098Y4928789D1*
X1625688Y4931474D1*
X1620358Y4934068D1*
X1616486Y4936358D1*
X1612786Y4938918D1*
X1609278Y4941735D1*
X1605980Y4944795D1*
X1602908Y4948082D1*
X1600079Y4951580D1*
X1597506Y4955271D1*
X1595202Y4959135D1*
X1593181Y4963155D1*
X1591450Y4967308D1*
X1590020Y4971573D1*
X1588898Y4975930D1*
X1588090Y4980356D1*
X1587599Y4984828D1*
X1587428Y4993972D1*
Y5048408D1*
X1587577Y5052876D1*
X1588047Y5057350D1*
X1588835Y5061780D1*
X1589937Y5066142D1*
X1591347Y5070414D1*
X1593057Y5074575D1*
X1595060Y5078604D1*
X1597345Y5082479D1*
X1599901Y5086182D1*
X1602714Y5089694D1*
X1605770Y5092995D1*
X1609054Y5096071D1*
X1612548Y5098904D1*
X1616236Y5101482D1*
X1620098Y5103789D1*
X1624115Y5105816D1*
X1628266Y5107551D1*
X1632530Y5108986D1*
X1636885Y5110113D1*
X1641310Y5110927D1*
X1645782Y5111423D1*
X1650277Y5111600D1*
X1654774Y5111455D1*
X1659249Y5110990D1*
X1663680Y5110208D1*
X1668043Y5109111D1*
X1672317Y5107707D1*
X1676480Y5106001D1*
X1680511Y5104003D1*
X1684389Y5101722D1*
X1688095Y5099171D1*
X1691610Y5096362D1*
X1694915Y5093310D1*
X1697994Y5090030D1*
X1700832Y5086539D1*
X1703414Y5082854D1*
X1705726Y5078995D1*
X1707757Y5074980D1*
X1709497Y5070831D1*
X1710937Y5066569D1*
X1712070Y5062215D1*
X1712889Y5057791D1*
X1713390Y5053320D1*
X1713573Y5044027D1*
X1713555Y4989472D1*
X1713412Y4984976D1*
X1712932Y4980503D1*
X1712133Y4976075D1*
X1711022Y4971716D1*
X1709602Y4967447D1*
X1707881Y4963290D1*
X1705869Y4959266D1*
X1703575Y4955396D1*
X1701010Y4951699D1*
X1698189Y4948194D1*
X1695125Y4944900D1*
X1691834Y4941832D1*
X1688333Y4939007D1*
X1684639Y4936438D1*
X1680772Y4934139D1*
X1675306Y4931522D1*
X1680511Y4929003D1*
X1684389Y4926722D1*
X1688095Y4924171D1*
X1691610Y4921362D1*
X1694915Y4918310D1*
X1697994Y4915030D1*
X1700832Y4911539D1*
X1703414Y4907854D1*
X1705726Y4903995D1*
X1707757Y4899980D1*
X1709497Y4895831D1*
X1710937Y4891569D1*
X1712070Y4887215D1*
X1712889Y4882791D1*
X1713390Y4878320D1*
X1713573Y4869027D1*
X1713555Y4814472D1*
X1713412Y4809976D1*
X1712932Y4805503D1*
X1712133Y4801075D1*
X1711022Y4796716D1*
X1709602Y4792447D1*
X1707881Y4788290D1*
X1705869Y4784266D1*
X1703575Y4780396D1*
X1701010Y4776699D1*
X1698189Y4773194D1*
X1695125Y4769900D1*
X1691834Y4766832D1*
X1688333Y4764007D1*
X1684639Y4761438D1*
X1680772Y4759139D1*
X1676750Y4757122D1*
X1672595Y4755397D1*
X1668328Y4753972D1*
X1663970Y4752855D1*
X1659543Y4752051D1*
X1655070Y4751566D1*
X1650574Y4751400D1*
X1646078Y4751555D1*
X1641604Y4752030D1*
X1637175Y4752823D1*
X1632815Y4753930D1*
X1628544Y4755345D1*
X1624385Y4757060D1*
X1620358Y4759068D1*
X1616486Y4761358D1*
X1612786Y4763918D1*
X1609278Y4766735D1*
X1605980Y4769795D1*
X1602908Y4773082D1*
X1600079Y4776580D1*
X1597506Y4780271D1*
X1595202Y4784135D1*
X1593181Y4788155D1*
X1591450Y4792308D1*
X1590020Y4796573D1*
X1588898Y4800930D1*
X1588090Y4805356D1*
X1587599Y4809828D1*
X1587427Y4818972D1*
Y4873421D1*
X1712371Y4589222D2*
X1813872Y4589162D1*
X1816895Y4588683D1*
X1819805Y4587738D1*
X1822531Y4586348D1*
X1825007Y4584550D1*
X1827171Y4582386D1*
X1828969Y4579911D1*
X1830358Y4577184D1*
X1831304Y4574274D1*
X1831783Y4571252D1*
X1831843Y4551722D1*
X1831783Y3068349D1*
X1831304Y3065327D1*
X1830358Y3062417D1*
X1828969Y3059690D1*
X1827171Y3057215D1*
X1825007Y3055051D1*
X1822531Y3053253D1*
X1819805Y3051864D1*
X1816895Y3050918D1*
X1813872Y3050439D1*
X1794343Y3050379D1*
X1710823Y3050439D1*
X1707801Y3050918D1*
X1704891Y3051864D1*
X1702164Y3053253D1*
X1699689Y3055051D1*
X1697525Y3057215D1*
X1695726Y3059690D1*
X1694337Y3062417D1*
X1693392Y3065327D1*
X1692913Y3068349D1*
X1692853Y3087879D1*
X1692913Y4571252D1*
X1693392Y4574274D1*
X1694337Y4577184D1*
X1695726Y4579911D1*
X1697525Y4582386D1*
X1699689Y4584550D1*
X1702164Y4586348D1*
X1704891Y4587738D1*
X1707801Y4588683D1*
X1710823Y4589162D1*
X1712359Y4589222D1*
X2188116Y4589675D2*
X2289618Y4589615D1*
X2292640Y4589136D1*
X2295550Y4588190D1*
X2298277Y4586801D1*
X2300752Y4585003D1*
X2302916Y4582839D1*
X2304715Y4580363D1*
X2306104Y4577637D1*
X2307049Y4574727D1*
X2307528Y4571705D1*
X2307588Y4552175D1*
X2307528Y3068801D1*
X2307049Y3065778D1*
X2306104Y3062868D1*
X2304715Y3060142D1*
X2302916Y3057666D1*
X2300752Y3055503D1*
X2298277Y3053704D1*
X2295550Y3052315D1*
X2292640Y3051369D1*
X2289618Y3050891D1*
X2270088Y3050831D1*
X2186568Y3050891D1*
X2183546Y3051369D1*
X2180636Y3052315D1*
X2177910Y3053704D1*
X2175434Y3055503D1*
X2173270Y3057666D1*
X2171472Y3060142D1*
X2170083Y3062868D1*
X2169137Y3065778D1*
X2168658Y3068801D1*
X2168598Y3088331D1*
X2168658Y4571705D1*
X2169137Y4574727D1*
X2170083Y4577637D1*
X2171472Y4580363D1*
X2173270Y4582839D1*
X2175434Y4585003D1*
X2177910Y4586801D1*
X2180636Y4588190D1*
X2183546Y4589136D1*
X2186568Y4589615D1*
X2188104Y4589674D1*
X899111Y2933249D2*
Y2813701D1*
X919951Y2792774D1*
X921553Y2790571D1*
X922789Y2788143D1*
X923631Y2785553D1*
X924057Y2782862D1*
Y2780138D1*
X923631Y2777447D1*
X922789Y2774857D1*
X921553Y2772429D1*
X919951Y2770226D1*
X918025Y2768299D1*
X915821Y2766698D1*
X913394Y2765461D1*
X910803Y2764620D1*
X908113Y2764193D1*
X905389D1*
X902698Y2764620D1*
X900107Y2765461D1*
X897680Y2766698D1*
X895476Y2768299D1*
X875383Y2788316D1*
X868550Y2795226D1*
X866949Y2797429D1*
X865712Y2799857D1*
X864870Y2802447D1*
X864444Y2805138D1*
X864391Y2833500D1*
X864444Y2939111D1*
X864870Y2941802D1*
X865712Y2944393D1*
X866949Y2946820D1*
X868550Y2949024D1*
X870476Y2950950D1*
X872680Y2952551D1*
X875107Y2953788D1*
X877698Y2954630D1*
X880389Y2955056D1*
X883113D1*
X885803Y2954630D1*
X888394Y2953788D1*
X890821Y2952551D1*
X893025Y2950950D1*
X894951Y2949024D1*
X896553Y2946820D1*
X897789Y2944393D1*
X898631Y2941802D1*
X899057Y2939111D1*
X899111Y2933249D1*
D32*
X2325500Y5019000D3*
X2100500D3*
X2325500Y4844000D3*
X2100500D3*
D33*
X2588000Y1044000D3*
X1788000D3*
X987749D3*
Y1519818D3*
X1388000Y1519000D3*
X2188000Y1044000D3*
X1788000Y1519000D3*
X2188000D3*
X2588000D3*
D34*
X3288000Y512150D3*
X688000D3*
D35*
X3238000Y4794000D3*
D34*
X688000Y5332000D3*
X3288000D3*
D33*
X2988249Y1519000D3*
X2988000Y1044000D3*
X1163000Y1944000D3*
X1713000D3*
X2263000D3*
X2813000D3*
X1163000Y2594000D3*
X1713000D3*
X2263000D3*
X2813000D3*
X743117Y4793999D3*
X738000Y3794000D3*
X587749Y1044000D3*
Y1519818D3*
X3387749Y1044000D3*
Y1519818D3*
X3238000Y3794000D3*
D56*
X588000Y2494000D3*
Y2694000D3*
Y2894000D3*
Y3094000D3*
X3388000Y2494000D3*
Y2694000D3*
Y2894000D3*
Y3094000D3*
D32*
X1875500Y5019000D3*
Y4844000D3*
X1650500D3*
Y5019000D3*
M02*
