M48
INCH
T01C0.0787
T02C0.0827
T03C0.126
T04C0.212
T05C0.2362
T06C0.2756
T07C0.315
%
T01
X+023255Y+050190
X+023255Y+048440
X+021005Y+048440
X+021005Y+050190
X+018755Y+050190
X+018755Y+048440
X+016505Y+048440
X+016505Y+050190
X+012880Y+046261
X+026880Y+046261
T02
X+005880Y+024940
X+005880Y+026940
X+005880Y+028940
X+005880Y+030940
X+033880Y+030940
X+033880Y+028940
X+033880Y+026940
X+033880Y+024940
T03
X+033372Y+005121G85X+032388Y+005121
X+007372Y+005121G85X+006388Y+005121
X+007372Y+053320G85X+006388Y+053320
X+033372Y+053320G85X+032388Y+053320
T04
X+013380Y+049190
X+026380Y+049190
X+033880Y+021940
X+013880Y+010440
X+005880Y+021940
T05
X+025880Y+010440
X+029880Y+010440
X+033877Y+010440
X+033877Y+015198
X+029882Y+015190
X+025880Y+015190
X+021880Y+015190
X+017880Y+015190
X+013880Y+015190
X+009877Y+015198
X+005877Y+015198
X+005877Y+010440
X+009877Y+010440
X+017880Y+010440
X+021880Y+010440
X+022630Y+019440
X+028130Y+019440
X+017130Y+019440
X+011630Y+019440
T06
X+011630Y+025940
X+017130Y+025940
X+022630Y+025940
X+028130Y+025940
X+032380Y+037940
X+007380Y+037940
X+007431Y+047940
T07
X+032380Y+047940
T00
M30
