G04 DipTrace 3.3.0.0*
G04 typhoon_panel.GBS*
%MOIN*%
G04 #@! TF.FileFunction,Soldermask,Bot*
G04 #@! TF.Part,Single*
%AMOUTLINE1*
4,1,20,
0.102562,0.0,
0.097244,-0.020147,
0.08225,-0.037803,
0.059491,-0.051459,
0.031197,-0.060108,
0.0,-0.063073,
-0.031197,-0.060108,
-0.059491,-0.051459,
-0.08225,-0.037803,
-0.097244,-0.020147,
-0.102562,0.0,
-0.097244,0.020147,
-0.08225,0.037803,
-0.059491,0.051459,
-0.031197,0.060108,
0.0,0.063073,
0.031197,0.060108,
0.059491,0.051459,
0.08225,0.037803,
0.097244,0.020147,
0.102562,0.0,
0*%
%ADD36C,0.212*%
%ADD37C,0.07874*%
%ADD44C,0.342646*%
%ADD46O,0.307213X0.185165*%
%ADD48C,0.328*%
%ADD50O,0.106425X0.16548*%
%ADD57OUTLINE1*%
%FSLAX26Y26*%
G04*
G70*
G90*
G75*
G01*
G04 BotMask*
%LPD*%
D50*
X2325500Y5019000D3*
X2100500D3*
X2325500Y4844000D3*
D36*
X1338000Y4919000D3*
D37*
X1288000Y4626077D3*
X2688000D3*
D50*
X2100500Y4844000D3*
D36*
X2638000Y4919000D3*
D48*
X2588000Y1044000D3*
X1788000D3*
X987749D3*
Y1519818D3*
X1388000Y1519000D3*
X2188000Y1044000D3*
X1788000Y1519000D3*
X2188000D3*
X2588000D3*
D46*
X3288000Y512150D3*
X688000D3*
D44*
X3238000Y4794000D3*
D46*
X688000Y5332000D3*
X3288000D3*
D48*
X2988249Y1519000D3*
X2988000Y1044000D3*
X1163000Y1944000D3*
X1713000D3*
X2263000D3*
X2813000D3*
X1163000Y2594000D3*
X1713000D3*
X2263000D3*
X2813000D3*
X743117Y4793999D3*
X738000Y3794000D3*
X587749Y1044000D3*
Y1519818D3*
X3387749Y1044000D3*
Y1519818D3*
X3238000Y3794000D3*
D36*
X588000Y2194000D3*
X3388000D3*
X1388000Y1044000D3*
D57*
X588000Y2494000D3*
Y2694000D3*
Y2894000D3*
Y3094000D3*
X3388000Y2494000D3*
Y2694000D3*
Y2894000D3*
Y3094000D3*
D50*
X1875500Y5019000D3*
Y4844000D3*
X1650500D3*
Y5019000D3*
M02*
