G04 DipTrace 3.3.0.0*
G04 typhoon_panel.GTS*
%MOIN*%
G04 #@! TF.FileFunction,Soldermask,Top*
G04 #@! TF.Part,Single*
%AMOUTLINE1*
4,1,20,
0.102562,0.0,
0.097244,-0.020147,
0.08225,-0.037803,
0.059491,-0.051459,
0.031197,-0.060108,
0.0,-0.063073,
-0.031197,-0.060108,
-0.059491,-0.051459,
-0.08225,-0.037803,
-0.097244,-0.020147,
-0.102562,0.0,
-0.097244,0.020147,
-0.08225,0.037803,
-0.059491,0.051459,
-0.031197,0.060108,
0.0,0.063073,
0.031197,0.060108,
0.059491,0.051459,
0.08225,0.037803,
0.097244,0.020147,
0.102562,0.0,
0*%
%ADD12C,0.001*%
%ADD18C,0.013189*%
%ADD36C,0.212*%
%ADD37C,0.07874*%
%ADD44C,0.342646*%
%ADD46O,0.307213X0.185165*%
%ADD48C,0.328*%
%ADD50O,0.106425X0.16548*%
%ADD57OUTLINE1*%
%FSLAX26Y26*%
G04*
G70*
G90*
G75*
G01*
G04 TopMask*
%LPD*%
D50*
X2325500Y5019000D3*
X2100500D3*
X2325500Y4844000D3*
D36*
X1338000Y4919000D3*
D37*
X1288000Y4626077D3*
X2688000D3*
D50*
X2100500Y4844000D3*
D36*
X2638000Y4919000D3*
D48*
X2588000Y1044000D3*
X1788000D3*
X987749D3*
Y1519818D3*
X1388000Y1519000D3*
X2188000Y1044000D3*
X1788000Y1519000D3*
X2188000D3*
X2588000D3*
D46*
X3288000Y512150D3*
X688000D3*
D44*
X3238000Y4794000D3*
D46*
X688000Y5332000D3*
X3288000D3*
D48*
X2988249Y1519000D3*
X2988000Y1044000D3*
X1163000Y1944000D3*
X1713000D3*
X2263000D3*
X2813000D3*
X1163000Y2594000D3*
X1713000D3*
X2263000D3*
X2813000D3*
X743117Y4793999D3*
X738000Y3794000D3*
X587749Y1044000D3*
Y1519818D3*
X3387749Y1044000D3*
Y1519818D3*
X3238000Y3794000D3*
D36*
X588000Y2194000D3*
X3388000D3*
X1388000Y1044000D3*
D57*
X588000Y2494000D3*
Y2694000D3*
Y2894000D3*
Y3094000D3*
X3388000Y2494000D3*
Y2694000D3*
Y2894000D3*
Y3094000D3*
D50*
X1875500Y5019000D3*
Y4844000D3*
X1650500D3*
Y5019000D3*
X2192256Y514875D2*
D18*
G02X2192256Y514875I75000J0D01*
G01*
G36*
X604474Y4566789D2*
X614369Y4561079D1*
X652449Y4627037D1*
X642554Y4632747D1*
X604474Y4566789D1*
G37*
G36*
X538524Y4623323D2*
X546058Y4614734D1*
X603316Y4664948D1*
X595785Y4673539D1*
X538524Y4623323D1*
G37*
G36*
X494244Y4698054D2*
X498618Y4687500D1*
X568980Y4716642D1*
X564609Y4727199D1*
X494244Y4698054D1*
G37*
G36*
X476336Y4783050D2*
X477084Y4771651D1*
X553083Y4776633D1*
X552335Y4788031D1*
X476336Y4783050D1*
G37*
G36*
X486702Y4869293D2*
X483745Y4858260D1*
X557311Y4838547D1*
X560268Y4849580D1*
X486702Y4869293D1*
G37*
G36*
X524238Y4947627D2*
X517890Y4938130D1*
X581215Y4895816D1*
X587563Y4905314D1*
X524238Y4947627D1*
G37*
G36*
X584962Y5009741D2*
X575899Y5002786D1*
X622261Y4942364D1*
X631324Y4949319D1*
X584962Y5009741D1*
G37*
G36*
X662428Y5049035D2*
X651609Y5045365D1*
X676091Y4973247D1*
X686909Y4976917D1*
X662428Y5049035D1*
G37*
G36*
X748416Y5061346D2*
X736991D1*
Y4985188D1*
X748416D1*
Y5061346D1*
G37*
G36*
X833795Y5045365D2*
X822979Y5049035D1*
X798497Y4976917D1*
X809314Y4973247D1*
X833795Y5045365D1*
G37*
G36*
X909508Y5002786D2*
X900445Y5009741D1*
X854080Y4949319D1*
X863143Y4942364D1*
X909508Y5002786D1*
G37*
G36*
X967514Y4938130D2*
X961169Y4947627D1*
X897844Y4905318D1*
X904189Y4895816D1*
X967514Y4938130D1*
G37*
G36*
X1001660Y4858260D2*
X998705Y4869293D1*
X925139Y4849580D1*
X928094Y4838547D1*
X1001660Y4858260D1*
G37*
G36*
X1008320Y4771651D2*
X1009070Y4783050D1*
X933070Y4788031D1*
X932324Y4776633D1*
X1008320Y4771651D1*
G37*
G36*
X986789Y4687500D2*
X991160Y4698054D1*
X920798Y4727199D1*
X916427Y4716642D1*
X986789Y4687500D1*
G37*
G36*
X939349Y4614734D2*
X946881Y4623323D1*
X889622Y4673539D1*
X882088Y4664948D1*
X939349Y4614734D1*
G37*
G36*
X871038Y4561079D2*
X880932Y4566789D1*
X842850Y4632747D1*
X832958Y4627037D1*
X871038Y4561079D1*
G37*
G36*
X599772Y3568092D2*
X609665Y3562382D1*
X647745Y3628339D1*
X637852Y3634050D1*
X599772Y3568092D1*
G37*
G36*
X533822Y3624625D2*
X541354Y3616037D1*
X598614Y3666251D1*
X591083Y3674841D1*
X533822Y3624625D1*
G37*
G36*
X489542Y3699356D2*
X493915Y3688802D1*
X564277Y3717945D1*
X559906Y3728501D1*
X489542Y3699356D1*
G37*
G36*
X471634Y3784353D2*
X472382Y3772954D1*
X548379Y3777934D1*
X547633Y3789335D1*
X471634Y3784353D1*
G37*
G36*
X481999Y3870596D2*
X479042Y3859562D1*
X552608Y3839849D1*
X555564Y3850883D1*
X481999Y3870596D1*
G37*
G36*
X519534Y3948930D2*
X513188Y3939433D1*
X576513Y3897119D1*
X582860Y3906617D1*
X519534Y3948930D1*
G37*
G36*
X580259Y4011043D2*
X571196Y4004088D1*
X617559Y3943667D1*
X626622Y3950621D1*
X580259Y4011043D1*
G37*
G36*
X657726Y4050339D2*
X646907Y4046667D1*
X671388Y3974549D1*
X682206Y3978220D1*
X657726Y4050339D1*
G37*
G36*
X743713Y4062650D2*
X732287D1*
Y3986490D1*
X743713D1*
Y4062650D1*
G37*
G36*
X829093Y4046667D2*
X818276Y4050339D1*
X793794Y3978220D1*
X804612Y3974549D1*
X829093Y4046667D1*
G37*
G36*
X904804Y4004088D2*
X895741Y4011043D1*
X849378Y3950621D1*
X858441Y3943667D1*
X904804Y4004088D1*
G37*
G36*
X962812Y3939433D2*
X956466Y3948930D1*
X893140Y3906619D1*
X899487Y3897119D1*
X962812Y3939433D1*
G37*
G36*
X996958Y3859562D2*
X994001Y3870596D1*
X920436Y3850883D1*
X923392Y3839849D1*
X996958Y3859562D1*
G37*
G36*
X1003618Y3772954D2*
X1004366Y3784353D1*
X928367Y3789335D1*
X927621Y3777934D1*
X1003618Y3772954D1*
G37*
G36*
X982087Y3688802D2*
X986458Y3699356D1*
X916094Y3728501D1*
X911723Y3717945D1*
X982087Y3688802D1*
G37*
G36*
X934646Y3616035D2*
X942178Y3624625D1*
X884919Y3674841D1*
X877386Y3666251D1*
X934646Y3616035D1*
G37*
G36*
X866335Y3562382D2*
X876228Y3568092D1*
X838148Y3634050D1*
X828255Y3628339D1*
X866335Y3562382D1*
G37*
G36*
X3099772Y3568092D2*
X3109665Y3562382D1*
X3147745Y3628339D1*
X3137852Y3634050D1*
X3099772Y3568092D1*
G37*
G36*
X3033822Y3624625D2*
X3041354Y3616037D1*
X3098614Y3666251D1*
X3091083Y3674841D1*
X3033822Y3624625D1*
G37*
G36*
X2989542Y3699356D2*
X2993915Y3688802D1*
X3064277Y3717945D1*
X3059906Y3728501D1*
X2989542Y3699356D1*
G37*
G36*
X2971634Y3784353D2*
X2972382Y3772954D1*
X3048379Y3777934D1*
X3047633Y3789335D1*
X2971634Y3784353D1*
G37*
G36*
X2981999Y3870596D2*
X2979042Y3859562D1*
X3052608Y3839849D1*
X3055564Y3850883D1*
X2981999Y3870596D1*
G37*
G36*
X3019534Y3948930D2*
X3013188Y3939433D1*
X3076513Y3897119D1*
X3082860Y3906617D1*
X3019534Y3948930D1*
G37*
G36*
X3080259Y4011043D2*
X3071196Y4004088D1*
X3117559Y3943667D1*
X3126622Y3950621D1*
X3080259Y4011043D1*
G37*
G36*
X3157726Y4050339D2*
X3146907Y4046667D1*
X3171388Y3974549D1*
X3182206Y3978220D1*
X3157726Y4050339D1*
G37*
G36*
X3243713Y4062650D2*
X3232287D1*
Y3986490D1*
X3243713D1*
Y4062650D1*
G37*
G36*
X3329093Y4046667D2*
X3318276Y4050339D1*
X3293794Y3978220D1*
X3304612Y3974549D1*
X3329093Y4046667D1*
G37*
G36*
X3404804Y4004088D2*
X3395741Y4011043D1*
X3349378Y3950621D1*
X3358441Y3943667D1*
X3404804Y4004088D1*
G37*
G36*
X3462812Y3939433D2*
X3456466Y3948930D1*
X3393140Y3906619D1*
X3399487Y3897119D1*
X3462812Y3939433D1*
G37*
G36*
X3496958Y3859562D2*
X3494001Y3870596D1*
X3420436Y3850883D1*
X3423392Y3839849D1*
X3496958Y3859562D1*
G37*
G36*
X3503618Y3772954D2*
X3504366Y3784353D1*
X3428367Y3789335D1*
X3427621Y3777934D1*
X3503618Y3772954D1*
G37*
G36*
X3482087Y3688802D2*
X3486458Y3699356D1*
X3416094Y3728501D1*
X3411723Y3717945D1*
X3482087Y3688802D1*
G37*
G36*
X3434646Y3616035D2*
X3442178Y3624625D1*
X3384919Y3674841D1*
X3377386Y3666251D1*
X3434646Y3616035D1*
G37*
G36*
X3366335Y3562382D2*
X3376228Y3568092D1*
X3338148Y3634050D1*
X3328255Y3628339D1*
X3366335Y3562382D1*
G37*
X1773101Y568948D2*
D12*
X1781101D1*
X1929101D2*
X1937101D1*
X1773101Y567948D2*
X1781101D1*
X1929101D2*
X1937101D1*
X1773101Y566948D2*
X1781101D1*
X1929101D2*
X1937101D1*
X1773101Y565948D2*
X1781101D1*
X1929101D2*
X1937101D1*
X1773101Y564948D2*
X1781101D1*
X1929101D2*
X1937101D1*
X1773101Y563948D2*
X1781101D1*
X1929101D2*
X1937101D1*
X1690101Y562948D2*
X1697101D1*
X1773101D2*
X1781101D1*
X1861101D2*
X1899101D1*
X1929101D2*
X1937101D1*
X1690101Y561948D2*
X1697101D1*
X1773101D2*
X1781101D1*
X1861101D2*
X1902444D1*
X1929101D2*
X1937101D1*
X1690101Y560948D2*
X1697101D1*
X1773101D2*
X1781101D1*
X1861101D2*
X1905138D1*
X1929101D2*
X1937101D1*
X1690101Y559948D2*
X1697101D1*
X1773101D2*
X1781101D1*
X1861101D2*
X1907168D1*
X1929101D2*
X1937101D1*
X1690101Y558948D2*
X1697101D1*
X1773101D2*
X1781101D1*
X1861101D2*
X1908695D1*
X1929101D2*
X1937101D1*
X1690101Y557948D2*
X1697101D1*
X1773101D2*
X1781101D1*
X1861101D2*
X1909901D1*
X1929101D2*
X1937101D1*
X1690101Y556948D2*
X1697101D1*
X1773101D2*
X1781101D1*
X1861101D2*
X1910870D1*
X1929101D2*
X1937101D1*
X1690101Y555948D2*
X1697101D1*
X1773101D2*
X1781101D1*
X1861101D2*
X1911634D1*
X1929101D2*
X1937101D1*
X1690101Y554948D2*
X1697101D1*
X1773101D2*
X1781101D1*
X1861101D2*
X1912261D1*
X1929101D2*
X1937101D1*
X1690101Y553948D2*
X1697101D1*
X1773101D2*
X1781101D1*
X1861101D2*
X1869101D1*
X1900059D2*
X1912817D1*
X1929101D2*
X1937101D1*
X1690101Y552948D2*
X1697101D1*
X1773101D2*
X1781101D1*
X1861101D2*
X1869101D1*
X1901888D2*
X1913338D1*
X1929101D2*
X1937101D1*
X1690101Y551948D2*
X1697101D1*
X1773101D2*
X1781101D1*
X1861101D2*
X1869101D1*
X1903447D2*
X1913843D1*
X1929101D2*
X1937101D1*
X1690101Y550948D2*
X1697101D1*
X1773101D2*
X1781101D1*
X1861101D2*
X1869101D1*
X1904653D2*
X1914310D1*
X1929101D2*
X1937101D1*
X1690101Y549948D2*
X1697101D1*
X1773101D2*
X1781101D1*
X1861101D2*
X1869101D1*
X1905537D2*
X1914684D1*
X1929101D2*
X1937101D1*
X1690101Y548948D2*
X1697101D1*
X1773101D2*
X1781101D1*
X1861101D2*
X1869101D1*
X1906185D2*
X1914944D1*
X1929101D2*
X1937101D1*
X1690101Y547948D2*
X1697101D1*
X1773101D2*
X1781101D1*
X1861101D2*
X1869101D1*
X1906636D2*
X1915185D1*
X1929101D2*
X1937101D1*
X1690101Y546948D2*
X1697101D1*
X1773101D2*
X1781101D1*
X1861101D2*
X1869101D1*
X1906927D2*
X1915475D1*
X1929101D2*
X1937101D1*
X1690101Y545948D2*
X1697101D1*
X1773101D2*
X1781101D1*
X1861101D2*
X1869101D1*
X1907179D2*
X1915751D1*
X1929101D2*
X1937101D1*
X1690101Y544948D2*
X1697101D1*
X1773101D2*
X1781101D1*
X1861101D2*
X1869101D1*
X1907473D2*
X1915934D1*
X1929101D2*
X1937101D1*
X1690101Y543948D2*
X1697101D1*
X1773101D2*
X1781101D1*
X1861101D2*
X1869101D1*
X1907751D2*
X1916029D1*
X1929101D2*
X1937101D1*
X1690101Y542948D2*
X1697101D1*
X1773101D2*
X1781101D1*
X1861101D2*
X1869101D1*
X1907933D2*
X1916073D1*
X1929101D2*
X1937101D1*
X1690101Y541948D2*
X1697101D1*
X1773101D2*
X1781101D1*
X1861101D2*
X1869101D1*
X1908029D2*
X1916090D1*
X1929101D2*
X1937101D1*
X1690101Y540948D2*
X1697101D1*
X1773101D2*
X1781101D1*
X1861101D2*
X1869101D1*
X1908073D2*
X1916097D1*
X1929101D2*
X1937101D1*
X1690101Y539948D2*
X1697101D1*
X1727101D2*
X1748101D1*
X1773101D2*
X1781101D1*
X1861101D2*
X1869101D1*
X1908090D2*
X1916100D1*
X1929101D2*
X1937101D1*
X1690101Y538948D2*
X1697101D1*
X1721697D2*
X1750059D1*
X1773101D2*
X1781101D1*
X1810101D2*
X1821101D1*
X1861101D2*
X1869101D1*
X1908097D2*
X1916101D1*
X1929101D2*
X1937101D1*
X1963101D2*
X1971101D1*
X2005101D2*
X2013101D1*
X2040101D2*
X2083101D1*
X2105101D2*
X2148101D1*
X1690101Y537948D2*
X1697101D1*
X1717455D2*
X1751888D1*
X1773101D2*
X1781101D1*
X1808947D2*
X1820101D1*
X1861101D2*
X1869101D1*
X1908100D2*
X1916101D1*
X1929101D2*
X1937101D1*
X1963101D2*
X1971101D1*
X2005101D2*
X2013101D1*
X2038143D2*
X2083101D1*
X2103143D2*
X2148101D1*
X1690101Y536948D2*
X1697101D1*
X1714231D2*
X1753447D1*
X1773101D2*
X1781101D1*
X1807699D2*
X1819101D1*
X1861101D2*
X1869101D1*
X1908101D2*
X1916101D1*
X1929101D2*
X1937101D1*
X1963101D2*
X1971101D1*
X2005101D2*
X2013101D1*
X2036310D2*
X2083097D1*
X2101310D2*
X2148097D1*
X1690101Y535948D2*
X1697101D1*
X1712935D2*
X1754657D1*
X1773101D2*
X1781101D1*
X1806440D2*
X1818101D1*
X1861101D2*
X1869101D1*
X1908101D2*
X1916101D1*
X1929101D2*
X1937101D1*
X1963101D2*
X1971101D1*
X2005101D2*
X2013101D1*
X2034720D2*
X2083042D1*
X2099720D2*
X2148042D1*
X1690101Y534948D2*
X1697101D1*
X1712486D2*
X1755576D1*
X1773101D2*
X1781101D1*
X1805265D2*
X1817101D1*
X1861101D2*
X1869101D1*
X1908101D2*
X1916101D1*
X1929101D2*
X1937101D1*
X1963101D2*
X1971101D1*
X2005101D2*
X2013101D1*
X2033418D2*
X2082902D1*
X2098418D2*
X2147902D1*
X1690101Y533948D2*
X1697101D1*
X1712257D2*
X1756351D1*
X1773101D2*
X1781101D1*
X1804172D2*
X1816101D1*
X1861101D2*
X1869101D1*
X1908101D2*
X1916101D1*
X1929101D2*
X1937101D1*
X1963101D2*
X1971101D1*
X2005101D2*
X2013101D1*
X2032382D2*
X2082064D1*
X2097382D2*
X2147064D1*
X1690101Y532948D2*
X1697101D1*
X1712156D2*
X1757042D1*
X1773101D2*
X1781101D1*
X1803129D2*
X1815097D1*
X1861101D2*
X1869101D1*
X1908097D2*
X1916097D1*
X1929101D2*
X1937101D1*
X1963101D2*
X1971101D1*
X2005101D2*
X2013101D1*
X2031555D2*
X2079986D1*
X2096555D2*
X2144986D1*
X1690101Y531948D2*
X1697101D1*
X1712101D2*
X1728101D1*
X1744704D2*
X1757589D1*
X1773101D2*
X1781101D1*
X1802112D2*
X1814062D1*
X1861101D2*
X1869101D1*
X1908062D2*
X1916062D1*
X1929101D2*
X1937101D1*
X1963101D2*
X1971101D1*
X2005101D2*
X2013101D1*
X2030823D2*
X2077712D1*
X2095823D2*
X2142712D1*
X1690101Y530948D2*
X1697101D1*
X1746839D2*
X1758016D1*
X1773101D2*
X1781101D1*
X1801105D2*
X1812935D1*
X1861101D2*
X1869101D1*
X1907935D2*
X1915935D1*
X1929101D2*
X1937101D1*
X1963101D2*
X1971101D1*
X2005101D2*
X2013101D1*
X2030149D2*
X2044691D1*
X2060824D2*
X2075759D1*
X2095149D2*
X2109691D1*
X2125824D2*
X2140759D1*
X1690101Y529948D2*
X1697101D1*
X1748377D2*
X1758402D1*
X1773101D2*
X1781101D1*
X1800102D2*
X1811695D1*
X1861101D2*
X1869101D1*
X1907691D2*
X1915695D1*
X1929101D2*
X1937101D1*
X1963101D2*
X1971101D1*
X2005101D2*
X2013101D1*
X2029609D2*
X2041936D1*
X2063114D2*
X2074101D1*
X2094609D2*
X2106936D1*
X2128114D2*
X2139101D1*
X1690101Y528948D2*
X1697101D1*
X1749423D2*
X1758723D1*
X1773101D2*
X1781101D1*
X1799101D2*
X1810439D1*
X1861101D2*
X1869101D1*
X1907400D2*
X1915435D1*
X1929101D2*
X1937101D1*
X1963101D2*
X1971101D1*
X2005101D2*
X2013101D1*
X2029185D2*
X2039935D1*
X2064799D2*
X2074717D1*
X2094185D2*
X2104935D1*
X2129799D2*
X2139717D1*
X1690101Y527948D2*
X1697101D1*
X1750141D2*
X1758923D1*
X1773101D2*
X1781101D1*
X1798101D2*
X1809264D1*
X1861101D2*
X1869101D1*
X1907094D2*
X1915225D1*
X1929101D2*
X1937101D1*
X1963101D2*
X1971101D1*
X2005101D2*
X2013101D1*
X2028796D2*
X2038487D1*
X2066003D2*
X2075256D1*
X2093796D2*
X2103487D1*
X2131003D2*
X2140256D1*
X1690101Y526948D2*
X1697101D1*
X1750616D2*
X1759025D1*
X1773101D2*
X1781101D1*
X1797101D2*
X1808172D1*
X1861101D2*
X1869101D1*
X1906723D2*
X1915005D1*
X1929101D2*
X1937101D1*
X1963101D2*
X1971101D1*
X2005101D2*
X2013101D1*
X2028440D2*
X2037439D1*
X2066900D2*
X2075696D1*
X2093440D2*
X2102439D1*
X2131900D2*
X2140696D1*
X1690101Y525948D2*
X1697101D1*
X1750886D2*
X1759071D1*
X1773101D2*
X1781101D1*
X1796097D2*
X1807129D1*
X1861101D2*
X1869101D1*
X1906253D2*
X1914719D1*
X1929101D2*
X1937101D1*
X1963101D2*
X1971101D1*
X2005101D2*
X2013101D1*
X2028113D2*
X2036726D1*
X2067535D2*
X2076063D1*
X2093113D2*
X2101726D1*
X2132535D2*
X2141063D1*
X1690101Y524948D2*
X1697101D1*
X1751050D2*
X1759090D1*
X1773101D2*
X1781101D1*
X1795062D2*
X1806112D1*
X1861101D2*
X1869101D1*
X1905616D2*
X1914410D1*
X1929101D2*
X1937101D1*
X1963101D2*
X1971101D1*
X2005101D2*
X2013101D1*
X2027771D2*
X2036229D1*
X2067996D2*
X2076421D1*
X2092771D2*
X2101229D1*
X2132996D2*
X2141421D1*
X1690101Y523948D2*
X1697101D1*
X1751233D2*
X1759097D1*
X1773101D2*
X1781101D1*
X1793935D2*
X1805105D1*
X1861101D2*
X1869101D1*
X1904688D2*
X1914098D1*
X1929101D2*
X1937101D1*
X1963101D2*
X1971101D1*
X2005101D2*
X2013101D1*
X2027468D2*
X2035816D1*
X2068395D2*
X2076730D1*
X2092468D2*
X2100816D1*
X2133395D2*
X2141730D1*
X1690101Y522948D2*
X1697101D1*
X1751494D2*
X1759100D1*
X1773101D2*
X1781101D1*
X1792695D2*
X1804102D1*
X1861101D2*
X1869101D1*
X1903404D2*
X1913728D1*
X1929101D2*
X1937101D1*
X1963101D2*
X1971101D1*
X2005101D2*
X2013101D1*
X2027275D2*
X2035485D1*
X2068720D2*
X2076926D1*
X2092275D2*
X2100485D1*
X2133720D2*
X2141926D1*
X1690101Y521948D2*
X1697101D1*
X1751759D2*
X1759101D1*
X1773101D2*
X1781101D1*
X1791439D2*
X1803101D1*
X1861101D2*
X1869101D1*
X1901819D2*
X1913297D1*
X1929101D2*
X1937101D1*
X1963101D2*
X1971101D1*
X2005101D2*
X2013101D1*
X2027175D2*
X2035281D1*
X2068922D2*
X2077026D1*
X2092175D2*
X2100281D1*
X2133922D2*
X2142026D1*
X1690101Y520948D2*
X1697101D1*
X1751932D2*
X1759101D1*
X1773101D2*
X1781101D1*
X1790245D2*
X1802101D1*
X1861101D2*
X1912826D1*
X1929101D2*
X1937101D1*
X1963101D2*
X1971101D1*
X2005101D2*
X2013101D1*
X2027130D2*
X2035177D1*
X2069025D2*
X2077072D1*
X2092130D2*
X2100177D1*
X2134025D2*
X2142072D1*
X1690101Y519948D2*
X1697101D1*
X1751991D2*
X1759101D1*
X1773101D2*
X1781101D1*
X1788962D2*
X1801101D1*
X1861101D2*
X1912303D1*
X1929101D2*
X1937101D1*
X1963101D2*
X1971101D1*
X2005101D2*
X2013101D1*
X2027112D2*
X2035131D1*
X2069071D2*
X2077090D1*
X2092112D2*
X2100131D1*
X2134071D2*
X2142090D1*
X1690101Y518948D2*
X1697101D1*
X1751906D2*
X1759101D1*
X1773101D2*
X1781101D1*
X1787146D2*
X1800101D1*
X1861101D2*
X1911674D1*
X1929101D2*
X1937101D1*
X1963101D2*
X1971101D1*
X2005101D2*
X2013101D1*
X2027105D2*
X2035112D1*
X2069090D2*
X2077097D1*
X2092105D2*
X2100112D1*
X2134090D2*
X2142097D1*
X1690101Y517948D2*
X1697101D1*
X1751684D2*
X1759101D1*
X1773101D2*
X1781101D1*
X1784419D2*
X1799101D1*
X1861101D2*
X1910862D1*
X1929101D2*
X1937101D1*
X1963101D2*
X1971101D1*
X2005101D2*
X2013101D1*
X2027102D2*
X2035105D1*
X2069097D2*
X2077100D1*
X2092102D2*
X2100105D1*
X2134097D2*
X2142100D1*
X1690101Y516948D2*
X1697101D1*
X1751435D2*
X1759101D1*
X1773101D2*
X1798101D1*
X1861101D2*
X1909809D1*
X1929101D2*
X1937101D1*
X1963101D2*
X1971101D1*
X2005101D2*
X2013101D1*
X2027101D2*
X2035102D1*
X2069100D2*
X2077101D1*
X2092101D2*
X2100102D1*
X2134100D2*
X2142101D1*
X1690101Y515948D2*
X1697101D1*
X1751262D2*
X1759101D1*
X1773101D2*
X1797101D1*
X1861101D2*
X1908453D1*
X1929101D2*
X1937101D1*
X1963101D2*
X1971101D1*
X2005101D2*
X2013101D1*
X2027101D2*
X2035105D1*
X2069101D2*
X2077097D1*
X2092101D2*
X2100105D1*
X2134101D2*
X2142097D1*
X1690101Y514948D2*
X1697101D1*
X1751165D2*
X1759101D1*
X1773101D2*
X1796101D1*
X1861101D2*
X1906812D1*
X1929101D2*
X1937101D1*
X1963101D2*
X1971101D1*
X2005101D2*
X2013101D1*
X2027105D2*
X2035140D1*
X2069097D2*
X2077062D1*
X2092105D2*
X2100140D1*
X2134097D2*
X2142062D1*
X1690101Y513948D2*
X1697101D1*
X1719101D2*
X1759101D1*
X1773101D2*
X1795101D1*
X1861101D2*
X1869101D1*
X1875101D2*
X1904991D1*
X1929101D2*
X1937101D1*
X1963101D2*
X1971101D1*
X2005101D2*
X2013101D1*
X2027140D2*
X2035268D1*
X2069062D2*
X2076935D1*
X2092140D2*
X2100268D1*
X2134062D2*
X2141935D1*
X1690101Y512948D2*
X1697101D1*
X1717489D2*
X1759101D1*
X1773101D2*
X1794101D1*
X1861101D2*
X1869101D1*
X1886101D2*
X1903101D1*
X1929101D2*
X1937101D1*
X1963101D2*
X1971101D1*
X2005101D2*
X2013101D1*
X2027268D2*
X2035511D1*
X2068931D2*
X2076695D1*
X2092268D2*
X2100511D1*
X2133931D2*
X2141695D1*
X1690101Y511948D2*
X1697101D1*
X1715989D2*
X1759101D1*
X1773101D2*
X1794947D1*
X1861101D2*
X1869101D1*
X1929101D2*
X1937101D1*
X1963101D2*
X1971101D1*
X2005101D2*
X2013101D1*
X2027507D2*
X2035803D1*
X2068656D2*
X2076435D1*
X2092507D2*
X2100803D1*
X2133656D2*
X2141435D1*
X1690101Y510948D2*
X1697101D1*
X1714712D2*
X1759101D1*
X1773101D2*
X1795699D1*
X1861101D2*
X1869101D1*
X1929101D2*
X1937101D1*
X1963101D2*
X1971101D1*
X2005101D2*
X2013101D1*
X2027767D2*
X2036108D1*
X2068268D2*
X2076225D1*
X2092767D2*
X2101108D1*
X2133268D2*
X2141225D1*
X1690101Y509948D2*
X1697101D1*
X1713716D2*
X1759101D1*
X1773101D2*
X1796440D1*
X1861101D2*
X1869101D1*
X1929101D2*
X1937101D1*
X1963101D2*
X1971101D1*
X2005101D2*
X2013101D1*
X2027977D2*
X2036480D1*
X2067815D2*
X2076005D1*
X2092977D2*
X2101480D1*
X2132815D2*
X2141005D1*
X1690101Y508948D2*
X1697101D1*
X1712892D2*
X1759101D1*
X1773101D2*
X1797261D1*
X1861101D2*
X1869101D1*
X1929101D2*
X1937101D1*
X1963101D2*
X1971101D1*
X2005101D2*
X2013101D1*
X2028201D2*
X2036945D1*
X2067300D2*
X2075719D1*
X2093201D2*
X2101945D1*
X2132300D2*
X2140719D1*
X1690101Y507948D2*
X1697101D1*
X1712177D2*
X1749101D1*
X1751101D2*
X1759101D1*
X1773101D2*
X1781101D1*
X1787097D2*
X1798133D1*
X1861101D2*
X1869101D1*
X1929101D2*
X1937101D1*
X1963101D2*
X1971101D1*
X2005101D2*
X2013101D1*
X2028518D2*
X2037551D1*
X2066669D2*
X2075410D1*
X2093518D2*
X2102551D1*
X2131669D2*
X2140410D1*
X1690101Y506948D2*
X1697101D1*
X1711619D2*
X1735101D1*
X1751101D2*
X1759101D1*
X1773101D2*
X1781101D1*
X1788062D2*
X1798963D1*
X1861101D2*
X1869101D1*
X1929101D2*
X1937101D1*
X1963101D2*
X1971101D1*
X2005101D2*
X2013101D1*
X2028923D2*
X2038391D1*
X2065818D2*
X2075098D1*
X2093923D2*
X2103391D1*
X2130818D2*
X2140098D1*
X1690101Y505948D2*
X1697101D1*
X1711189D2*
X1723298D1*
X1751101D2*
X1759101D1*
X1773101D2*
X1781101D1*
X1788935D2*
X1799706D1*
X1861101D2*
X1869101D1*
X1929101D2*
X1937101D1*
X1963101D2*
X1971101D1*
X2005101D2*
X2013101D1*
X2029383D2*
X2039605D1*
X2064600D2*
X2074728D1*
X2094383D2*
X2104605D1*
X2129600D2*
X2139728D1*
X1690101Y504948D2*
X1697101D1*
X1710801D2*
X1721717D1*
X1751101D2*
X1759101D1*
X1773101D2*
X1781101D1*
X1789695D2*
X1800438D1*
X1861101D2*
X1869101D1*
X1929101D2*
X1937101D1*
X1963101D2*
X1971101D1*
X2005101D2*
X2013101D1*
X2029901D2*
X2041358D1*
X2062845D2*
X2074297D1*
X2094901D2*
X2106358D1*
X2127845D2*
X2139297D1*
X1690101Y503948D2*
X1697101D1*
X1710480D2*
X1720421D1*
X1751101D2*
X1759101D1*
X1773101D2*
X1781101D1*
X1790439D2*
X1801226D1*
X1861101D2*
X1869101D1*
X1929101D2*
X1937101D1*
X1963101D2*
X1971101D1*
X2005101D2*
X2013101D1*
X2030525D2*
X2043615D1*
X2060587D2*
X2073826D1*
X2095525D2*
X2108615D1*
X2125587D2*
X2138826D1*
X1690101Y502948D2*
X1697101D1*
X1710279D2*
X1719425D1*
X1751101D2*
X1759101D1*
X1773101D2*
X1781101D1*
X1791260D2*
X1802005D1*
X1861101D2*
X1869101D1*
X1929101D2*
X1937101D1*
X1963101D2*
X1971101D1*
X2005101D2*
X2013101D1*
X2031297D2*
X2073303D1*
X2096297D2*
X2138303D1*
X1690101Y501948D2*
X1697101D1*
X1710177D2*
X1718649D1*
X1751101D2*
X1759101D1*
X1773101D2*
X1781101D1*
X1792132D2*
X1802723D1*
X1861101D2*
X1869101D1*
X1929101D2*
X1937101D1*
X1963101D2*
X1971101D1*
X2005101D2*
X2013101D1*
X2032177D2*
X2072678D1*
X2097177D2*
X2137678D1*
X1690101Y500948D2*
X1697101D1*
X1710131D2*
X1718367D1*
X1751101D2*
X1759101D1*
X1773101D2*
X1781101D1*
X1792963D2*
X1803445D1*
X1861101D2*
X1869101D1*
X1929101D2*
X1937101D1*
X1963101D2*
X1971101D1*
X2005101D2*
X2013101D1*
X2033101D2*
X2071901D1*
X2098101D2*
X2136901D1*
X1690101Y499948D2*
X1697101D1*
X1710112D2*
X1718214D1*
X1751101D2*
X1759101D1*
X1773101D2*
X1781101D1*
X1793706D2*
X1804229D1*
X1861101D2*
X1869101D1*
X1929101D2*
X1937101D1*
X1963101D2*
X1971101D1*
X2005101D2*
X2013101D1*
X2031797D2*
X2070975D1*
X2096797D2*
X2135975D1*
X1690101Y498948D2*
X1697101D1*
X1710105D2*
X1718145D1*
X1751101D2*
X1759101D1*
X1773101D2*
X1781101D1*
X1794442D2*
X1805006D1*
X1861101D2*
X1869101D1*
X1929101D2*
X1937101D1*
X1963101D2*
X1971101D1*
X2005101D2*
X2013101D1*
X2030632D2*
X2069847D1*
X2095632D2*
X2134847D1*
X1690097Y497948D2*
X1697101D1*
X1710102D2*
X1718117D1*
X1751101D2*
X1759101D1*
X1773101D2*
X1781101D1*
X1795262D2*
X1805724D1*
X1861101D2*
X1869101D1*
X1929105D2*
X1937101D1*
X1963101D2*
X1971101D1*
X2005101D2*
X2013101D1*
X2029717D2*
X2068348D1*
X2094717D2*
X2133348D1*
X1690062Y496948D2*
X1697101D1*
X1710101D2*
X1718107D1*
X1751101D2*
X1759101D1*
X1773101D2*
X1781101D1*
X1796133D2*
X1806449D1*
X1861101D2*
X1869101D1*
X1929140D2*
X1937105D1*
X1963101D2*
X1971101D1*
X2005101D2*
X2013101D1*
X2029007D2*
X2066230D1*
X2094007D2*
X2131230D1*
X1689935Y495948D2*
X1697101D1*
X1710101D2*
X1718103D1*
X1751101D2*
X1759101D1*
X1773101D2*
X1781101D1*
X1796963D2*
X1807264D1*
X1861101D2*
X1869101D1*
X1929268D2*
X1937140D1*
X1963101D2*
X1971101D1*
X2005101D2*
X2013101D1*
X2028416D2*
X2063379D1*
X2093416D2*
X2128379D1*
X1689695Y494948D2*
X1697101D1*
X1710101D2*
X1718102D1*
X1751097D2*
X1759101D1*
X1773101D2*
X1781101D1*
X1797706D2*
X1808134D1*
X1861101D2*
X1869101D1*
X1929507D2*
X1937268D1*
X1963105D2*
X1971105D1*
X2005097D2*
X2013101D1*
X2027913D2*
X2060101D1*
X2092913D2*
X2125101D1*
X1689435Y493948D2*
X1697101D1*
X1710101D2*
X1718101D1*
X1751050D2*
X1759101D1*
X1773101D2*
X1781101D1*
X1798442D2*
X1808963D1*
X1861101D2*
X1869101D1*
X1929763D2*
X1937511D1*
X1963140D2*
X1971140D1*
X2005054D2*
X2013101D1*
X2027529D2*
X2036298D1*
X2092529D2*
X2101298D1*
X1689225Y492948D2*
X1697101D1*
X1710101D2*
X1718101D1*
X1750933D2*
X1759101D1*
X1773101D2*
X1781101D1*
X1799262D2*
X1809706D1*
X1861101D2*
X1869101D1*
X1929938D2*
X1937803D1*
X1963268D2*
X1971271D1*
X2004949D2*
X2013101D1*
X2027299D2*
X2035713D1*
X2092299D2*
X2100713D1*
X1689001Y491948D2*
X1697101D1*
X1710101D2*
X1718105D1*
X1750306D2*
X1759101D1*
X1773101D2*
X1781101D1*
X1800133D2*
X1810439D1*
X1861101D2*
X1869101D1*
X1930034D2*
X1938108D1*
X1963511D2*
X1971550D1*
X2004427D2*
X2013101D1*
X2027184D2*
X2035386D1*
X2092184D2*
X2100386D1*
X1688684Y490948D2*
X1697097D1*
X1710105D2*
X1718144D1*
X1748610D2*
X1759101D1*
X1773101D2*
X1781101D1*
X1800963D2*
X1811226D1*
X1861101D2*
X1869101D1*
X1930112D2*
X1938483D1*
X1963803D2*
X1971973D1*
X2003085D2*
X2013101D1*
X2027134D2*
X2035209D1*
X2092134D2*
X2100209D1*
X1688275Y489948D2*
X1697062D1*
X1710140D2*
X1718311D1*
X1746232D2*
X1759101D1*
X1773101D2*
X1781101D1*
X1801706D2*
X1812005D1*
X1861101D2*
X1869101D1*
X1930257D2*
X1938992D1*
X1964108D2*
X1972557D1*
X2001267D2*
X2013101D1*
X2027117D2*
X2035401D1*
X2092117D2*
X2100401D1*
X1687776Y488948D2*
X1696935D1*
X1710268D2*
X1718623D1*
X1743138D2*
X1759101D1*
X1773101D2*
X1781101D1*
X1802442D2*
X1812723D1*
X1861101D2*
X1869101D1*
X1930507D2*
X1939636D1*
X1964476D2*
X1973351D1*
X1999030D2*
X2013101D1*
X2027144D2*
X2036300D1*
X2092144D2*
X2101300D1*
X1687056Y487948D2*
X1696691D1*
X1710511D2*
X1719451D1*
X1739132D2*
X1759101D1*
X1773101D2*
X1781101D1*
X1803262D2*
X1813449D1*
X1861101D2*
X1869101D1*
X1930801D2*
X1941132D1*
X1964906D2*
X1974397D1*
X1996380D2*
X2013101D1*
X2027273D2*
X2037599D1*
X2092273D2*
X2102599D1*
X1686068Y486948D2*
X1696400D1*
X1710806D2*
X1721908D1*
X1733568D2*
X1759101D1*
X1773101D2*
X1781101D1*
X1804133D2*
X1814264D1*
X1861101D2*
X1869101D1*
X1931108D2*
X1943267D1*
X1965376D2*
X1975746D1*
X1993261D2*
X2013101D1*
X2027547D2*
X2069101D1*
X2092547D2*
X2134101D1*
X1682956Y485948D2*
X1696094D1*
X1711143D2*
X1725969D1*
X1725950D2*
X1759101D1*
X1773101D2*
X1781101D1*
X1804963D2*
X1815134D1*
X1861101D2*
X1869101D1*
X1931479D2*
X1946007D1*
X1965899D2*
X1977364D1*
X1989763D2*
X2013101D1*
X2027938D2*
X2071175D1*
X2092938D2*
X2136175D1*
X1668101Y484948D2*
X1673101D1*
X1678098D2*
X1695723D1*
X1711607D2*
X1759101D1*
X1773101D2*
X1781101D1*
X1805706D2*
X1815963D1*
X1861101D2*
X1869101D1*
X1931945D2*
X1948878D1*
X1966524D2*
X2013101D1*
X2028422D2*
X2072962D1*
X2093422D2*
X2137962D1*
X1667950Y483948D2*
X1695257D1*
X1712184D2*
X1749294D1*
X1752139D2*
X1759101D1*
X1773101D2*
X1781101D1*
X1806442D2*
X1816706D1*
X1861101D2*
X1869101D1*
X1932543D2*
X1951224D1*
X1967298D2*
X2003256D1*
X2004943D2*
X2013101D1*
X2029022D2*
X2074384D1*
X2094022D2*
X2139384D1*
X1667742Y482948D2*
X1694655D1*
X1712803D2*
X1746670D1*
X1752267D2*
X1759101D1*
X1773101D2*
X1781101D1*
X1807262D2*
X1817439D1*
X1861101D2*
X1869101D1*
X1933309D2*
X1952990D1*
X1968184D2*
X2001504D1*
X2005656D2*
X2013101D1*
X2029683D2*
X2075445D1*
X2094683D2*
X2140445D1*
X1667550Y481948D2*
X1693854D1*
X1713522D2*
X1744168D1*
X1752511D2*
X1759101D1*
X1773101D2*
X1781101D1*
X1808133D2*
X1818226D1*
X1861101D2*
X1869101D1*
X1934229D2*
X1953673D1*
X1969137D2*
X1999759D1*
X2006234D2*
X2013101D1*
X2030300D2*
X2076295D1*
X2095300D2*
X2141295D1*
X1667771Y480948D2*
X1692795D1*
X1714493D2*
X1741592D1*
X1752805D2*
X1759101D1*
X1773101D2*
X1781101D1*
X1808962D2*
X1819005D1*
X1861101D2*
X1869101D1*
X1935344D2*
X1953905D1*
X1970160D2*
X1997895D1*
X2006691D2*
X2013101D1*
X2030416D2*
X2077020D1*
X2095416D2*
X2142020D1*
X1668545Y479948D2*
X1691326D1*
X1715834D2*
X1738783D1*
X1753135D2*
X1759101D1*
X1773101D2*
X1781101D1*
X1809696D2*
X1819714D1*
X1861101D2*
X1869101D1*
X1936725D2*
X1954022D1*
X1971357D2*
X1995821D1*
X2007091D2*
X2013101D1*
X2030111D2*
X2077581D1*
X2095111D2*
X2142581D1*
X1670385Y478948D2*
X1689222D1*
X1717604D2*
X1735610D1*
X1753575D2*
X1759101D1*
X1773101D2*
X1781101D1*
X1810392D2*
X1820398D1*
X1861101D2*
X1869101D1*
X1938356D2*
X1954073D1*
X1972911D2*
X1993461D1*
X2007560D2*
X2013101D1*
X2029635D2*
X2034101D1*
X2038101D2*
X2078013D1*
X2094635D2*
X2099101D1*
X2103101D2*
X2143013D1*
X1673004Y477948D2*
X1686376D1*
X1719756D2*
X1731988D1*
X1754101D2*
X1759101D1*
X1773101D2*
X1781101D1*
X1811101D2*
X1821101D1*
X1861101D2*
X1869101D1*
X1940101D2*
X1954101D1*
X1974891D2*
X1990840D1*
X2008101D2*
X2013101D1*
X2029044D2*
X2034101D1*
X2069059D2*
X2078401D1*
X2094044D2*
X2099101D1*
X2134059D2*
X2143401D1*
X1676101Y476948D2*
X1683101D1*
X1722101D2*
X1728101D1*
X1977101D2*
X1988101D1*
X2028456D2*
X2034101D1*
X2069896D2*
X2078722D1*
X2093456D2*
X2099101D1*
X2134896D2*
X2143722D1*
X2027937Y475948D2*
X2034101D1*
X2070525D2*
X2078923D1*
X2092937D2*
X2099101D1*
X2135525D2*
X2143923D1*
X2027540Y474948D2*
X2034101D1*
X2070990D2*
X2079025D1*
X2092540D2*
X2099101D1*
X2135990D2*
X2144025D1*
X2027304Y473948D2*
X2034101D1*
X2071392D2*
X2079071D1*
X2092304D2*
X2099101D1*
X2136392D2*
X2144071D1*
X2027186Y472948D2*
X2034101D1*
X2071719D2*
X2079090D1*
X2092186D2*
X2099101D1*
X2136719D2*
X2144090D1*
X2027134Y471948D2*
X2034101D1*
X2071922D2*
X2079097D1*
X2092134D2*
X2099101D1*
X2136922D2*
X2144097D1*
X2027113Y470948D2*
X2034101D1*
X2072025D2*
X2079100D1*
X2092113D2*
X2099101D1*
X2137025D2*
X2144100D1*
X2027105Y469948D2*
X2034101D1*
X2072071D2*
X2079101D1*
X2092105D2*
X2099101D1*
X2137071D2*
X2144101D1*
X2027103Y468948D2*
X2034101D1*
X2072090D2*
X2079101D1*
X2092103D2*
X2099101D1*
X2137090D2*
X2144101D1*
X2027102Y467948D2*
X2034101D1*
X2072097D2*
X2079101D1*
X2092102D2*
X2099101D1*
X2137097D2*
X2144101D1*
X2027101Y466948D2*
X2034101D1*
X2072100D2*
X2079101D1*
X2092101D2*
X2099101D1*
X2137100D2*
X2144101D1*
X2027101Y465948D2*
X2034101D1*
X2072101D2*
X2079101D1*
X2092101D2*
X2099101D1*
X2137101D2*
X2144101D1*
X2027101Y464948D2*
X2034105D1*
X2072097D2*
X2079101D1*
X2092101D2*
X2099105D1*
X2137097D2*
X2144101D1*
X2027101Y463948D2*
X2034140D1*
X2072062D2*
X2079101D1*
X2092101D2*
X2099140D1*
X2137062D2*
X2144101D1*
X2027101Y462948D2*
X2034268D1*
X2071935D2*
X2079101D1*
X2092101D2*
X2099268D1*
X2136935D2*
X2144101D1*
X2027101Y461948D2*
X2034511D1*
X2071691D2*
X2079101D1*
X2092101D2*
X2099511D1*
X2136691D2*
X2144101D1*
X2027101Y460948D2*
X2034806D1*
X2071400D2*
X2079101D1*
X2092101D2*
X2099806D1*
X2136400D2*
X2144101D1*
X2027105Y459948D2*
X2035147D1*
X2071090D2*
X2079097D1*
X2092105D2*
X2100147D1*
X2136090D2*
X2144097D1*
X2027140Y458948D2*
X2035654D1*
X2070680D2*
X2079062D1*
X2092140D2*
X2100654D1*
X2135680D2*
X2144062D1*
X2027271Y457948D2*
X2036437D1*
X2070048D2*
X2078931D1*
X2092271D2*
X2101437D1*
X2135048D2*
X2143931D1*
X2027546Y456948D2*
X2037624D1*
X2069044D2*
X2078656D1*
X2092546D2*
X2102624D1*
X2134044D2*
X2143656D1*
X2027934Y455948D2*
X2039365D1*
X2067621D2*
X2078268D1*
X2092934D2*
X2104365D1*
X2132621D2*
X2143268D1*
X2028387Y454948D2*
X2041617D1*
X2065917D2*
X2077819D1*
X2093387D2*
X2106617D1*
X2130917D2*
X2142819D1*
X2028902Y453948D2*
X2077339D1*
X2093902D2*
X2142339D1*
X2029529Y452948D2*
X2076839D1*
X2094529D2*
X2141839D1*
X2030337Y451948D2*
X2076271D1*
X2095337D2*
X2141271D1*
X2031358Y450948D2*
X2075506D1*
X2096358D2*
X2140506D1*
X2032633Y449948D2*
X2074410D1*
X2097633D2*
X2139410D1*
X2034278Y448948D2*
X2072896D1*
X2099278D2*
X2137896D1*
X2036559Y447948D2*
X2070811D1*
X2101559D2*
X2135811D1*
X2039617Y446948D2*
X2068113D1*
X2104617D2*
X2133113D1*
X2043101Y445948D2*
X2065101D1*
X2108101D2*
X2130101D1*
X1551343Y5392448D2*
X1625343D1*
X1673343D2*
X1684343D1*
X1743343D2*
X1754343D1*
X1805343D2*
X1852343D1*
X1930343D2*
X1940343D1*
X1993343D2*
X2002343D1*
X2087343D2*
X2113343D1*
X2223343D2*
X2249343D1*
X2333343D2*
X2343343D1*
X2402343D2*
X2411343D1*
X1551343Y5391448D2*
X1625343D1*
X1673722D2*
X1684722D1*
X1742963D2*
X1753963D1*
X1805343D2*
X1856065D1*
X1930343D2*
X1940343D1*
X1992881D2*
X2002343D1*
X2083620D2*
X2117069D1*
X2219620D2*
X2253069D1*
X2333343D2*
X2344188D1*
X2402343D2*
X2411804D1*
X1551343Y5390448D2*
X1625343D1*
X1674152D2*
X1685152D1*
X1742533D2*
X1753533D1*
X1805343D2*
X1859185D1*
X1930343D2*
X1940343D1*
X1992594D2*
X2002343D1*
X2080496D2*
X2120225D1*
X2216496D2*
X2256225D1*
X2333343D2*
X2344936D1*
X2402343D2*
X2412091D1*
X1551343Y5389448D2*
X1625343D1*
X1674617D2*
X1685617D1*
X1742065D2*
X1753068D1*
X1805343D2*
X1861645D1*
X1930343D2*
X1940343D1*
X1992448D2*
X2002343D1*
X2078001D2*
X2122811D1*
X2214001D2*
X2258811D1*
X2333343D2*
X2345642D1*
X2402343D2*
X2412237D1*
X1551343Y5388448D2*
X1625343D1*
X1675102D2*
X1686102D1*
X1741548D2*
X1752583D1*
X1805343D2*
X1863530D1*
X1930343D2*
X1940343D1*
X1992384D2*
X2002343D1*
X2075989D2*
X2124936D1*
X2211989D2*
X2260936D1*
X2333343D2*
X2346339D1*
X2402343D2*
X2412301D1*
X1551343Y5387448D2*
X1625343D1*
X1675596D2*
X1686596D1*
X1740958D2*
X1752086D1*
X1805343D2*
X1864990D1*
X1930343D2*
X1940343D1*
X1992358D2*
X2002343D1*
X2074289D2*
X2126652D1*
X2210289D2*
X2262652D1*
X2333343D2*
X2347003D1*
X2402343D2*
X2412327D1*
X1551343Y5386448D2*
X1625343D1*
X1676094D2*
X1687094D1*
X1740316D2*
X1751556D1*
X1805343D2*
X1866197D1*
X1930343D2*
X1940343D1*
X1992348D2*
X2002343D1*
X2072826D2*
X2128038D1*
X2208826D2*
X2264038D1*
X2333343D2*
X2347669D1*
X2402343D2*
X2412337D1*
X1551343Y5385448D2*
X1625343D1*
X1676593D2*
X1687593D1*
X1739705D2*
X1750961D1*
X1805343D2*
X1867250D1*
X1930343D2*
X1940343D1*
X1992344D2*
X2002343D1*
X2071598D2*
X2129215D1*
X2207598D2*
X2265215D1*
X2333343D2*
X2348350D1*
X2402343D2*
X2412341D1*
X1551343Y5384448D2*
X1625343D1*
X1677093D2*
X1688093D1*
X1739143D2*
X1750317D1*
X1805343D2*
X1868157D1*
X1930343D2*
X1940343D1*
X1992343D2*
X2002343D1*
X2070599D2*
X2130256D1*
X2206599D2*
X2266256D1*
X2333343D2*
X2349007D1*
X2402343D2*
X2412342D1*
X1551343Y5383448D2*
X1625343D1*
X1677592D2*
X1688592D1*
X1738612D2*
X1749705D1*
X1805343D2*
X1868926D1*
X1930343D2*
X1940343D1*
X1992343D2*
X2002343D1*
X2069787D2*
X2131159D1*
X2205787D2*
X2267159D1*
X2333343D2*
X2349670D1*
X2402343D2*
X2412342D1*
X1551343Y5382448D2*
X1625343D1*
X1678093D2*
X1689093D1*
X1738101D2*
X1749143D1*
X1805343D2*
X1869635D1*
X1930343D2*
X1940343D1*
X1992343D2*
X2002343D1*
X2069057D2*
X2131927D1*
X2205057D2*
X2267927D1*
X2333343D2*
X2350350D1*
X2402343D2*
X2412342D1*
X1582343Y5381448D2*
X1592343D1*
X1678592D2*
X1689592D1*
X1737595D2*
X1748612D1*
X1805343D2*
X1815343D1*
X1850946D2*
X1870299D1*
X1930343D2*
X1940343D1*
X1992343D2*
X2002343D1*
X2068354D2*
X2085698D1*
X2115108D2*
X2132639D1*
X2204354D2*
X2221698D1*
X2251108D2*
X2268639D1*
X2333343D2*
X2351007D1*
X2402343D2*
X2412343D1*
X1582343Y5380448D2*
X1592343D1*
X1679093D2*
X1690093D1*
X1737094D2*
X1748101D1*
X1805343D2*
X1815343D1*
X1854076D2*
X1870836D1*
X1930343D2*
X1940343D1*
X1992343D2*
X2002343D1*
X2067719D2*
X2083400D1*
X2117561D2*
X2133335D1*
X2203719D2*
X2219400D1*
X2253561D2*
X2269335D1*
X2333343D2*
X2351670D1*
X2402343D2*
X2412343D1*
X1582343Y5379448D2*
X1592343D1*
X1679592D2*
X1690592D1*
X1736592D2*
X1747595D1*
X1805343D2*
X1815343D1*
X1856576D2*
X1871259D1*
X1930343D2*
X1940343D1*
X1992343D2*
X2002343D1*
X2067148D2*
X2081490D1*
X2119613D2*
X2133968D1*
X2203148D2*
X2217490D1*
X2255613D2*
X2269968D1*
X2333343D2*
X2352350D1*
X2402343D2*
X2412343D1*
X1582343Y5378448D2*
X1592343D1*
X1680093D2*
X1691093D1*
X1736089D2*
X1747094D1*
X1805343D2*
X1815343D1*
X1858459D2*
X1871648D1*
X1930343D2*
X1940343D1*
X1992343D2*
X2002343D1*
X2066614D2*
X2079909D1*
X2121317D2*
X2134538D1*
X2202614D2*
X2215909D1*
X2257317D2*
X2270538D1*
X2333343D2*
X2353007D1*
X2402343D2*
X2412343D1*
X1582343Y5377448D2*
X1592343D1*
X1680592D2*
X1691592D1*
X1735557D2*
X1746592D1*
X1805343D2*
X1815343D1*
X1859806D2*
X1872004D1*
X1930343D2*
X1940343D1*
X1992343D2*
X2002343D1*
X2066101D2*
X2078598D1*
X2122680D2*
X2135071D1*
X2202101D2*
X2214598D1*
X2258680D2*
X2271071D1*
X2333343D2*
X2353670D1*
X2402343D2*
X2412343D1*
X1582343Y5376448D2*
X1592343D1*
X1681093D2*
X1692093D1*
X1734962D2*
X1746093D1*
X1805343D2*
X1815343D1*
X1860747D2*
X1872331D1*
X1930343D2*
X1940343D1*
X1992343D2*
X2002343D1*
X2065595D2*
X2077484D1*
X2123709D2*
X2135584D1*
X2201595D2*
X2213484D1*
X2259709D2*
X2271584D1*
X2333343D2*
X2354350D1*
X2402343D2*
X2412343D1*
X1582343Y5375448D2*
X1592343D1*
X1681592D2*
X1692592D1*
X1734317D2*
X1745592D1*
X1805343D2*
X1815343D1*
X1861419D2*
X1872673D1*
X1930343D2*
X1940343D1*
X1992343D2*
X2002343D1*
X2065094D2*
X2076552D1*
X2124549D2*
X2136086D1*
X2201094D2*
X2212552D1*
X2260549D2*
X2272086D1*
X2333343D2*
X2355007D1*
X2402343D2*
X2412343D1*
X1582343Y5374448D2*
X1592343D1*
X1682093D2*
X1693093D1*
X1733705D2*
X1745093D1*
X1805343D2*
X1815343D1*
X1861909D2*
X1872979D1*
X1930343D2*
X1940343D1*
X1992343D2*
X2002343D1*
X2064596D2*
X2075802D1*
X2125300D2*
X2136556D1*
X2200596D2*
X2211802D1*
X2261300D2*
X2272556D1*
X2333343D2*
X2355670D1*
X2402343D2*
X2412343D1*
X1582343Y5373448D2*
X1592343D1*
X1682592D2*
X1693592D1*
X1733143D2*
X1744592D1*
X1805343D2*
X1815343D1*
X1862295D2*
X1873207D1*
X1930343D2*
X1940343D1*
X1992343D2*
X2002343D1*
X2064128D2*
X2075180D1*
X2125951D2*
X2136961D1*
X2200128D2*
X2211180D1*
X2261951D2*
X2272961D1*
X2333343D2*
X2356350D1*
X2402343D2*
X2412343D1*
X1582343Y5372448D2*
X1592343D1*
X1683093D2*
X1694093D1*
X1732612D2*
X1744089D1*
X1805343D2*
X1815343D1*
X1862660D2*
X1873435D1*
X1930343D2*
X1940343D1*
X1992343D2*
X2002343D1*
X2063724D2*
X2074626D1*
X2126498D2*
X2137313D1*
X2199724D2*
X2210626D1*
X2262498D2*
X2273313D1*
X2333343D2*
X2357007D1*
X2402343D2*
X2412343D1*
X1582343Y5371448D2*
X1592343D1*
X1683592D2*
X1694592D1*
X1732101D2*
X1743557D1*
X1805343D2*
X1815343D1*
X1862974D2*
X1873719D1*
X1930343D2*
X1940343D1*
X1992343D2*
X2002343D1*
X2063371D2*
X2074105D1*
X2126938D2*
X2137666D1*
X2199371D2*
X2210105D1*
X2262938D2*
X2273666D1*
X2333343D2*
X2357670D1*
X2402343D2*
X2412343D1*
X1582343Y5370448D2*
X1592343D1*
X1684093D2*
X1695093D1*
X1731595D2*
X1742962D1*
X1805343D2*
X1815343D1*
X1863206D2*
X1873994D1*
X1930343D2*
X1940343D1*
X1992343D2*
X2002343D1*
X2063015D2*
X2073600D1*
X2127309D2*
X2137977D1*
X2199015D2*
X2209600D1*
X2263309D2*
X2273977D1*
X2333343D2*
X2343343D1*
X2345304D2*
X2358346D1*
X2402343D2*
X2412343D1*
X1582343Y5369448D2*
X1592343D1*
X1684592D2*
X1695592D1*
X1731094D2*
X1742317D1*
X1805343D2*
X1815343D1*
X1863434D2*
X1874175D1*
X1930343D2*
X1940343D1*
X1992343D2*
X2002343D1*
X2062673D2*
X2073130D1*
X2127702D2*
X2138206D1*
X2198673D2*
X2209130D1*
X2263702D2*
X2274206D1*
X2333343D2*
X2343343D1*
X2346176D2*
X2358972D1*
X2402343D2*
X2412343D1*
X1582343Y5368448D2*
X1592343D1*
X1685093D2*
X1696093D1*
X1730592D2*
X1741705D1*
X1805343D2*
X1815343D1*
X1863719D2*
X1874271D1*
X1930343D2*
X1940343D1*
X1992343D2*
X2002343D1*
X2062351D2*
X2072724D1*
X2128138D2*
X2138434D1*
X2198351D2*
X2208724D1*
X2264138D2*
X2274434D1*
X2333343D2*
X2343343D1*
X2346933D2*
X2359543D1*
X2402343D2*
X2412343D1*
X1582343Y5367448D2*
X1592343D1*
X1685592D2*
X1696592D1*
X1730089D2*
X1741143D1*
X1805343D2*
X1815343D1*
X1863994D2*
X1874314D1*
X1930343D2*
X1940343D1*
X1992343D2*
X2002343D1*
X2062011D2*
X2072372D1*
X2128573D2*
X2138719D1*
X2198011D2*
X2208372D1*
X2264573D2*
X2274719D1*
X2333343D2*
X2343343D1*
X2347641D2*
X2360107D1*
X2402343D2*
X2412343D1*
X1582343Y5366448D2*
X1592343D1*
X1686093D2*
X1697093D1*
X1729557D2*
X1740612D1*
X1805343D2*
X1815343D1*
X1864175D2*
X1874332D1*
X1930343D2*
X1940343D1*
X1992343D2*
X2002343D1*
X2061710D2*
X2072019D1*
X2128934D2*
X2138994D1*
X2197710D2*
X2208019D1*
X2264934D2*
X2274994D1*
X2333343D2*
X2343343D1*
X2348335D2*
X2360715D1*
X2402343D2*
X2412343D1*
X1582343Y5365448D2*
X1592343D1*
X1686592D2*
X1697592D1*
X1728962D2*
X1740101D1*
X1805343D2*
X1815343D1*
X1864271D2*
X1874339D1*
X1930343D2*
X1940343D1*
X1992343D2*
X2002343D1*
X2061513D2*
X2071709D1*
X2129189D2*
X2139179D1*
X2197513D2*
X2207709D1*
X2265189D2*
X2275179D1*
X2333343D2*
X2343343D1*
X2348968D2*
X2361369D1*
X2402343D2*
X2412343D1*
X1582343Y5364448D2*
X1592343D1*
X1687093D2*
X1698093D1*
X1728317D2*
X1739595D1*
X1805343D2*
X1815343D1*
X1864314D2*
X1874341D1*
X1930343D2*
X1940343D1*
X1992343D2*
X2002343D1*
X2061378D2*
X2071479D1*
X2129428D2*
X2139310D1*
X2197378D2*
X2207479D1*
X2265428D2*
X2275310D1*
X2333343D2*
X2343343D1*
X2349542D2*
X2362014D1*
X2402343D2*
X2412343D1*
X1582343Y5363448D2*
X1592343D1*
X1687592D2*
X1698592D1*
X1727705D2*
X1739094D1*
X1805343D2*
X1815343D1*
X1864332D2*
X1874342D1*
X1930343D2*
X1940343D1*
X1992343D2*
X2002343D1*
X2061205D2*
X2071251D1*
X2129717D2*
X2139481D1*
X2197205D2*
X2207251D1*
X2265717D2*
X2275481D1*
X2333343D2*
X2343343D1*
X2350106D2*
X2362673D1*
X2402343D2*
X2412343D1*
X1582343Y5362448D2*
X1592343D1*
X1688093D2*
X1699093D1*
X1727143D2*
X1738592D1*
X1805343D2*
X1815343D1*
X1864339D2*
X1874342D1*
X1930343D2*
X1940343D1*
X1992343D2*
X2002343D1*
X2060947D2*
X2070966D1*
X2129993D2*
X2139738D1*
X2196947D2*
X2206966D1*
X2265993D2*
X2275738D1*
X2333343D2*
X2343343D1*
X2350715D2*
X2363351D1*
X2402343D2*
X2412343D1*
X1582343Y5361448D2*
X1592343D1*
X1688592D2*
X1699592D1*
X1726612D2*
X1738093D1*
X1805343D2*
X1815343D1*
X1864341D2*
X1874342D1*
X1930343D2*
X1940343D1*
X1992343D2*
X2002343D1*
X2060684D2*
X2070691D1*
X2130175D2*
X2140001D1*
X2196684D2*
X2206691D1*
X2266175D2*
X2276001D1*
X2333343D2*
X2343343D1*
X2351369D2*
X2364007D1*
X2402343D2*
X2412343D1*
X1582343Y5360448D2*
X1592343D1*
X1689093D2*
X1700093D1*
X1726101D2*
X1737592D1*
X1805343D2*
X1815343D1*
X1864342D2*
X1874343D1*
X1930343D2*
X1940343D1*
X1992343D2*
X2002343D1*
X2060507D2*
X2070510D1*
X2130271D2*
X2140178D1*
X2196507D2*
X2206510D1*
X2266271D2*
X2276178D1*
X2333343D2*
X2343343D1*
X2352014D2*
X2364671D1*
X2402343D2*
X2412343D1*
X1582343Y5359448D2*
X1592343D1*
X1689592D2*
X1700592D1*
X1725595D2*
X1737089D1*
X1805343D2*
X1815343D1*
X1864342D2*
X1874343D1*
X1930343D2*
X1940343D1*
X1992343D2*
X2002343D1*
X2060413D2*
X2070414D1*
X2130314D2*
X2140272D1*
X2196413D2*
X2206414D1*
X2266314D2*
X2276272D1*
X2333343D2*
X2343343D1*
X2352673D2*
X2365350D1*
X2402343D2*
X2412343D1*
X1582343Y5358448D2*
X1592343D1*
X1690093D2*
X1701093D1*
X1725094D2*
X1736557D1*
X1805343D2*
X1815343D1*
X1864342D2*
X1874343D1*
X1930343D2*
X1940343D1*
X1992343D2*
X2002343D1*
X2060371D2*
X2070371D1*
X2130332D2*
X2140314D1*
X2196371D2*
X2206371D1*
X2266332D2*
X2276314D1*
X2333343D2*
X2343343D1*
X2353351D2*
X2366007D1*
X2402343D2*
X2412343D1*
X1582343Y5357448D2*
X1592343D1*
X1690592D2*
X1701592D1*
X1724592D2*
X1735962D1*
X1805343D2*
X1815343D1*
X1864343D2*
X1874343D1*
X1930343D2*
X1940343D1*
X1992343D2*
X2002343D1*
X2060349D2*
X2070349D1*
X2130343D2*
X2140336D1*
X2196349D2*
X2206349D1*
X2266343D2*
X2276336D1*
X2333343D2*
X2343343D1*
X2354007D2*
X2366670D1*
X2402343D2*
X2412343D1*
X1582343Y5356448D2*
X1592343D1*
X1691093D2*
X1702093D1*
X1724089D2*
X1735317D1*
X1805343D2*
X1815343D1*
X1864339D2*
X1874343D1*
X1930343D2*
X1940343D1*
X1992343D2*
X2002343D1*
X2060307D2*
X2070307D1*
X2130380D2*
X2140378D1*
X2196307D2*
X2206307D1*
X2266380D2*
X2276378D1*
X2333343D2*
X2343343D1*
X2354671D2*
X2367350D1*
X2402343D2*
X2412343D1*
X1582343Y5355448D2*
X1592343D1*
X1691592D2*
X1702592D1*
X1723557D2*
X1734705D1*
X1805343D2*
X1815343D1*
X1864303D2*
X1874343D1*
X1930343D2*
X1940343D1*
X1992343D2*
X2002343D1*
X2060177D2*
X2070177D1*
X2130509D2*
X2140508D1*
X2196177D2*
X2206177D1*
X2266509D2*
X2276508D1*
X2333343D2*
X2343343D1*
X2355350D2*
X2368007D1*
X2402343D2*
X2412343D1*
X1582343Y5354448D2*
X1592343D1*
X1692093D2*
X1703093D1*
X1722962D2*
X1734143D1*
X1805343D2*
X1815343D1*
X1864176D2*
X1874339D1*
X1930343D2*
X1940343D1*
X1992343D2*
X2002343D1*
X2059937D2*
X2069937D1*
X2130748D2*
X2140748D1*
X2195937D2*
X2205937D1*
X2266748D2*
X2276748D1*
X2333343D2*
X2343343D1*
X2356007D2*
X2368670D1*
X2402343D2*
X2412343D1*
X1582343Y5353448D2*
X1592343D1*
X1692592D2*
X1703592D1*
X1722317D2*
X1733612D1*
X1805343D2*
X1815343D1*
X1863937D2*
X1874303D1*
X1930343D2*
X1940343D1*
X1992343D2*
X2002343D1*
X2059680D2*
X2069680D1*
X2131005D2*
X2141005D1*
X2195680D2*
X2205680D1*
X2267005D2*
X2277005D1*
X2333343D2*
X2343343D1*
X2356670D2*
X2369350D1*
X2402343D2*
X2412343D1*
X1582343Y5352448D2*
X1592343D1*
X1693093D2*
X1704093D1*
X1721705D2*
X1733101D1*
X1805343D2*
X1815343D1*
X1863680D2*
X1874176D1*
X1930343D2*
X1940343D1*
X1992343D2*
X2002343D1*
X2059506D2*
X2069506D1*
X2131179D2*
X2141179D1*
X2195506D2*
X2205506D1*
X2267179D2*
X2277179D1*
X2333343D2*
X2343343D1*
X2357350D2*
X2370007D1*
X2402343D2*
X2412343D1*
X1582343Y5351448D2*
X1592343D1*
X1693592D2*
X1704592D1*
X1721143D2*
X1732595D1*
X1805343D2*
X1815343D1*
X1863502D2*
X1873937D1*
X1930343D2*
X1940343D1*
X1992343D2*
X2002343D1*
X2059413D2*
X2069413D1*
X2131272D2*
X2141272D1*
X2195413D2*
X2205413D1*
X2267272D2*
X2277272D1*
X2333343D2*
X2343343D1*
X2358007D2*
X2370670D1*
X2402343D2*
X2412343D1*
X1582343Y5350448D2*
X1592343D1*
X1694093D2*
X1705093D1*
X1720612D2*
X1732094D1*
X1805343D2*
X1815343D1*
X1863374D2*
X1873680D1*
X1930343D2*
X1940343D1*
X1992343D2*
X2002343D1*
X2059371D2*
X2069371D1*
X2131314D2*
X2141314D1*
X2195371D2*
X2205371D1*
X2267314D2*
X2277314D1*
X2333343D2*
X2343343D1*
X2358670D2*
X2371350D1*
X2402343D2*
X2412343D1*
X1582343Y5349448D2*
X1592343D1*
X1694592D2*
X1705592D1*
X1720101D2*
X1731592D1*
X1805343D2*
X1815343D1*
X1863200D2*
X1873502D1*
X1930343D2*
X1940343D1*
X1992343D2*
X2002343D1*
X2059353D2*
X2069353D1*
X2131332D2*
X2141332D1*
X2195353D2*
X2205353D1*
X2267332D2*
X2277332D1*
X2333343D2*
X2343343D1*
X2359350D2*
X2372007D1*
X2402343D2*
X2412343D1*
X1582343Y5348448D2*
X1592343D1*
X1695093D2*
X1706093D1*
X1719595D2*
X1731093D1*
X1805343D2*
X1815343D1*
X1862908D2*
X1873374D1*
X1930343D2*
X1940343D1*
X1992343D2*
X2002343D1*
X2059346D2*
X2069346D1*
X2131339D2*
X2141339D1*
X2195346D2*
X2205346D1*
X2267339D2*
X2277339D1*
X2333343D2*
X2343343D1*
X2360007D2*
X2372670D1*
X2402343D2*
X2412343D1*
X1582343Y5347448D2*
X1592343D1*
X1695592D2*
X1706592D1*
X1719094D2*
X1730592D1*
X1805343D2*
X1815343D1*
X1862513D2*
X1873204D1*
X1930343D2*
X1940343D1*
X1992343D2*
X2002343D1*
X2059344D2*
X2069344D1*
X2131341D2*
X2141341D1*
X2195344D2*
X2205344D1*
X2267341D2*
X2277341D1*
X2333343D2*
X2343343D1*
X2360670D2*
X2373350D1*
X2402343D2*
X2412343D1*
X1582343Y5346448D2*
X1592343D1*
X1696093D2*
X1707093D1*
X1718592D2*
X1730089D1*
X1805343D2*
X1815343D1*
X1862058D2*
X1872943D1*
X1930343D2*
X1940343D1*
X1992343D2*
X2002343D1*
X2059343D2*
X2069343D1*
X2131342D2*
X2141342D1*
X2195343D2*
X2205343D1*
X2267342D2*
X2277342D1*
X2333343D2*
X2343343D1*
X2361350D2*
X2374007D1*
X2402343D2*
X2412343D1*
X1582343Y5345448D2*
X1592343D1*
X1696592D2*
X1707592D1*
X1718089D2*
X1729557D1*
X1805343D2*
X1815343D1*
X1861538D2*
X1872645D1*
X1930343D2*
X1940343D1*
X1992343D2*
X2002343D1*
X2059343D2*
X2069343D1*
X2131342D2*
X2141342D1*
X2195343D2*
X2205343D1*
X2267342D2*
X2277342D1*
X2333343D2*
X2343343D1*
X2362007D2*
X2374670D1*
X2402343D2*
X2412343D1*
X1582343Y5344448D2*
X1592343D1*
X1697093D2*
X1708093D1*
X1717557D2*
X1728962D1*
X1805343D2*
X1815343D1*
X1860875D2*
X1872340D1*
X1930343D2*
X1940343D1*
X1992343D2*
X2002343D1*
X2059343D2*
X2069343D1*
X2131342D2*
X2141342D1*
X2195343D2*
X2205343D1*
X2267342D2*
X2277342D1*
X2333343D2*
X2343343D1*
X2362670D2*
X2375350D1*
X2402343D2*
X2412343D1*
X1582343Y5343448D2*
X1592343D1*
X1697592D2*
X1708592D1*
X1716962D2*
X1728317D1*
X1805343D2*
X1815343D1*
X1859936D2*
X1872003D1*
X1930343D2*
X1940343D1*
X1992343D2*
X2002343D1*
X2059343D2*
X2069343D1*
X2131343D2*
X2141343D1*
X2195343D2*
X2205343D1*
X2267343D2*
X2277343D1*
X2333343D2*
X2343343D1*
X2363350D2*
X2376007D1*
X2402343D2*
X2412343D1*
X1582343Y5342448D2*
X1592343D1*
X1698093D2*
X1709093D1*
X1716317D2*
X1727705D1*
X1805343D2*
X1815343D1*
X1858644D2*
X1871669D1*
X1930343D2*
X1940343D1*
X1992343D2*
X2002343D1*
X2059343D2*
X2069343D1*
X2131343D2*
X2141343D1*
X2195343D2*
X2205343D1*
X2267343D2*
X2277343D1*
X2333343D2*
X2343343D1*
X2364007D2*
X2376670D1*
X2402343D2*
X2412343D1*
X1582343Y5341448D2*
X1592343D1*
X1698592D2*
X1709592D1*
X1715705D2*
X1727143D1*
X1805343D2*
X1815343D1*
X1857033D2*
X1871346D1*
X1930343D2*
X2002343D1*
X2059343D2*
X2069343D1*
X2131343D2*
X2141343D1*
X2195343D2*
X2205343D1*
X2267343D2*
X2277343D1*
X2333343D2*
X2343343D1*
X2364670D2*
X2377350D1*
X2402343D2*
X2412343D1*
X1582343Y5340448D2*
X1592343D1*
X1699093D2*
X1710093D1*
X1715135D2*
X1726612D1*
X1805343D2*
X1815343D1*
X1855225D2*
X1870968D1*
X1930343D2*
X2002343D1*
X2059343D2*
X2069343D1*
X2131343D2*
X2141343D1*
X2195343D2*
X2205343D1*
X2267343D2*
X2277343D1*
X2333343D2*
X2343343D1*
X2365350D2*
X2378007D1*
X2402343D2*
X2412343D1*
X1582343Y5339448D2*
X1592343D1*
X1699592D2*
X1710595D1*
X1714532D2*
X1726101D1*
X1805343D2*
X1870500D1*
X1930343D2*
X2002343D1*
X2059343D2*
X2069343D1*
X2131343D2*
X2141343D1*
X2195343D2*
X2205343D1*
X2267343D2*
X2277343D1*
X2333343D2*
X2343343D1*
X2366007D2*
X2378670D1*
X2402343D2*
X2412343D1*
X1582343Y5338448D2*
X1592343D1*
X1700093D2*
X1711122D1*
X1713737D2*
X1725595D1*
X1805343D2*
X1869901D1*
X1930343D2*
X2002343D1*
X2059343D2*
X2069343D1*
X2131343D2*
X2141343D1*
X2195343D2*
X2205343D1*
X2267343D2*
X2277343D1*
X2333343D2*
X2343343D1*
X2366670D2*
X2379350D1*
X2402343D2*
X2412343D1*
X1582343Y5337448D2*
X1592343D1*
X1700592D2*
X1711705D1*
X1712631D2*
X1725094D1*
X1805343D2*
X1869139D1*
X1930343D2*
X2002343D1*
X2059343D2*
X2069343D1*
X2131343D2*
X2141343D1*
X2195343D2*
X2205343D1*
X2267343D2*
X2277343D1*
X2333343D2*
X2343343D1*
X2367350D2*
X2380007D1*
X2402343D2*
X2412343D1*
X1582343Y5336448D2*
X1592343D1*
X1701093D2*
X1724592D1*
X1805343D2*
X1868257D1*
X1930343D2*
X2002343D1*
X2059343D2*
X2069343D1*
X2131343D2*
X2141343D1*
X2195343D2*
X2205343D1*
X2267343D2*
X2277343D1*
X2333343D2*
X2343343D1*
X2368007D2*
X2380670D1*
X2402343D2*
X2412343D1*
X1582343Y5335448D2*
X1592343D1*
X1701592D2*
X1724093D1*
X1805343D2*
X1867305D1*
X1930343D2*
X2002343D1*
X2059343D2*
X2069343D1*
X2131343D2*
X2141343D1*
X2195343D2*
X2205343D1*
X2267343D2*
X2277343D1*
X2333343D2*
X2343343D1*
X2368670D2*
X2381346D1*
X2402343D2*
X2412343D1*
X1582343Y5334448D2*
X1592343D1*
X1702093D2*
X1723592D1*
X1805343D2*
X1866287D1*
X1930343D2*
X2002343D1*
X2059343D2*
X2069343D1*
X2131343D2*
X2141343D1*
X2195343D2*
X2205343D1*
X2267343D2*
X2277343D1*
X2333343D2*
X2343343D1*
X2369350D2*
X2381972D1*
X2402343D2*
X2412343D1*
X1582343Y5333448D2*
X1592343D1*
X1702592D2*
X1723093D1*
X1805343D2*
X1865125D1*
X1930343D2*
X2002343D1*
X2059343D2*
X2069343D1*
X2131343D2*
X2141343D1*
X2195343D2*
X2205343D1*
X2267343D2*
X2277343D1*
X2333343D2*
X2343343D1*
X2370007D2*
X2382543D1*
X2402343D2*
X2412343D1*
X1582343Y5332448D2*
X1592343D1*
X1703093D2*
X1722592D1*
X1805343D2*
X1863684D1*
X1930343D2*
X2002343D1*
X2059343D2*
X2069343D1*
X2131343D2*
X2141343D1*
X2195343D2*
X2205343D1*
X2267343D2*
X2277343D1*
X2333343D2*
X2343343D1*
X2370670D2*
X2383107D1*
X2402343D2*
X2412343D1*
X1582343Y5331448D2*
X1592343D1*
X1703592D2*
X1722089D1*
X1805343D2*
X1815343D1*
X1817526D2*
X1861869D1*
X1930343D2*
X1940343D1*
X1992343D2*
X2002343D1*
X2059343D2*
X2069343D1*
X2131343D2*
X2141343D1*
X2195343D2*
X2205343D1*
X2267343D2*
X2277343D1*
X2333343D2*
X2343343D1*
X2371350D2*
X2383715D1*
X2402343D2*
X2412343D1*
X1582343Y5330448D2*
X1592343D1*
X1704089D2*
X1721557D1*
X1805343D2*
X1815343D1*
X1827877D2*
X1859698D1*
X1930343D2*
X1940343D1*
X1992343D2*
X2002343D1*
X2059343D2*
X2069343D1*
X2131343D2*
X2141343D1*
X2195343D2*
X2205343D1*
X2267343D2*
X2277343D1*
X2333343D2*
X2343343D1*
X2372007D2*
X2384369D1*
X2402343D2*
X2412343D1*
X1582343Y5329448D2*
X1592343D1*
X1704557D2*
X1720962D1*
X1805343D2*
X1815343D1*
X1838343D2*
X1857343D1*
X1930343D2*
X1940343D1*
X1992343D2*
X2002343D1*
X2059343D2*
X2069343D1*
X2131343D2*
X2141343D1*
X2195343D2*
X2205343D1*
X2267343D2*
X2277343D1*
X2333343D2*
X2343343D1*
X2372670D2*
X2385014D1*
X2402343D2*
X2412343D1*
X1582343Y5328448D2*
X1592343D1*
X1704962D2*
X1720317D1*
X1805343D2*
X1815343D1*
X1930343D2*
X1940343D1*
X1992343D2*
X2002343D1*
X2059343D2*
X2069343D1*
X2131343D2*
X2141343D1*
X2195343D2*
X2205343D1*
X2267343D2*
X2277343D1*
X2333343D2*
X2343343D1*
X2373350D2*
X2385673D1*
X2402343D2*
X2412343D1*
X1582343Y5327448D2*
X1592343D1*
X1705317D2*
X1719705D1*
X1805343D2*
X1815343D1*
X1930343D2*
X1940343D1*
X1992343D2*
X2002343D1*
X2059343D2*
X2069343D1*
X2131343D2*
X2141343D1*
X2195343D2*
X2205343D1*
X2267343D2*
X2277343D1*
X2333343D2*
X2343343D1*
X2374007D2*
X2386351D1*
X2402343D2*
X2412343D1*
X1582343Y5326448D2*
X1592343D1*
X1705705D2*
X1719143D1*
X1805343D2*
X1815343D1*
X1930343D2*
X1940343D1*
X1992343D2*
X2002343D1*
X2059343D2*
X2069343D1*
X2131339D2*
X2141339D1*
X2195343D2*
X2205343D1*
X2267339D2*
X2277339D1*
X2333343D2*
X2343343D1*
X2374670D2*
X2387007D1*
X2402343D2*
X2412343D1*
X1582343Y5325448D2*
X1592343D1*
X1706139D2*
X1718616D1*
X1805343D2*
X1815343D1*
X1930343D2*
X1940343D1*
X1992343D2*
X2002343D1*
X2059343D2*
X2069343D1*
X2131303D2*
X2141303D1*
X2195343D2*
X2205343D1*
X2267303D2*
X2277303D1*
X2333343D2*
X2343343D1*
X2375346D2*
X2387671D1*
X2402343D2*
X2412343D1*
X1582343Y5324448D2*
X1592343D1*
X1706573D2*
X1718140D1*
X1805343D2*
X1815343D1*
X1930343D2*
X1940343D1*
X1992343D2*
X2002343D1*
X2059346D2*
X2069346D1*
X2131176D2*
X2141176D1*
X2195346D2*
X2205346D1*
X2267176D2*
X2277176D1*
X2333343D2*
X2343343D1*
X2375972D2*
X2388350D1*
X2402343D2*
X2412343D1*
X1582343Y5323448D2*
X1592343D1*
X1706930D2*
X1717765D1*
X1805343D2*
X1815343D1*
X1930343D2*
X1940343D1*
X1992343D2*
X2002343D1*
X2059382D2*
X2069382D1*
X2130937D2*
X2140937D1*
X2195382D2*
X2205382D1*
X2266937D2*
X2276937D1*
X2333343D2*
X2343343D1*
X2376543D2*
X2389007D1*
X2402343D2*
X2412343D1*
X1582343Y5322448D2*
X1592343D1*
X1707150D2*
X1717539D1*
X1805343D2*
X1815343D1*
X1930343D2*
X1940343D1*
X1992343D2*
X2002343D1*
X2059509D2*
X2069509D1*
X2130680D2*
X2140680D1*
X2195509D2*
X2205509D1*
X2266680D2*
X2276680D1*
X2333343D2*
X2343343D1*
X2377107D2*
X2389670D1*
X2402343D2*
X2412343D1*
X1582343Y5321448D2*
X1592343D1*
X1707261D2*
X1717425D1*
X1805343D2*
X1815343D1*
X1930343D2*
X1940343D1*
X1992343D2*
X2002343D1*
X2059749D2*
X2069749D1*
X2130506D2*
X2140506D1*
X2195749D2*
X2205749D1*
X2266506D2*
X2276506D1*
X2333343D2*
X2343343D1*
X2377715D2*
X2390350D1*
X2402343D2*
X2412343D1*
X1582343Y5320448D2*
X1592343D1*
X1707311D2*
X1717375D1*
X1805343D2*
X1815343D1*
X1930343D2*
X1940343D1*
X1992343D2*
X2002343D1*
X2060005D2*
X2070005D1*
X2130413D2*
X2140413D1*
X2196005D2*
X2206005D1*
X2266413D2*
X2276413D1*
X2333343D2*
X2343343D1*
X2378369D2*
X2391007D1*
X2402343D2*
X2412343D1*
X1582343Y5319448D2*
X1592343D1*
X1707331D2*
X1717355D1*
X1805343D2*
X1815343D1*
X1930343D2*
X1940343D1*
X1992343D2*
X2002343D1*
X2060179D2*
X2070179D1*
X2130367D2*
X2140371D1*
X2196179D2*
X2206179D1*
X2266367D2*
X2276371D1*
X2333343D2*
X2343343D1*
X2379014D2*
X2391670D1*
X2402343D2*
X2412343D1*
X1582343Y5318448D2*
X1592343D1*
X1707338D2*
X1717347D1*
X1805343D2*
X1815343D1*
X1930343D2*
X1940343D1*
X1992343D2*
X2002343D1*
X2060272D2*
X2070272D1*
X2130314D2*
X2140349D1*
X2196272D2*
X2206272D1*
X2266314D2*
X2276349D1*
X2333343D2*
X2343343D1*
X2379673D2*
X2392350D1*
X2402343D2*
X2412343D1*
X1582343Y5317448D2*
X1592343D1*
X1707341D2*
X1717344D1*
X1805343D2*
X1815343D1*
X1930343D2*
X1940343D1*
X1992343D2*
X2002343D1*
X2060318D2*
X2070318D1*
X2130180D2*
X2140307D1*
X2196318D2*
X2206318D1*
X2266180D2*
X2276307D1*
X2333343D2*
X2343343D1*
X2380351D2*
X2393007D1*
X2402343D2*
X2412343D1*
X1582343Y5316448D2*
X1592343D1*
X1707342D2*
X1717343D1*
X1805343D2*
X1815343D1*
X1930343D2*
X1940343D1*
X1992343D2*
X2002343D1*
X2060371D2*
X2070371D1*
X2129938D2*
X2140177D1*
X2196371D2*
X2206371D1*
X2265938D2*
X2276177D1*
X2333343D2*
X2343343D1*
X2381007D2*
X2393670D1*
X2402343D2*
X2412343D1*
X1582343Y5315448D2*
X1592343D1*
X1707342D2*
X1717343D1*
X1805343D2*
X1815343D1*
X1930343D2*
X1940343D1*
X1992343D2*
X2002343D1*
X2060505D2*
X2070505D1*
X2129681D2*
X2139937D1*
X2196505D2*
X2206505D1*
X2265681D2*
X2275937D1*
X2333343D2*
X2343343D1*
X2381671D2*
X2394350D1*
X2402343D2*
X2412343D1*
X1582343Y5314448D2*
X1592343D1*
X1707342D2*
X1717343D1*
X1805343D2*
X1815343D1*
X1930343D2*
X1940343D1*
X1992343D2*
X2002343D1*
X2060747D2*
X2070747D1*
X2129502D2*
X2139680D1*
X2196747D2*
X2206747D1*
X2265502D2*
X2275680D1*
X2333343D2*
X2343343D1*
X2382350D2*
X2395007D1*
X2402343D2*
X2412343D1*
X1582343Y5313448D2*
X1592343D1*
X1707343D2*
X1717343D1*
X1805343D2*
X1815343D1*
X1930343D2*
X1940343D1*
X1992343D2*
X2002343D1*
X2061004D2*
X2071008D1*
X2129374D2*
X2139502D1*
X2197004D2*
X2207008D1*
X2265374D2*
X2275502D1*
X2333343D2*
X2343343D1*
X2383007D2*
X2395670D1*
X2402343D2*
X2412343D1*
X1582343Y5312448D2*
X1592343D1*
X1707343D2*
X1717343D1*
X1805343D2*
X1815343D1*
X1930343D2*
X1940343D1*
X1992343D2*
X2002343D1*
X2061183D2*
X2071218D1*
X2129204D2*
X2139374D1*
X2197183D2*
X2207218D1*
X2265204D2*
X2275374D1*
X2333343D2*
X2343343D1*
X2383670D2*
X2396350D1*
X2402343D2*
X2412343D1*
X1582343Y5311448D2*
X1592343D1*
X1707343D2*
X1717343D1*
X1805343D2*
X1815343D1*
X1930343D2*
X1940343D1*
X1992343D2*
X2002343D1*
X2061311D2*
X2071442D1*
X2128943D2*
X2139204D1*
X2197311D2*
X2207442D1*
X2264943D2*
X2275204D1*
X2333343D2*
X2343343D1*
X2384350D2*
X2397007D1*
X2402343D2*
X2412343D1*
X1582343Y5310448D2*
X1592343D1*
X1707343D2*
X1717343D1*
X1805343D2*
X1815343D1*
X1930343D2*
X1940343D1*
X1992343D2*
X2002343D1*
X2061481D2*
X2071760D1*
X2128645D2*
X2138943D1*
X2197481D2*
X2207760D1*
X2264645D2*
X2274943D1*
X2333343D2*
X2343343D1*
X2385007D2*
X2397670D1*
X2402343D2*
X2412343D1*
X1582343Y5309448D2*
X1592343D1*
X1707343D2*
X1717343D1*
X1805343D2*
X1815343D1*
X1930343D2*
X1940343D1*
X1992343D2*
X2002343D1*
X2061742D2*
X2072165D1*
X2128337D2*
X2138645D1*
X2197742D2*
X2208165D1*
X2264337D2*
X2274645D1*
X2333343D2*
X2343343D1*
X2385670D2*
X2398354D1*
X2402339D2*
X2412343D1*
X1582343Y5308448D2*
X1592343D1*
X1707343D2*
X1717343D1*
X1805343D2*
X1815343D1*
X1930343D2*
X1940343D1*
X1992343D2*
X2002343D1*
X2062040D2*
X2072621D1*
X2127968D2*
X2138340D1*
X2198040D2*
X2208621D1*
X2263968D2*
X2274340D1*
X2333343D2*
X2343343D1*
X2386350D2*
X2399053D1*
X2402301D2*
X2412343D1*
X1582343Y5307448D2*
X1592343D1*
X1707343D2*
X1717343D1*
X1805343D2*
X1815343D1*
X1930343D2*
X1940343D1*
X1992343D2*
X2002343D1*
X2062345D2*
X2073104D1*
X2127538D2*
X2138003D1*
X2198345D2*
X2209104D1*
X2263538D2*
X2274003D1*
X2333343D2*
X2343343D1*
X2387007D2*
X2399903D1*
X2402146D2*
X2412343D1*
X1582343Y5306448D2*
X1592343D1*
X1707343D2*
X1717343D1*
X1805343D2*
X1815343D1*
X1930343D2*
X1940343D1*
X1992343D2*
X2002343D1*
X2062682D2*
X2073600D1*
X2127067D2*
X2137669D1*
X2198682D2*
X2209600D1*
X2263067D2*
X2273669D1*
X2333343D2*
X2343343D1*
X2387670D2*
X2401037D1*
X2401804D2*
X2412343D1*
X1582343Y5305448D2*
X1592343D1*
X1707343D2*
X1717343D1*
X1805343D2*
X1815343D1*
X1930343D2*
X1940343D1*
X1992343D2*
X2002343D1*
X2063016D2*
X2074133D1*
X2126545D2*
X2137350D1*
X2199016D2*
X2210133D1*
X2262545D2*
X2273350D1*
X2333343D2*
X2343343D1*
X2388350D2*
X2412343D1*
X1582343Y5304448D2*
X1592343D1*
X1707343D2*
X1717343D1*
X1805343D2*
X1815343D1*
X1930343D2*
X1940343D1*
X1992343D2*
X2002343D1*
X2063339D2*
X2074763D1*
X2125920D2*
X2137007D1*
X2199339D2*
X2210763D1*
X2261920D2*
X2273007D1*
X2333343D2*
X2343343D1*
X2389007D2*
X2412343D1*
X1582343Y5303448D2*
X1592343D1*
X1707343D2*
X1717343D1*
X1805343D2*
X1815343D1*
X1930343D2*
X1940343D1*
X1992343D2*
X2002343D1*
X2063713D2*
X2075538D1*
X2125146D2*
X2136670D1*
X2199713D2*
X2211538D1*
X2261146D2*
X2272670D1*
X2333343D2*
X2343343D1*
X2389670D2*
X2412343D1*
X1582343Y5302448D2*
X1592343D1*
X1707343D2*
X1717343D1*
X1805343D2*
X1815343D1*
X1930343D2*
X1940343D1*
X1992343D2*
X2002343D1*
X2064146D2*
X2076425D1*
X2124256D2*
X2136346D1*
X2200146D2*
X2212425D1*
X2260256D2*
X2272346D1*
X2333343D2*
X2343343D1*
X2390350D2*
X2412343D1*
X1582343Y5301448D2*
X1592343D1*
X1707343D2*
X1717343D1*
X1805343D2*
X1815343D1*
X1930343D2*
X1940343D1*
X1992343D2*
X2002343D1*
X2064613D2*
X2077379D1*
X2123267D2*
X2135972D1*
X2200613D2*
X2213379D1*
X2259267D2*
X2271972D1*
X2333343D2*
X2343343D1*
X2391007D2*
X2412343D1*
X1582343Y5300448D2*
X1592343D1*
X1707343D2*
X1717343D1*
X1805343D2*
X1815343D1*
X1930343D2*
X1940343D1*
X1992343D2*
X2002343D1*
X2065101D2*
X2078405D1*
X2122117D2*
X2135539D1*
X2201101D2*
X2214405D1*
X2258117D2*
X2271539D1*
X2333343D2*
X2343343D1*
X2391670D2*
X2412343D1*
X1582343Y5299448D2*
X1592343D1*
X1707343D2*
X1717343D1*
X1805343D2*
X1815343D1*
X1930343D2*
X1940343D1*
X1992343D2*
X2002343D1*
X2065599D2*
X2079654D1*
X2120664D2*
X2135068D1*
X2201599D2*
X2215654D1*
X2256664D2*
X2271068D1*
X2333343D2*
X2343343D1*
X2392350D2*
X2412343D1*
X1582343Y5298448D2*
X1592343D1*
X1707343D2*
X1717343D1*
X1805343D2*
X1815343D1*
X1930343D2*
X1940343D1*
X1992343D2*
X2002343D1*
X2066129D2*
X2081507D1*
X2118682D2*
X2134549D1*
X2202129D2*
X2217507D1*
X2254682D2*
X2270549D1*
X2333343D2*
X2343343D1*
X2393007D2*
X2412343D1*
X1582343Y5297448D2*
X1592343D1*
X1707343D2*
X1717343D1*
X1805343D2*
X1815343D1*
X1930343D2*
X1940343D1*
X1992343D2*
X2002343D1*
X2066724D2*
X2084479D1*
X2115775D2*
X2133959D1*
X2202724D2*
X2220479D1*
X2251775D2*
X2269959D1*
X2333343D2*
X2343343D1*
X2393670D2*
X2412343D1*
X1582343Y5296448D2*
X1592343D1*
X1707343D2*
X1717343D1*
X1805343D2*
X1815343D1*
X1930343D2*
X1940343D1*
X1992343D2*
X2002343D1*
X2067372D2*
X2088846D1*
X2111575D2*
X2133313D1*
X2203372D2*
X2224846D1*
X2247575D2*
X2269313D1*
X2333343D2*
X2343343D1*
X2394350D2*
X2412343D1*
X1582343Y5295448D2*
X1592343D1*
X1707343D2*
X1717343D1*
X1805343D2*
X1815343D1*
X1930343D2*
X1940343D1*
X1992343D2*
X2002343D1*
X2068019D2*
X2094349D1*
X2106217D2*
X2132662D1*
X2204019D2*
X2230349D1*
X2242217D2*
X2268662D1*
X2333343D2*
X2343343D1*
X2395007D2*
X2412343D1*
X1582343Y5294448D2*
X1592343D1*
X1707343D2*
X1717343D1*
X1805343D2*
X1815343D1*
X1930343D2*
X1940343D1*
X1992343D2*
X2002343D1*
X2068712D2*
X2131933D1*
X2204712D2*
X2267933D1*
X2333343D2*
X2343343D1*
X2395670D2*
X2412343D1*
X1582343Y5293448D2*
X1592343D1*
X1707343D2*
X1717343D1*
X1805343D2*
X1815343D1*
X1930343D2*
X1940343D1*
X1992343D2*
X2002343D1*
X2069522D2*
X2130997D1*
X2205522D2*
X2266997D1*
X2333343D2*
X2343343D1*
X2396350D2*
X2412343D1*
X1582343Y5292448D2*
X1592343D1*
X1707343D2*
X1717343D1*
X1805343D2*
X1815343D1*
X1930343D2*
X1940343D1*
X1992343D2*
X2002343D1*
X2070460D2*
X2129823D1*
X2206460D2*
X2265823D1*
X2333343D2*
X2343343D1*
X2397007D2*
X2412343D1*
X1582343Y5291448D2*
X1592343D1*
X1707343D2*
X1717343D1*
X1805343D2*
X1815343D1*
X1930343D2*
X1940343D1*
X1992343D2*
X2002343D1*
X2071581D2*
X2128476D1*
X2207581D2*
X2264476D1*
X2333343D2*
X2343343D1*
X2397670D2*
X2412343D1*
X1582343Y5290448D2*
X1592343D1*
X1707343D2*
X1717343D1*
X1805343D2*
X1815343D1*
X1930343D2*
X1940343D1*
X1992343D2*
X2002343D1*
X2072973D2*
X2127007D1*
X2208973D2*
X2263007D1*
X2333343D2*
X2343343D1*
X2398350D2*
X2412343D1*
X1582343Y5289448D2*
X1592343D1*
X1707343D2*
X1717343D1*
X1805343D2*
X1815343D1*
X1930343D2*
X1940343D1*
X1992343D2*
X2002343D1*
X2074671D2*
X2125363D1*
X2210671D2*
X2261363D1*
X2333343D2*
X2343343D1*
X2399007D2*
X2412343D1*
X1582343Y5288448D2*
X1592343D1*
X1707343D2*
X1717343D1*
X1805343D2*
X1815343D1*
X1930343D2*
X1940343D1*
X1992343D2*
X2002343D1*
X2076734D2*
X2123402D1*
X2212734D2*
X2259402D1*
X2333343D2*
X2343343D1*
X2399667D2*
X2412343D1*
X1582343Y5287448D2*
X1592343D1*
X1707343D2*
X1717343D1*
X1805343D2*
X1815343D1*
X1930343D2*
X1940343D1*
X1992343D2*
X2002343D1*
X2079464D2*
X2120812D1*
X2215464D2*
X2256812D1*
X2333343D2*
X2343343D1*
X2400319D2*
X2412343D1*
X1582343Y5286448D2*
X1592343D1*
X1707343D2*
X1717343D1*
X1805343D2*
X1815343D1*
X1930343D2*
X1940343D1*
X1992343D2*
X2002343D1*
X2083427D2*
X2117020D1*
X2219427D2*
X2253020D1*
X2333343D2*
X2343343D1*
X2400872D2*
X2412343D1*
X1582343Y5285448D2*
X1592343D1*
X1707343D2*
X1717343D1*
X1805343D2*
X1815343D1*
X1930343D2*
X1940343D1*
X1992343D2*
X2002343D1*
X2088935D2*
X2111644D1*
X2224935D2*
X2247644D1*
X2333343D2*
X2343343D1*
X2401343D2*
X2412343D1*
X2095343Y5284448D2*
X2105343D1*
X2231343D2*
X2241343D1*
X2285640Y561711D2*
D3*
X2217640Y560711D2*
X2218640D1*
X2285640D2*
X2286640D1*
X2217640Y559711D2*
X2219640D1*
X2285640D2*
X2287640D1*
X2217640Y558711D2*
X2220640D1*
X2285640D2*
X2288640D1*
X2217640Y557711D2*
X2221640D1*
X2285640D2*
X2289640D1*
X2217640Y556711D2*
X2222640D1*
X2285640D2*
X2290640D1*
X2217640Y555711D2*
X2223640D1*
X2285640D2*
X2291640D1*
X2217640Y554711D2*
X2224640D1*
X2285640D2*
X2292640D1*
X2217640Y553711D2*
X2225640D1*
X2285640D2*
X2293640D1*
X2217640Y552711D2*
X2226640D1*
X2285640D2*
X2294640D1*
X2217640Y551711D2*
X2227640D1*
X2285640D2*
X2295640D1*
X2217640Y550711D2*
X2228640D1*
X2285640D2*
X2296640D1*
X2217640Y549711D2*
X2229640D1*
X2285640D2*
X2297640D1*
X2217640Y548711D2*
X2230640D1*
X2285640D2*
X2298640D1*
X2217640Y547711D2*
X2231640D1*
X2285640D2*
X2299640D1*
X2217640Y546711D2*
X2232640D1*
X2285640D2*
X2300640D1*
X2217640Y545711D2*
X2233640D1*
X2285640D2*
X2301640D1*
X2217640Y544711D2*
X2234640D1*
X2285640D2*
X2302640D1*
X2217640Y543711D2*
X2235640D1*
X2285640D2*
X2303640D1*
X2217640Y542711D2*
X2236640D1*
X2285640D2*
X2304640D1*
X2217640Y541711D2*
X2237640D1*
X2285640D2*
X2305640D1*
X2217640Y540711D2*
X2238640D1*
X2285640D2*
X2306640D1*
X2217640Y539711D2*
X2239640D1*
X2285640D2*
X2307640D1*
X2217640Y538711D2*
X2240640D1*
X2285640D2*
X2308640D1*
X2217640Y537711D2*
X2241640D1*
X2285640D2*
X2309640D1*
X2217640Y536711D2*
X2242637D1*
X2285640D2*
X2310637D1*
X2217640Y535711D2*
X2243597D1*
X2285640D2*
X2311597D1*
X2217640Y534711D2*
X2244431D1*
X2285640D2*
X2312431D1*
X2217640Y533711D2*
X2245025D1*
X2285640D2*
X2313025D1*
X2217640Y532711D2*
X2245363D1*
X2251640D2*
X2252640D1*
X2285640D2*
X2313363D1*
X2217640Y531711D2*
X2245526D1*
X2251640D2*
X2253640D1*
X2285640D2*
X2313526D1*
X2217640Y530711D2*
X2245596D1*
X2251640D2*
X2254640D1*
X2285640D2*
X2313596D1*
X2217640Y529711D2*
X2245624D1*
X2251640D2*
X2255640D1*
X2285640D2*
X2313624D1*
X2217640Y528711D2*
X2245635D1*
X2251640D2*
X2256640D1*
X2285640D2*
X2313635D1*
X2217640Y527711D2*
X2245638D1*
X2251640D2*
X2257640D1*
X2285640D2*
X2313638D1*
X2217640Y526711D2*
X2245640D1*
X2251640D2*
X2258640D1*
X2285640D2*
X2313640D1*
X2217640Y525711D2*
X2245640D1*
X2251640D2*
X2259640D1*
X2285640D2*
X2313640D1*
X2217640Y524711D2*
X2245640D1*
X2251640D2*
X2260640D1*
X2285640D2*
X2313640D1*
X2217640Y523711D2*
X2245640D1*
X2251640D2*
X2261640D1*
X2285640D2*
X2313640D1*
X2217640Y522711D2*
X2245640D1*
X2251640D2*
X2262640D1*
X2285640D2*
X2313640D1*
X2217640Y521711D2*
X2245640D1*
X2251640D2*
X2263640D1*
X2285640D2*
X2313640D1*
X2217640Y520711D2*
X2245640D1*
X2251640D2*
X2264640D1*
X2285640D2*
X2313640D1*
X2217640Y519711D2*
X2245640D1*
X2251640D2*
X2265640D1*
X2285640D2*
X2313640D1*
X2217640Y518711D2*
X2245640D1*
X2251640D2*
X2266640D1*
X2285640D2*
X2313640D1*
X2217640Y517711D2*
X2245640D1*
X2251640D2*
X2267640D1*
X2285640D2*
X2313640D1*
X2217640Y516711D2*
X2245640D1*
X2251640D2*
X2268640D1*
X2285640D2*
X2313640D1*
X2217640Y515711D2*
X2245640D1*
X2251640D2*
X2269640D1*
X2285640D2*
X2313640D1*
X2217640Y514711D2*
X2245640D1*
X2251640D2*
X2270640D1*
X2285640D2*
X2313640D1*
X2217640Y513711D2*
X2245640D1*
X2251640D2*
X2271640D1*
X2285640D2*
X2313640D1*
X2217640Y512711D2*
X2245640D1*
X2251640D2*
X2272640D1*
X2285640D2*
X2313640D1*
X2217640Y511711D2*
X2245640D1*
X2251640D2*
X2273640D1*
X2285640D2*
X2313640D1*
X2217640Y510711D2*
X2245640D1*
X2251640D2*
X2274640D1*
X2285640D2*
X2313640D1*
X2217640Y509711D2*
X2245640D1*
X2251644D2*
X2275664D1*
X2285640D2*
X2313640D1*
X2217640Y508711D2*
X2245640D1*
X2251683D2*
X2276892D1*
X2285640D2*
X2313640D1*
X2217640Y507711D2*
X2245640D1*
X2251850D2*
X2278820D1*
X2285640D2*
X2313640D1*
X2217640Y506711D2*
X2245640D1*
X2252256D2*
X2281871D1*
X2285640D2*
X2313640D1*
X2217640Y505711D2*
X2245640D1*
X2252918D2*
X2313640D1*
X2217640Y504711D2*
X2245640D1*
X2253755D2*
X2313640D1*
X2217640Y503711D2*
X2245640D1*
X2254685D2*
X2313640D1*
X2217640Y502711D2*
X2245640D1*
X2255657D2*
X2313640D1*
X2217640Y501711D2*
X2245640D1*
X2256646D2*
X2313640D1*
X2217640Y500711D2*
X2245640D1*
X2257642D2*
X2313640D1*
X2217640Y499711D2*
X2245640D1*
X2258641D2*
X2313640D1*
X2217640Y498711D2*
X2245640D1*
X2259641D2*
X2313640D1*
X2217640Y497711D2*
X2245640D1*
X2260640D2*
X2313640D1*
X2217640Y496711D2*
X2245640D1*
X2261640D2*
X2313640D1*
X2217640Y495711D2*
X2245640D1*
X2262640D2*
X2313640D1*
X2217640Y494711D2*
X2245640D1*
X2263640D2*
X2313640D1*
X2217640Y493711D2*
X2245640D1*
X2264640D2*
X2313640D1*
X2217640Y492711D2*
X2245640D1*
X2265640D2*
X2313640D1*
X2217640Y491711D2*
X2245640D1*
X2266640D2*
X2313640D1*
X2217640Y490711D2*
X2245640D1*
X2267640D2*
X2313640D1*
X2217640Y489711D2*
X2245640D1*
X2268640D2*
X2313640D1*
X2217640Y488711D2*
X2245640D1*
X2269640D2*
X2313640D1*
X2217640Y487711D2*
X2245640D1*
X2270640D2*
X2313640D1*
X2217640Y486711D2*
X2245640D1*
X2271640D2*
X2313640D1*
X2217640Y485711D2*
X2245640D1*
X2272640D2*
X2313640D1*
X2217640Y484711D2*
X2245640D1*
X2273640D2*
X2313640D1*
X2217640Y483711D2*
X2245640D1*
X2274640D2*
X2313640D1*
X2217640Y482711D2*
X2245640D1*
X2275640D2*
X2313640D1*
X2217640Y481711D2*
X2245640D1*
X2276640D2*
X2313640D1*
X2217640Y480711D2*
X2245640D1*
X2277640D2*
X2313640D1*
X2217640Y479711D2*
X2245640D1*
X2278640D2*
X2313640D1*
X2217640Y478711D2*
X2245640D1*
X2279640D2*
X2313640D1*
X1773101Y568948D2*
Y567948D1*
Y566948D1*
Y565948D1*
Y564948D1*
Y563948D1*
Y562948D1*
Y561948D1*
Y560948D1*
Y559948D1*
Y558948D1*
Y557948D1*
Y556948D1*
Y555948D1*
Y554948D1*
Y553948D1*
Y552948D1*
Y551948D1*
Y550948D1*
Y549948D1*
Y548948D1*
Y547948D1*
Y546948D1*
Y545948D1*
Y544948D1*
Y543948D1*
Y542948D1*
Y541948D1*
Y540948D1*
Y539948D1*
Y538948D1*
Y537948D1*
Y536948D1*
Y535948D1*
Y534948D1*
Y533948D1*
Y532948D1*
Y531948D1*
Y530948D1*
Y529948D1*
Y528948D1*
Y527948D1*
Y526948D1*
Y525948D1*
Y524948D1*
Y523948D1*
Y522948D1*
Y521948D1*
Y520948D1*
Y519948D1*
Y518948D1*
Y517948D1*
Y516948D1*
Y515948D1*
Y514948D1*
Y513948D1*
Y512948D1*
Y511948D1*
Y510948D1*
Y509948D1*
Y508948D1*
Y507948D1*
Y506948D1*
Y505948D1*
Y504948D1*
Y503948D1*
Y502948D1*
Y501948D1*
Y500948D1*
Y499948D1*
Y498948D1*
Y497948D1*
Y496948D1*
Y495948D1*
Y494948D1*
Y493948D1*
Y492948D1*
Y491948D1*
Y490948D1*
Y489948D1*
Y488948D1*
Y487948D1*
Y486948D1*
Y485948D1*
Y484948D1*
Y483948D1*
Y482948D1*
Y481948D1*
Y480948D1*
Y479948D1*
Y478948D1*
Y477948D1*
X1781101Y568948D2*
Y567948D1*
Y566948D1*
Y565948D1*
Y564948D1*
Y563948D1*
Y562948D1*
Y561948D1*
Y560948D1*
Y559948D1*
Y558948D1*
Y557948D1*
Y556948D1*
Y555948D1*
Y554948D1*
Y553948D1*
Y552948D1*
Y551948D1*
Y550948D1*
Y549948D1*
Y548948D1*
Y547948D1*
Y546948D1*
Y545948D1*
Y544948D1*
Y543948D1*
Y542948D1*
Y541948D1*
Y540948D1*
Y539948D1*
Y538948D1*
Y537948D1*
Y536948D1*
Y535948D1*
Y534948D1*
Y533948D1*
Y532948D1*
Y531948D1*
Y530948D1*
Y529948D1*
Y528948D1*
Y527948D1*
Y526948D1*
Y525948D1*
Y524948D1*
Y523948D1*
Y522948D1*
Y521948D1*
Y520948D1*
Y519948D1*
Y518948D1*
Y517948D1*
X1786101Y516948D1*
X1929101Y568948D2*
Y567948D1*
Y566948D1*
Y565948D1*
Y564948D1*
Y563948D1*
Y562948D1*
Y561948D1*
Y560948D1*
Y559948D1*
Y558948D1*
Y557948D1*
Y556948D1*
Y555948D1*
Y554948D1*
Y553948D1*
Y552948D1*
Y551948D1*
Y550948D1*
Y549948D1*
Y548948D1*
Y547948D1*
Y546948D1*
Y545948D1*
Y544948D1*
Y543948D1*
Y542948D1*
Y541948D1*
Y540948D1*
Y539948D1*
Y538948D1*
Y537948D1*
Y536948D1*
Y535948D1*
Y534948D1*
Y533948D1*
Y532948D1*
Y531948D1*
Y530948D1*
Y529948D1*
Y528948D1*
Y527948D1*
Y526948D1*
Y525948D1*
Y524948D1*
Y523948D1*
Y522948D1*
Y521948D1*
Y520948D1*
Y519948D1*
Y518948D1*
Y517948D1*
Y516948D1*
Y515948D1*
Y514948D1*
Y513948D1*
Y512948D1*
Y511948D1*
Y510948D1*
Y509948D1*
Y508948D1*
Y507948D1*
Y506948D1*
Y505948D1*
Y504948D1*
Y503948D1*
Y502948D1*
Y501948D1*
Y500948D1*
Y499948D1*
Y498948D1*
X1929105Y497948D1*
X1929140Y496948D1*
X1929268Y495948D1*
X1929507Y494948D1*
X1929763Y493948D1*
X1929938Y492948D1*
X1930034Y491948D1*
X1930112Y490948D1*
X1930257Y489948D1*
X1930507Y488948D1*
X1930801Y487948D1*
X1931108Y486948D1*
X1931479Y485948D1*
X1931945Y484948D1*
X1932543Y483948D1*
X1933309Y482948D1*
X1934229Y481948D1*
X1935344Y480948D1*
X1936725Y479948D1*
X1938356Y478948D1*
X1940101Y477948D1*
X1937101Y568948D2*
Y567948D1*
Y566948D1*
Y565948D1*
Y564948D1*
Y563948D1*
Y562948D1*
Y561948D1*
Y560948D1*
Y559948D1*
Y558948D1*
Y557948D1*
Y556948D1*
Y555948D1*
Y554948D1*
Y553948D1*
Y552948D1*
Y551948D1*
Y550948D1*
Y549948D1*
Y548948D1*
Y547948D1*
Y546948D1*
Y545948D1*
Y544948D1*
Y543948D1*
Y542948D1*
Y541948D1*
Y540948D1*
Y539948D1*
Y538948D1*
Y537948D1*
Y536948D1*
Y535948D1*
Y534948D1*
Y533948D1*
Y532948D1*
Y531948D1*
Y530948D1*
Y529948D1*
Y528948D1*
Y527948D1*
Y526948D1*
Y525948D1*
Y524948D1*
Y523948D1*
Y522948D1*
Y521948D1*
Y520948D1*
Y519948D1*
Y518948D1*
Y517948D1*
Y516948D1*
Y515948D1*
Y514948D1*
Y513948D1*
Y512948D1*
Y511948D1*
Y510948D1*
Y509948D1*
Y508948D1*
Y507948D1*
Y506948D1*
Y505948D1*
Y504948D1*
Y503948D1*
Y502948D1*
Y501948D1*
Y500948D1*
Y499948D1*
Y498948D1*
Y497948D1*
X1937105Y496948D1*
X1937140Y495948D1*
X1937268Y494948D1*
X1937511Y493948D1*
X1937803Y492948D1*
X1938108Y491948D1*
X1938483Y490948D1*
X1938992Y489948D1*
X1939636Y488948D1*
X1941132Y487948D1*
X1943267Y486948D1*
X1946007Y485948D1*
X1948878Y484948D1*
X1951224Y483948D1*
X1952990Y482948D1*
X1953673Y481948D1*
X1953905Y480948D1*
X1954022Y479948D1*
X1954073Y478948D1*
X1954101Y477948D1*
X1690101Y562948D2*
Y561948D1*
Y560948D1*
Y559948D1*
Y558948D1*
Y557948D1*
Y556948D1*
Y555948D1*
Y554948D1*
Y553948D1*
Y552948D1*
Y551948D1*
Y550948D1*
Y549948D1*
Y548948D1*
Y547948D1*
Y546948D1*
Y545948D1*
Y544948D1*
Y543948D1*
Y542948D1*
Y541948D1*
Y540948D1*
Y539948D1*
Y538948D1*
Y537948D1*
Y536948D1*
Y535948D1*
Y534948D1*
Y533948D1*
Y532948D1*
Y531948D1*
Y530948D1*
Y529948D1*
Y528948D1*
Y527948D1*
Y526948D1*
Y525948D1*
Y524948D1*
Y523948D1*
Y522948D1*
Y521948D1*
Y520948D1*
Y519948D1*
Y518948D1*
Y517948D1*
Y516948D1*
Y515948D1*
Y514948D1*
Y513948D1*
Y512948D1*
Y511948D1*
Y510948D1*
Y509948D1*
Y508948D1*
Y507948D1*
Y506948D1*
Y505948D1*
Y504948D1*
Y503948D1*
Y502948D1*
Y501948D1*
Y500948D1*
Y499948D1*
Y498948D1*
X1690097Y497948D1*
X1690062Y496948D1*
X1689935Y495948D1*
X1689695Y494948D1*
X1689435Y493948D1*
X1689225Y492948D1*
X1689001Y491948D1*
X1688684Y490948D1*
X1688275Y489948D1*
X1687776Y488948D1*
X1687056Y487948D1*
X1686068Y486948D1*
X1682956Y485948D1*
X1678098Y484948D1*
X1672101Y483948D1*
X1697101Y562948D2*
Y561948D1*
Y560948D1*
Y559948D1*
Y558948D1*
Y557948D1*
Y556948D1*
Y555948D1*
Y554948D1*
Y553948D1*
Y552948D1*
Y551948D1*
Y550948D1*
Y549948D1*
Y548948D1*
Y547948D1*
Y546948D1*
Y545948D1*
Y544948D1*
Y543948D1*
Y542948D1*
Y541948D1*
Y540948D1*
Y539948D1*
Y538948D1*
Y537948D1*
Y536948D1*
Y535948D1*
Y534948D1*
Y533948D1*
Y532948D1*
Y531948D1*
Y530948D1*
Y529948D1*
Y528948D1*
Y527948D1*
Y526948D1*
Y525948D1*
Y524948D1*
Y523948D1*
Y522948D1*
Y521948D1*
Y520948D1*
Y519948D1*
Y518948D1*
Y517948D1*
Y516948D1*
Y515948D1*
Y514948D1*
Y513948D1*
Y512948D1*
Y511948D1*
Y510948D1*
Y509948D1*
Y508948D1*
Y507948D1*
Y506948D1*
Y505948D1*
Y504948D1*
Y503948D1*
Y502948D1*
Y501948D1*
Y500948D1*
Y499948D1*
Y498948D1*
Y497948D1*
Y496948D1*
Y495948D1*
Y494948D1*
Y493948D1*
Y492948D1*
Y491948D1*
X1697097Y490948D1*
X1697062Y489948D1*
X1696935Y488948D1*
X1696691Y487948D1*
X1696400Y486948D1*
X1696094Y485948D1*
X1695723Y484948D1*
X1695257Y483948D1*
X1694655Y482948D1*
X1693854Y481948D1*
X1692795Y480948D1*
X1691326Y479948D1*
X1689222Y478948D1*
X1686376Y477948D1*
X1683101Y476948D1*
X1861101Y562948D2*
Y561948D1*
Y560948D1*
Y559948D1*
Y558948D1*
Y557948D1*
Y556948D1*
Y555948D1*
Y554948D1*
Y553948D1*
Y552948D1*
Y551948D1*
Y550948D1*
Y549948D1*
Y548948D1*
Y547948D1*
Y546948D1*
Y545948D1*
Y544948D1*
Y543948D1*
Y542948D1*
Y541948D1*
Y540948D1*
Y539948D1*
Y538948D1*
Y537948D1*
Y536948D1*
Y535948D1*
Y534948D1*
Y533948D1*
Y532948D1*
Y531948D1*
Y530948D1*
Y529948D1*
Y528948D1*
Y527948D1*
Y526948D1*
Y525948D1*
Y524948D1*
Y523948D1*
Y522948D1*
Y521948D1*
Y520948D1*
Y519948D1*
Y518948D1*
Y517948D1*
Y516948D1*
Y515948D1*
Y514948D1*
Y513948D1*
Y512948D1*
Y511948D1*
Y510948D1*
Y509948D1*
Y508948D1*
Y507948D1*
Y506948D1*
Y505948D1*
Y504948D1*
Y503948D1*
Y502948D1*
Y501948D1*
Y500948D1*
Y499948D1*
Y498948D1*
Y497948D1*
Y496948D1*
Y495948D1*
Y494948D1*
Y493948D1*
Y492948D1*
Y491948D1*
Y490948D1*
Y489948D1*
Y488948D1*
Y487948D1*
Y486948D1*
Y485948D1*
Y484948D1*
Y483948D1*
Y482948D1*
Y481948D1*
Y480948D1*
Y479948D1*
Y478948D1*
Y477948D1*
X1899101Y562948D2*
X1902444Y561948D1*
X1905138Y560948D1*
X1907168Y559948D1*
X1908695Y558948D1*
X1909901Y557948D1*
X1910870Y556948D1*
X1911634Y555948D1*
X1912261Y554948D1*
X1912817Y553948D1*
X1913338Y552948D1*
X1913843Y551948D1*
X1914310Y550948D1*
X1914684Y549948D1*
X1914944Y548948D1*
X1915185Y547948D1*
X1915475Y546948D1*
X1915751Y545948D1*
X1915934Y544948D1*
X1916029Y543948D1*
X1916073Y542948D1*
X1916090Y541948D1*
X1916097Y540948D1*
X1916100Y539948D1*
X1916101Y538948D1*
Y537948D1*
Y536948D1*
Y535948D1*
Y534948D1*
Y533948D1*
X1916097Y532948D1*
X1916062Y531948D1*
X1915935Y530948D1*
X1915695Y529948D1*
X1915435Y528948D1*
X1915225Y527948D1*
X1915005Y526948D1*
X1914719Y525948D1*
X1914410Y524948D1*
X1914098Y523948D1*
X1913728Y522948D1*
X1913297Y521948D1*
X1912826Y520948D1*
X1912303Y519948D1*
X1911674Y518948D1*
X1910862Y517948D1*
X1909809Y516948D1*
X1908453Y515948D1*
X1906812Y514948D1*
X1904991Y513948D1*
X1903101Y512948D1*
X1869101Y554948D2*
Y553948D1*
Y552948D1*
Y551948D1*
Y550948D1*
Y549948D1*
Y548948D1*
Y547948D1*
Y546948D1*
Y545948D1*
Y544948D1*
Y543948D1*
Y542948D1*
Y541948D1*
Y540948D1*
Y539948D1*
Y538948D1*
Y537948D1*
Y536948D1*
Y535948D1*
Y534948D1*
Y533948D1*
Y532948D1*
Y531948D1*
Y530948D1*
Y529948D1*
Y528948D1*
Y527948D1*
Y526948D1*
Y525948D1*
Y524948D1*
Y523948D1*
Y522948D1*
Y521948D1*
Y520948D1*
X1898101Y554948D2*
X1900059Y553948D1*
X1901888Y552948D1*
X1903447Y551948D1*
X1904653Y550948D1*
X1905537Y549948D1*
X1906185Y548948D1*
X1906636Y547948D1*
X1906927Y546948D1*
X1907179Y545948D1*
X1907473Y544948D1*
X1907751Y543948D1*
X1907933Y542948D1*
X1908029Y541948D1*
X1908073Y540948D1*
X1908090Y539948D1*
X1908097Y538948D1*
X1908100Y537948D1*
X1908101Y536948D1*
Y535948D1*
Y534948D1*
Y533948D1*
X1908097Y532948D1*
X1908062Y531948D1*
X1907935Y530948D1*
X1907691Y529948D1*
X1907400Y528948D1*
X1907094Y527948D1*
X1906723Y526948D1*
X1906253Y525948D1*
X1905616Y524948D1*
X1904688Y523948D1*
X1903404Y522948D1*
X1901819Y521948D1*
X1900101Y520948D1*
X1727101Y539948D2*
X1721697Y538948D1*
X1717455Y537948D1*
X1714231Y536948D1*
X1712935Y535948D1*
X1712486Y534948D1*
X1712257Y533948D1*
X1712156Y532948D1*
X1712101Y531948D1*
X1748101Y539948D2*
X1750059Y538948D1*
X1751888Y537948D1*
X1753447Y536948D1*
X1754657Y535948D1*
X1755576Y534948D1*
X1756351Y533948D1*
X1757042Y532948D1*
X1757589Y531948D1*
X1758016Y530948D1*
X1758402Y529948D1*
X1758723Y528948D1*
X1758923Y527948D1*
X1759025Y526948D1*
X1759071Y525948D1*
X1759090Y524948D1*
X1759097Y523948D1*
X1759100Y522948D1*
X1759101Y521948D1*
Y520948D1*
Y519948D1*
Y518948D1*
Y517948D1*
Y516948D1*
Y515948D1*
Y514948D1*
Y513948D1*
Y512948D1*
Y511948D1*
Y510948D1*
Y509948D1*
Y508948D1*
Y507948D1*
Y506948D1*
Y505948D1*
Y504948D1*
Y503948D1*
Y502948D1*
Y501948D1*
Y500948D1*
Y499948D1*
Y498948D1*
Y497948D1*
Y496948D1*
Y495948D1*
Y494948D1*
Y493948D1*
Y492948D1*
Y491948D1*
Y490948D1*
Y489948D1*
Y488948D1*
Y487948D1*
Y486948D1*
Y485948D1*
Y484948D1*
Y483948D1*
Y482948D1*
Y481948D1*
Y480948D1*
Y479948D1*
Y478948D1*
Y477948D1*
X1810101Y538948D2*
X1808947Y537948D1*
X1807699Y536948D1*
X1806440Y535948D1*
X1805265Y534948D1*
X1804172Y533948D1*
X1803129Y532948D1*
X1802112Y531948D1*
X1801105Y530948D1*
X1800102Y529948D1*
X1799101Y528948D1*
X1798101Y527948D1*
X1797101Y526948D1*
X1796097Y525948D1*
X1795062Y524948D1*
X1793935Y523948D1*
X1792695Y522948D1*
X1791439Y521948D1*
X1790245Y520948D1*
X1788962Y519948D1*
X1787146Y518948D1*
X1784419Y517948D1*
X1781101Y516948D1*
X1821101Y538948D2*
X1820101Y537948D1*
X1819101Y536948D1*
X1818101Y535948D1*
X1817101Y534948D1*
X1816101Y533948D1*
X1815097Y532948D1*
X1814062Y531948D1*
X1812935Y530948D1*
X1811695Y529948D1*
X1810439Y528948D1*
X1809264Y527948D1*
X1808172Y526948D1*
X1807129Y525948D1*
X1806112Y524948D1*
X1805105Y523948D1*
X1804102Y522948D1*
X1803101Y521948D1*
X1802101Y520948D1*
X1801101Y519948D1*
X1800101Y518948D1*
X1799101Y517948D1*
X1798101Y516948D1*
X1797101Y515948D1*
X1796101Y514948D1*
X1795101Y513948D1*
X1794101Y512948D1*
X1794947Y511948D1*
X1795699Y510948D1*
X1796440Y509948D1*
X1797261Y508948D1*
X1798133Y507948D1*
X1798963Y506948D1*
X1799706Y505948D1*
X1800438Y504948D1*
X1801226Y503948D1*
X1802005Y502948D1*
X1802723Y501948D1*
X1803445Y500948D1*
X1804229Y499948D1*
X1805006Y498948D1*
X1805724Y497948D1*
X1806449Y496948D1*
X1807264Y495948D1*
X1808134Y494948D1*
X1808963Y493948D1*
X1809706Y492948D1*
X1810439Y491948D1*
X1811226Y490948D1*
X1812005Y489948D1*
X1812723Y488948D1*
X1813449Y487948D1*
X1814264Y486948D1*
X1815134Y485948D1*
X1815963Y484948D1*
X1816706Y483948D1*
X1817439Y482948D1*
X1818226Y481948D1*
X1819005Y480948D1*
X1819714Y479948D1*
X1820398Y478948D1*
X1821101Y477948D1*
X1963101Y538948D2*
Y537948D1*
Y536948D1*
Y535948D1*
Y534948D1*
Y533948D1*
Y532948D1*
Y531948D1*
Y530948D1*
Y529948D1*
Y528948D1*
Y527948D1*
Y526948D1*
Y525948D1*
Y524948D1*
Y523948D1*
Y522948D1*
Y521948D1*
Y520948D1*
Y519948D1*
Y518948D1*
Y517948D1*
Y516948D1*
Y515948D1*
Y514948D1*
Y513948D1*
Y512948D1*
Y511948D1*
Y510948D1*
Y509948D1*
Y508948D1*
Y507948D1*
Y506948D1*
Y505948D1*
Y504948D1*
Y503948D1*
Y502948D1*
Y501948D1*
Y500948D1*
Y499948D1*
Y498948D1*
Y497948D1*
Y496948D1*
Y495948D1*
X1963105Y494948D1*
X1963140Y493948D1*
X1963268Y492948D1*
X1963511Y491948D1*
X1963803Y490948D1*
X1964108Y489948D1*
X1964476Y488948D1*
X1964906Y487948D1*
X1965376Y486948D1*
X1965899Y485948D1*
X1966524Y484948D1*
X1967298Y483948D1*
X1968184Y482948D1*
X1969137Y481948D1*
X1970160Y480948D1*
X1971357Y479948D1*
X1972911Y478948D1*
X1974891Y477948D1*
X1977101Y476948D1*
X1971101Y538948D2*
Y537948D1*
Y536948D1*
Y535948D1*
Y534948D1*
Y533948D1*
Y532948D1*
Y531948D1*
Y530948D1*
Y529948D1*
Y528948D1*
Y527948D1*
Y526948D1*
Y525948D1*
Y524948D1*
Y523948D1*
Y522948D1*
Y521948D1*
Y520948D1*
Y519948D1*
Y518948D1*
Y517948D1*
Y516948D1*
Y515948D1*
Y514948D1*
Y513948D1*
Y512948D1*
Y511948D1*
Y510948D1*
Y509948D1*
Y508948D1*
Y507948D1*
Y506948D1*
Y505948D1*
Y504948D1*
Y503948D1*
Y502948D1*
Y501948D1*
Y500948D1*
Y499948D1*
Y498948D1*
Y497948D1*
Y496948D1*
Y495948D1*
X1971105Y494948D1*
X1971140Y493948D1*
X1971271Y492948D1*
X1971550Y491948D1*
X1971973Y490948D1*
X1972557Y489948D1*
X1973351Y488948D1*
X1974397Y487948D1*
X1975746Y486948D1*
X1977364Y485948D1*
X1979101Y484948D1*
X2005101Y538948D2*
Y537948D1*
Y536948D1*
Y535948D1*
Y534948D1*
Y533948D1*
Y532948D1*
Y531948D1*
Y530948D1*
Y529948D1*
Y528948D1*
Y527948D1*
Y526948D1*
Y525948D1*
Y524948D1*
Y523948D1*
Y522948D1*
Y521948D1*
Y520948D1*
Y519948D1*
Y518948D1*
Y517948D1*
Y516948D1*
Y515948D1*
Y514948D1*
Y513948D1*
Y512948D1*
Y511948D1*
Y510948D1*
Y509948D1*
Y508948D1*
Y507948D1*
Y506948D1*
Y505948D1*
Y504948D1*
Y503948D1*
Y502948D1*
Y501948D1*
Y500948D1*
Y499948D1*
Y498948D1*
Y497948D1*
Y496948D1*
Y495948D1*
X2005097Y494948D1*
X2005054Y493948D1*
X2004949Y492948D1*
X2004427Y491948D1*
X2003085Y490948D1*
X2001267Y489948D1*
X1999030Y488948D1*
X1996380Y487948D1*
X1993261Y486948D1*
X1989763Y485948D1*
X1986101Y484948D1*
X2013101Y538948D2*
Y537948D1*
Y536948D1*
Y535948D1*
Y534948D1*
Y533948D1*
Y532948D1*
Y531948D1*
Y530948D1*
Y529948D1*
Y528948D1*
Y527948D1*
Y526948D1*
Y525948D1*
Y524948D1*
Y523948D1*
Y522948D1*
Y521948D1*
Y520948D1*
Y519948D1*
Y518948D1*
Y517948D1*
Y516948D1*
Y515948D1*
Y514948D1*
Y513948D1*
Y512948D1*
Y511948D1*
Y510948D1*
Y509948D1*
Y508948D1*
Y507948D1*
Y506948D1*
Y505948D1*
Y504948D1*
Y503948D1*
Y502948D1*
Y501948D1*
Y500948D1*
Y499948D1*
Y498948D1*
Y497948D1*
Y496948D1*
Y495948D1*
Y494948D1*
Y493948D1*
Y492948D1*
Y491948D1*
Y490948D1*
Y489948D1*
Y488948D1*
Y487948D1*
Y486948D1*
Y485948D1*
Y484948D1*
Y483948D1*
Y482948D1*
Y481948D1*
Y480948D1*
Y479948D1*
Y478948D1*
Y477948D1*
X2040101Y538948D2*
X2038143Y537948D1*
X2036310Y536948D1*
X2034720Y535948D1*
X2033418Y534948D1*
X2032382Y533948D1*
X2031555Y532948D1*
X2030823Y531948D1*
X2030149Y530948D1*
X2029609Y529948D1*
X2029185Y528948D1*
X2028796Y527948D1*
X2028440Y526948D1*
X2028113Y525948D1*
X2027771Y524948D1*
X2027468Y523948D1*
X2027275Y522948D1*
X2027175Y521948D1*
X2027130Y520948D1*
X2027112Y519948D1*
X2027105Y518948D1*
X2027102Y517948D1*
X2027101Y516948D1*
Y515948D1*
X2027105Y514948D1*
X2027140Y513948D1*
X2027268Y512948D1*
X2027507Y511948D1*
X2027767Y510948D1*
X2027977Y509948D1*
X2028201Y508948D1*
X2028518Y507948D1*
X2028923Y506948D1*
X2029383Y505948D1*
X2029901Y504948D1*
X2030525Y503948D1*
X2031297Y502948D1*
X2032177Y501948D1*
X2033101Y500948D1*
X2031797Y499948D1*
X2030632Y498948D1*
X2029717Y497948D1*
X2029007Y496948D1*
X2028416Y495948D1*
X2027913Y494948D1*
X2027529Y493948D1*
X2027299Y492948D1*
X2027184Y491948D1*
X2027134Y490948D1*
X2027117Y489948D1*
X2027144Y488948D1*
X2027273Y487948D1*
X2027547Y486948D1*
X2027938Y485948D1*
X2028422Y484948D1*
X2029022Y483948D1*
X2029683Y482948D1*
X2030300Y481948D1*
X2030416Y480948D1*
X2030111Y479948D1*
X2029635Y478948D1*
X2029044Y477948D1*
X2028456Y476948D1*
X2027937Y475948D1*
X2027540Y474948D1*
X2027304Y473948D1*
X2027186Y472948D1*
X2027134Y471948D1*
X2027113Y470948D1*
X2027105Y469948D1*
X2027103Y468948D1*
X2027102Y467948D1*
X2027101Y466948D1*
Y465948D1*
Y464948D1*
Y463948D1*
Y462948D1*
Y461948D1*
Y460948D1*
X2027105Y459948D1*
X2027140Y458948D1*
X2027271Y457948D1*
X2027546Y456948D1*
X2027934Y455948D1*
X2028387Y454948D1*
X2028902Y453948D1*
X2029529Y452948D1*
X2030337Y451948D1*
X2031358Y450948D1*
X2032633Y449948D1*
X2034278Y448948D1*
X2036559Y447948D1*
X2039617Y446948D1*
X2043101Y445948D1*
X2083101Y538948D2*
Y537948D1*
X2083097Y536948D1*
X2083042Y535948D1*
X2082902Y534948D1*
X2082064Y533948D1*
X2079986Y532948D1*
X2077712Y531948D1*
X2075759Y530948D1*
X2074101Y529948D1*
X2074717Y528948D1*
X2075256Y527948D1*
X2075696Y526948D1*
X2076063Y525948D1*
X2076421Y524948D1*
X2076730Y523948D1*
X2076926Y522948D1*
X2077026Y521948D1*
X2077072Y520948D1*
X2077090Y519948D1*
X2077097Y518948D1*
X2077100Y517948D1*
X2077101Y516948D1*
X2077097Y515948D1*
X2077062Y514948D1*
X2076935Y513948D1*
X2076695Y512948D1*
X2076435Y511948D1*
X2076225Y510948D1*
X2076005Y509948D1*
X2075719Y508948D1*
X2075410Y507948D1*
X2075098Y506948D1*
X2074728Y505948D1*
X2074297Y504948D1*
X2073826Y503948D1*
X2073303Y502948D1*
X2072678Y501948D1*
X2071901Y500948D1*
X2070975Y499948D1*
X2069847Y498948D1*
X2068348Y497948D1*
X2066230Y496948D1*
X2063379Y495948D1*
X2060101Y494948D1*
X2105101Y538948D2*
X2103143Y537948D1*
X2101310Y536948D1*
X2099720Y535948D1*
X2098418Y534948D1*
X2097382Y533948D1*
X2096555Y532948D1*
X2095823Y531948D1*
X2095149Y530948D1*
X2094609Y529948D1*
X2094185Y528948D1*
X2093796Y527948D1*
X2093440Y526948D1*
X2093113Y525948D1*
X2092771Y524948D1*
X2092468Y523948D1*
X2092275Y522948D1*
X2092175Y521948D1*
X2092130Y520948D1*
X2092112Y519948D1*
X2092105Y518948D1*
X2092102Y517948D1*
X2092101Y516948D1*
Y515948D1*
X2092105Y514948D1*
X2092140Y513948D1*
X2092268Y512948D1*
X2092507Y511948D1*
X2092767Y510948D1*
X2092977Y509948D1*
X2093201Y508948D1*
X2093518Y507948D1*
X2093923Y506948D1*
X2094383Y505948D1*
X2094901Y504948D1*
X2095525Y503948D1*
X2096297Y502948D1*
X2097177Y501948D1*
X2098101Y500948D1*
X2096797Y499948D1*
X2095632Y498948D1*
X2094717Y497948D1*
X2094007Y496948D1*
X2093416Y495948D1*
X2092913Y494948D1*
X2092529Y493948D1*
X2092299Y492948D1*
X2092184Y491948D1*
X2092134Y490948D1*
X2092117Y489948D1*
X2092144Y488948D1*
X2092273Y487948D1*
X2092547Y486948D1*
X2092938Y485948D1*
X2093422Y484948D1*
X2094022Y483948D1*
X2094683Y482948D1*
X2095300Y481948D1*
X2095416Y480948D1*
X2095111Y479948D1*
X2094635Y478948D1*
X2094044Y477948D1*
X2093456Y476948D1*
X2092937Y475948D1*
X2092540Y474948D1*
X2092304Y473948D1*
X2092186Y472948D1*
X2092134Y471948D1*
X2092113Y470948D1*
X2092105Y469948D1*
X2092103Y468948D1*
X2092102Y467948D1*
X2092101Y466948D1*
Y465948D1*
Y464948D1*
Y463948D1*
Y462948D1*
Y461948D1*
Y460948D1*
X2092105Y459948D1*
X2092140Y458948D1*
X2092271Y457948D1*
X2092546Y456948D1*
X2092934Y455948D1*
X2093387Y454948D1*
X2093902Y453948D1*
X2094529Y452948D1*
X2095337Y451948D1*
X2096358Y450948D1*
X2097633Y449948D1*
X2099278Y448948D1*
X2101559Y447948D1*
X2104617Y446948D1*
X2108101Y445948D1*
X2148101Y538948D2*
Y537948D1*
X2148097Y536948D1*
X2148042Y535948D1*
X2147902Y534948D1*
X2147064Y533948D1*
X2144986Y532948D1*
X2142712Y531948D1*
X2140759Y530948D1*
X2139101Y529948D1*
X2139717Y528948D1*
X2140256Y527948D1*
X2140696Y526948D1*
X2141063Y525948D1*
X2141421Y524948D1*
X2141730Y523948D1*
X2141926Y522948D1*
X2142026Y521948D1*
X2142072Y520948D1*
X2142090Y519948D1*
X2142097Y518948D1*
X2142100Y517948D1*
X2142101Y516948D1*
X2142097Y515948D1*
X2142062Y514948D1*
X2141935Y513948D1*
X2141695Y512948D1*
X2141435Y511948D1*
X2141225Y510948D1*
X2141005Y509948D1*
X2140719Y508948D1*
X2140410Y507948D1*
X2140098Y506948D1*
X2139728Y505948D1*
X2139297Y504948D1*
X2138826Y503948D1*
X2138303Y502948D1*
X2137678Y501948D1*
X2136901Y500948D1*
X2135975Y499948D1*
X2134847Y498948D1*
X2133348Y497948D1*
X2131230Y496948D1*
X2128379Y495948D1*
X2125101Y494948D1*
X1729101Y532948D2*
X1728101Y531948D1*
X1742101Y532948D2*
X1744704Y531948D1*
X1746839Y530948D1*
X1748377Y529948D1*
X1749423Y528948D1*
X1750141Y527948D1*
X1750616Y526948D1*
X1750886Y525948D1*
X1751050Y524948D1*
X1751233Y523948D1*
X1751494Y522948D1*
X1751759Y521948D1*
X1751932Y520948D1*
X1751991Y519948D1*
X1751906Y518948D1*
X1751684Y517948D1*
X1751435Y516948D1*
X1751262Y515948D1*
X1751165Y514948D1*
X1751101Y513948D1*
X2048101Y531948D2*
X2044691Y530948D1*
X2041936Y529948D1*
X2039935Y528948D1*
X2038487Y527948D1*
X2037439Y526948D1*
X2036726Y525948D1*
X2036229Y524948D1*
X2035816Y523948D1*
X2035485Y522948D1*
X2035281Y521948D1*
X2035177Y520948D1*
X2035131Y519948D1*
X2035112Y518948D1*
X2035105Y517948D1*
X2035102Y516948D1*
X2035105Y515948D1*
X2035140Y514948D1*
X2035268Y513948D1*
X2035511Y512948D1*
X2035803Y511948D1*
X2036108Y510948D1*
X2036480Y509948D1*
X2036945Y508948D1*
X2037551Y507948D1*
X2038391Y506948D1*
X2039605Y505948D1*
X2041358Y504948D1*
X2043615Y503948D1*
X2046101Y502948D1*
X2058101Y531948D2*
X2060824Y530948D1*
X2063114Y529948D1*
X2064799Y528948D1*
X2066003Y527948D1*
X2066900Y526948D1*
X2067535Y525948D1*
X2067996Y524948D1*
X2068395Y523948D1*
X2068720Y522948D1*
X2068922Y521948D1*
X2069025Y520948D1*
X2069071Y519948D1*
X2069090Y518948D1*
X2069097Y517948D1*
X2069100Y516948D1*
X2069101Y515948D1*
X2069097Y514948D1*
X2069062Y513948D1*
X2068931Y512948D1*
X2068656Y511948D1*
X2068268Y510948D1*
X2067815Y509948D1*
X2067300Y508948D1*
X2066669Y507948D1*
X2065818Y506948D1*
X2064600Y505948D1*
X2062845Y504948D1*
X2060587Y503948D1*
X2058101Y502948D1*
X2113101Y531948D2*
X2109691Y530948D1*
X2106936Y529948D1*
X2104935Y528948D1*
X2103487Y527948D1*
X2102439Y526948D1*
X2101726Y525948D1*
X2101229Y524948D1*
X2100816Y523948D1*
X2100485Y522948D1*
X2100281Y521948D1*
X2100177Y520948D1*
X2100131Y519948D1*
X2100112Y518948D1*
X2100105Y517948D1*
X2100102Y516948D1*
X2100105Y515948D1*
X2100140Y514948D1*
X2100268Y513948D1*
X2100511Y512948D1*
X2100803Y511948D1*
X2101108Y510948D1*
X2101480Y509948D1*
X2101945Y508948D1*
X2102551Y507948D1*
X2103391Y506948D1*
X2104605Y505948D1*
X2106358Y504948D1*
X2108615Y503948D1*
X2111101Y502948D1*
X2123101Y531948D2*
X2125824Y530948D1*
X2128114Y529948D1*
X2129799Y528948D1*
X2131003Y527948D1*
X2131900Y526948D1*
X2132535Y525948D1*
X2132996Y524948D1*
X2133395Y523948D1*
X2133720Y522948D1*
X2133922Y521948D1*
X2134025Y520948D1*
X2134071Y519948D1*
X2134090Y518948D1*
X2134097Y517948D1*
X2134100Y516948D1*
X2134101Y515948D1*
X2134097Y514948D1*
X2134062Y513948D1*
X2133931Y512948D1*
X2133656Y511948D1*
X2133268Y510948D1*
X2132815Y509948D1*
X2132300Y508948D1*
X2131669Y507948D1*
X2130818Y506948D1*
X2129600Y505948D1*
X2127845Y504948D1*
X2125587Y503948D1*
X2123101Y502948D1*
X1719101Y513948D2*
X1717489Y512948D1*
X1715989Y511948D1*
X1714712Y510948D1*
X1713716Y509948D1*
X1712892Y508948D1*
X1712177Y507948D1*
X1711619Y506948D1*
X1711189Y505948D1*
X1710801Y504948D1*
X1710480Y503948D1*
X1710279Y502948D1*
X1710177Y501948D1*
X1710131Y500948D1*
X1710112Y499948D1*
X1710105Y498948D1*
X1710102Y497948D1*
X1710101Y496948D1*
Y495948D1*
Y494948D1*
Y493948D1*
Y492948D1*
Y491948D1*
X1710105Y490948D1*
X1710140Y489948D1*
X1710268Y488948D1*
X1710511Y487948D1*
X1710806Y486948D1*
X1711143Y485948D1*
X1711607Y484948D1*
X1712184Y483948D1*
X1712803Y482948D1*
X1713522Y481948D1*
X1714493Y480948D1*
X1715834Y479948D1*
X1717604Y478948D1*
X1719756Y477948D1*
X1722101Y476948D1*
X1869101Y514948D2*
Y513948D1*
Y512948D1*
Y511948D1*
Y510948D1*
Y509948D1*
Y508948D1*
Y507948D1*
Y506948D1*
Y505948D1*
Y504948D1*
Y503948D1*
Y502948D1*
Y501948D1*
Y500948D1*
Y499948D1*
Y498948D1*
Y497948D1*
Y496948D1*
Y495948D1*
Y494948D1*
Y493948D1*
Y492948D1*
Y491948D1*
Y490948D1*
Y489948D1*
Y488948D1*
Y487948D1*
Y486948D1*
Y485948D1*
Y484948D1*
Y483948D1*
Y482948D1*
Y481948D1*
Y480948D1*
Y479948D1*
Y478948D1*
Y477948D1*
X1864101Y514948D2*
X1875101Y513948D1*
X1886101Y512948D1*
X1750101Y508948D2*
X1749101Y507948D1*
X1751101Y508948D2*
Y507948D1*
Y506948D1*
Y505948D1*
Y504948D1*
Y503948D1*
Y502948D1*
Y501948D1*
Y500948D1*
Y499948D1*
Y498948D1*
Y497948D1*
Y496948D1*
Y495948D1*
X1751097Y494948D1*
X1751050Y493948D1*
X1750933Y492948D1*
X1750306Y491948D1*
X1748610Y490948D1*
X1746232Y489948D1*
X1743138Y488948D1*
X1739132Y487948D1*
X1733568Y486948D1*
X1725950Y485948D1*
X1717101Y484948D1*
X1781101Y508948D2*
Y507948D1*
Y506948D1*
Y505948D1*
Y504948D1*
Y503948D1*
Y502948D1*
Y501948D1*
Y500948D1*
Y499948D1*
Y498948D1*
Y497948D1*
Y496948D1*
Y495948D1*
Y494948D1*
Y493948D1*
Y492948D1*
Y491948D1*
Y490948D1*
Y489948D1*
Y488948D1*
Y487948D1*
Y486948D1*
Y485948D1*
Y484948D1*
Y483948D1*
Y482948D1*
Y481948D1*
Y480948D1*
Y479948D1*
Y478948D1*
Y477948D1*
X1786101Y508948D2*
X1787097Y507948D1*
X1788062Y506948D1*
X1788935Y505948D1*
X1789695Y504948D1*
X1790439Y503948D1*
X1791260Y502948D1*
X1792132Y501948D1*
X1792963Y500948D1*
X1793706Y499948D1*
X1794442Y498948D1*
X1795262Y497948D1*
X1796133Y496948D1*
X1796963Y495948D1*
X1797706Y494948D1*
X1798442Y493948D1*
X1799262Y492948D1*
X1800133Y491948D1*
X1800963Y490948D1*
X1801706Y489948D1*
X1802442Y488948D1*
X1803262Y487948D1*
X1804133Y486948D1*
X1804963Y485948D1*
X1805706Y484948D1*
X1806442Y483948D1*
X1807262Y482948D1*
X1808133Y481948D1*
X1808962Y480948D1*
X1809696Y479948D1*
X1810392Y478948D1*
X1811101Y477948D1*
X1736101Y507948D2*
X1735101Y506948D1*
X1725101D2*
X1723298Y505948D1*
X1721717Y504948D1*
X1720421Y503948D1*
X1719425Y502948D1*
X1718649Y501948D1*
X1718367Y500948D1*
X1718214Y499948D1*
X1718145Y498948D1*
X1718117Y497948D1*
X1718107Y496948D1*
X1718103Y495948D1*
X1718102Y494948D1*
X1718101Y493948D1*
Y492948D1*
X1718105Y491948D1*
X1718144Y490948D1*
X1718311Y489948D1*
X1718623Y488948D1*
X1719451Y487948D1*
X1721908Y486948D1*
X1725969Y485948D1*
X1731101Y484948D1*
X2037101Y494948D2*
X2036298Y493948D1*
X2035713Y492948D1*
X2035386Y491948D1*
X2035209Y490948D1*
X2035401Y489948D1*
X2036300Y488948D1*
X2037599Y487948D1*
X2039101Y486948D1*
X2102101Y494948D2*
X2101298Y493948D1*
X2100713Y492948D1*
X2100386Y491948D1*
X2100209Y490948D1*
X2100401Y489948D1*
X2101300Y488948D1*
X2102599Y487948D1*
X2104101Y486948D1*
X2069101D2*
X2071175Y485948D1*
X2072962Y484948D1*
X2074384Y483948D1*
X2075445Y482948D1*
X2076295Y481948D1*
X2077020Y480948D1*
X2077581Y479948D1*
X2078013Y478948D1*
X2078401Y477948D1*
X2078722Y476948D1*
X2078923Y475948D1*
X2079025Y474948D1*
X2079071Y473948D1*
X2079090Y472948D1*
X2079097Y471948D1*
X2079100Y470948D1*
X2079101Y469948D1*
Y468948D1*
Y467948D1*
Y466948D1*
Y465948D1*
Y464948D1*
Y463948D1*
Y462948D1*
Y461948D1*
Y460948D1*
X2079097Y459948D1*
X2079062Y458948D1*
X2078931Y457948D1*
X2078656Y456948D1*
X2078268Y455948D1*
X2077819Y454948D1*
X2077339Y453948D1*
X2076839Y452948D1*
X2076271Y451948D1*
X2075506Y450948D1*
X2074410Y449948D1*
X2072896Y448948D1*
X2070811Y447948D1*
X2068113Y446948D1*
X2065101Y445948D1*
X2134101Y486948D2*
X2136175Y485948D1*
X2137962Y484948D1*
X2139384Y483948D1*
X2140445Y482948D1*
X2141295Y481948D1*
X2142020Y480948D1*
X2142581Y479948D1*
X2143013Y478948D1*
X2143401Y477948D1*
X2143722Y476948D1*
X2143923Y475948D1*
X2144025Y474948D1*
X2144071Y473948D1*
X2144090Y472948D1*
X2144097Y471948D1*
X2144100Y470948D1*
X2144101Y469948D1*
Y468948D1*
Y467948D1*
Y466948D1*
Y465948D1*
Y464948D1*
Y463948D1*
Y462948D1*
Y461948D1*
Y460948D1*
X2144097Y459948D1*
X2144062Y458948D1*
X2143931Y457948D1*
X2143656Y456948D1*
X2143268Y455948D1*
X2142819Y454948D1*
X2142339Y453948D1*
X2141839Y452948D1*
X2141271Y451948D1*
X2140506Y450948D1*
X2139410Y449948D1*
X2137896Y448948D1*
X2135811Y447948D1*
X2133113Y446948D1*
X2130101Y445948D1*
X1668101Y484948D2*
X1667950Y483948D1*
X1667742Y482948D1*
X1667550Y481948D1*
X1667771Y480948D1*
X1668545Y479948D1*
X1670385Y478948D1*
X1673004Y477948D1*
X1676101Y476948D1*
X1673101Y484948D2*
X1674101Y483948D1*
X1752101Y484948D2*
X1749294Y483948D1*
X1746670Y482948D1*
X1744168Y481948D1*
X1741592Y480948D1*
X1738783Y479948D1*
X1735610Y478948D1*
X1731988Y477948D1*
X1728101Y476948D1*
X1752101Y484948D2*
X1752139Y483948D1*
X1752267Y482948D1*
X1752511Y481948D1*
X1752805Y480948D1*
X1753135Y479948D1*
X1753575Y478948D1*
X1754101Y477948D1*
X2005101Y484948D2*
X2003256Y483948D1*
X2001504Y482948D1*
X1999759Y481948D1*
X1997895Y480948D1*
X1995821Y479948D1*
X1993461Y478948D1*
X1990840Y477948D1*
X1988101Y476948D1*
X2004101Y484948D2*
X2004943Y483948D1*
X2005656Y482948D1*
X2006234Y481948D1*
X2006691Y480948D1*
X2007091Y479948D1*
X2007560Y478948D1*
X2008101Y477948D1*
X2034101Y479948D2*
Y478948D1*
Y477948D1*
Y476948D1*
Y475948D1*
Y474948D1*
Y473948D1*
Y472948D1*
Y471948D1*
Y470948D1*
Y469948D1*
Y468948D1*
Y467948D1*
Y466948D1*
Y465948D1*
X2034105Y464948D1*
X2034140Y463948D1*
X2034268Y462948D1*
X2034511Y461948D1*
X2034806Y460948D1*
X2035147Y459948D1*
X2035654Y458948D1*
X2036437Y457948D1*
X2037624Y456948D1*
X2039365Y455948D1*
X2041617Y454948D1*
X2044101Y453948D1*
X2037101Y479948D2*
X2038101Y478948D1*
X2099101Y479948D2*
Y478948D1*
Y477948D1*
Y476948D1*
Y475948D1*
Y474948D1*
Y473948D1*
Y472948D1*
Y471948D1*
Y470948D1*
Y469948D1*
Y468948D1*
Y467948D1*
Y466948D1*
Y465948D1*
X2099105Y464948D1*
X2099140Y463948D1*
X2099268Y462948D1*
X2099511Y461948D1*
X2099806Y460948D1*
X2100147Y459948D1*
X2100654Y458948D1*
X2101437Y457948D1*
X2102624Y456948D1*
X2104365Y455948D1*
X2106617Y454948D1*
X2109101Y453948D1*
X2102101Y479948D2*
X2103101Y478948D1*
X2068101D2*
X2069059Y477948D1*
X2069896Y476948D1*
X2070525Y475948D1*
X2070990Y474948D1*
X2071392Y473948D1*
X2071719Y472948D1*
X2071922Y471948D1*
X2072025Y470948D1*
X2072071Y469948D1*
X2072090Y468948D1*
X2072097Y467948D1*
X2072100Y466948D1*
X2072101Y465948D1*
X2072097Y464948D1*
X2072062Y463948D1*
X2071935Y462948D1*
X2071691Y461948D1*
X2071400Y460948D1*
X2071090Y459948D1*
X2070680Y458948D1*
X2070048Y457948D1*
X2069044Y456948D1*
X2067621Y455948D1*
X2065917Y454948D1*
X2064101Y453948D1*
X2133101Y478948D2*
X2134059Y477948D1*
X2134896Y476948D1*
X2135525Y475948D1*
X2135990Y474948D1*
X2136392Y473948D1*
X2136719Y472948D1*
X2136922Y471948D1*
X2137025Y470948D1*
X2137071Y469948D1*
X2137090Y468948D1*
X2137097Y467948D1*
X2137100Y466948D1*
X2137101Y465948D1*
X2137097Y464948D1*
X2137062Y463948D1*
X2136935Y462948D1*
X2136691Y461948D1*
X2136400Y460948D1*
X2136090Y459948D1*
X2135680Y458948D1*
X2135048Y457948D1*
X2134044Y456948D1*
X2132621Y455948D1*
X2130917Y454948D1*
X2129101Y453948D1*
X1551343Y5392448D2*
Y5391448D1*
Y5390448D1*
Y5389448D1*
Y5388448D1*
Y5387448D1*
Y5386448D1*
Y5385448D1*
Y5384448D1*
Y5383448D1*
Y5382448D1*
X1625343Y5392448D2*
Y5391448D1*
Y5390448D1*
Y5389448D1*
Y5388448D1*
Y5387448D1*
Y5386448D1*
Y5385448D1*
Y5384448D1*
Y5383448D1*
Y5382448D1*
X1673343Y5392448D2*
X1673722Y5391448D1*
X1674152Y5390448D1*
X1674617Y5389448D1*
X1675102Y5388448D1*
X1675596Y5387448D1*
X1676094Y5386448D1*
X1676593Y5385448D1*
X1677093Y5384448D1*
X1677592Y5383448D1*
X1678093Y5382448D1*
X1678592Y5381448D1*
X1679093Y5380448D1*
X1679592Y5379448D1*
X1680093Y5378448D1*
X1680592Y5377448D1*
X1681093Y5376448D1*
X1681592Y5375448D1*
X1682093Y5374448D1*
X1682592Y5373448D1*
X1683093Y5372448D1*
X1683592Y5371448D1*
X1684093Y5370448D1*
X1684592Y5369448D1*
X1685093Y5368448D1*
X1685592Y5367448D1*
X1686093Y5366448D1*
X1686592Y5365448D1*
X1687093Y5364448D1*
X1687592Y5363448D1*
X1688093Y5362448D1*
X1688592Y5361448D1*
X1689093Y5360448D1*
X1689592Y5359448D1*
X1690093Y5358448D1*
X1690592Y5357448D1*
X1691093Y5356448D1*
X1691592Y5355448D1*
X1692093Y5354448D1*
X1692592Y5353448D1*
X1693093Y5352448D1*
X1693592Y5351448D1*
X1694093Y5350448D1*
X1694592Y5349448D1*
X1695093Y5348448D1*
X1695592Y5347448D1*
X1696093Y5346448D1*
X1696592Y5345448D1*
X1697093Y5344448D1*
X1697592Y5343448D1*
X1698093Y5342448D1*
X1698592Y5341448D1*
X1699093Y5340448D1*
X1699592Y5339448D1*
X1700093Y5338448D1*
X1700592Y5337448D1*
X1701093Y5336448D1*
X1701592Y5335448D1*
X1702093Y5334448D1*
X1702592Y5333448D1*
X1703093Y5332448D1*
X1703592Y5331448D1*
X1704089Y5330448D1*
X1704557Y5329448D1*
X1704962Y5328448D1*
X1705317Y5327448D1*
X1705705Y5326448D1*
X1706139Y5325448D1*
X1706573Y5324448D1*
X1706930Y5323448D1*
X1707150Y5322448D1*
X1707261Y5321448D1*
X1707311Y5320448D1*
X1707331Y5319448D1*
X1707338Y5318448D1*
X1707341Y5317448D1*
X1707342Y5316448D1*
Y5315448D1*
Y5314448D1*
X1707343Y5313448D1*
Y5312448D1*
Y5311448D1*
Y5310448D1*
Y5309448D1*
Y5308448D1*
Y5307448D1*
Y5306448D1*
Y5305448D1*
Y5304448D1*
Y5303448D1*
Y5302448D1*
Y5301448D1*
Y5300448D1*
Y5299448D1*
Y5298448D1*
Y5297448D1*
Y5296448D1*
Y5295448D1*
Y5294448D1*
Y5293448D1*
Y5292448D1*
Y5291448D1*
Y5290448D1*
Y5289448D1*
Y5288448D1*
Y5287448D1*
Y5286448D1*
Y5285448D1*
X1684343Y5392448D2*
X1684722Y5391448D1*
X1685152Y5390448D1*
X1685617Y5389448D1*
X1686102Y5388448D1*
X1686596Y5387448D1*
X1687094Y5386448D1*
X1687593Y5385448D1*
X1688093Y5384448D1*
X1688592Y5383448D1*
X1689093Y5382448D1*
X1689592Y5381448D1*
X1690093Y5380448D1*
X1690592Y5379448D1*
X1691093Y5378448D1*
X1691592Y5377448D1*
X1692093Y5376448D1*
X1692592Y5375448D1*
X1693093Y5374448D1*
X1693592Y5373448D1*
X1694093Y5372448D1*
X1694592Y5371448D1*
X1695093Y5370448D1*
X1695592Y5369448D1*
X1696093Y5368448D1*
X1696592Y5367448D1*
X1697093Y5366448D1*
X1697592Y5365448D1*
X1698093Y5364448D1*
X1698592Y5363448D1*
X1699093Y5362448D1*
X1699592Y5361448D1*
X1700093Y5360448D1*
X1700592Y5359448D1*
X1701093Y5358448D1*
X1701592Y5357448D1*
X1702093Y5356448D1*
X1702592Y5355448D1*
X1703093Y5354448D1*
X1703592Y5353448D1*
X1704093Y5352448D1*
X1704592Y5351448D1*
X1705093Y5350448D1*
X1705592Y5349448D1*
X1706093Y5348448D1*
X1706592Y5347448D1*
X1707093Y5346448D1*
X1707592Y5345448D1*
X1708093Y5344448D1*
X1708592Y5343448D1*
X1709093Y5342448D1*
X1709592Y5341448D1*
X1710093Y5340448D1*
X1710595Y5339448D1*
X1711122Y5338448D1*
X1711705Y5337448D1*
X1712343Y5336448D1*
X1743343Y5392448D2*
X1742963Y5391448D1*
X1742533Y5390448D1*
X1742065Y5389448D1*
X1741548Y5388448D1*
X1740958Y5387448D1*
X1740316Y5386448D1*
X1739705Y5385448D1*
X1739143Y5384448D1*
X1738612Y5383448D1*
X1738101Y5382448D1*
X1737595Y5381448D1*
X1737094Y5380448D1*
X1736592Y5379448D1*
X1736089Y5378448D1*
X1735557Y5377448D1*
X1734962Y5376448D1*
X1734317Y5375448D1*
X1733705Y5374448D1*
X1733143Y5373448D1*
X1732612Y5372448D1*
X1732101Y5371448D1*
X1731595Y5370448D1*
X1731094Y5369448D1*
X1730592Y5368448D1*
X1730089Y5367448D1*
X1729557Y5366448D1*
X1728962Y5365448D1*
X1728317Y5364448D1*
X1727705Y5363448D1*
X1727143Y5362448D1*
X1726612Y5361448D1*
X1726101Y5360448D1*
X1725595Y5359448D1*
X1725094Y5358448D1*
X1724592Y5357448D1*
X1724089Y5356448D1*
X1723557Y5355448D1*
X1722962Y5354448D1*
X1722317Y5353448D1*
X1721705Y5352448D1*
X1721143Y5351448D1*
X1720612Y5350448D1*
X1720101Y5349448D1*
X1719595Y5348448D1*
X1719094Y5347448D1*
X1718592Y5346448D1*
X1718089Y5345448D1*
X1717557Y5344448D1*
X1716962Y5343448D1*
X1716317Y5342448D1*
X1715705Y5341448D1*
X1715135Y5340448D1*
X1714532Y5339448D1*
X1713737Y5338448D1*
X1712631Y5337448D1*
X1711343Y5336448D1*
X1754343Y5392448D2*
X1753963Y5391448D1*
X1753533Y5390448D1*
X1753068Y5389448D1*
X1752583Y5388448D1*
X1752086Y5387448D1*
X1751556Y5386448D1*
X1750961Y5385448D1*
X1750317Y5384448D1*
X1749705Y5383448D1*
X1749143Y5382448D1*
X1748612Y5381448D1*
X1748101Y5380448D1*
X1747595Y5379448D1*
X1747094Y5378448D1*
X1746592Y5377448D1*
X1746093Y5376448D1*
X1745592Y5375448D1*
X1745093Y5374448D1*
X1744592Y5373448D1*
X1744089Y5372448D1*
X1743557Y5371448D1*
X1742962Y5370448D1*
X1742317Y5369448D1*
X1741705Y5368448D1*
X1741143Y5367448D1*
X1740612Y5366448D1*
X1740101Y5365448D1*
X1739595Y5364448D1*
X1739094Y5363448D1*
X1738592Y5362448D1*
X1738093Y5361448D1*
X1737592Y5360448D1*
X1737089Y5359448D1*
X1736557Y5358448D1*
X1735962Y5357448D1*
X1735317Y5356448D1*
X1734705Y5355448D1*
X1734143Y5354448D1*
X1733612Y5353448D1*
X1733101Y5352448D1*
X1732595Y5351448D1*
X1732094Y5350448D1*
X1731592Y5349448D1*
X1731093Y5348448D1*
X1730592Y5347448D1*
X1730089Y5346448D1*
X1729557Y5345448D1*
X1728962Y5344448D1*
X1728317Y5343448D1*
X1727705Y5342448D1*
X1727143Y5341448D1*
X1726612Y5340448D1*
X1726101Y5339448D1*
X1725595Y5338448D1*
X1725094Y5337448D1*
X1724592Y5336448D1*
X1724093Y5335448D1*
X1723592Y5334448D1*
X1723093Y5333448D1*
X1722592Y5332448D1*
X1722089Y5331448D1*
X1721557Y5330448D1*
X1720962Y5329448D1*
X1720317Y5328448D1*
X1719705Y5327448D1*
X1719143Y5326448D1*
X1718616Y5325448D1*
X1718140Y5324448D1*
X1717765Y5323448D1*
X1717539Y5322448D1*
X1717425Y5321448D1*
X1717375Y5320448D1*
X1717355Y5319448D1*
X1717347Y5318448D1*
X1717344Y5317448D1*
X1717343Y5316448D1*
Y5315448D1*
Y5314448D1*
Y5313448D1*
Y5312448D1*
Y5311448D1*
Y5310448D1*
Y5309448D1*
Y5308448D1*
Y5307448D1*
Y5306448D1*
Y5305448D1*
Y5304448D1*
Y5303448D1*
Y5302448D1*
Y5301448D1*
Y5300448D1*
Y5299448D1*
Y5298448D1*
Y5297448D1*
Y5296448D1*
Y5295448D1*
Y5294448D1*
Y5293448D1*
Y5292448D1*
Y5291448D1*
Y5290448D1*
Y5289448D1*
Y5288448D1*
Y5287448D1*
Y5286448D1*
Y5285448D1*
X1805343Y5392448D2*
Y5391448D1*
Y5390448D1*
Y5389448D1*
Y5388448D1*
Y5387448D1*
Y5386448D1*
Y5385448D1*
Y5384448D1*
Y5383448D1*
Y5382448D1*
Y5381448D1*
Y5380448D1*
Y5379448D1*
Y5378448D1*
Y5377448D1*
Y5376448D1*
Y5375448D1*
Y5374448D1*
Y5373448D1*
Y5372448D1*
Y5371448D1*
Y5370448D1*
Y5369448D1*
Y5368448D1*
Y5367448D1*
Y5366448D1*
Y5365448D1*
Y5364448D1*
Y5363448D1*
Y5362448D1*
Y5361448D1*
Y5360448D1*
Y5359448D1*
Y5358448D1*
Y5357448D1*
Y5356448D1*
Y5355448D1*
Y5354448D1*
Y5353448D1*
Y5352448D1*
Y5351448D1*
Y5350448D1*
Y5349448D1*
Y5348448D1*
Y5347448D1*
Y5346448D1*
Y5345448D1*
Y5344448D1*
Y5343448D1*
Y5342448D1*
Y5341448D1*
Y5340448D1*
Y5339448D1*
Y5338448D1*
Y5337448D1*
Y5336448D1*
Y5335448D1*
Y5334448D1*
Y5333448D1*
Y5332448D1*
Y5331448D1*
Y5330448D1*
Y5329448D1*
Y5328448D1*
Y5327448D1*
Y5326448D1*
Y5325448D1*
Y5324448D1*
Y5323448D1*
Y5322448D1*
Y5321448D1*
Y5320448D1*
Y5319448D1*
Y5318448D1*
Y5317448D1*
Y5316448D1*
Y5315448D1*
Y5314448D1*
Y5313448D1*
Y5312448D1*
Y5311448D1*
Y5310448D1*
Y5309448D1*
Y5308448D1*
Y5307448D1*
Y5306448D1*
Y5305448D1*
Y5304448D1*
Y5303448D1*
Y5302448D1*
Y5301448D1*
Y5300448D1*
Y5299448D1*
Y5298448D1*
Y5297448D1*
Y5296448D1*
Y5295448D1*
Y5294448D1*
Y5293448D1*
Y5292448D1*
Y5291448D1*
Y5290448D1*
Y5289448D1*
Y5288448D1*
Y5287448D1*
Y5286448D1*
Y5285448D1*
X1852343Y5392448D2*
X1856065Y5391448D1*
X1859185Y5390448D1*
X1861645Y5389448D1*
X1863530Y5388448D1*
X1864990Y5387448D1*
X1866197Y5386448D1*
X1867250Y5385448D1*
X1868157Y5384448D1*
X1868926Y5383448D1*
X1869635Y5382448D1*
X1870299Y5381448D1*
X1870836Y5380448D1*
X1871259Y5379448D1*
X1871648Y5378448D1*
X1872004Y5377448D1*
X1872331Y5376448D1*
X1872673Y5375448D1*
X1872979Y5374448D1*
X1873207Y5373448D1*
X1873435Y5372448D1*
X1873719Y5371448D1*
X1873994Y5370448D1*
X1874175Y5369448D1*
X1874271Y5368448D1*
X1874314Y5367448D1*
X1874332Y5366448D1*
X1874339Y5365448D1*
X1874341Y5364448D1*
X1874342Y5363448D1*
Y5362448D1*
Y5361448D1*
X1874343Y5360448D1*
Y5359448D1*
Y5358448D1*
Y5357448D1*
Y5356448D1*
Y5355448D1*
X1874339Y5354448D1*
X1874303Y5353448D1*
X1874176Y5352448D1*
X1873937Y5351448D1*
X1873680Y5350448D1*
X1873502Y5349448D1*
X1873374Y5348448D1*
X1873204Y5347448D1*
X1872943Y5346448D1*
X1872645Y5345448D1*
X1872340Y5344448D1*
X1872003Y5343448D1*
X1871669Y5342448D1*
X1871346Y5341448D1*
X1870968Y5340448D1*
X1870500Y5339448D1*
X1869901Y5338448D1*
X1869139Y5337448D1*
X1868257Y5336448D1*
X1867305Y5335448D1*
X1866287Y5334448D1*
X1865125Y5333448D1*
X1863684Y5332448D1*
X1861869Y5331448D1*
X1859698Y5330448D1*
X1857343Y5329448D1*
X1930343Y5392448D2*
Y5391448D1*
Y5390448D1*
Y5389448D1*
Y5388448D1*
Y5387448D1*
Y5386448D1*
Y5385448D1*
Y5384448D1*
Y5383448D1*
Y5382448D1*
Y5381448D1*
Y5380448D1*
Y5379448D1*
Y5378448D1*
Y5377448D1*
Y5376448D1*
Y5375448D1*
Y5374448D1*
Y5373448D1*
Y5372448D1*
Y5371448D1*
Y5370448D1*
Y5369448D1*
Y5368448D1*
Y5367448D1*
Y5366448D1*
Y5365448D1*
Y5364448D1*
Y5363448D1*
Y5362448D1*
Y5361448D1*
Y5360448D1*
Y5359448D1*
Y5358448D1*
Y5357448D1*
Y5356448D1*
Y5355448D1*
Y5354448D1*
Y5353448D1*
Y5352448D1*
Y5351448D1*
Y5350448D1*
Y5349448D1*
Y5348448D1*
Y5347448D1*
Y5346448D1*
Y5345448D1*
Y5344448D1*
Y5343448D1*
Y5342448D1*
Y5341448D1*
Y5340448D1*
Y5339448D1*
Y5338448D1*
Y5337448D1*
Y5336448D1*
Y5335448D1*
Y5334448D1*
Y5333448D1*
Y5332448D1*
Y5331448D1*
Y5330448D1*
Y5329448D1*
Y5328448D1*
Y5327448D1*
Y5326448D1*
Y5325448D1*
Y5324448D1*
Y5323448D1*
Y5322448D1*
Y5321448D1*
Y5320448D1*
Y5319448D1*
Y5318448D1*
Y5317448D1*
Y5316448D1*
Y5315448D1*
Y5314448D1*
Y5313448D1*
Y5312448D1*
Y5311448D1*
Y5310448D1*
Y5309448D1*
Y5308448D1*
Y5307448D1*
Y5306448D1*
Y5305448D1*
Y5304448D1*
Y5303448D1*
Y5302448D1*
Y5301448D1*
Y5300448D1*
Y5299448D1*
Y5298448D1*
Y5297448D1*
Y5296448D1*
Y5295448D1*
Y5294448D1*
Y5293448D1*
Y5292448D1*
Y5291448D1*
Y5290448D1*
Y5289448D1*
Y5288448D1*
Y5287448D1*
Y5286448D1*
Y5285448D1*
X1940343Y5392448D2*
Y5391448D1*
Y5390448D1*
Y5389448D1*
Y5388448D1*
Y5387448D1*
Y5386448D1*
Y5385448D1*
Y5384448D1*
Y5383448D1*
Y5382448D1*
Y5381448D1*
Y5380448D1*
Y5379448D1*
Y5378448D1*
Y5377448D1*
Y5376448D1*
Y5375448D1*
Y5374448D1*
Y5373448D1*
Y5372448D1*
Y5371448D1*
Y5370448D1*
Y5369448D1*
Y5368448D1*
Y5367448D1*
Y5366448D1*
Y5365448D1*
Y5364448D1*
Y5363448D1*
Y5362448D1*
Y5361448D1*
Y5360448D1*
Y5359448D1*
Y5358448D1*
Y5357448D1*
Y5356448D1*
Y5355448D1*
Y5354448D1*
Y5353448D1*
Y5352448D1*
Y5351448D1*
Y5350448D1*
Y5349448D1*
Y5348448D1*
Y5347448D1*
Y5346448D1*
Y5345448D1*
Y5344448D1*
Y5343448D1*
Y5342448D1*
Y5341448D1*
X1993343Y5392448D2*
X1992881Y5391448D1*
X1992594Y5390448D1*
X1992448Y5389448D1*
X1992384Y5388448D1*
X1992358Y5387448D1*
X1992348Y5386448D1*
X1992344Y5385448D1*
X1992343Y5384448D1*
Y5383448D1*
Y5382448D1*
Y5381448D1*
Y5380448D1*
Y5379448D1*
Y5378448D1*
Y5377448D1*
Y5376448D1*
Y5375448D1*
Y5374448D1*
Y5373448D1*
Y5372448D1*
Y5371448D1*
Y5370448D1*
Y5369448D1*
Y5368448D1*
Y5367448D1*
Y5366448D1*
Y5365448D1*
Y5364448D1*
Y5363448D1*
Y5362448D1*
Y5361448D1*
Y5360448D1*
Y5359448D1*
Y5358448D1*
Y5357448D1*
Y5356448D1*
Y5355448D1*
Y5354448D1*
Y5353448D1*
Y5352448D1*
Y5351448D1*
Y5350448D1*
Y5349448D1*
Y5348448D1*
Y5347448D1*
Y5346448D1*
Y5345448D1*
Y5344448D1*
Y5343448D1*
Y5342448D1*
Y5341448D1*
X2002343Y5392448D2*
Y5391448D1*
Y5390448D1*
Y5389448D1*
Y5388448D1*
Y5387448D1*
Y5386448D1*
Y5385448D1*
Y5384448D1*
Y5383448D1*
Y5382448D1*
Y5381448D1*
Y5380448D1*
Y5379448D1*
Y5378448D1*
Y5377448D1*
Y5376448D1*
Y5375448D1*
Y5374448D1*
Y5373448D1*
Y5372448D1*
Y5371448D1*
Y5370448D1*
Y5369448D1*
Y5368448D1*
Y5367448D1*
Y5366448D1*
Y5365448D1*
Y5364448D1*
Y5363448D1*
Y5362448D1*
Y5361448D1*
Y5360448D1*
Y5359448D1*
Y5358448D1*
Y5357448D1*
Y5356448D1*
Y5355448D1*
Y5354448D1*
Y5353448D1*
Y5352448D1*
Y5351448D1*
Y5350448D1*
Y5349448D1*
Y5348448D1*
Y5347448D1*
Y5346448D1*
Y5345448D1*
Y5344448D1*
Y5343448D1*
Y5342448D1*
Y5341448D1*
Y5340448D1*
Y5339448D1*
Y5338448D1*
Y5337448D1*
Y5336448D1*
Y5335448D1*
Y5334448D1*
Y5333448D1*
Y5332448D1*
Y5331448D1*
Y5330448D1*
Y5329448D1*
Y5328448D1*
Y5327448D1*
Y5326448D1*
Y5325448D1*
Y5324448D1*
Y5323448D1*
Y5322448D1*
Y5321448D1*
Y5320448D1*
Y5319448D1*
Y5318448D1*
Y5317448D1*
Y5316448D1*
Y5315448D1*
Y5314448D1*
Y5313448D1*
Y5312448D1*
Y5311448D1*
Y5310448D1*
Y5309448D1*
Y5308448D1*
Y5307448D1*
Y5306448D1*
Y5305448D1*
Y5304448D1*
Y5303448D1*
Y5302448D1*
Y5301448D1*
Y5300448D1*
Y5299448D1*
Y5298448D1*
Y5297448D1*
Y5296448D1*
Y5295448D1*
Y5294448D1*
Y5293448D1*
Y5292448D1*
Y5291448D1*
Y5290448D1*
Y5289448D1*
Y5288448D1*
Y5287448D1*
Y5286448D1*
Y5285448D1*
X2087343Y5392448D2*
X2083620Y5391448D1*
X2080496Y5390448D1*
X2078001Y5389448D1*
X2075989Y5388448D1*
X2074289Y5387448D1*
X2072826Y5386448D1*
X2071598Y5385448D1*
X2070599Y5384448D1*
X2069787Y5383448D1*
X2069057Y5382448D1*
X2068354Y5381448D1*
X2067719Y5380448D1*
X2067148Y5379448D1*
X2066614Y5378448D1*
X2066101Y5377448D1*
X2065595Y5376448D1*
X2065094Y5375448D1*
X2064596Y5374448D1*
X2064128Y5373448D1*
X2063724Y5372448D1*
X2063371Y5371448D1*
X2063015Y5370448D1*
X2062673Y5369448D1*
X2062351Y5368448D1*
X2062011Y5367448D1*
X2061710Y5366448D1*
X2061513Y5365448D1*
X2061378Y5364448D1*
X2061205Y5363448D1*
X2060947Y5362448D1*
X2060684Y5361448D1*
X2060507Y5360448D1*
X2060413Y5359448D1*
X2060371Y5358448D1*
X2060349Y5357448D1*
X2060307Y5356448D1*
X2060177Y5355448D1*
X2059937Y5354448D1*
X2059680Y5353448D1*
X2059506Y5352448D1*
X2059413Y5351448D1*
X2059371Y5350448D1*
X2059353Y5349448D1*
X2059346Y5348448D1*
X2059344Y5347448D1*
X2059343Y5346448D1*
Y5345448D1*
Y5344448D1*
Y5343448D1*
Y5342448D1*
Y5341448D1*
Y5340448D1*
Y5339448D1*
Y5338448D1*
Y5337448D1*
Y5336448D1*
Y5335448D1*
Y5334448D1*
Y5333448D1*
Y5332448D1*
Y5331448D1*
Y5330448D1*
Y5329448D1*
Y5328448D1*
Y5327448D1*
Y5326448D1*
Y5325448D1*
X2059346Y5324448D1*
X2059382Y5323448D1*
X2059509Y5322448D1*
X2059749Y5321448D1*
X2060005Y5320448D1*
X2060179Y5319448D1*
X2060272Y5318448D1*
X2060318Y5317448D1*
X2060371Y5316448D1*
X2060505Y5315448D1*
X2060747Y5314448D1*
X2061004Y5313448D1*
X2061183Y5312448D1*
X2061311Y5311448D1*
X2061481Y5310448D1*
X2061742Y5309448D1*
X2062040Y5308448D1*
X2062345Y5307448D1*
X2062682Y5306448D1*
X2063016Y5305448D1*
X2063339Y5304448D1*
X2063713Y5303448D1*
X2064146Y5302448D1*
X2064613Y5301448D1*
X2065101Y5300448D1*
X2065599Y5299448D1*
X2066129Y5298448D1*
X2066724Y5297448D1*
X2067372Y5296448D1*
X2068019Y5295448D1*
X2068712Y5294448D1*
X2069522Y5293448D1*
X2070460Y5292448D1*
X2071581Y5291448D1*
X2072973Y5290448D1*
X2074671Y5289448D1*
X2076734Y5288448D1*
X2079464Y5287448D1*
X2083427Y5286448D1*
X2088935Y5285448D1*
X2095343Y5284448D1*
X2113343Y5392448D2*
X2117069Y5391448D1*
X2120225Y5390448D1*
X2122811Y5389448D1*
X2124936Y5388448D1*
X2126652Y5387448D1*
X2128038Y5386448D1*
X2129215Y5385448D1*
X2130256Y5384448D1*
X2131159Y5383448D1*
X2131927Y5382448D1*
X2132639Y5381448D1*
X2133335Y5380448D1*
X2133968Y5379448D1*
X2134538Y5378448D1*
X2135071Y5377448D1*
X2135584Y5376448D1*
X2136086Y5375448D1*
X2136556Y5374448D1*
X2136961Y5373448D1*
X2137313Y5372448D1*
X2137666Y5371448D1*
X2137977Y5370448D1*
X2138206Y5369448D1*
X2138434Y5368448D1*
X2138719Y5367448D1*
X2138994Y5366448D1*
X2139179Y5365448D1*
X2139310Y5364448D1*
X2139481Y5363448D1*
X2139738Y5362448D1*
X2140001Y5361448D1*
X2140178Y5360448D1*
X2140272Y5359448D1*
X2140314Y5358448D1*
X2140336Y5357448D1*
X2140378Y5356448D1*
X2140508Y5355448D1*
X2140748Y5354448D1*
X2141005Y5353448D1*
X2141179Y5352448D1*
X2141272Y5351448D1*
X2141314Y5350448D1*
X2141332Y5349448D1*
X2141339Y5348448D1*
X2141341Y5347448D1*
X2141342Y5346448D1*
Y5345448D1*
Y5344448D1*
X2141343Y5343448D1*
Y5342448D1*
Y5341448D1*
Y5340448D1*
Y5339448D1*
Y5338448D1*
Y5337448D1*
Y5336448D1*
Y5335448D1*
Y5334448D1*
Y5333448D1*
Y5332448D1*
Y5331448D1*
Y5330448D1*
Y5329448D1*
Y5328448D1*
Y5327448D1*
X2141339Y5326448D1*
X2141303Y5325448D1*
X2141176Y5324448D1*
X2140937Y5323448D1*
X2140680Y5322448D1*
X2140506Y5321448D1*
X2140413Y5320448D1*
X2140371Y5319448D1*
X2140349Y5318448D1*
X2140307Y5317448D1*
X2140177Y5316448D1*
X2139937Y5315448D1*
X2139680Y5314448D1*
X2139502Y5313448D1*
X2139374Y5312448D1*
X2139204Y5311448D1*
X2138943Y5310448D1*
X2138645Y5309448D1*
X2138340Y5308448D1*
X2138003Y5307448D1*
X2137669Y5306448D1*
X2137350Y5305448D1*
X2137007Y5304448D1*
X2136670Y5303448D1*
X2136346Y5302448D1*
X2135972Y5301448D1*
X2135539Y5300448D1*
X2135068Y5299448D1*
X2134549Y5298448D1*
X2133959Y5297448D1*
X2133313Y5296448D1*
X2132662Y5295448D1*
X2131933Y5294448D1*
X2130997Y5293448D1*
X2129823Y5292448D1*
X2128476Y5291448D1*
X2127007Y5290448D1*
X2125363Y5289448D1*
X2123402Y5288448D1*
X2120812Y5287448D1*
X2117020Y5286448D1*
X2111644Y5285448D1*
X2105343Y5284448D1*
X2223343Y5392448D2*
X2219620Y5391448D1*
X2216496Y5390448D1*
X2214001Y5389448D1*
X2211989Y5388448D1*
X2210289Y5387448D1*
X2208826Y5386448D1*
X2207598Y5385448D1*
X2206599Y5384448D1*
X2205787Y5383448D1*
X2205057Y5382448D1*
X2204354Y5381448D1*
X2203719Y5380448D1*
X2203148Y5379448D1*
X2202614Y5378448D1*
X2202101Y5377448D1*
X2201595Y5376448D1*
X2201094Y5375448D1*
X2200596Y5374448D1*
X2200128Y5373448D1*
X2199724Y5372448D1*
X2199371Y5371448D1*
X2199015Y5370448D1*
X2198673Y5369448D1*
X2198351Y5368448D1*
X2198011Y5367448D1*
X2197710Y5366448D1*
X2197513Y5365448D1*
X2197378Y5364448D1*
X2197205Y5363448D1*
X2196947Y5362448D1*
X2196684Y5361448D1*
X2196507Y5360448D1*
X2196413Y5359448D1*
X2196371Y5358448D1*
X2196349Y5357448D1*
X2196307Y5356448D1*
X2196177Y5355448D1*
X2195937Y5354448D1*
X2195680Y5353448D1*
X2195506Y5352448D1*
X2195413Y5351448D1*
X2195371Y5350448D1*
X2195353Y5349448D1*
X2195346Y5348448D1*
X2195344Y5347448D1*
X2195343Y5346448D1*
Y5345448D1*
Y5344448D1*
Y5343448D1*
Y5342448D1*
Y5341448D1*
Y5340448D1*
Y5339448D1*
Y5338448D1*
Y5337448D1*
Y5336448D1*
Y5335448D1*
Y5334448D1*
Y5333448D1*
Y5332448D1*
Y5331448D1*
Y5330448D1*
Y5329448D1*
Y5328448D1*
Y5327448D1*
Y5326448D1*
Y5325448D1*
X2195346Y5324448D1*
X2195382Y5323448D1*
X2195509Y5322448D1*
X2195749Y5321448D1*
X2196005Y5320448D1*
X2196179Y5319448D1*
X2196272Y5318448D1*
X2196318Y5317448D1*
X2196371Y5316448D1*
X2196505Y5315448D1*
X2196747Y5314448D1*
X2197004Y5313448D1*
X2197183Y5312448D1*
X2197311Y5311448D1*
X2197481Y5310448D1*
X2197742Y5309448D1*
X2198040Y5308448D1*
X2198345Y5307448D1*
X2198682Y5306448D1*
X2199016Y5305448D1*
X2199339Y5304448D1*
X2199713Y5303448D1*
X2200146Y5302448D1*
X2200613Y5301448D1*
X2201101Y5300448D1*
X2201599Y5299448D1*
X2202129Y5298448D1*
X2202724Y5297448D1*
X2203372Y5296448D1*
X2204019Y5295448D1*
X2204712Y5294448D1*
X2205522Y5293448D1*
X2206460Y5292448D1*
X2207581Y5291448D1*
X2208973Y5290448D1*
X2210671Y5289448D1*
X2212734Y5288448D1*
X2215464Y5287448D1*
X2219427Y5286448D1*
X2224935Y5285448D1*
X2231343Y5284448D1*
X2249343Y5392448D2*
X2253069Y5391448D1*
X2256225Y5390448D1*
X2258811Y5389448D1*
X2260936Y5388448D1*
X2262652Y5387448D1*
X2264038Y5386448D1*
X2265215Y5385448D1*
X2266256Y5384448D1*
X2267159Y5383448D1*
X2267927Y5382448D1*
X2268639Y5381448D1*
X2269335Y5380448D1*
X2269968Y5379448D1*
X2270538Y5378448D1*
X2271071Y5377448D1*
X2271584Y5376448D1*
X2272086Y5375448D1*
X2272556Y5374448D1*
X2272961Y5373448D1*
X2273313Y5372448D1*
X2273666Y5371448D1*
X2273977Y5370448D1*
X2274206Y5369448D1*
X2274434Y5368448D1*
X2274719Y5367448D1*
X2274994Y5366448D1*
X2275179Y5365448D1*
X2275310Y5364448D1*
X2275481Y5363448D1*
X2275738Y5362448D1*
X2276001Y5361448D1*
X2276178Y5360448D1*
X2276272Y5359448D1*
X2276314Y5358448D1*
X2276336Y5357448D1*
X2276378Y5356448D1*
X2276508Y5355448D1*
X2276748Y5354448D1*
X2277005Y5353448D1*
X2277179Y5352448D1*
X2277272Y5351448D1*
X2277314Y5350448D1*
X2277332Y5349448D1*
X2277339Y5348448D1*
X2277341Y5347448D1*
X2277342Y5346448D1*
Y5345448D1*
Y5344448D1*
X2277343Y5343448D1*
Y5342448D1*
Y5341448D1*
Y5340448D1*
Y5339448D1*
Y5338448D1*
Y5337448D1*
Y5336448D1*
Y5335448D1*
Y5334448D1*
Y5333448D1*
Y5332448D1*
Y5331448D1*
Y5330448D1*
Y5329448D1*
Y5328448D1*
Y5327448D1*
X2277339Y5326448D1*
X2277303Y5325448D1*
X2277176Y5324448D1*
X2276937Y5323448D1*
X2276680Y5322448D1*
X2276506Y5321448D1*
X2276413Y5320448D1*
X2276371Y5319448D1*
X2276349Y5318448D1*
X2276307Y5317448D1*
X2276177Y5316448D1*
X2275937Y5315448D1*
X2275680Y5314448D1*
X2275502Y5313448D1*
X2275374Y5312448D1*
X2275204Y5311448D1*
X2274943Y5310448D1*
X2274645Y5309448D1*
X2274340Y5308448D1*
X2274003Y5307448D1*
X2273669Y5306448D1*
X2273350Y5305448D1*
X2273007Y5304448D1*
X2272670Y5303448D1*
X2272346Y5302448D1*
X2271972Y5301448D1*
X2271539Y5300448D1*
X2271068Y5299448D1*
X2270549Y5298448D1*
X2269959Y5297448D1*
X2269313Y5296448D1*
X2268662Y5295448D1*
X2267933Y5294448D1*
X2266997Y5293448D1*
X2265823Y5292448D1*
X2264476Y5291448D1*
X2263007Y5290448D1*
X2261363Y5289448D1*
X2259402Y5288448D1*
X2256812Y5287448D1*
X2253020Y5286448D1*
X2247644Y5285448D1*
X2241343Y5284448D1*
X2333343Y5392448D2*
Y5391448D1*
Y5390448D1*
Y5389448D1*
Y5388448D1*
Y5387448D1*
Y5386448D1*
Y5385448D1*
Y5384448D1*
Y5383448D1*
Y5382448D1*
Y5381448D1*
Y5380448D1*
Y5379448D1*
Y5378448D1*
Y5377448D1*
Y5376448D1*
Y5375448D1*
Y5374448D1*
Y5373448D1*
Y5372448D1*
Y5371448D1*
Y5370448D1*
Y5369448D1*
Y5368448D1*
Y5367448D1*
Y5366448D1*
Y5365448D1*
Y5364448D1*
Y5363448D1*
Y5362448D1*
Y5361448D1*
Y5360448D1*
Y5359448D1*
Y5358448D1*
Y5357448D1*
Y5356448D1*
Y5355448D1*
Y5354448D1*
Y5353448D1*
Y5352448D1*
Y5351448D1*
Y5350448D1*
Y5349448D1*
Y5348448D1*
Y5347448D1*
Y5346448D1*
Y5345448D1*
Y5344448D1*
Y5343448D1*
Y5342448D1*
Y5341448D1*
Y5340448D1*
Y5339448D1*
Y5338448D1*
Y5337448D1*
Y5336448D1*
Y5335448D1*
Y5334448D1*
Y5333448D1*
Y5332448D1*
Y5331448D1*
Y5330448D1*
Y5329448D1*
Y5328448D1*
Y5327448D1*
Y5326448D1*
Y5325448D1*
Y5324448D1*
Y5323448D1*
Y5322448D1*
Y5321448D1*
Y5320448D1*
Y5319448D1*
Y5318448D1*
Y5317448D1*
Y5316448D1*
Y5315448D1*
Y5314448D1*
Y5313448D1*
Y5312448D1*
Y5311448D1*
Y5310448D1*
Y5309448D1*
Y5308448D1*
Y5307448D1*
Y5306448D1*
Y5305448D1*
Y5304448D1*
Y5303448D1*
Y5302448D1*
Y5301448D1*
Y5300448D1*
Y5299448D1*
Y5298448D1*
Y5297448D1*
Y5296448D1*
Y5295448D1*
Y5294448D1*
Y5293448D1*
Y5292448D1*
Y5291448D1*
Y5290448D1*
Y5289448D1*
Y5288448D1*
Y5287448D1*
Y5286448D1*
Y5285448D1*
X2343343Y5392448D2*
X2344188Y5391448D1*
X2344936Y5390448D1*
X2345642Y5389448D1*
X2346339Y5388448D1*
X2347003Y5387448D1*
X2347669Y5386448D1*
X2348350Y5385448D1*
X2349007Y5384448D1*
X2349670Y5383448D1*
X2350350Y5382448D1*
X2351007Y5381448D1*
X2351670Y5380448D1*
X2352350Y5379448D1*
X2353007Y5378448D1*
X2353670Y5377448D1*
X2354350Y5376448D1*
X2355007Y5375448D1*
X2355670Y5374448D1*
X2356350Y5373448D1*
X2357007Y5372448D1*
X2357670Y5371448D1*
X2358346Y5370448D1*
X2358972Y5369448D1*
X2359543Y5368448D1*
X2360107Y5367448D1*
X2360715Y5366448D1*
X2361369Y5365448D1*
X2362014Y5364448D1*
X2362673Y5363448D1*
X2363351Y5362448D1*
X2364007Y5361448D1*
X2364671Y5360448D1*
X2365350Y5359448D1*
X2366007Y5358448D1*
X2366670Y5357448D1*
X2367350Y5356448D1*
X2368007Y5355448D1*
X2368670Y5354448D1*
X2369350Y5353448D1*
X2370007Y5352448D1*
X2370670Y5351448D1*
X2371350Y5350448D1*
X2372007Y5349448D1*
X2372670Y5348448D1*
X2373350Y5347448D1*
X2374007Y5346448D1*
X2374670Y5345448D1*
X2375350Y5344448D1*
X2376007Y5343448D1*
X2376670Y5342448D1*
X2377350Y5341448D1*
X2378007Y5340448D1*
X2378670Y5339448D1*
X2379350Y5338448D1*
X2380007Y5337448D1*
X2380670Y5336448D1*
X2381346Y5335448D1*
X2381972Y5334448D1*
X2382543Y5333448D1*
X2383107Y5332448D1*
X2383715Y5331448D1*
X2384369Y5330448D1*
X2385014Y5329448D1*
X2385673Y5328448D1*
X2386351Y5327448D1*
X2387007Y5326448D1*
X2387671Y5325448D1*
X2388350Y5324448D1*
X2389007Y5323448D1*
X2389670Y5322448D1*
X2390350Y5321448D1*
X2391007Y5320448D1*
X2391670Y5319448D1*
X2392350Y5318448D1*
X2393007Y5317448D1*
X2393670Y5316448D1*
X2394350Y5315448D1*
X2395007Y5314448D1*
X2395670Y5313448D1*
X2396350Y5312448D1*
X2397007Y5311448D1*
X2397670Y5310448D1*
X2398354Y5309448D1*
X2399053Y5308448D1*
X2399903Y5307448D1*
X2401037Y5306448D1*
X2402343Y5305448D1*
Y5392448D2*
Y5391448D1*
Y5390448D1*
Y5389448D1*
Y5388448D1*
Y5387448D1*
Y5386448D1*
Y5385448D1*
Y5384448D1*
Y5383448D1*
Y5382448D1*
Y5381448D1*
Y5380448D1*
Y5379448D1*
Y5378448D1*
Y5377448D1*
Y5376448D1*
Y5375448D1*
Y5374448D1*
Y5373448D1*
Y5372448D1*
Y5371448D1*
Y5370448D1*
Y5369448D1*
Y5368448D1*
Y5367448D1*
Y5366448D1*
Y5365448D1*
Y5364448D1*
Y5363448D1*
Y5362448D1*
Y5361448D1*
Y5360448D1*
Y5359448D1*
Y5358448D1*
Y5357448D1*
Y5356448D1*
Y5355448D1*
Y5354448D1*
Y5353448D1*
Y5352448D1*
Y5351448D1*
Y5350448D1*
Y5349448D1*
Y5348448D1*
Y5347448D1*
Y5346448D1*
Y5345448D1*
Y5344448D1*
Y5343448D1*
Y5342448D1*
Y5341448D1*
Y5340448D1*
Y5339448D1*
Y5338448D1*
Y5337448D1*
Y5336448D1*
Y5335448D1*
Y5334448D1*
Y5333448D1*
Y5332448D1*
Y5331448D1*
Y5330448D1*
Y5329448D1*
Y5328448D1*
Y5327448D1*
Y5326448D1*
Y5325448D1*
Y5324448D1*
Y5323448D1*
Y5322448D1*
Y5321448D1*
Y5320448D1*
Y5319448D1*
Y5318448D1*
Y5317448D1*
Y5316448D1*
Y5315448D1*
Y5314448D1*
Y5313448D1*
Y5312448D1*
Y5311448D1*
Y5310448D1*
X2402339Y5309448D1*
X2402301Y5308448D1*
X2402146Y5307448D1*
X2401804Y5306448D1*
X2401343Y5305448D1*
X2411343Y5392448D2*
X2411804Y5391448D1*
X2412091Y5390448D1*
X2412237Y5389448D1*
X2412301Y5388448D1*
X2412327Y5387448D1*
X2412337Y5386448D1*
X2412341Y5385448D1*
X2412342Y5384448D1*
Y5383448D1*
Y5382448D1*
X2412343Y5381448D1*
Y5380448D1*
Y5379448D1*
Y5378448D1*
Y5377448D1*
Y5376448D1*
Y5375448D1*
Y5374448D1*
Y5373448D1*
Y5372448D1*
Y5371448D1*
Y5370448D1*
Y5369448D1*
Y5368448D1*
Y5367448D1*
Y5366448D1*
Y5365448D1*
Y5364448D1*
Y5363448D1*
Y5362448D1*
Y5361448D1*
Y5360448D1*
Y5359448D1*
Y5358448D1*
Y5357448D1*
Y5356448D1*
Y5355448D1*
Y5354448D1*
Y5353448D1*
Y5352448D1*
Y5351448D1*
Y5350448D1*
Y5349448D1*
Y5348448D1*
Y5347448D1*
Y5346448D1*
Y5345448D1*
Y5344448D1*
Y5343448D1*
Y5342448D1*
Y5341448D1*
Y5340448D1*
Y5339448D1*
Y5338448D1*
Y5337448D1*
Y5336448D1*
Y5335448D1*
Y5334448D1*
Y5333448D1*
Y5332448D1*
Y5331448D1*
Y5330448D1*
Y5329448D1*
Y5328448D1*
Y5327448D1*
Y5326448D1*
Y5325448D1*
Y5324448D1*
Y5323448D1*
Y5322448D1*
Y5321448D1*
Y5320448D1*
Y5319448D1*
Y5318448D1*
Y5317448D1*
Y5316448D1*
Y5315448D1*
Y5314448D1*
Y5313448D1*
Y5312448D1*
Y5311448D1*
Y5310448D1*
Y5309448D1*
Y5308448D1*
Y5307448D1*
Y5306448D1*
Y5305448D1*
Y5304448D1*
Y5303448D1*
Y5302448D1*
Y5301448D1*
Y5300448D1*
Y5299448D1*
Y5298448D1*
Y5297448D1*
Y5296448D1*
Y5295448D1*
Y5294448D1*
Y5293448D1*
Y5292448D1*
Y5291448D1*
Y5290448D1*
Y5289448D1*
Y5288448D1*
Y5287448D1*
Y5286448D1*
Y5285448D1*
X1582343Y5382448D2*
Y5381448D1*
Y5380448D1*
Y5379448D1*
Y5378448D1*
Y5377448D1*
Y5376448D1*
Y5375448D1*
Y5374448D1*
Y5373448D1*
Y5372448D1*
Y5371448D1*
Y5370448D1*
Y5369448D1*
Y5368448D1*
Y5367448D1*
Y5366448D1*
Y5365448D1*
Y5364448D1*
Y5363448D1*
Y5362448D1*
Y5361448D1*
Y5360448D1*
Y5359448D1*
Y5358448D1*
Y5357448D1*
Y5356448D1*
Y5355448D1*
Y5354448D1*
Y5353448D1*
Y5352448D1*
Y5351448D1*
Y5350448D1*
Y5349448D1*
Y5348448D1*
Y5347448D1*
Y5346448D1*
Y5345448D1*
Y5344448D1*
Y5343448D1*
Y5342448D1*
Y5341448D1*
Y5340448D1*
Y5339448D1*
Y5338448D1*
Y5337448D1*
Y5336448D1*
Y5335448D1*
Y5334448D1*
Y5333448D1*
Y5332448D1*
Y5331448D1*
Y5330448D1*
Y5329448D1*
Y5328448D1*
Y5327448D1*
Y5326448D1*
Y5325448D1*
Y5324448D1*
Y5323448D1*
Y5322448D1*
Y5321448D1*
Y5320448D1*
Y5319448D1*
Y5318448D1*
Y5317448D1*
Y5316448D1*
Y5315448D1*
Y5314448D1*
Y5313448D1*
Y5312448D1*
Y5311448D1*
Y5310448D1*
Y5309448D1*
Y5308448D1*
Y5307448D1*
Y5306448D1*
Y5305448D1*
Y5304448D1*
Y5303448D1*
Y5302448D1*
Y5301448D1*
Y5300448D1*
Y5299448D1*
Y5298448D1*
Y5297448D1*
Y5296448D1*
Y5295448D1*
Y5294448D1*
Y5293448D1*
Y5292448D1*
Y5291448D1*
Y5290448D1*
Y5289448D1*
Y5288448D1*
Y5287448D1*
Y5286448D1*
Y5285448D1*
X1592343Y5382448D2*
Y5381448D1*
Y5380448D1*
Y5379448D1*
Y5378448D1*
Y5377448D1*
Y5376448D1*
Y5375448D1*
Y5374448D1*
Y5373448D1*
Y5372448D1*
Y5371448D1*
Y5370448D1*
Y5369448D1*
Y5368448D1*
Y5367448D1*
Y5366448D1*
Y5365448D1*
Y5364448D1*
Y5363448D1*
Y5362448D1*
Y5361448D1*
Y5360448D1*
Y5359448D1*
Y5358448D1*
Y5357448D1*
Y5356448D1*
Y5355448D1*
Y5354448D1*
Y5353448D1*
Y5352448D1*
Y5351448D1*
Y5350448D1*
Y5349448D1*
Y5348448D1*
Y5347448D1*
Y5346448D1*
Y5345448D1*
Y5344448D1*
Y5343448D1*
Y5342448D1*
Y5341448D1*
Y5340448D1*
Y5339448D1*
Y5338448D1*
Y5337448D1*
Y5336448D1*
Y5335448D1*
Y5334448D1*
Y5333448D1*
Y5332448D1*
Y5331448D1*
Y5330448D1*
Y5329448D1*
Y5328448D1*
Y5327448D1*
Y5326448D1*
Y5325448D1*
Y5324448D1*
Y5323448D1*
Y5322448D1*
Y5321448D1*
Y5320448D1*
Y5319448D1*
Y5318448D1*
Y5317448D1*
Y5316448D1*
Y5315448D1*
Y5314448D1*
Y5313448D1*
Y5312448D1*
Y5311448D1*
Y5310448D1*
Y5309448D1*
Y5308448D1*
Y5307448D1*
Y5306448D1*
Y5305448D1*
Y5304448D1*
Y5303448D1*
Y5302448D1*
Y5301448D1*
Y5300448D1*
Y5299448D1*
Y5298448D1*
Y5297448D1*
Y5296448D1*
Y5295448D1*
Y5294448D1*
Y5293448D1*
Y5292448D1*
Y5291448D1*
Y5290448D1*
Y5289448D1*
Y5288448D1*
Y5287448D1*
Y5286448D1*
Y5285448D1*
X1815343Y5382448D2*
Y5381448D1*
Y5380448D1*
Y5379448D1*
Y5378448D1*
Y5377448D1*
Y5376448D1*
Y5375448D1*
Y5374448D1*
Y5373448D1*
Y5372448D1*
Y5371448D1*
Y5370448D1*
Y5369448D1*
Y5368448D1*
Y5367448D1*
Y5366448D1*
Y5365448D1*
Y5364448D1*
Y5363448D1*
Y5362448D1*
Y5361448D1*
Y5360448D1*
Y5359448D1*
Y5358448D1*
Y5357448D1*
Y5356448D1*
Y5355448D1*
Y5354448D1*
Y5353448D1*
Y5352448D1*
Y5351448D1*
Y5350448D1*
Y5349448D1*
Y5348448D1*
Y5347448D1*
Y5346448D1*
Y5345448D1*
Y5344448D1*
Y5343448D1*
Y5342448D1*
Y5341448D1*
Y5340448D1*
Y5339448D1*
X1847343Y5382448D2*
X1850946Y5381448D1*
X1854076Y5380448D1*
X1856576Y5379448D1*
X1858459Y5378448D1*
X1859806Y5377448D1*
X1860747Y5376448D1*
X1861419Y5375448D1*
X1861909Y5374448D1*
X1862295Y5373448D1*
X1862660Y5372448D1*
X1862974Y5371448D1*
X1863206Y5370448D1*
X1863434Y5369448D1*
X1863719Y5368448D1*
X1863994Y5367448D1*
X1864175Y5366448D1*
X1864271Y5365448D1*
X1864314Y5364448D1*
X1864332Y5363448D1*
X1864339Y5362448D1*
X1864341Y5361448D1*
X1864342Y5360448D1*
Y5359448D1*
Y5358448D1*
X1864343Y5357448D1*
X1864339Y5356448D1*
X1864303Y5355448D1*
X1864176Y5354448D1*
X1863937Y5353448D1*
X1863680Y5352448D1*
X1863502Y5351448D1*
X1863374Y5350448D1*
X1863200Y5349448D1*
X1862908Y5348448D1*
X1862513Y5347448D1*
X1862058Y5346448D1*
X1861538Y5345448D1*
X1860875Y5344448D1*
X1859936Y5343448D1*
X1858644Y5342448D1*
X1857033Y5341448D1*
X1855225Y5340448D1*
X1853343Y5339448D1*
X2088343Y5382448D2*
X2085698Y5381448D1*
X2083400Y5380448D1*
X2081490Y5379448D1*
X2079909Y5378448D1*
X2078598Y5377448D1*
X2077484Y5376448D1*
X2076552Y5375448D1*
X2075802Y5374448D1*
X2075180Y5373448D1*
X2074626Y5372448D1*
X2074105Y5371448D1*
X2073600Y5370448D1*
X2073130Y5369448D1*
X2072724Y5368448D1*
X2072372Y5367448D1*
X2072019Y5366448D1*
X2071709Y5365448D1*
X2071479Y5364448D1*
X2071251Y5363448D1*
X2070966Y5362448D1*
X2070691Y5361448D1*
X2070510Y5360448D1*
X2070414Y5359448D1*
X2070371Y5358448D1*
X2070349Y5357448D1*
X2070307Y5356448D1*
X2070177Y5355448D1*
X2069937Y5354448D1*
X2069680Y5353448D1*
X2069506Y5352448D1*
X2069413Y5351448D1*
X2069371Y5350448D1*
X2069353Y5349448D1*
X2069346Y5348448D1*
X2069344Y5347448D1*
X2069343Y5346448D1*
Y5345448D1*
Y5344448D1*
Y5343448D1*
Y5342448D1*
Y5341448D1*
Y5340448D1*
Y5339448D1*
Y5338448D1*
Y5337448D1*
Y5336448D1*
Y5335448D1*
Y5334448D1*
Y5333448D1*
Y5332448D1*
Y5331448D1*
Y5330448D1*
Y5329448D1*
Y5328448D1*
Y5327448D1*
Y5326448D1*
Y5325448D1*
X2069346Y5324448D1*
X2069382Y5323448D1*
X2069509Y5322448D1*
X2069749Y5321448D1*
X2070005Y5320448D1*
X2070179Y5319448D1*
X2070272Y5318448D1*
X2070318Y5317448D1*
X2070371Y5316448D1*
X2070505Y5315448D1*
X2070747Y5314448D1*
X2071008Y5313448D1*
X2071218Y5312448D1*
X2071442Y5311448D1*
X2071760Y5310448D1*
X2072165Y5309448D1*
X2072621Y5308448D1*
X2073104Y5307448D1*
X2073600Y5306448D1*
X2074133Y5305448D1*
X2074763Y5304448D1*
X2075538Y5303448D1*
X2076425Y5302448D1*
X2077379Y5301448D1*
X2078405Y5300448D1*
X2079654Y5299448D1*
X2081507Y5298448D1*
X2084479Y5297448D1*
X2088846Y5296448D1*
X2094349Y5295448D1*
X2100343Y5294448D1*
X2112343Y5382448D2*
X2115108Y5381448D1*
X2117561Y5380448D1*
X2119613Y5379448D1*
X2121317Y5378448D1*
X2122680Y5377448D1*
X2123709Y5376448D1*
X2124549Y5375448D1*
X2125300Y5374448D1*
X2125951Y5373448D1*
X2126498Y5372448D1*
X2126938Y5371448D1*
X2127309Y5370448D1*
X2127702Y5369448D1*
X2128138Y5368448D1*
X2128573Y5367448D1*
X2128934Y5366448D1*
X2129189Y5365448D1*
X2129428Y5364448D1*
X2129717Y5363448D1*
X2129993Y5362448D1*
X2130175Y5361448D1*
X2130271Y5360448D1*
X2130314Y5359448D1*
X2130332Y5358448D1*
X2130343Y5357448D1*
X2130380Y5356448D1*
X2130509Y5355448D1*
X2130748Y5354448D1*
X2131005Y5353448D1*
X2131179Y5352448D1*
X2131272Y5351448D1*
X2131314Y5350448D1*
X2131332Y5349448D1*
X2131339Y5348448D1*
X2131341Y5347448D1*
X2131342Y5346448D1*
Y5345448D1*
Y5344448D1*
X2131343Y5343448D1*
Y5342448D1*
Y5341448D1*
Y5340448D1*
Y5339448D1*
Y5338448D1*
Y5337448D1*
Y5336448D1*
Y5335448D1*
Y5334448D1*
Y5333448D1*
Y5332448D1*
Y5331448D1*
Y5330448D1*
Y5329448D1*
Y5328448D1*
Y5327448D1*
X2131339Y5326448D1*
X2131303Y5325448D1*
X2131176Y5324448D1*
X2130937Y5323448D1*
X2130680Y5322448D1*
X2130506Y5321448D1*
X2130413Y5320448D1*
X2130367Y5319448D1*
X2130314Y5318448D1*
X2130180Y5317448D1*
X2129938Y5316448D1*
X2129681Y5315448D1*
X2129502Y5314448D1*
X2129374Y5313448D1*
X2129204Y5312448D1*
X2128943Y5311448D1*
X2128645Y5310448D1*
X2128337Y5309448D1*
X2127968Y5308448D1*
X2127538Y5307448D1*
X2127067Y5306448D1*
X2126545Y5305448D1*
X2125920Y5304448D1*
X2125146Y5303448D1*
X2124256Y5302448D1*
X2123267Y5301448D1*
X2122117Y5300448D1*
X2120664Y5299448D1*
X2118682Y5298448D1*
X2115775Y5297448D1*
X2111575Y5296448D1*
X2106217Y5295448D1*
X2100343Y5294448D1*
X2224343Y5382448D2*
X2221698Y5381448D1*
X2219400Y5380448D1*
X2217490Y5379448D1*
X2215909Y5378448D1*
X2214598Y5377448D1*
X2213484Y5376448D1*
X2212552Y5375448D1*
X2211802Y5374448D1*
X2211180Y5373448D1*
X2210626Y5372448D1*
X2210105Y5371448D1*
X2209600Y5370448D1*
X2209130Y5369448D1*
X2208724Y5368448D1*
X2208372Y5367448D1*
X2208019Y5366448D1*
X2207709Y5365448D1*
X2207479Y5364448D1*
X2207251Y5363448D1*
X2206966Y5362448D1*
X2206691Y5361448D1*
X2206510Y5360448D1*
X2206414Y5359448D1*
X2206371Y5358448D1*
X2206349Y5357448D1*
X2206307Y5356448D1*
X2206177Y5355448D1*
X2205937Y5354448D1*
X2205680Y5353448D1*
X2205506Y5352448D1*
X2205413Y5351448D1*
X2205371Y5350448D1*
X2205353Y5349448D1*
X2205346Y5348448D1*
X2205344Y5347448D1*
X2205343Y5346448D1*
Y5345448D1*
Y5344448D1*
Y5343448D1*
Y5342448D1*
Y5341448D1*
Y5340448D1*
Y5339448D1*
Y5338448D1*
Y5337448D1*
Y5336448D1*
Y5335448D1*
Y5334448D1*
Y5333448D1*
Y5332448D1*
Y5331448D1*
Y5330448D1*
Y5329448D1*
Y5328448D1*
Y5327448D1*
Y5326448D1*
Y5325448D1*
X2205346Y5324448D1*
X2205382Y5323448D1*
X2205509Y5322448D1*
X2205749Y5321448D1*
X2206005Y5320448D1*
X2206179Y5319448D1*
X2206272Y5318448D1*
X2206318Y5317448D1*
X2206371Y5316448D1*
X2206505Y5315448D1*
X2206747Y5314448D1*
X2207008Y5313448D1*
X2207218Y5312448D1*
X2207442Y5311448D1*
X2207760Y5310448D1*
X2208165Y5309448D1*
X2208621Y5308448D1*
X2209104Y5307448D1*
X2209600Y5306448D1*
X2210133Y5305448D1*
X2210763Y5304448D1*
X2211538Y5303448D1*
X2212425Y5302448D1*
X2213379Y5301448D1*
X2214405Y5300448D1*
X2215654Y5299448D1*
X2217507Y5298448D1*
X2220479Y5297448D1*
X2224846Y5296448D1*
X2230349Y5295448D1*
X2236343Y5294448D1*
X2248343Y5382448D2*
X2251108Y5381448D1*
X2253561Y5380448D1*
X2255613Y5379448D1*
X2257317Y5378448D1*
X2258680Y5377448D1*
X2259709Y5376448D1*
X2260549Y5375448D1*
X2261300Y5374448D1*
X2261951Y5373448D1*
X2262498Y5372448D1*
X2262938Y5371448D1*
X2263309Y5370448D1*
X2263702Y5369448D1*
X2264138Y5368448D1*
X2264573Y5367448D1*
X2264934Y5366448D1*
X2265189Y5365448D1*
X2265428Y5364448D1*
X2265717Y5363448D1*
X2265993Y5362448D1*
X2266175Y5361448D1*
X2266271Y5360448D1*
X2266314Y5359448D1*
X2266332Y5358448D1*
X2266343Y5357448D1*
X2266380Y5356448D1*
X2266509Y5355448D1*
X2266748Y5354448D1*
X2267005Y5353448D1*
X2267179Y5352448D1*
X2267272Y5351448D1*
X2267314Y5350448D1*
X2267332Y5349448D1*
X2267339Y5348448D1*
X2267341Y5347448D1*
X2267342Y5346448D1*
Y5345448D1*
Y5344448D1*
X2267343Y5343448D1*
Y5342448D1*
Y5341448D1*
Y5340448D1*
Y5339448D1*
Y5338448D1*
Y5337448D1*
Y5336448D1*
Y5335448D1*
Y5334448D1*
Y5333448D1*
Y5332448D1*
Y5331448D1*
Y5330448D1*
Y5329448D1*
Y5328448D1*
Y5327448D1*
X2267339Y5326448D1*
X2267303Y5325448D1*
X2267176Y5324448D1*
X2266937Y5323448D1*
X2266680Y5322448D1*
X2266506Y5321448D1*
X2266413Y5320448D1*
X2266367Y5319448D1*
X2266314Y5318448D1*
X2266180Y5317448D1*
X2265938Y5316448D1*
X2265681Y5315448D1*
X2265502Y5314448D1*
X2265374Y5313448D1*
X2265204Y5312448D1*
X2264943Y5311448D1*
X2264645Y5310448D1*
X2264337Y5309448D1*
X2263968Y5308448D1*
X2263538Y5307448D1*
X2263067Y5306448D1*
X2262545Y5305448D1*
X2261920Y5304448D1*
X2261146Y5303448D1*
X2260256Y5302448D1*
X2259267Y5301448D1*
X2258117Y5300448D1*
X2256664Y5299448D1*
X2254682Y5298448D1*
X2251775Y5297448D1*
X2247575Y5296448D1*
X2242217Y5295448D1*
X2236343Y5294448D1*
X2343343Y5371448D2*
Y5370448D1*
Y5369448D1*
Y5368448D1*
Y5367448D1*
Y5366448D1*
Y5365448D1*
Y5364448D1*
Y5363448D1*
Y5362448D1*
Y5361448D1*
Y5360448D1*
Y5359448D1*
Y5358448D1*
Y5357448D1*
Y5356448D1*
Y5355448D1*
Y5354448D1*
Y5353448D1*
Y5352448D1*
Y5351448D1*
Y5350448D1*
Y5349448D1*
Y5348448D1*
Y5347448D1*
Y5346448D1*
Y5345448D1*
Y5344448D1*
Y5343448D1*
Y5342448D1*
Y5341448D1*
Y5340448D1*
Y5339448D1*
Y5338448D1*
Y5337448D1*
Y5336448D1*
Y5335448D1*
Y5334448D1*
Y5333448D1*
Y5332448D1*
Y5331448D1*
Y5330448D1*
Y5329448D1*
Y5328448D1*
Y5327448D1*
Y5326448D1*
Y5325448D1*
Y5324448D1*
Y5323448D1*
Y5322448D1*
Y5321448D1*
Y5320448D1*
Y5319448D1*
Y5318448D1*
Y5317448D1*
Y5316448D1*
Y5315448D1*
Y5314448D1*
Y5313448D1*
Y5312448D1*
Y5311448D1*
Y5310448D1*
Y5309448D1*
Y5308448D1*
Y5307448D1*
Y5306448D1*
Y5305448D1*
Y5304448D1*
Y5303448D1*
Y5302448D1*
Y5301448D1*
Y5300448D1*
Y5299448D1*
Y5298448D1*
Y5297448D1*
Y5296448D1*
Y5295448D1*
Y5294448D1*
Y5293448D1*
Y5292448D1*
Y5291448D1*
Y5290448D1*
Y5289448D1*
Y5288448D1*
Y5287448D1*
Y5286448D1*
Y5285448D1*
X2344343Y5371448D2*
X2345304Y5370448D1*
X2346176Y5369448D1*
X2346933Y5368448D1*
X2347641Y5367448D1*
X2348335Y5366448D1*
X2348968Y5365448D1*
X2349542Y5364448D1*
X2350106Y5363448D1*
X2350715Y5362448D1*
X2351369Y5361448D1*
X2352014Y5360448D1*
X2352673Y5359448D1*
X2353351Y5358448D1*
X2354007Y5357448D1*
X2354671Y5356448D1*
X2355350Y5355448D1*
X2356007Y5354448D1*
X2356670Y5353448D1*
X2357350Y5352448D1*
X2358007Y5351448D1*
X2358670Y5350448D1*
X2359350Y5349448D1*
X2360007Y5348448D1*
X2360670Y5347448D1*
X2361350Y5346448D1*
X2362007Y5345448D1*
X2362670Y5344448D1*
X2363350Y5343448D1*
X2364007Y5342448D1*
X2364670Y5341448D1*
X2365350Y5340448D1*
X2366007Y5339448D1*
X2366670Y5338448D1*
X2367350Y5337448D1*
X2368007Y5336448D1*
X2368670Y5335448D1*
X2369350Y5334448D1*
X2370007Y5333448D1*
X2370670Y5332448D1*
X2371350Y5331448D1*
X2372007Y5330448D1*
X2372670Y5329448D1*
X2373350Y5328448D1*
X2374007Y5327448D1*
X2374670Y5326448D1*
X2375346Y5325448D1*
X2375972Y5324448D1*
X2376543Y5323448D1*
X2377107Y5322448D1*
X2377715Y5321448D1*
X2378369Y5320448D1*
X2379014Y5319448D1*
X2379673Y5318448D1*
X2380351Y5317448D1*
X2381007Y5316448D1*
X2381671Y5315448D1*
X2382350Y5314448D1*
X2383007Y5313448D1*
X2383670Y5312448D1*
X2384350Y5311448D1*
X2385007Y5310448D1*
X2385670Y5309448D1*
X2386350Y5308448D1*
X2387007Y5307448D1*
X2387670Y5306448D1*
X2388350Y5305448D1*
X2389007Y5304448D1*
X2389670Y5303448D1*
X2390350Y5302448D1*
X2391007Y5301448D1*
X2391670Y5300448D1*
X2392350Y5299448D1*
X2393007Y5298448D1*
X2393670Y5297448D1*
X2394350Y5296448D1*
X2395007Y5295448D1*
X2395670Y5294448D1*
X2396350Y5293448D1*
X2397007Y5292448D1*
X2397670Y5291448D1*
X2398350Y5290448D1*
X2399007Y5289448D1*
X2399667Y5288448D1*
X2400319Y5287448D1*
X2400872Y5286448D1*
X2401343Y5285448D1*
X1815343Y5332448D2*
Y5331448D1*
Y5330448D1*
Y5329448D1*
Y5328448D1*
Y5327448D1*
Y5326448D1*
Y5325448D1*
Y5324448D1*
Y5323448D1*
Y5322448D1*
Y5321448D1*
Y5320448D1*
Y5319448D1*
Y5318448D1*
Y5317448D1*
Y5316448D1*
Y5315448D1*
Y5314448D1*
Y5313448D1*
Y5312448D1*
Y5311448D1*
Y5310448D1*
Y5309448D1*
Y5308448D1*
Y5307448D1*
Y5306448D1*
Y5305448D1*
Y5304448D1*
Y5303448D1*
Y5302448D1*
Y5301448D1*
Y5300448D1*
Y5299448D1*
Y5298448D1*
Y5297448D1*
Y5296448D1*
Y5295448D1*
Y5294448D1*
Y5293448D1*
Y5292448D1*
Y5291448D1*
Y5290448D1*
Y5289448D1*
Y5288448D1*
Y5287448D1*
Y5286448D1*
Y5285448D1*
X1807343Y5332448D2*
X1817526Y5331448D1*
X1827877Y5330448D1*
X1838343Y5329448D1*
X1940343Y5332448D2*
Y5331448D1*
Y5330448D1*
Y5329448D1*
Y5328448D1*
Y5327448D1*
Y5326448D1*
Y5325448D1*
Y5324448D1*
Y5323448D1*
Y5322448D1*
Y5321448D1*
Y5320448D1*
Y5319448D1*
Y5318448D1*
Y5317448D1*
Y5316448D1*
Y5315448D1*
Y5314448D1*
Y5313448D1*
Y5312448D1*
Y5311448D1*
Y5310448D1*
Y5309448D1*
Y5308448D1*
Y5307448D1*
Y5306448D1*
Y5305448D1*
Y5304448D1*
Y5303448D1*
Y5302448D1*
Y5301448D1*
Y5300448D1*
Y5299448D1*
Y5298448D1*
Y5297448D1*
Y5296448D1*
Y5295448D1*
Y5294448D1*
Y5293448D1*
Y5292448D1*
Y5291448D1*
Y5290448D1*
Y5289448D1*
Y5288448D1*
Y5287448D1*
Y5286448D1*
Y5285448D1*
X1992343Y5332448D2*
Y5331448D1*
Y5330448D1*
Y5329448D1*
Y5328448D1*
Y5327448D1*
Y5326448D1*
Y5325448D1*
Y5324448D1*
Y5323448D1*
Y5322448D1*
Y5321448D1*
Y5320448D1*
Y5319448D1*
Y5318448D1*
Y5317448D1*
Y5316448D1*
Y5315448D1*
Y5314448D1*
Y5313448D1*
Y5312448D1*
Y5311448D1*
Y5310448D1*
Y5309448D1*
Y5308448D1*
Y5307448D1*
Y5306448D1*
Y5305448D1*
Y5304448D1*
Y5303448D1*
Y5302448D1*
Y5301448D1*
Y5300448D1*
Y5299448D1*
Y5298448D1*
Y5297448D1*
Y5296448D1*
Y5295448D1*
Y5294448D1*
Y5293448D1*
Y5292448D1*
Y5291448D1*
Y5290448D1*
Y5289448D1*
Y5288448D1*
Y5287448D1*
Y5286448D1*
Y5285448D1*
X2285640Y561711D2*
Y560711D1*
Y559711D1*
Y558711D1*
Y557711D1*
Y556711D1*
Y555711D1*
Y554711D1*
Y553711D1*
Y552711D1*
Y551711D1*
Y550711D1*
Y549711D1*
Y548711D1*
Y547711D1*
Y546711D1*
Y545711D1*
Y544711D1*
Y543711D1*
Y542711D1*
Y541711D1*
Y540711D1*
Y539711D1*
Y538711D1*
Y537711D1*
Y536711D1*
Y535711D1*
Y534711D1*
Y533711D1*
Y532711D1*
Y531711D1*
Y530711D1*
Y529711D1*
Y528711D1*
Y527711D1*
Y526711D1*
Y525711D1*
Y524711D1*
Y523711D1*
Y522711D1*
Y521711D1*
Y520711D1*
Y519711D1*
Y518711D1*
Y517711D1*
Y516711D1*
Y515711D1*
Y514711D1*
Y513711D1*
Y512711D1*
Y511711D1*
Y510711D1*
Y509711D1*
Y508711D1*
Y507711D1*
Y506711D1*
X2279640Y505711D1*
X2217640Y560711D2*
Y559711D1*
Y558711D1*
Y557711D1*
Y556711D1*
Y555711D1*
Y554711D1*
Y553711D1*
Y552711D1*
Y551711D1*
Y550711D1*
Y549711D1*
Y548711D1*
Y547711D1*
Y546711D1*
Y545711D1*
Y544711D1*
Y543711D1*
Y542711D1*
Y541711D1*
Y540711D1*
Y539711D1*
Y538711D1*
Y537711D1*
Y536711D1*
Y535711D1*
Y534711D1*
Y533711D1*
Y532711D1*
Y531711D1*
Y530711D1*
Y529711D1*
Y528711D1*
Y527711D1*
Y526711D1*
Y525711D1*
Y524711D1*
Y523711D1*
Y522711D1*
Y521711D1*
Y520711D1*
Y519711D1*
Y518711D1*
Y517711D1*
Y516711D1*
Y515711D1*
Y514711D1*
Y513711D1*
Y512711D1*
Y511711D1*
Y510711D1*
Y509711D1*
Y508711D1*
Y507711D1*
Y506711D1*
Y505711D1*
Y504711D1*
Y503711D1*
Y502711D1*
Y501711D1*
Y500711D1*
Y499711D1*
Y498711D1*
Y497711D1*
Y496711D1*
Y495711D1*
Y494711D1*
Y493711D1*
Y492711D1*
Y491711D1*
Y490711D1*
Y489711D1*
Y488711D1*
Y487711D1*
Y486711D1*
Y485711D1*
Y484711D1*
Y483711D1*
Y482711D1*
Y481711D1*
Y480711D1*
Y479711D1*
Y478711D1*
X2218640Y560711D2*
X2219640Y559711D1*
X2220640Y558711D1*
X2221640Y557711D1*
X2222640Y556711D1*
X2223640Y555711D1*
X2224640Y554711D1*
X2225640Y553711D1*
X2226640Y552711D1*
X2227640Y551711D1*
X2228640Y550711D1*
X2229640Y549711D1*
X2230640Y548711D1*
X2231640Y547711D1*
X2232640Y546711D1*
X2233640Y545711D1*
X2234640Y544711D1*
X2235640Y543711D1*
X2236640Y542711D1*
X2237640Y541711D1*
X2238640Y540711D1*
X2239640Y539711D1*
X2240640Y538711D1*
X2241640Y537711D1*
X2242637Y536711D1*
X2243597Y535711D1*
X2244431Y534711D1*
X2245025Y533711D1*
X2245363Y532711D1*
X2245526Y531711D1*
X2245596Y530711D1*
X2245624Y529711D1*
X2245635Y528711D1*
X2245638Y527711D1*
X2245640Y526711D1*
Y525711D1*
Y524711D1*
Y523711D1*
Y522711D1*
Y521711D1*
Y520711D1*
Y519711D1*
Y518711D1*
Y517711D1*
Y516711D1*
Y515711D1*
Y514711D1*
Y513711D1*
Y512711D1*
Y511711D1*
Y510711D1*
Y509711D1*
Y508711D1*
Y507711D1*
Y506711D1*
Y505711D1*
Y504711D1*
Y503711D1*
Y502711D1*
Y501711D1*
Y500711D1*
Y499711D1*
Y498711D1*
Y497711D1*
Y496711D1*
Y495711D1*
Y494711D1*
Y493711D1*
Y492711D1*
Y491711D1*
Y490711D1*
Y489711D1*
Y488711D1*
Y487711D1*
Y486711D1*
Y485711D1*
Y484711D1*
Y483711D1*
Y482711D1*
Y481711D1*
Y480711D1*
Y479711D1*
Y478711D1*
X2286640Y560711D2*
X2287640Y559711D1*
X2288640Y558711D1*
X2289640Y557711D1*
X2290640Y556711D1*
X2291640Y555711D1*
X2292640Y554711D1*
X2293640Y553711D1*
X2294640Y552711D1*
X2295640Y551711D1*
X2296640Y550711D1*
X2297640Y549711D1*
X2298640Y548711D1*
X2299640Y547711D1*
X2300640Y546711D1*
X2301640Y545711D1*
X2302640Y544711D1*
X2303640Y543711D1*
X2304640Y542711D1*
X2305640Y541711D1*
X2306640Y540711D1*
X2307640Y539711D1*
X2308640Y538711D1*
X2309640Y537711D1*
X2310637Y536711D1*
X2311597Y535711D1*
X2312431Y534711D1*
X2313025Y533711D1*
X2313363Y532711D1*
X2313526Y531711D1*
X2313596Y530711D1*
X2313624Y529711D1*
X2313635Y528711D1*
X2313638Y527711D1*
X2313640Y526711D1*
Y525711D1*
Y524711D1*
Y523711D1*
Y522711D1*
Y521711D1*
Y520711D1*
Y519711D1*
Y518711D1*
Y517711D1*
Y516711D1*
Y515711D1*
Y514711D1*
Y513711D1*
Y512711D1*
Y511711D1*
Y510711D1*
Y509711D1*
Y508711D1*
Y507711D1*
Y506711D1*
Y505711D1*
Y504711D1*
Y503711D1*
Y502711D1*
Y501711D1*
Y500711D1*
Y499711D1*
Y498711D1*
Y497711D1*
Y496711D1*
Y495711D1*
Y494711D1*
Y493711D1*
Y492711D1*
Y491711D1*
Y490711D1*
Y489711D1*
Y488711D1*
Y487711D1*
Y486711D1*
Y485711D1*
Y484711D1*
Y483711D1*
Y482711D1*
Y481711D1*
Y480711D1*
Y479711D1*
Y478711D1*
X2251640Y532711D2*
Y531711D1*
Y530711D1*
Y529711D1*
Y528711D1*
Y527711D1*
Y526711D1*
Y525711D1*
Y524711D1*
Y523711D1*
Y522711D1*
Y521711D1*
Y520711D1*
Y519711D1*
Y518711D1*
Y517711D1*
Y516711D1*
Y515711D1*
Y514711D1*
Y513711D1*
Y512711D1*
Y511711D1*
Y510711D1*
X2251644Y509711D1*
X2251683Y508711D1*
X2251850Y507711D1*
X2252256Y506711D1*
X2252918Y505711D1*
X2253755Y504711D1*
X2254685Y503711D1*
X2255657Y502711D1*
X2256646Y501711D1*
X2257642Y500711D1*
X2258641Y499711D1*
X2259641Y498711D1*
X2260640Y497711D1*
X2261640Y496711D1*
X2262640Y495711D1*
X2263640Y494711D1*
X2264640Y493711D1*
X2265640Y492711D1*
X2266640Y491711D1*
X2267640Y490711D1*
X2268640Y489711D1*
X2269640Y488711D1*
X2270640Y487711D1*
X2271640Y486711D1*
X2272640Y485711D1*
X2273640Y484711D1*
X2274640Y483711D1*
X2275640Y482711D1*
X2276640Y481711D1*
X2277640Y480711D1*
X2278640Y479711D1*
X2279640Y478711D1*
X2252640Y532711D2*
X2253640Y531711D1*
X2254640Y530711D1*
X2255640Y529711D1*
X2256640Y528711D1*
X2257640Y527711D1*
X2258640Y526711D1*
X2259640Y525711D1*
X2260640Y524711D1*
X2261640Y523711D1*
X2262640Y522711D1*
X2263640Y521711D1*
X2264640Y520711D1*
X2265640Y519711D1*
X2266640Y518711D1*
X2267640Y517711D1*
X2268640Y516711D1*
X2269640Y515711D1*
X2270640Y514711D1*
X2271640Y513711D1*
X2272640Y512711D1*
X2273640Y511711D1*
X2274640Y510711D1*
X2275664Y509711D1*
X2276892Y508711D1*
X2278820Y507711D1*
X2281871Y506711D1*
X2285640Y505711D1*
M02*
