G04 DipTrace 3.3.0.0*
G04 typhoon_panel.GBO*
%MOIN*%
G04 #@! TF.FileFunction,Legend,Bot*
G04 #@! TF.Part,Single*
%ADD55C,0.010807*%
%FSLAX26Y26*%
G04*
G70*
G90*
G75*
G01*
G04 BotSilk*
%LPD*%
X2318188Y570258D2*
D55*
Y516713D1*
X2321515Y506654D1*
X2324920Y503326D1*
X2331575Y499922D1*
X2338306D1*
X2344961Y503326D1*
X2348288Y506654D1*
X2351693Y516713D1*
Y523367D1*
X2296573Y570258D2*
Y499922D1*
X2256414D1*
X2184582Y553544D2*
X2187909Y560199D1*
X2194641Y566931D1*
X2201295Y570258D1*
X2214681D1*
X2221413Y566931D1*
X2228068Y560199D1*
X2231472Y553544D1*
X2234800Y543485D1*
Y526694D1*
X2231472Y516713D1*
X2228068Y509981D1*
X2221413Y503326D1*
X2214681Y499922D1*
X2201295D1*
X2194641Y503326D1*
X2187909Y509981D1*
X2184582Y516713D1*
X2129462Y570258D2*
Y516713D1*
X2132790Y506654D1*
X2136194Y503326D1*
X2142849Y499922D1*
X2149580D1*
X2156235Y503326D1*
X2159562Y506654D1*
X2162967Y516713D1*
Y523367D1*
X2107847Y570258D2*
Y499922D1*
X2067689D1*
X1995856Y553544D2*
X1999183Y560199D1*
X2005915Y566931D1*
X2012569Y570258D1*
X2025955D1*
X2032687Y566931D1*
X2039342Y560199D1*
X2042746Y553544D1*
X2046074Y543485D1*
Y526694D1*
X2042746Y516713D1*
X2039342Y509981D1*
X2032687Y503326D1*
X2025955Y499922D1*
X2012569D1*
X2005915Y503326D1*
X1999183Y509981D1*
X1995856Y516713D1*
X1940736Y570258D2*
Y516713D1*
X1944064Y506654D1*
X1947468Y503326D1*
X1954123Y499922D1*
X1960854D1*
X1967509Y503326D1*
X1970836Y506654D1*
X1974241Y516713D1*
Y523367D1*
X1919121Y570258D2*
Y499922D1*
X1878963D1*
X1807130Y553544D2*
X1810457Y560199D1*
X1817189Y566931D1*
X1823843Y570258D1*
X1837229D1*
X1843961Y566931D1*
X1850616Y560199D1*
X1854020Y553544D1*
X1857348Y543485D1*
Y526694D1*
X1854020Y516713D1*
X1850616Y509981D1*
X1843961Y503326D1*
X1837229Y499922D1*
X1823843D1*
X1817189Y503326D1*
X1810457Y509981D1*
X1807130Y516713D1*
X1752010Y570258D2*
Y516713D1*
X1755338Y506654D1*
X1758742Y503326D1*
X1765397Y499922D1*
X1772128D1*
X1778783Y503326D1*
X1782110Y506654D1*
X1785515Y516713D1*
Y523367D1*
X1730395Y570258D2*
Y499922D1*
X1690237D1*
X1618404Y553544D2*
X1621731Y560199D1*
X1628463Y566931D1*
X1635117Y570258D1*
X1648504D1*
X1655235Y566931D1*
X1661890Y560199D1*
X1665294Y553544D1*
X1668622Y543485D1*
Y526694D1*
X1665294Y516713D1*
X1661890Y509981D1*
X1655235Y503326D1*
X1648504Y499922D1*
X1635117D1*
X1628463Y503326D1*
X1621731Y509981D1*
X1618404Y516713D1*
M02*
